<svg xmlns="http://www.w3.org/2000/svg" xmlns:xlink="http://www.w3.org/1999/xlink" width="260" height="63.078" viewBox="0 0 260 63.078"><defs><linearGradient id="linear-gradient" x1="0.524" y1="-0.029" x2="0.491" y2="0.984" gradientUnits="objectBoundingBox"><stop offset="0" stop-color="#d6de23"></stop><stop offset="0.101" stop-color="#cfd922"></stop><stop offset="0.243" stop-color="#bccb22"></stop><stop offset="0.411" stop-color="#9eb421"></stop><stop offset="0.597" stop-color="#73951f"></stop><stop offset="0.799" stop-color="#3d6d1e"></stop><stop offset="1" stop-color="#00401c"></stop></linearGradient><linearGradient id="linear-gradient-2" x1="0.515" y1="-0.084" x2="0.493" y2="0.977" xlink:href="#linear-gradient"></linearGradient><linearGradient id="linear-gradient-3" x1="0.501" y1="0.001" x2="0.481" y2="1.074" xlink:href="#linear-gradient"></linearGradient></defs><g id="Group_1182" data-name="Group 1182" transform="translate(-106.481 -127.855)"><g id="Group_1179" data-name="Group 1179" transform="translate(180.893 141.977)"><path id="Path_1359" data-name="Path 1359" d="M380.3,209.2a11.424,11.424,0,0,1-1.814,1.1,16.54,16.54,0,0,1-3.241,1.223,14.919,14.919,0,0,1-4.24.489,16.891,16.891,0,0,1-6.34-1.284,13.846,13.846,0,0,1-4.729-3.282,14.417,14.417,0,0,1-2.956-4.77,16.082,16.082,0,0,1-1.019-5.749A18.222,18.222,0,0,1,357,190.649a14.349,14.349,0,0,1,2.976-4.933,13.388,13.388,0,0,1,4.627-3.221,15.1,15.1,0,0,1,5.953-1.141,16.1,16.1,0,0,1,5.341.815,18.491,18.491,0,0,1,3.792,1.753l-2.324,5.586a17,17,0,0,0-2.711-1.611,8.687,8.687,0,0,0-3.894-.835,7.847,7.847,0,0,0-3.282.713,8.56,8.56,0,0,0-2.772,2.018,9.808,9.808,0,0,0-1.9,3.037,10.06,10.06,0,0,0-.693,3.772,11.827,11.827,0,0,0,.632,3.955,8.794,8.794,0,0,0,1.814,3.078,8.019,8.019,0,0,0,2.834,1.978,9.548,9.548,0,0,0,3.73.693,9.936,9.936,0,0,0,4.118-.775,9.4,9.4,0,0,0,2.609-1.631Z" transform="translate(-355.965 -179.518)" fill="#404041"></path><path id="Path_1360" data-name="Path 1360" d="M458.486,239.514a10.019,10.019,0,0,1-4.505-1,7.426,7.426,0,0,1-3.2-3.078,12.1,12.1,0,0,1,.041-10.519,8.946,8.946,0,0,1,3.221-3.4,8.093,8.093,0,0,1,4.24-1.2,7.5,7.5,0,0,1,4.016.876,10.053,10.053,0,0,1,2.263,1.937l-.245.693.53-2.61h5.3v17.817h-5.708v-3.873l.448,1.223c-.055,0-.218.157-.489.469a9.3,9.3,0,0,1-1.2,1.1,7.806,7.806,0,0,1-1.957,1.1A7.343,7.343,0,0,1,458.486,239.514Zm1.631-4.648a5.193,5.193,0,0,0,1.835-.306,4.091,4.091,0,0,0,1.427-.9,5.4,5.4,0,0,0,1.06-1.488v-4.362a4.012,4.012,0,0,0-.979-1.529,4.565,4.565,0,0,0-1.549-.978,5.514,5.514,0,0,0-2-.347,4.28,4.28,0,0,0-2.263.632A4.607,4.607,0,0,0,456,227.324a5.455,5.455,0,0,0,.041,5.1,4.874,4.874,0,0,0,1.733,1.794A4.449,4.449,0,0,0,460.117,234.866Z" transform="translate(-421.671 -206.856)" fill="#404041"></path><path id="Path_1361" data-name="Path 1361" d="M543.313,221.208l.53,4.892-.123-.734a8.113,8.113,0,0,1,2.12-2.712,12.2,12.2,0,0,1,2.671-1.733,5.389,5.389,0,0,1,2.018-.611l-.285,5.708a5.091,5.091,0,0,0-3.425.652,6.13,6.13,0,0,0-2.2,2.365,6.388,6.388,0,0,0-.774,3.017v6.972h-5.667V221.208Z" transform="translate(-483.829 -206.856)" fill="#404041"></path><path id="Path_1362" data-name="Path 1362" d="M605.92,207.859a8.477,8.477,0,0,1-3.772-.755,9.144,9.144,0,0,1-2.67-1.977l.449-1.223v3.466h-5.708V175.2h5.667v15.575a8.823,8.823,0,0,1,2.813-1.508,12.093,12.093,0,0,1,4-.611,8.363,8.363,0,0,1,4.24,1.1,8.131,8.131,0,0,1,3.078,3.2,10.437,10.437,0,0,1,1.162,5.117,10.177,10.177,0,0,1-1.284,5.219,8.945,8.945,0,0,1-3.4,3.384A9.228,9.228,0,0,1,605.92,207.859Zm-1.264-4.811A4.453,4.453,0,0,0,607,202.4a4.88,4.88,0,0,0,1.733-1.794,5.085,5.085,0,0,0,.652-2.569,4.868,4.868,0,0,0-.652-2.528A4.82,4.82,0,0,0,607,193.773a4.565,4.565,0,0,0-2.344-.632,6.018,6.018,0,0,0-2.059.347,4.667,4.667,0,0,0-1.631.978,4.31,4.31,0,0,0-1.04,1.529v4.362a5.375,5.375,0,0,0,1.162,1.488,4.589,4.589,0,0,0,1.569.9A6.158,6.158,0,0,0,604.656,203.048Z" transform="translate(-523.156 -175.201)" fill="#404041"></path><path id="Path_1363" data-name="Path 1363" d="M674.867,229.988a9.4,9.4,0,0,1,1.284-4.892,9.088,9.088,0,0,1,3.608-3.4,11.148,11.148,0,0,1,5.341-1.243,10.762,10.762,0,0,1,5.3,1.243,8.658,8.658,0,0,1,3.445,3.4,9.9,9.9,0,0,1,1.2,4.892,10.009,10.009,0,0,1-1.2,4.913,8.747,8.747,0,0,1-3.445,3.445,10.8,10.8,0,0,1-5.382,1.264,11.648,11.648,0,0,1-5.239-1.142,8.556,8.556,0,0,1-3.608-3.3A9.828,9.828,0,0,1,674.867,229.988Zm5.749.041a5.437,5.437,0,0,0,.571,2.507,4.568,4.568,0,0,0,1.549,1.773,3.878,3.878,0,0,0,2.2.653,4.089,4.089,0,0,0,2.324-.653,4.275,4.275,0,0,0,1.508-1.773,6.242,6.242,0,0,0,0-5.035,4.311,4.311,0,0,0-1.508-1.753,4.1,4.1,0,0,0-2.324-.652,3.884,3.884,0,0,0-2.2.652,4.615,4.615,0,0,0-1.549,1.753A5.406,5.406,0,0,0,680.615,230.029Z" transform="translate(-579.749 -206.952)" fill="#404041"></path><path id="Path_1364" data-name="Path 1364" d="M757.566,175.2h5.708V207.37h-5.708Z" transform="translate(-637.782 -175.201)" fill="#8bc53f"></path><path id="Path_1365" data-name="Path 1365" d="M801.891,239.61a11.482,11.482,0,0,1-5.524-1.223A8.35,8.35,0,0,1,792.921,235a10.189,10.189,0,0,1-1.182-4.974,8.793,8.793,0,0,1,1.386-4.852,10.166,10.166,0,0,1,3.71-3.445,10.521,10.521,0,0,1,5.178-1.284,9.056,9.056,0,0,1,6.3,2.222,10.842,10.842,0,0,1,3.2,6.421l-13.862,4.4-1.264-3.1,10.03-3.384-1.182.53a4.264,4.264,0,0,0-1.162-1.855,3.516,3.516,0,0,0-2.508-.795,4.147,4.147,0,0,0-2.222.591,3.835,3.835,0,0,0-1.468,1.672,5.917,5.917,0,0,0-.51,2.548,5.775,5.775,0,0,0,.612,2.793,4.088,4.088,0,0,0,1.672,1.692,4.9,4.9,0,0,0,2.365.571,5.149,5.149,0,0,0,1.814-.326,9.71,9.71,0,0,0,1.733-.856l2.528,4.24a14.459,14.459,0,0,1-3.078,1.3A10.991,10.991,0,0,1,801.891,239.61Z" transform="translate(-661.763 -206.952)" fill="#8bc53f"></path><path id="Path_1366" data-name="Path 1366" d="M874.218,239.584a10.738,10.738,0,0,1-4.1-.775,9,9,0,0,1-3.2-2.161l2.365-3.14a9.73,9.73,0,0,0,2.426,1.692,4.642,4.642,0,0,0,3.262.367,1.989,1.989,0,0,0,.876-.448,1.041,1.041,0,0,0,.326-.8,1.3,1.3,0,0,0-.55-1.1,4.693,4.693,0,0,0-1.407-.673q-.856-.264-1.835-.55a6.671,6.671,0,0,1-3.527-2.263,5.4,5.4,0,0,1-1.08-3.241,5.816,5.816,0,0,1,.713-2.711,5.753,5.753,0,0,1,2.284-2.284,7.97,7.97,0,0,1,4.056-.917,13.831,13.831,0,0,1,3.792.448,9.328,9.328,0,0,1,2.936,1.468l-2.161,3.343a8.161,8.161,0,0,0-1.733-1.039,5,5,0,0,0-1.773-.469,2.93,2.93,0,0,0-1.243.163,2.035,2.035,0,0,0-.795.53,1.037,1.037,0,0,0-.285.693,1.326,1.326,0,0,0,.591,1.223,4.754,4.754,0,0,0,1.611.693q.978.245,1.916.571a7.523,7.523,0,0,1,2.242,1.1,4.936,4.936,0,0,1,1.447,1.651,4.851,4.851,0,0,1,.51,2.3,6.059,6.059,0,0,1-.836,3.078,6.142,6.142,0,0,1-2.528,2.344A9.141,9.141,0,0,1,874.218,239.584Z" transform="translate(-714.52 -207.048)" fill="#8bc53f"></path><path id="Path_1367" data-name="Path 1367" d="M935.318,239.584a10.735,10.735,0,0,1-4.1-.775,8.994,8.994,0,0,1-3.2-2.161l2.365-3.14a9.731,9.731,0,0,0,2.426,1.692,4.641,4.641,0,0,0,3.262.367,1.99,1.99,0,0,0,.877-.448,1.042,1.042,0,0,0,.326-.8,1.3,1.3,0,0,0-.55-1.1,4.7,4.7,0,0,0-1.407-.673q-.856-.264-1.835-.55a6.673,6.673,0,0,1-3.527-2.263,5.4,5.4,0,0,1-1.08-3.241,5.813,5.813,0,0,1,.714-2.711,5.754,5.754,0,0,1,2.283-2.284,7.971,7.971,0,0,1,4.057-.917,13.831,13.831,0,0,1,3.792.448,9.327,9.327,0,0,1,2.936,1.468l-2.161,3.343a8.153,8.153,0,0,0-1.733-1.039,5.007,5.007,0,0,0-1.773-.469,2.929,2.929,0,0,0-1.243.163,2.034,2.034,0,0,0-.8.53,1.037,1.037,0,0,0-.285.693,1.326,1.326,0,0,0,.591,1.223,4.751,4.751,0,0,0,1.61.693q.979.245,1.916.571a7.528,7.528,0,0,1,2.243,1.1,4.933,4.933,0,0,1,1.447,1.651,4.849,4.849,0,0,1,.51,2.3,6.059,6.059,0,0,1-.836,3.078,6.146,6.146,0,0,1-2.528,2.344A9.141,9.141,0,0,1,935.318,239.584Z" transform="translate(-757.396 -207.048)" fill="#8bc53f"></path></g><g id="Group_1181" data-name="Group 1181" transform="translate(106.481 127.855)"><path id="Path_1368" data-name="Path 1368" d="M130.151,192.064c-26.586-17.387-19.165-53.551-19.273-58.752-5.351,13-4.317,26.406-4.317,29.912a31.546,31.546,0,0,0,24.3,30.693C130.629,193.373,130.251,192.355,130.151,192.064Z" transform="translate(-106.481 -131.684)" fill="url(#linear-gradient)"></path><g id="Group_1180" data-name="Group 1180" transform="translate(5.863 0)"><path id="Path_1369" data-name="Path 1369" d="M216.828,145.1c1.492,20.829-27.838,35.273-21.967,53.568,8.087-6.552,20.383-18.066,23.942-29.888-1.807,7.706-6.851,21.364-20.843,34.215A31.536,31.536,0,0,0,216.828,145.1Z" transform="translate(-173.817 -139.955)" fill="url(#linear-gradient-2)"></path><path id="Path_1370" data-name="Path 1370" d="M151.893,127.855c-6.542,0-12.4,2.957-15.7,4.86-5.136-3.233-7.853-3.233-10.059-3.812,1.927,2.225,24.209,13.58,18.058,29.227-3.028,7.7-2.237,15.277-2.231,20.35-9.359-11.776-11.047-22.412-11.047-22.412-.233,11.469,7.54,23.221,12.162,29.047-1.281-26.984,24.384-41.742,24.948-52.821A31.385,31.385,0,0,0,151.893,127.855Z" transform="translate(-126.136 -127.855)" fill="url(#linear-gradient-3)"></path></g></g></g></svg>