<svg width="200" height="200" viewBox="0 0 200 200" fill="none" xmlns="http://www.w3.org/2000/svg">
<g clip-path="url(#clip0_2504_77941)">
<path d="M48.9676 102.428C50.3264 102.428 51.6234 102.383 52.915 102.44C54.3365 102.503 55.6454 102.864 56.5202 104.144C57.0117 104.863 57.2499 105.679 57.2759 106.502C57.3106 107.603 57.2315 108.72 57.0691 109.811C56.8244 111.45 55.2903 112.55 53.688 112.806C52.5458 112.989 51.4079 113.061 50.282 112.964C49.1203 112.865 47.9045 112.677 47.0243 111.797C46.4548 111.227 45.9936 110.547 45.8658 109.691C45.4025 106.574 45.7034 103.441 45.6926 100.318C45.6883 98.9785 46.2567 97.7107 47.3935 96.8511C48.0127 96.3823 48.7446 96.0813 49.5317 96.0499C50.5223 96.0098 51.5216 96.1062 52.5068 96.0239C53.819 95.9146 54.9298 96.3888 55.8576 97.1878C56.5592 97.7919 57.1124 98.6006 57.0875 99.6356C57.0789 99.9778 57.0994 100.322 57.0832 100.664C57.0605 101.124 56.8028 101.378 56.3448 101.406C56.0753 101.422 55.7981 101.374 55.5339 101.416C54.71 101.544 54.2726 101.072 54.0052 100.411C53.7508 99.7818 53.2679 99.5111 52.6595 99.4732C51.9049 99.4267 51.1427 99.4245 50.3881 99.4732C49.5555 99.5263 49.0326 100.133 48.9731 101.043C48.9449 101.473 48.9687 101.907 48.9687 102.43L48.9676 102.428ZM48.9676 105.849C48.9676 106.533 48.9676 107.127 48.9676 107.72C48.9676 107.81 48.9622 107.901 48.9698 107.989C49.0337 108.796 49.627 109.437 50.3686 109.459C51.107 109.48 51.854 109.528 52.5805 109.438C52.9821 109.388 53.4747 109.171 53.7097 108.863C54.1254 108.321 54.0853 107.59 53.9597 106.95C53.8472 106.376 53.4314 105.89 52.7991 105.864C51.5454 105.813 50.2874 105.849 48.9676 105.849V105.849Z" fill="black"/>
<path d="M65.6285 96.0401C66.7935 95.8323 67.8588 96.1982 68.8592 96.7071C69.7924 97.1823 70.4572 97.9759 70.9422 98.9038C71.6752 100.304 71.9361 101.809 71.9209 103.375C71.9101 104.498 72.0205 105.632 71.8928 106.74C71.7206 108.243 71.3504 109.726 70.3511 110.935C69.4741 111.997 68.3687 112.682 66.9494 112.781C66.4265 112.818 65.9035 113.002 65.3882 112.976C63.9429 112.901 62.5495 112.558 61.4333 111.586C60.9547 111.169 60.5845 110.594 60.2672 110.035C59.6231 108.894 59.3069 107.646 59.2972 106.333C59.2853 104.832 59.1694 103.317 59.3275 101.832C59.5289 99.9366 60.2467 98.199 61.8512 97.0156C62.6642 96.4158 63.6018 96.0293 64.6531 96.0391C64.9779 96.0423 65.3016 96.0391 65.6264 96.0391L65.6285 96.0401ZM65.6264 109.5C65.87 109.46 66.119 109.442 66.355 109.377C67.875 108.955 68.4564 107.445 68.5896 105.998C68.6838 104.975 68.6611 103.933 68.5928 102.905C68.5279 101.925 68.2377 100.958 67.5546 100.237C66.3907 99.0066 63.8281 99.0727 63.0399 101.183C62.2767 103.228 62.3026 105.318 62.8992 107.381C63.2456 108.577 64.0652 109.527 65.6253 109.5H65.6264Z" fill="black"/>
<path d="M37.8939 96.0402C38.3994 96.0402 38.9191 95.9622 39.4063 96.0553C40.5539 96.2751 41.681 96.5977 42.4399 97.5916C43.0375 98.3755 43.3255 99.3055 43.4262 100.259C43.5453 101.392 43.5258 102.574 42.887 103.558C42.4356 104.253 42.533 104.675 42.9921 105.314C43.6048 106.166 43.7207 107.217 43.5572 108.265C43.45 108.951 43.3493 109.643 43.1642 110.308C42.8405 111.467 42.0166 112.175 40.9047 112.554C39.5341 113.02 38.0963 113.15 36.6899 112.96C35.2825 112.768 33.9617 112.306 32.9418 111.124C32.0183 110.053 31.9533 108.864 32.0324 107.605C32.0573 107.208 32.3333 106.883 32.8032 106.87C33.1995 106.858 33.5979 106.854 33.9941 106.871C34.4478 106.891 34.9285 107.378 35.053 107.914C35.2673 108.839 36.0555 109.478 37.0104 109.461C37.778 109.447 38.5564 109.459 39.31 109.335C39.9271 109.233 40.3277 108.492 40.3179 107.753C40.3082 107.06 39.9314 106.41 39.3175 106.284C38.6095 106.139 37.8722 106.061 37.1512 106.083C36.3651 106.107 35.8823 105.723 35.9234 104.805C35.9462 104.281 36.0219 103.748 36.1724 103.247C36.2244 103.073 36.5611 102.903 36.7841 102.877C37.4759 102.798 38.1797 102.82 38.8715 102.742C39.3533 102.688 39.821 102.504 39.9108 101.934C39.9845 101.473 40.0895 100.984 40.005 100.54C39.913 100.049 39.5763 99.6519 39.0025 99.5642C38.118 99.43 37.2367 99.3195 36.3706 99.6638C35.8985 99.8511 35.5694 100.159 35.4167 100.669C35.3323 100.952 35.1731 101.228 34.9956 101.469C34.647 101.941 33.4355 102.148 32.8325 101.869C32.2781 101.613 32.0573 100.883 32.185 100.11C32.3896 98.8691 32.9061 97.8179 33.9454 97.099C34.4489 96.7504 35.0194 96.4429 35.6051 96.2816C36.3392 96.0802 37.1208 96.0488 37.8819 95.9438C37.8863 95.9763 37.8906 96.0088 37.8949 96.0413L37.8939 96.0402Z" fill="black"/>
<path d="M108.13 105.459C107.984 105.003 107.927 104.562 107.708 104.225C107.525 103.945 107.168 103.64 106.86 103.608C106.083 103.526 105.272 103.391 104.521 103.785C104.367 103.866 104.187 103.94 104.088 104.07C103.647 104.642 103.03 104.764 102.374 104.759C101.858 104.754 101.339 104.727 100.83 104.649C100.422 104.587 100.283 104.229 100.342 103.874C100.581 102.404 101.295 101.662 102.818 101.362C103.999 101.13 105.211 100.94 106.409 100.946C107.639 100.95 108.903 101.112 109.962 101.865C110.789 102.453 111.524 103.148 111.649 104.229C111.759 105.184 111.838 106.147 111.859 107.108C111.892 108.713 111.87 110.318 111.867 111.924C111.866 112.527 111.625 112.771 111.035 112.777C110.458 112.782 109.881 112.778 109.304 112.778C108.55 112.778 108.463 112.709 108.311 112.048C107.673 112.29 107.019 112.516 106.383 112.783C105.366 113.209 104.288 113.066 103.279 112.949C102.086 112.812 100.928 112.275 100.16 111.294C99.5653 110.535 99.4462 109.565 99.6226 108.6C99.9658 106.727 101.342 105.964 103.007 105.705C104.343 105.497 105.717 105.53 107.075 105.462C107.397 105.446 107.72 105.46 108.131 105.46L108.13 105.459ZM108.045 107.963C106.84 108.016 105.642 108.045 104.448 108.131C103.806 108.178 103.372 108.647 103.33 109.203C103.292 109.701 103.636 110.16 104.261 110.326C105.669 110.698 106.898 110.194 108.045 109.539V107.964V107.963Z" fill="black"/>
<path d="M90.47 108.229C90.4776 109.188 90.8446 109.854 91.6587 110.225C92.7219 110.711 94.2149 110.43 95.0973 109.678C95.3701 109.446 95.7826 109.311 96.1474 109.266C96.6985 109.198 97.2636 109.257 97.8223 109.245C98.3095 109.235 98.5336 109.448 98.5574 109.944C98.6213 111.298 97.6642 112.126 96.4506 112.554C94.7768 113.143 93.0045 113.188 91.3188 112.937C89.2618 112.631 87.5458 111.625 86.8691 109.385C86.3213 107.573 86.3288 105.803 87.064 104.079C87.6594 102.682 88.7562 101.797 90.2199 101.33C91.977 100.77 93.7331 100.789 95.4491 101.366C96.7808 101.814 97.7963 102.676 98.4188 104.021C98.9363 105.139 98.9363 106.293 98.9731 107.457C98.9894 107.976 98.5975 108.226 97.9035 108.228C95.9017 108.231 93.9009 108.229 91.8991 108.229C91.4314 108.229 90.9648 108.229 90.4689 108.229H90.47ZM95.0485 105.766C94.9089 104.172 94.229 103.464 92.7371 103.494C91.4401 103.52 90.5111 104.04 90.418 105.766H95.0485Z" fill="black"/>
<path d="M165.384 108.878C164.947 108.878 164.587 108.885 164.228 108.877C163.584 108.863 163.128 108.414 163.13 107.765C163.132 107.395 163.147 107.014 163.237 106.658C163.352 106.204 163.736 106.014 164.174 106.008C165.436 105.991 166.699 105.995 167.962 106.006C168.503 106.01 168.923 106.454 168.925 106.987C168.927 107.582 168.922 108.178 168.926 108.773C168.938 110.582 167.582 112.121 165.918 112.551C165.373 112.691 164.796 112.711 164.234 112.783C163.678 112.855 163.109 113.03 162.565 112.974C161.299 112.844 159.96 112.825 158.874 112.088C158.019 111.508 157.352 110.71 157.001 109.657C156.607 108.471 156.596 107.269 156.639 106.061C156.704 104.276 157.343 102.74 158.9 101.74C159.745 101.198 160.731 100.975 161.728 100.924C162.682 100.876 163.646 100.84 164.594 100.93C166.224 101.087 167.74 101.598 168.52 103.189C168.748 103.653 168.72 104.359 168.546 104.865C168.409 105.264 167.858 105.408 167.328 105.439C166.427 105.491 165.769 105.213 165.315 104.432C165.058 103.99 164.581 103.922 164.151 103.915C163.293 103.903 162.434 103.959 161.576 104.012C160.925 104.052 160.553 104.47 160.403 105.062C160.142 106.089 160.09 107.128 160.273 108.185C160.533 109.687 161.195 109.983 162.32 109.898C163.134 109.837 163.949 109.783 164.758 109.675C165.135 109.625 165.29 109.295 165.384 108.88V108.878Z" fill="black"/>
<path d="M127.492 102.329C128.622 101.416 129.85 100.867 131.242 100.93C132.43 100.985 133.61 101.234 134.53 102.087C135.149 102.661 135.549 103.39 135.739 104.216C136.175 106.125 135.971 108.067 136.01 109.996C136.023 110.627 136.018 111.258 136.01 111.889C136.001 112.47 135.692 112.774 135.123 112.775C134.419 112.777 133.717 112.778 133.013 112.775C132.477 112.771 132.125 112.634 132.142 111.948C132.191 109.965 132.177 107.981 132.147 105.997C132.14 105.549 132.032 105.076 131.857 104.663C131.524 103.882 130.691 103.516 129.776 103.691C128.912 103.857 128.239 104.386 127.595 104.936C127.479 105.035 127.465 105.295 127.464 105.48C127.456 107.607 127.46 109.736 127.458 111.863C127.458 112.58 127.259 112.774 126.529 112.775C125.862 112.776 125.194 112.776 124.527 112.775C123.838 112.773 123.609 112.545 123.607 111.831C123.602 110.045 123.606 108.26 123.606 106.475C123.606 105.068 123.603 103.662 123.606 102.255C123.607 101.42 123.896 101.132 124.728 101.128C125.251 101.125 125.777 101.165 126.296 101.119C127.212 101.035 127.447 101.441 127.489 102.328L127.492 102.329Z" fill="black"/>
<path d="M147.399 102.244C148.048 101.904 148.658 101.502 149.325 101.249C150.854 100.668 152.402 100.825 153.791 101.604C154.88 102.213 155.519 103.242 155.73 104.541C156.131 107.014 155.835 109.495 155.927 111.97C155.948 112.521 155.669 112.77 155.104 112.774C154.4 112.778 153.697 112.776 152.993 112.774C152.26 112.771 152.085 112.609 152.083 111.869C152.076 110.101 152.088 108.334 152.075 106.566C152.072 106.104 152.056 105.632 151.962 105.184C151.677 103.835 150.377 103.24 149.122 103.855C148.965 103.932 148.812 104.016 148.657 104.098C147.757 104.581 147.279 105.217 147.347 106.358C147.463 108.263 147.37 110.18 147.385 112.092C147.389 112.574 147.177 112.775 146.721 112.775C145.909 112.775 145.098 112.778 144.286 112.774C143.85 112.771 143.634 112.547 143.635 112.108C143.636 108.699 143.638 105.289 143.633 101.881C143.633 101.333 143.998 101.161 144.424 101.139C145.18 101.1 145.945 101.071 146.692 101.16C146.944 101.19 147.171 101.577 147.368 101.832C147.439 101.924 147.392 102.108 147.398 102.243L147.399 102.244Z" fill="black"/>
<path d="M78.1981 109.357C79.2937 109.357 80.3179 109.357 81.3421 109.357C82.6045 109.357 83.8668 109.354 85.1292 109.358C85.9314 109.361 86.3288 109.738 86.3104 110.534C86.2974 111.1 86.2519 111.669 86.1545 112.227C86.0852 112.625 85.7441 112.774 85.3598 112.775C82.1497 112.777 78.9397 112.78 75.7285 112.773C75.1883 112.771 74.8862 112.44 74.8862 111.898C74.8862 106.974 74.8851 102.05 74.8862 97.1271C74.8862 96.3736 75.2327 96.0412 75.9992 96.0412C76.2883 96.0412 76.5762 96.0412 76.8653 96.0412C77.7141 96.0412 78.1959 96.5187 78.1959 97.374C78.1981 101.125 78.1959 104.877 78.1959 108.628C78.1959 108.843 78.1959 109.057 78.1959 109.358L78.1981 109.357Z" fill="black"/>
<path d="M117.527 102.234C118.285 101.901 119.001 101.495 119.77 101.274C120.528 101.056 121.338 100.985 122.13 100.932C122.499 100.907 122.792 101.173 122.8 101.601C122.812 102.178 122.808 102.754 122.803 103.331C122.798 103.788 122.535 104.011 122.101 104.001C121.566 103.989 121.032 103.928 120.499 103.905C119.303 103.85 118.381 104.395 117.643 105.276C117.514 105.43 117.506 105.714 117.505 105.938C117.495 107.92 117.501 109.904 117.499 111.886C117.499 112.594 117.316 112.775 116.622 112.776C116.009 112.776 115.396 112.776 114.783 112.776C113.875 112.776 113.755 112.652 113.755 111.713C113.755 109.55 113.755 107.386 113.755 105.224C113.755 104.143 113.753 103.061 113.755 101.98C113.757 101.422 113.996 101.15 114.552 101.134C115.272 101.113 115.994 101.112 116.714 101.134C117.248 101.15 117.467 101.472 117.526 102.233L117.527 102.234Z" fill="black"/>
<path d="M141.641 107.149C141.641 108.771 141.644 110.393 141.641 112.015C141.641 112.596 141.46 112.773 140.871 112.776C140.204 112.779 139.537 112.776 138.871 112.776C138.052 112.776 137.899 112.626 137.899 111.819C137.899 109.476 137.899 107.134 137.899 104.791C137.899 103.926 137.917 103.061 137.892 102.196C137.877 101.679 138.157 101.474 138.599 101.46C139.392 101.435 140.185 101.432 140.977 101.462C141.39 101.478 141.655 101.682 141.65 102.176C141.632 103.833 141.642 105.491 141.642 107.149H141.641Z" fill="black"/>
<path d="M139.792 100.325C139.594 100.325 139.397 100.325 139.199 100.325C138.32 100.323 137.886 99.9605 137.789 99.1485C137.678 98.2022 138.122 97.4617 138.973 97.3664C139.565 97.3004 140.194 97.3296 140.775 97.4563C141.552 97.6252 141.919 98.343 141.736 99.2145C141.606 99.8327 141.347 100.421 140.385 100.327C140.189 100.309 139.989 100.324 139.792 100.324V100.325Z" fill="black"/>
</g>
<defs>
<clipPath id="clip0_2504_77941">
<rect width="162.398" height="40.816" fill="white" transform="translate(19 84)"/>
</clipPath>
</defs>
</svg>
