<svg width="48" height="49" viewBox="0 0 48 49" fill="none" xmlns="http://www.w3.org/2000/svg">
<g clip-path="url(#clip0_758_87827)">
<path d="M43.5221 26.8737C43.5858 26.2537 43.6185 25.6248 43.6185 24.9885C43.6185 20.4469 41.9561 16.2911 39.208 13.1002C39.0583 12.9265 38.8617 12.8026 38.6444 12.7415L38.3847 13.6656L38.6444 12.7415L37.7009 12.4764C37.8396 12.0696 37.7455 11.6009 37.4188 11.278L29.8078 3.75794L29.8078 3.75794L43.5221 26.8737ZM43.5221 26.8737C43.5302 26.874 43.5383 26.8743 43.5464 26.8747C43.6343 26.8766 43.7223 26.8885 43.8088 26.9107L43.5706 27.8405L43.8088 26.9107L45.9821 27.4674C46.9003 27.5897 47.3268 28.7367 46.6432 29.4285L39.1232 37.0395C38.8267 37.3396 38.4671 37.372 38.3285 37.3761C38.2418 37.3787 38.1683 37.3721 38.1168 37.3653C38.0901 37.3618 38.0667 37.3579 38.0474 37.3543C38.0389 37.3527 38.0311 37.3511 38.0239 37.3496C38.0229 37.3494 38.0219 37.3492 38.0209 37.349L37.5342 37.2518C37.8453 37.7216 37.7797 38.3715 37.328 38.7632C34.1309 41.5358 29.9565 43.2147 25.3923 43.2147C24.5622 43.2147 23.7447 43.1591 22.9432 43.0514V45.2924C22.9432 45.5537 22.8672 45.8381 22.6664 46.0778C22.4749 46.3063 22.2404 46.4099 22.0728 46.4567C21.9078 46.5028 21.7627 46.5071 21.6742 46.5048C21.6265 46.5036 21.5853 46.5002 21.5531 46.4965C21.5428 46.4954 21.5332 46.4942 21.5244 46.493C21.5193 46.4923 21.5144 46.4916 21.5098 46.4909L21.4924 46.4882L21.4848 46.487L21.4813 46.4864L21.4796 46.486L21.4787 46.4859C21.4783 46.4858 21.4779 46.4858 21.6461 45.5407L21.4779 46.4858L21.4554 46.4818L21.4332 46.4767L19.249 45.9799L19.2489 45.9799C19.1127 45.9489 18.9843 45.8938 18.8693 45.8181C18.7848 45.7689 18.7068 45.7091 18.6367 45.6399L18.6367 45.6399L11.0257 38.1199L11.7004 37.4371L11.0257 38.1199C10.6955 37.7936 10.603 37.3184 10.7481 36.9087L9.88593 36.7074C9.61813 36.6449 9.37399 36.4872 9.20736 36.2529C6.47985 33.0673 4.83145 28.9274 4.83145 24.4049C4.83145 23.7588 4.8651 23.1204 4.93079 22.4912H4.85098L4.73636 22.4626L2.40165 21.879L2.38435 21.8747L2.36722 21.8697C2.1019 21.7928 1.7339 21.5968 1.55731 21.175C1.35242 20.6855 1.5348 20.2151 1.81073 19.9358L9.33079 12.3248C9.45178 12.2024 9.59533 12.1114 9.74918 12.0539C9.97238 11.967 10.2235 11.9491 10.4673 12.014L10.9093 12.1316M10.9093 12.1316C10.6055 11.6627 10.6734 11.0191 11.1219 10.6302C14.3191 7.85761 18.4935 6.17873 23.0576 6.17873C23.8858 6.17873 24.7016 6.23403 25.5012 6.34124V3.99804C25.5012 3.22618 26.1873 2.76539 26.8197 2.85092C26.8669 2.85593 26.9135 2.8638 26.9593 2.87439L26.7434 3.80964L10.9093 12.1316ZM27.621 28.8449L29.8138 31.0642C29.8201 31.072 29.8265 31.0797 29.833 31.0873L29.527 30.9947C29.1439 30.8786 28.7281 30.9676 28.4272 31.231C28.4133 31.2409 28.3995 31.2512 28.3859 31.2618C26.9148 32.4067 25.0671 33.0882 23.0576 33.0882C23.0194 33.0882 22.9813 33.0879 22.9432 33.0874V30.5045C22.9432 30.0004 22.6171 29.5543 22.1369 29.4012L22.1369 29.4012L19.8286 28.6656C19.6118 28.5965 19.3877 28.5949 19.1819 28.6491C18.9799 28.6972 18.7909 28.8 18.6367 28.9524L18.0134 29.5682C17.1864 28.239 16.709 26.6704 16.709 24.9885C16.709 24.1192 16.8365 23.2812 17.0732 22.4912H20.0093C21.0375 22.4912 21.5557 21.2509 20.833 20.5194L18.6005 18.26L19.0324 18.3427L19.0332 18.3429L19.0349 18.3432L19.0386 18.344L19.0395 18.3441L19.047 18.3455L19.0676 18.3492C19.0829 18.3518 19.102 18.3548 19.1241 18.3577C19.1667 18.3632 19.2282 18.3695 19.3002 18.3708C19.3689 18.3721 19.4713 18.3693 19.5879 18.3462C19.6973 18.3244 19.883 18.2725 20.0641 18.1316C21.5352 16.9866 23.3828 16.3052 25.3923 16.3052C25.4287 16.3052 25.465 16.3054 25.5012 16.3059V19.0382C25.5012 19.5255 25.7907 19.9027 26.1535 20.0797C26.2503 20.1313 26.3551 20.1694 26.465 20.1921L28.8353 20.6813C29.2145 20.7596 29.6077 20.6431 29.8832 20.3709L30.4362 19.8246C31.2634 21.154 31.7409 22.7227 31.7409 24.4049C31.7409 25.2635 31.6165 26.0917 31.3853 26.8731H28.4447C27.4165 26.8731 26.8983 28.1135 27.621 28.8449Z" fill="#FDEEFC" stroke="#F7CAF5" stroke-width="1.91973"/>
<path d="M17.0286 22.8755H18.6647L20.8605 22.4879L21.7216 21.0672L19.7842 18.8714L20.8605 17.9242L25.1229 16.3743L25.3812 19.9478L28.6533 21.0672L30.4616 20.5505L30.9782 23.2629V26.492L27.577 26.8364L26.9742 28.3864L28.6533 30.6252L23.5729 32.821L23.0993 29.5919L20.3008 28.3864L18.062 28.6878L17.0286 22.8755Z" fill="#F7CAF5"/>
<path d="M16.6753 17.1608L16.7584 17.2967L16.9148 17.3266L19.1496 17.755L19.1498 17.755L19.1501 17.7551L19.1508 17.7552L19.1524 17.7555L19.1524 17.7555L19.1565 17.7563L19.1677 17.7583C19.1766 17.7598 19.1882 17.7616 19.202 17.7634C19.229 17.7669 19.2672 17.7708 19.311 17.7716C19.3536 17.7724 19.4103 17.7704 19.4713 17.7583C19.5296 17.7467 19.6155 17.7213 19.696 17.6587C21.2686 16.4347 23.2449 15.7059 25.3924 15.7059C26.4079 15.7059 27.3847 15.8688 28.2985 16.1698L26.2584 18.9604C25.982 19.3384 26.2251 19.8733 26.6917 19.9136L28.9916 20.1123C29.167 20.1275 29.3403 20.0649 29.4656 19.9411L31.6466 17.7862C31.6682 17.7723 31.6887 17.7559 31.7075 17.737L32.6335 16.811L32.635 16.8095L36.9976 12.4991C37.2189 12.2804 37.2189 11.9231 36.9976 11.7044L29.3866 4.18436C29.335 4.13344 29.2763 4.10542 29.2579 4.09664L29.2569 4.09618C29.2277 4.08226 29.1965 4.06979 29.1673 4.05897C29.1081 4.03705 29.0343 4.01345 28.9532 3.98928C28.7898 3.94056 28.5758 3.88327 28.3435 3.82395C27.8777 3.70503 27.3237 3.57415 26.9222 3.48103C26.4002 3.36001 26.0015 3.92715 26.2762 4.3775L28.2358 7.58994C27.31 7.43978 26.3602 7.36175 25.3924 7.36175C20.9779 7.36175 16.9417 8.98499 13.8494 11.6667C13.6168 11.8684 13.5966 12.2133 13.7856 12.4417L16.6753 17.1608Z" fill="#9E499B" stroke="#07503E" stroke-width="0.72097"/>
<path d="M38.2182 36.4096L35.9646 35.9596L38.2182 36.4096ZM38.2182 36.4096C38.1362 36.7606 38.1363 36.7606 38.1364 36.7606L38.1366 36.7607L38.1371 36.7608L38.1381 36.761L38.1402 36.7615L38.1447 36.7625M38.2182 36.4096L33.2106 31.8702M38.2182 36.4096C38.2182 36.4096 38.363 36.4434 38.4405 36.3649L45.9606 28.7539C46.0842 28.6288 45.9956 28.4166 45.8197 28.4166L38.2182 36.4096ZM33.2106 31.8702L32.643 31.3026C32.6278 31.2874 32.6142 31.2712 32.6022 31.2541L30.3822 29.0072C30.0336 28.6544 30.2835 28.0561 30.7795 28.0561H34.1563C34.4923 27.0963 34.6751 26.0641 34.6751 24.9885C34.6751 22.841 33.9463 20.8647 32.7223 19.2921C32.5659 19.0911 32.5631 18.8082 32.7183 18.6059L35.4806 12.9855C35.6084 12.7256 35.9035 12.5938 36.1824 12.6722L38.4701 13.3151C38.583 13.3468 38.6849 13.4111 38.7623 13.5011C41.4153 16.5861 43.0192 20.6005 43.0192 24.9885C43.0192 25.9655 42.9397 26.9243 42.7867 27.8585L42.8839 27.7998C43.0006 27.7292 43.1378 27.7005 43.273 27.7182L45.8484 28.0568C46.3252 28.0793 46.5588 28.6613 46.217 29.0072L38.6969 36.6182C38.5614 36.7555 38.3916 36.7746 38.3109 36.777C38.264 36.7784 38.2236 36.7748 38.195 36.771C38.1804 36.7691 38.1679 36.767 38.1581 36.7652L38.1476 36.7631L38.1452 36.7626L38.1447 36.7625M33.2106 31.8702L35.6517 36.1386L35.7331 36.281L35.894 36.3132L38.1447 36.7625M33.2106 31.8702L38.1447 36.7625" fill="#9E499B" stroke="#07503E" stroke-width="0.72097"/>
<path d="M31.8305 32.363L31.7666 32.2991L31.6801 32.2729L29.3795 31.5761C29.151 31.5069 28.9068 31.5799 28.7519 31.754C28.5217 32.0126 27.9288 32.6578 27.2495 33.2356C26.9096 33.5247 26.5565 33.7897 26.223 33.9806C25.8815 34.176 25.5995 34.271 25.3922 34.271C24.3237 34.271 23.2981 34.0906 22.3437 33.7589V30.5352C22.3437 30.2736 22.1745 30.0422 21.9253 29.9627L19.6905 29.2505C19.3541 29.1433 18.9982 29.348 18.9216 29.6927L18.15 33.166L13.7816 37.4823C13.5677 37.6936 13.5605 38.0344 13.76 38.2544L19.0527 45.1777C19.138 45.2893 19.2597 45.3675 19.3967 45.3987L21.566 45.8921L21.5743 45.894L21.5828 45.8955L21.6459 45.5406C21.5828 45.8955 21.5829 45.8955 21.5831 45.8955L21.5834 45.8956L21.5841 45.8957L21.5855 45.896L21.5888 45.8965L21.5971 45.8978C21.6034 45.8987 21.6111 45.8998 21.6201 45.9008C21.6379 45.9028 21.6616 45.9048 21.6894 45.9055C21.7424 45.9068 21.8232 45.9039 21.9115 45.8792C22.0008 45.8543 22.1152 45.802 22.2068 45.6926C22.302 45.5791 22.3437 45.4385 22.3437 45.2922V42.3524C23.3342 42.5251 24.3528 42.6151 25.3922 42.6151C29.8067 42.6151 33.8429 40.9919 36.9352 38.3102C37.1816 38.0966 37.1897 37.7222 36.9632 37.4958L31.8305 32.363Z" fill="#9E499B" stroke="#07503E" stroke-width="0.72097"/>
<path d="M12.8865 13.3296L12.8176 13.2599L12.7228 13.2346L10.3085 12.5919C10.0987 12.536 9.87502 12.5977 9.72352 12.7533L2.36525 20.3092C2.03274 20.6506 2.21112 21.2248 2.67858 21.3177L5.5097 21.8803C5.54826 21.8879 5.58749 21.8918 5.6268 21.8918H8.03671C7.85847 22.8974 7.76553 23.9322 7.76553 24.9884C7.76553 26.7096 7.79887 28.7213 8.04993 30.6479C8.30024 32.5686 8.77115 34.4418 9.66991 35.866C9.75538 36.0014 9.88952 36.0927 10.0387 36.1275L12.1772 36.6267C12.3938 36.7749 12.6927 36.7517 12.8849 36.5595L18.0176 31.4267C18.2207 31.2236 18.2338 30.905 18.0624 30.6848C16.8385 29.1122 16.1097 27.1359 16.1097 24.9884C16.1097 23.902 16.2962 22.8598 16.6386 21.8918H20.0092C20.5053 21.8918 20.7552 21.2935 20.4066 20.9406L12.8865 13.3296Z" fill="#9E499B" stroke="#07503E" stroke-width="0.72097"/>
<path d="M30.3002 16.5172L34.6629 12.2067C34.8842 11.988 34.8842 11.6307 34.6629 11.412L27.0519 3.89197C26.699 3.54334 26.1007 3.79329 26.1007 4.2893V7.33112C25.112 7.15903 24.0951 7.06937 23.0577 7.06937C18.6432 7.06937 14.607 8.69261 11.5147 11.3743C11.2683 11.5879 11.2602 11.9623 11.4866 12.1887L16.6194 17.3214C16.8225 17.5246 17.1411 17.5377 17.3613 17.3663C18.9339 16.1423 20.9102 15.4135 23.0577 15.4135C24.1241 15.4135 25.1478 15.5932 26.1007 15.9237V19.3294C26.1007 19.8254 26.699 20.0754 27.0519 19.7268L29.3119 17.4938C29.3335 17.4799 29.3539 17.4635 29.3728 17.4446L30.2987 16.5187L30.3002 16.5172Z" fill="#9E499B" stroke="#07503E" stroke-width="0.72097"/>
<path d="M30.9083 31.6105L30.9098 31.612L35.5675 36.3261C35.7862 36.5474 36.1436 36.5474 36.3622 36.3261L43.8823 28.7151C44.2309 28.3623 43.981 27.764 43.4849 27.764H40.4184C40.5933 26.7675 40.6845 25.7424 40.6845 24.6964C40.6845 20.2819 39.0612 16.2457 36.3796 13.1534C36.1659 12.907 35.7916 12.8989 35.5652 13.1253L30.4324 18.258C30.2293 18.4612 30.2162 18.7798 30.3876 19C31.6116 20.5726 32.3404 22.5489 32.3404 24.6964C32.3404 25.772 32.1576 26.8041 31.8216 27.764H28.4448C27.9488 27.764 27.6989 28.3623 28.0475 28.7151L30.2675 30.962C30.2795 30.979 30.2931 30.9953 30.3083 31.0105L30.9083 31.6105Z" fill="#FC8AF7" stroke="#07503E" stroke-width="0.72097"/>
<path d="M19.0583 29.4003L19.0512 29.4074L19.0444 29.4148L16.7863 31.9106C16.7712 31.9216 16.7567 31.934 16.7431 31.9476L15.8913 32.7994L15.8897 32.801L11.4473 37.1903C11.226 37.4089 11.226 37.7663 11.4473 37.9849L11.4473 37.985L11.4516 37.989L19.0609 45.2652C19.414 45.6101 20.0095 45.3601 20.0095 44.8653V42.0604C21 42.2331 22.0186 42.3231 23.058 42.3231C27.4724 42.3231 31.5087 40.6999 34.601 38.0182C34.8473 37.8046 34.8554 37.4302 34.629 37.2038L29.4963 32.071C29.2932 31.8679 28.9746 31.8548 28.7544 32.0262C27.1818 33.2502 25.2055 33.979 23.058 33.979C21.9895 33.979 20.9639 33.7986 20.0095 33.4669V29.7976C20.0095 29.3016 19.4112 29.0516 19.0583 29.4003Z" fill="#F7CAF5" stroke="#07503E" stroke-width="0.72097"/>
<path d="M2.80281 21.2993L5.70499 21.5827C5.5248 22.5936 5.43082 23.6341 5.43082 24.6962C5.43082 29.1107 7.05406 33.1469 9.73573 36.2392C9.94937 36.4856 10.3237 36.4937 10.5502 36.2672L15.6829 31.1345C15.886 30.9314 15.8991 30.6128 15.7277 30.3926C14.5037 28.82 13.7749 26.8437 13.7749 24.6962C13.7749 23.6098 13.9614 22.5676 14.3039 21.5996H17.6745C18.1706 21.5996 18.4205 21.0013 18.0719 20.6484L10.5518 13.0374C10.3335 12.8165 9.97705 12.8161 9.75829 13.0363L2.42872 20.3467L2.42871 20.3467L2.42686 20.3485C2.08328 20.6963 2.32107 21.2824 2.80281 21.2993Z" fill="#FDEEFC" stroke="#07503E" stroke-width="0.72097"/>
<path d="M34.7441 11.5376L37.0683 12.1057M34.793 37.6951L37.0697 37.9021M15.7883 30.4933H17.8027M18.2503 21.1622L20.4369 21.5061M14.2153 21.6203L16.6659 21.8204M20.0388 42.27L22.2166 42.5273" stroke="#07503E" stroke-width="0.72097"/>
<path d="M10.6018 12.7389L12.6069 13.1228L20.4995 21.2927L18.3063 21.0867L10.6018 12.7389Z" fill="#07503E"/>
<path d="M28.392 18.093L29.8425 19.4795L30.5038 18.9462L30.2051 18.3276L35.7086 12.8029H36.4125L37.0951 12.0989L34.9193 11.5657L28.392 18.093Z" fill="#07503E"/>
<path d="M29.4033 31.7597L31.6869 32.2013L37.0918 37.9055L34.8989 37.5445L29.4033 31.7597Z" fill="#07503E"/>
<path d="M10.145 36.5399L11.897 36.7019L17.76 30.5408H15.9182L10.145 36.5399Z" fill="#07503E"/>
</g>
<defs>
<clipPath id="clip0_758_87827">
<rect width="47.9992" height="48" fill="white" transform="translate(0 0.639648)"/>
</clipPath>
</defs>
</svg>
