<svg width="200" height="200" viewBox="0 0 200 200" fill="none" xmlns="http://www.w3.org/2000/svg">
<g clip-path="url(#clip0_2504_78030)">
<path d="M108.487 57.0001C110.309 57.0001 112.131 57.0001 113.953 57.0001C113.992 57.0195 114.028 57.0517 114.068 57.0564C114.503 57.1057 114.94 57.1407 115.374 57.1993C116.104 57.298 116.838 57.3856 117.561 57.5244C118.405 57.6866 119.246 57.8729 120.076 58.0948C121.63 58.5102 123.143 59.0522 124.618 59.6935C125.232 59.9602 125.844 60.2329 126.443 60.5299C127.236 60.9229 128.027 61.3202 128.796 61.7565C129.532 62.174 130.249 62.6274 130.954 63.0954C131.64 63.5509 132.317 64.0247 132.968 64.5282C133.656 65.0602 134.316 65.6294 134.977 66.1955C135.715 66.8266 136.404 67.5094 137.066 68.2188C137.686 68.8831 138.266 69.5798 138.811 70.3078C139.512 71.2436 140.138 72.2262 140.659 73.27C141.005 73.962 141.306 74.6784 141.584 75.4008C141.784 75.9224 141.915 76.4706 142.072 77.0083C142.151 77.2773 142.226 77.5477 142.288 77.8209C142.348 78.088 142.393 78.3586 142.439 78.6288C142.486 78.9066 142.531 79.1851 142.568 79.4645C142.597 79.6839 142.609 79.9056 142.637 80.125C142.671 80.3827 142.729 80.6378 142.75 80.8961C142.78 81.271 142.801 81.648 142.798 82.024C142.791 83.0564 142.775 84.0888 142.751 85.1208C142.745 85.3803 142.698 85.6389 142.671 85.8981C142.655 86.058 142.651 86.2197 142.627 86.3784C142.571 86.7477 142.502 87.115 142.449 87.4845C142.384 87.928 142.333 88.3724 142.222 88.8091C142.123 89.1986 142.069 89.5992 141.982 89.9919C141.879 90.4581 141.765 90.9219 141.649 91.3848C141.598 91.5903 141.584 91.7903 141.65 91.9946C141.713 92.1886 141.777 92.383 141.825 92.5808C141.921 92.971 142.006 93.3637 142.096 93.7555C142.161 94.0437 142.233 94.331 142.288 94.6213C142.338 94.8834 142.364 95.1498 142.41 95.4128C142.479 95.8097 142.568 96.2036 142.627 96.6018C142.684 96.9867 142.714 97.3755 142.758 97.7624C142.808 98.2107 142.872 98.6581 142.906 99.1078C142.939 99.5529 142.941 100 142.961 100.446C142.964 100.527 142.986 100.606 143 100.686V104.161C142.986 104.242 142.965 104.323 142.961 104.405C142.951 104.613 142.957 104.822 142.942 105.029C142.924 105.288 142.891 105.546 142.864 105.805C142.839 106.041 142.814 106.277 142.788 106.513C142.773 106.65 142.764 106.787 142.741 106.923C142.711 107.095 142.665 107.264 142.633 107.436C142.59 107.676 142.567 107.92 142.512 108.157C142.422 108.548 142.319 108.936 142.212 109.322C142.086 109.776 141.975 110.237 141.813 110.678C141.575 111.325 141.31 111.964 141.033 112.596C140.841 113.035 140.619 113.462 140.395 113.887C139.977 114.682 139.493 115.439 138.961 116.16C138.49 116.797 137.997 117.418 137.487 118.023C136.867 118.758 136.203 119.454 135.487 120.098C135.075 120.469 134.67 120.849 134.242 121.201C133.26 122.009 132.236 122.762 131.173 123.461C131.024 123.559 130.918 123.667 130.871 123.841C130.832 123.987 130.776 124.128 130.724 124.271C130.494 124.897 130.269 125.525 130.031 126.149C129.724 126.95 129.413 127.75 129.09 128.546C128.874 129.08 128.644 129.609 128.406 130.135C128.108 130.794 127.799 131.45 127.487 132.103C126.851 133.432 126.143 134.723 125.369 135.976C125.022 136.535 124.671 137.093 124.293 137.631C123.636 138.566 122.959 139.487 122.288 140.412C122.035 140.759 121.796 141.119 121.517 141.444C120.77 142.317 119.946 143.115 119.079 143.868C117.827 144.957 116.479 145.914 115.053 146.761C114.072 147.343 113.059 147.863 112.006 148.303C111.133 148.667 110.242 148.987 109.326 149.226C108.755 149.375 108.182 149.525 107.602 149.633C106.999 149.744 106.386 149.802 105.778 149.889C105.675 149.904 105.576 149.948 105.476 149.978H101.214C101.166 149.958 101.12 149.927 101.071 149.92C100.637 149.861 100.202 149.812 99.7689 149.749C99.2374 149.671 98.7042 149.599 98.1778 149.493C97.6137 149.38 97.0525 149.247 96.4976 149.095C95.8018 148.904 95.1058 148.709 94.4246 148.472C93.6774 148.213 92.9379 147.927 92.212 147.613C91.3652 147.246 90.5232 146.863 89.7039 146.44C88.6523 145.896 87.6233 145.308 86.5897 144.73C86.4498 144.652 86.3187 144.643 86.1708 144.656C85.7121 144.699 85.2533 144.765 84.7939 144.77C84.2406 144.775 83.6862 144.736 83.1336 144.697C82.6123 144.661 82.0914 144.611 81.5731 144.546C80.7263 144.439 79.8931 144.258 79.0658 144.049C78.0658 143.796 77.0908 143.47 76.1367 143.079C74.8636 142.557 73.6648 141.897 72.5311 141.121C71.6912 140.546 70.9088 139.896 70.1732 139.192C69.1023 138.167 68.1426 137.044 67.2641 135.852C66.3044 134.55 65.4911 133.157 64.7738 131.71C64.493 131.143 64.2414 130.561 63.9912 129.98C63.7773 129.483 63.5753 128.98 63.3858 128.473C63.2391 128.081 63.1179 127.679 62.9882 127.281C62.8088 126.73 62.6226 126.182 62.4567 125.627C62.319 125.167 62.2053 124.7 62.0827 124.235C61.9736 123.822 61.8582 123.409 61.7611 122.993C61.6349 122.45 61.5264 121.903 61.4057 121.359C61.3105 120.929 61.1986 120.503 61.1129 120.072C61.0255 119.632 60.9845 119.185 60.8849 118.747C60.8177 118.451 60.7975 118.143 60.7713 117.84C60.7452 117.534 60.7377 117.227 60.7222 116.921C60.7204 116.882 60.7294 116.838 60.7139 116.806C60.6149 116.601 60.6474 116.382 60.646 116.168C60.643 115.689 60.6448 115.211 60.6453 114.732C60.6453 114.64 60.6265 114.539 60.6546 114.456C60.7095 114.293 60.6346 114.182 60.5545 114.056C60.1884 113.481 59.8228 112.906 59.4697 112.324C59.2519 111.964 59.0608 111.589 58.8501 111.225C58.4755 110.577 58.1528 109.904 57.8606 109.217C57.6428 108.705 57.4366 108.186 57.2478 107.663C57.0543 107.126 56.8771 106.583 56.7142 106.037C56.6055 105.672 56.5318 105.297 56.4468 104.925C56.3771 104.62 56.3015 104.316 56.2506 104.008C56.1982 103.691 56.1736 103.369 56.1349 103.05C56.1111 102.852 56.0837 102.655 56.0569 102.458C56.0404 102.338 56.0071 102.218 56.0064 102.098C56.0017 101.302 55.9941 100.507 56.0077 99.7118C56.0161 99.2218 55.9788 98.7341 56.0752 98.2404C56.1741 97.733 56.2003 97.21 56.3182 96.7024C56.4026 96.3386 56.4628 95.9689 56.558 95.6081C56.6993 95.0717 56.8588 94.54 57.0163 94.008C57.2114 93.3496 57.4475 92.705 57.7188 92.0748C58.0165 91.3825 58.3251 90.6946 58.6405 90.01C59.0524 89.1152 59.5325 88.2563 60.0318 87.4074C60.7961 86.108 61.6564 84.8759 62.5871 83.6913C63.2581 82.8375 63.9747 82.0242 64.7134 81.2293C64.7683 81.1702 64.8188 81.0928 64.8364 81.0159C64.8853 80.8011 64.9135 80.5817 64.9538 80.3648C65.0108 80.059 65.0597 79.7509 65.1329 79.4487C65.2597 78.926 65.4103 78.4094 65.5366 77.8864C65.6663 77.3487 65.8315 76.8223 66.0043 76.2973C66.2105 75.671 66.4434 75.0554 66.6913 74.4442C66.9791 73.7347 67.3106 73.0473 67.6658 72.371C68.2772 71.206 68.9913 70.1069 69.7988 69.0678C70.571 68.074 71.4252 67.157 72.3845 66.344C73.3024 65.5657 74.2894 64.8795 75.3339 64.2803C76.6376 63.5324 78.0025 62.9163 79.4124 62.396C80.465 62.0074 81.5342 61.6749 82.6253 61.4161C83.1549 61.2903 83.6906 61.1881 84.2258 61.0871C84.6329 61.0104 85.0427 60.946 85.4531 60.8879C85.8333 60.8339 86.2149 60.7855 86.5974 60.753C87.0647 60.7136 87.5337 60.6877 88.0024 60.6664C88.7408 60.633 89.4796 60.5862 90.2183 60.585C91.5294 60.583 92.8406 60.6133 94.1519 60.623C94.2785 60.624 94.4121 60.5938 94.5308 60.548C95.376 60.2211 96.2122 59.8698 97.0629 59.558C98.4049 59.0663 99.7654 58.6282 101.152 58.2772C101.845 58.1018 102.541 57.9382 103.239 57.7876C103.847 57.6567 104.459 57.548 105.071 57.4363C105.328 57.3893 105.587 57.3557 105.847 57.3235C106.236 57.2753 106.625 57.2311 107.015 57.1898C107.359 57.1534 107.704 57.1277 108.047 57.0881C108.195 57.071 108.341 57.0302 108.488 57.0003L108.487 57.0001ZM91.8186 97.9744V108.092H94.7203C94.7203 107.995 94.7203 107.912 94.7203 107.829C94.7203 106.533 94.7154 105.236 94.7224 103.939C94.7258 103.307 94.7488 102.676 94.7678 102.044C94.7791 101.665 94.8517 101.294 94.9733 100.937C95.0421 100.734 95.1302 100.532 95.246 100.353C95.6505 99.7295 96.2017 99.6407 96.84 99.7302C97.0951 99.7658 97.3238 99.8722 97.5256 100.041C97.8917 100.348 98.0393 100.763 98.113 101.21C98.1994 101.736 98.207 102.268 98.2084 102.799C98.2128 104.513 98.2098 106.227 98.2105 107.94C98.2105 107.991 98.2186 108.042 98.2228 108.091C98.7066 108.138 100.957 108.117 101.129 108.061C101.129 107.973 101.128 107.88 101.129 107.788C101.139 105.929 101.149 104.07 101.16 102.21C101.162 101.728 101.254 101.261 101.418 100.811C101.538 100.481 101.718 100.184 102.007 99.97C102.395 99.6831 102.835 99.6595 103.289 99.7378C103.673 99.8041 103.975 100.009 104.194 100.327C104.363 100.571 104.472 100.85 104.501 101.142C104.552 101.647 104.595 102.154 104.599 102.661C104.61 104.382 104.603 106.104 104.604 107.825C104.604 107.914 104.61 108.003 104.613 108.092H107.542C107.546 108.018 107.553 107.958 107.552 107.898C107.543 105.591 107.535 103.284 107.518 100.977C107.516 100.695 107.481 100.409 107.427 100.131C107.202 98.9595 106.489 98.2204 105.365 97.869C104.87 97.7142 104.359 97.6848 103.839 97.7096C103.332 97.7339 102.848 97.8298 102.387 98.0427C102.161 98.147 101.955 98.2691 101.806 98.4818C101.567 98.8224 101.311 99.1512 101.061 99.4836C101.021 99.5367 100.973 99.5842 100.914 99.6514C100.871 99.5742 100.836 99.5242 100.812 99.4697C100.414 98.5694 99.7054 98.0499 98.7707 97.8175C98.3215 97.7059 97.8634 97.6878 97.3993 97.7093C96.8025 97.7371 96.242 97.8766 95.7251 98.1741C95.6234 98.2325 95.5307 98.3273 95.4666 98.4262C95.2611 98.7429 95.072 99.0703 94.8732 99.3914C94.8498 99.4292 94.8053 99.4537 94.7706 99.4843L94.7201 99.4663V97.9746H91.8188L91.8186 97.9744ZM71.3004 106.847C71.3212 106.841 71.3421 106.835 71.3629 106.828C71.3912 106.859 71.4246 106.886 71.4466 106.921C71.5791 107.129 71.7253 107.331 71.8358 107.55C71.9755 107.828 72.1998 107.97 72.4825 108.062C73.4143 108.364 74.3613 108.465 75.3283 108.282C76.8258 107.999 77.9066 107.156 78.585 105.803C78.9328 105.108 79.1061 104.364 79.1777 103.588C79.2486 102.821 79.2215 102.065 79.0602 101.315C78.8568 100.37 78.4534 99.5267 77.7493 98.8414C76.8969 98.0117 75.8457 97.7123 74.6947 97.688C74.3891 97.6815 74.0802 97.7207 73.7767 97.7642C73.2561 97.8391 72.7461 97.9619 72.2925 98.2443C72.1984 98.3029 72.1129 98.388 72.048 98.4785C71.8414 98.7665 71.6472 99.0636 71.4456 99.3555C71.4222 99.3893 71.384 99.4132 71.3469 99.4468C71.2663 99.3546 71.2964 99.2582 71.2964 99.1711C71.2943 97.5731 71.295 95.9751 71.2946 94.3774C71.2946 94.2884 71.2899 94.1994 71.2874 94.1144C70.7672 94.0722 68.5455 94.0901 68.3532 94.1408V108.105H71.3004V106.847V106.847ZM83.2392 103.783H83.4948C83.7958 103.783 84.0967 103.783 84.3979 103.783C86.3122 103.783 88.2262 103.783 90.1404 103.783C90.3946 103.783 90.4027 103.782 90.4122 103.531C90.4317 103.015 90.4539 102.5 90.3818 101.984C90.2424 100.987 89.8918 100.081 89.2394 99.3038C88.7537 98.7255 88.1576 98.302 87.4505 98.0339C86.7573 97.7714 86.0418 97.6792 85.3022 97.7091C84.8845 97.726 84.4732 97.7712 84.0692 97.8711C83.1007 98.1104 82.2659 98.5872 81.6014 99.334C80.6473 100.406 80.2798 101.699 80.274 103.103C80.2713 103.748 80.354 104.389 80.5396 105.016C80.9554 106.419 81.8113 107.425 83.1737 107.979C84.0541 108.337 84.9725 108.422 85.9157 108.344C86.4185 108.303 86.9062 108.211 87.3826 108.05C88.0286 107.831 88.6022 107.488 89.0832 107.008C89.5814 106.511 89.9354 105.918 90.1467 105.244C90.1847 105.123 90.2136 104.999 90.25 104.864H87.3587C87.3427 104.922 87.3316 104.966 87.3184 105.01C87.1159 105.683 86.6889 106.124 85.9992 106.302C85.6264 106.398 85.2513 106.405 84.8789 106.328C84.3736 106.223 83.9739 105.955 83.6996 105.508C83.5242 105.221 83.4102 104.913 83.3421 104.587C83.2891 104.334 83.2205 104.081 83.2392 103.783V103.783ZM115.069 101.93C114.956 101.93 114.865 101.931 114.775 101.93C114.112 101.921 113.451 101.94 112.793 102.031C112.049 102.133 111.324 102.301 110.649 102.64C110.066 102.933 109.571 103.326 109.242 103.903C108.946 104.42 108.84 104.978 108.863 105.568C108.882 106.063 109.003 106.527 109.262 106.949C109.718 107.69 110.405 108.095 111.237 108.28C111.707 108.384 112.181 108.385 112.66 108.343C113.267 108.289 113.837 108.126 114.379 107.851C114.536 107.77 114.648 107.667 114.705 107.487C114.778 107.261 114.885 107.045 114.98 106.826C115.003 106.773 115.035 106.725 115.09 106.627C115.225 107.142 115.238 107.625 115.331 108.093H118.185C118.162 107.905 118.138 107.732 118.12 107.558C118.04 106.785 117.993 106.009 117.992 105.231C117.99 104.02 118.001 102.808 117.987 101.596C117.982 101.167 117.947 100.734 117.877 100.311C117.776 99.707 117.526 99.1627 117.078 98.7278C116.605 98.2679 116.025 98.0098 115.39 97.8678C114.758 97.7262 114.117 97.6876 113.468 97.7086C112.964 97.7249 112.472 97.792 111.989 97.9334C111.074 98.2017 110.302 98.6755 109.765 99.4876C109.411 100.023 109.258 100.616 109.224 101.266H112.017C112.031 101.218 112.049 101.168 112.06 101.117C112.09 100.982 112.103 100.842 112.148 100.713C112.335 100.165 112.698 99.8057 113.284 99.722C113.598 99.6773 113.913 99.6898 114.22 99.7983C114.613 99.9368 114.878 100.202 114.995 100.595C115.123 101.022 115.067 101.463 115.07 101.929L115.069 101.93ZM122.902 108.099C122.902 108.006 122.901 107.938 122.902 107.87C122.912 106.335 122.92 104.801 122.934 103.266C122.938 102.771 123.019 102.285 123.175 101.816C123.441 101.017 123.958 100.463 124.791 100.245C125.195 100.14 125.61 100.108 126.027 100.122C126.109 100.125 126.191 100.123 126.275 100.123V97.761C126.034 97.735 125.8 97.6834 125.567 97.6903C125.116 97.704 124.684 97.8215 124.291 98.0504C123.989 98.2267 123.725 98.4389 123.571 98.7749C123.424 99.0962 123.24 99.4009 123.069 99.7114C123.04 99.7658 123.022 99.8421 122.901 99.846V97.9762H119.991C119.946 98.2937 119.96 107.931 120.006 108.099H122.902H122.902ZM127.604 97.9742C127.558 98.3136 127.573 107.923 127.616 108.085C127.923 108.131 130.359 108.115 130.514 108.066V97.9742H127.604H127.604ZM129.062 96.9881C129.773 97.005 130.466 96.6537 130.613 95.7735C130.724 95.1084 130.428 94.3259 129.613 94.0963C129.371 94.0282 129.127 94.006 128.882 94.0259C128.304 94.0729 127.846 94.3157 127.612 94.8753C127.456 95.2501 127.449 95.6357 127.573 96.0249C127.667 96.3222 127.833 96.565 128.094 96.7362C128.388 96.9283 128.716 96.9964 129.062 96.9883V96.9881Z" fill="black"/>
<path d="M76.2102 103.028C76.2158 103.574 76.1356 104.106 75.9639 104.62C75.761 105.229 75.4264 105.743 74.8546 106.073C73.9887 106.573 72.7561 106.465 72.0467 105.693C71.6869 105.302 71.4841 104.829 71.3938 104.313C71.2939 103.743 71.2798 103.169 71.3192 102.589C71.3502 102.133 71.4021 101.687 71.5523 101.255C71.9007 100.252 72.6632 99.7151 73.7184 99.7035C74.643 99.6933 75.283 100.141 75.7243 100.913C75.9635 101.332 76.0978 101.789 76.1453 102.27C76.1704 102.522 76.1889 102.775 76.2102 103.028V103.028Z" fill="black"/>
<path d="M83.3027 101.899C83.3836 101.427 83.5069 100.984 83.7599 100.59C84.1271 100.02 84.6447 99.7109 85.337 99.7035C85.7408 99.6991 86.1183 99.7642 86.4528 100.004C86.7019 100.183 86.8926 100.412 87.0353 100.681C87.2137 101.018 87.3052 101.382 87.3641 101.756C87.3722 101.808 87.3652 101.861 87.3652 101.911C87.1345 101.964 83.4923 101.957 83.3027 101.899Z" fill="black"/>
<path d="M115.078 103.644C115.048 104.189 115.142 104.704 114.956 105.207C114.664 105.997 113.859 106.488 113.016 106.355C112.718 106.308 112.443 106.228 112.225 106.018C111.866 105.673 111.817 105.246 111.933 104.784C112.017 104.452 112.236 104.215 112.512 104.034C112.894 103.784 113.33 103.69 113.778 103.646C113.961 103.628 114.146 103.615 114.33 103.616C114.567 103.616 114.804 103.633 115.078 103.644V103.644Z" fill="black"/>
</g>
<defs>
<clipPath id="clip0_2504_78030">
<rect width="87" height="92.9781" fill="white" transform="translate(56 57)"/>
</clipPath>
</defs>
</svg>
