<svg width="48" height="48" viewBox="0 0 48 48" fill="none" xmlns="http://www.w3.org/2000/svg">
<path d="M27.9709 27.0749L27.7545 22.5417C28.3173 22.5583 29.0837 22.6536 29.9443 22.8702C31.1382 23.1706 32.4681 23.6935 33.6408 24.5172C33.7792 24.6145 33.9522 24.6488 34.1172 24.6117C34.2822 24.5746 34.4239 24.4695 34.5074 24.3224L36.6126 20.6136C38.2666 21.8161 39.6149 23.294 40.793 25.0951C40.8858 25.2371 41.0344 25.3331 41.2019 25.3594C41.3695 25.3857 41.5404 25.3399 41.6723 25.2333L46.032 21.7093C46.2756 21.5124 46.3268 21.1613 46.1495 20.9031C45.4342 19.861 44.4628 18.6418 43.5783 17.7326C38.3948 10.2188 28.7632 6.16725 19.2134 8.68468C7.22644 11.8053 -0.123527 24.3339 3.17866 36.432C3.20035 36.5115 3.23819 36.5857 3.28981 36.6499L5.81876 39.7965C5.96781 39.9819 6.21236 40.0618 6.44214 40L21.5167 35.9488C21.8359 35.863 22.0256 35.5352 21.941 35.2157C21.6572 34.145 21.3965 31.6495 22.9971 29.7991C24.5582 27.9943 26.5978 27.7388 27.3984 27.7029C27.5577 27.6958 27.7075 27.6255 27.815 27.5077C27.9224 27.3899 27.9785 27.2342 27.9709 27.0749Z" fill="#BBCAF2" stroke="#BBCAF2" stroke-width="1.19998" stroke-linejoin="round"/>
<path d="M45.1663 21.1815L41.3548 24.2237C37.4923 18.3187 30.1446 15.2766 22.9577 17.2023C14.0069 19.6007 8.69298 28.7969 11.0822 37.748L11.1973 37.7171L11.1981 37.7204L6.44505 38.994C3.36941 27.4669 10.2129 15.6246 21.7396 12.536C30.8328 10.0995 40.1259 13.8382 45.1663 21.1815Z" fill="#3A559D" stroke="#07503E" stroke-width="0.479992" stroke-linejoin="round"/>
<path d="M33.8651 23.5121C31.1315 21.7063 27.6666 21.0349 24.2531 21.9495C17.9288 23.6441 14.1742 30.1419 15.8624 36.4664L15.873 36.4636L15.8731 36.4641L11.0822 37.7479C8.69301 28.7968 14.007 19.6005 22.9577 17.2022C27.6737 15.9385 32.459 16.814 36.2833 19.2338L33.8651 23.5121Z" fill="#7696F3" stroke="#07503E" stroke-width="0.479992" stroke-linejoin="round"/>
<path d="M26.746 21.5569L26.9889 26.7924C26.5315 26.816 26.0696 26.8877 25.6094 27.011C22.0804 27.9566 19.9847 31.581 20.9238 35.1102L15.8624 36.4664C14.1742 30.1419 17.9289 23.6441 24.2532 21.9495C25.0849 21.7266 25.9196 21.598 26.746 21.5569Z" fill="#BBCAF2" stroke="#07503E" stroke-width="0.479992" stroke-linejoin="round"/>
<path d="M42.8055 18.2957L38.994 21.338C35.1315 15.433 27.7838 12.3908 20.5969 14.3166C11.6461 16.7149 6.33214 25.9112 8.72134 34.8622L8.83643 34.8314L8.8373 34.8346L4.08422 36.1082C1.00857 24.5811 7.85206 12.7389 19.3787 9.65029C28.472 7.21377 37.765 10.9525 42.8055 18.2957Z" fill="#3A559D" stroke="#07503E" stroke-width="0.479992" stroke-linejoin="round"/>
<path d="M31.5043 20.6266C28.7706 18.8208 25.3058 18.1494 21.8923 19.064C15.568 20.7586 11.8133 27.2564 13.5015 33.5809L13.5121 33.5781L13.5123 33.5786L8.72137 34.8624C6.33217 25.9113 11.6461 16.7151 20.5969 14.3167C25.3129 13.053 30.0981 13.9285 33.9224 16.3483L31.5043 20.6266Z" fill="#7696F3" stroke="#07503E" stroke-width="0.479992" stroke-linejoin="round"/>
<path d="M24.3852 18.6714L24.6281 23.9069C24.1707 23.9305 23.7088 24.0022 23.2485 24.1255C19.7196 25.0711 17.6239 28.6955 18.563 32.2247L13.5016 33.5809C11.8134 27.2564 15.568 20.7586 21.8923 19.064C22.724 18.8412 23.5587 18.7125 24.3852 18.6714Z" fill="#BBCAF2" stroke="#07503E" stroke-width="0.479992" stroke-linejoin="round"/>
<path d="M6.43692 38.9994L4.1311 36.1431L8.77214 34.8599L11.0659 37.727L6.43692 38.9994Z" fill="#3A559D" stroke="#07503E" stroke-width="0.479992" stroke-linejoin="round"/>
<path d="M11.0992 37.7603L8.79224 34.8585L13.5223 33.5671L15.9163 36.469L11.0992 37.7603Z" fill="#7696F3" stroke="#07503E" stroke-width="0.479992" stroke-linejoin="round"/>
<path d="M15.9224 36.472L13.5364 33.5751L18.5377 32.2278C18.4879 31.9045 17.7927 29.3928 19.5086 26.7816C20.8814 24.6927 23.3785 23.899 24.6279 23.899L24.4066 18.7244L26.7442 21.5842L26.9977 26.7913C26.131 26.8301 23.9877 27.1807 22.2679 29.169C20.4714 31.2459 20.6262 33.9806 20.9277 35.1184L15.9224 36.472Z" fill="#BBCAF2"/>
<path d="M20.9277 35.1184L15.9224 36.472L13.5364 33.5751L18.5377 32.2278M20.9277 35.1184C20.6262 33.9806 20.4714 31.2459 22.2679 29.169C23.9877 27.1807 26.131 26.8301 26.9977 26.7913M20.9277 35.1184L18.5377 32.2278M26.9977 26.7913L26.7442 21.5842L24.4066 18.7244L24.6279 23.899M26.9977 26.7913L24.6279 23.899M24.6279 23.899C23.3785 23.899 20.8814 24.6927 19.5086 26.7816C17.7927 29.3928 18.4879 31.9045 18.5377 32.2278" stroke="#07503E" stroke-width="0.479992" stroke-linejoin="round"/>
<path d="M26.8152 21.6272L24.3821 18.7311C27.0601 18.3813 30.1513 19.7063 31.5037 20.6188L33.8565 16.4639C34.7155 17.1593 35.8229 18.6229 36.2746 19.2621L33.8617 23.5129C31.2642 21.7539 28.0679 21.4993 26.8152 21.6272Z" fill="#7696F3"/>
<path d="M33.8617 23.5129C31.2642 21.7539 28.0679 21.4993 26.8152 21.6272L24.3821 18.7311C27.0601 18.3813 30.1513 19.7063 31.5037 20.6188M33.8617 23.5129L36.2746 19.2621C35.8229 18.6229 34.7155 17.1593 33.8565 16.4639L31.5037 20.6188M33.8617 23.5129L31.5037 20.6188" stroke="#07503E" stroke-width="0.479992" stroke-linejoin="round"/>
<path d="M6.43692 38.9938L4.1311 36.1375L8.77214 34.8542L11.0659 37.7214L6.43692 38.9938Z" fill="#101010" fill-opacity="0.4" stroke="#07503E" stroke-width="0.479992" stroke-linejoin="round"/>
<path d="M11.0992 37.755L8.79224 34.8531L13.5223 33.5618L15.9163 36.4636L11.0992 37.755Z" fill="#101010" fill-opacity="0.4" stroke="#07503E" stroke-width="0.479992" stroke-linejoin="round"/>
<path d="M15.9224 36.4667L13.5364 33.5697L18.5377 32.2224C18.4879 31.8991 17.7927 29.3874 19.5086 26.7763C20.8814 24.6874 23.3785 23.8936 24.6279 23.8936L24.4066 18.719L26.7442 21.5788L26.9977 26.786C26.131 26.8248 23.9877 27.1753 22.2679 29.1636C20.4714 31.2406 20.6262 33.9752 20.9277 35.113L15.9224 36.4667Z" fill="#101010" fill-opacity="0.4"/>
<path d="M20.9277 35.113L15.9224 36.4667L13.5364 33.5697L18.5377 32.2224M20.9277 35.113C20.6262 33.9752 20.4714 31.2406 22.2679 29.1636C23.9877 27.1753 26.131 26.8248 26.9977 26.786M20.9277 35.113L18.5377 32.2224M26.9977 26.786L26.7442 21.5788L24.4066 18.719L24.6279 23.8936M26.9977 26.786L24.6279 23.8936M24.6279 23.8936C23.3785 23.8936 20.8814 24.6874 19.5086 26.7763C17.7927 29.3874 18.4879 31.8991 18.5377 32.2224" stroke="#07503E" stroke-width="0.479992" stroke-linejoin="round"/>
<path d="M26.8152 21.6218L24.3821 18.7257C27.0601 18.3759 30.1513 19.701 31.5037 20.6134L33.8565 16.4585C34.7155 17.1539 35.8229 18.6176 36.2746 19.2567L33.8617 23.5075C31.2642 21.7486 28.0679 21.494 26.8152 21.6218Z" fill="#101010" fill-opacity="0.4"/>
<path d="M33.8617 23.5075C31.2642 21.7486 28.0679 21.494 26.8152 21.6218L24.3821 18.7257C27.0601 18.3759 30.1513 19.701 31.5037 20.6134M33.8617 23.5075L36.2746 19.2567C35.8229 18.6176 34.7155 17.1539 33.8565 16.4585L31.5037 20.6134M33.8617 23.5075L31.5037 20.6134" stroke="#07503E" stroke-width="0.479992" stroke-linejoin="round"/>
<path d="M39.0702 21.2758L42.7767 18.3264C43.5841 18.9671 44.6982 20.489 45.1544 21.1699L41.3535 24.2143C39.8814 21.7904 37.4615 19.9276 36.2557 19.2173L35.1279 17.7513L33.8479 16.3457C35.6989 17.2109 38.1648 20.0267 39.0702 21.2758Z" fill="#101010" fill-opacity="0.3" stroke="#07503E" stroke-width="0.479992" stroke-linejoin="round"/>
</svg>
