<svg width="41" height="40" viewBox="0 0 41 40" fill="none" xmlns="http://www.w3.org/2000/svg">
<rect x="0.0078125" width="40" height="40" rx="12" fill="#07503E"/>
<g clip-path="url(#clip0_7687_171514)">
<path d="M27.0078 29C28.1128 29 29.0078 28.105 29.0078 27V21C29.0078 20.448 28.5598 20 28.0078 20H25.0078V27C25.0078 28.105 25.9028 29 27.0078 29Z" stroke="#8BC53F" stroke-width="1.4" stroke-linecap="round" stroke-linejoin="round"/>
<path d="M15.0078 16H21.0078" stroke="#8BC53F" stroke-width="1.4" stroke-linecap="round" stroke-linejoin="round"/>
<path d="M15.0078 19.8701H21.0078" stroke="#8BC53F" stroke-width="1.4" stroke-linecap="round" stroke-linejoin="round"/>
<path d="M15.0078 24.0596H18.0078" stroke="#8BC53F" stroke-width="1.4" stroke-linecap="round" stroke-linejoin="round"/>
<path d="M25.0078 20V13C25.0078 12.448 24.5598 12 24.0078 12H12.0078C11.4558 12 11.0078 12.448 11.0078 13V27C11.0078 28.105 11.9028 29 13.0078 29H27.0078" stroke="#8BC53F" stroke-width="1.4" stroke-linecap="round" stroke-linejoin="round"/>
</g>
<defs>
<clipPath id="clip0_7687_171514">
<rect width="24" height="24" fill="white" transform="translate(8.00781 8)"/>
</clipPath>
</defs>
</svg>
