<svg width="200" height="200" viewBox="0 0 200 200" fill="none" xmlns="http://www.w3.org/2000/svg">
<g clip-path="url(#clip0_2515_72383)">
<path d="M39.6621 94.9576H45.1827V98.1825C45.787 97.0025 46.5887 96.0861 47.5881 95.4331C48.5875 94.7801 49.7572 94.4524 51.0974 94.4501C51.8355 94.4422 52.5693 94.5624 53.2661 94.8053V100.625C52.7677 100.337 52.2292 100.126 51.6683 99.996C51.1332 99.8672 50.5852 99.7995 50.0348 99.7944C48.6679 99.7944 47.5192 100.24 46.5887 101.132C45.6583 102.024 45.1896 103.374 45.1827 105.182V115.366H39.6621V94.9576Z" fill="black"/>
<path d="M61.1515 94.9576H55.6309V115.366H61.1515V94.9576Z" fill="black"/>
<path d="M86.5437 115.366H81.0231V112.457C80.2534 113.54 79.2395 114.429 78.0629 115.051C76.8351 115.693 75.4661 116.017 74.0804 115.997C72.3189 116.011 70.5895 115.526 69.0928 114.6C67.5686 113.657 66.3233 112.327 65.4847 110.746C64.5926 109.107 64.1465 107.239 64.1465 105.143C64.1465 103.047 64.5933 101.186 65.487 99.5595C66.3304 97.987 67.575 96.6644 69.0951 95.7252C70.592 94.7994 72.3213 94.3152 74.0827 94.3287C75.4675 94.3086 76.8355 94.633 78.0629 95.2727C79.2384 95.8961 80.2513 96.7851 81.0208 97.8686V89.5607L86.5437 84V115.366ZM80.2742 102.078C79.7976 101.209 79.1049 100.478 78.2628 99.9547C77.4001 99.4254 76.4038 99.1528 75.3911 99.1689C74.3878 99.1508 73.4007 99.423 72.5492 99.9525C71.7103 100.473 71.0237 101.206 70.5585 102.075C70.0715 102.967 69.8283 103.989 69.8291 105.142C69.8093 106.216 70.0601 107.277 70.5585 108.229C71.0192 109.107 71.7064 109.847 72.5492 110.372C73.4006 110.9 74.3861 111.174 75.3888 111.16C76.4014 111.173 77.3971 110.9 78.2605 110.372C79.1056 109.843 79.7987 109.105 80.2719 108.229C80.7818 107.281 81.0396 106.218 81.0208 105.142C81.0208 103.988 80.7712 102.966 80.2719 102.075" fill="black"/>
<path d="M90.9803 110.706C89.9947 109.068 89.502 107.213 89.502 105.142C89.502 103.071 89.9879 101.262 90.9608 99.6363C91.9266 98.0187 93.302 96.6829 94.9491 95.763C96.6262 94.8061 98.5024 94.3276 100.578 94.3276C102.653 94.3276 104.493 94.7996 106.098 95.7435C107.677 96.6639 108.988 97.9782 109.903 99.5572C110.836 101.161 111.302 102.97 111.302 104.985V106.36H95.1053C95.3932 107.932 96.0962 109.171 97.2143 110.075C98.3324 110.979 99.6928 111.432 101.296 111.433C102.505 111.433 103.57 111.165 104.49 110.631C105.386 110.115 106.134 109.377 106.659 108.488L110.483 111.753C109.428 113.032 108.079 114.059 106.436 114.836C104.793 115.613 102.973 116 100.977 115.997C98.7681 115.997 96.7965 115.525 95.0628 114.581C93.3755 113.682 91.9647 112.344 90.9815 110.707M95.2604 102.548H105.591C105.276 101.288 104.663 100.318 103.753 99.6374C102.842 98.9569 101.758 98.6163 100.5 98.6156C99.3326 98.5929 98.1926 98.967 97.2671 99.6764C96.3099 100.398 95.6058 101.403 95.2558 102.547" fill="black"/>
<path d="M137.133 115.366H133.821L128.341 102.311L122.78 115.366H119.508L111.385 94.9576H117.142L121.558 106.991L126.684 94.9576H130.114L135.201 106.951L139.736 94.9576H145.294L137.133 115.366Z" fill="black"/>
<path d="M147.168 110.706C146.182 109.068 145.689 107.213 145.689 105.142C145.689 103.071 146.175 101.262 147.149 99.6363C148.113 98.0195 149.486 96.6838 151.131 95.763C152.816 94.8061 154.695 94.3276 156.77 94.3276C158.844 94.3276 160.685 94.7996 162.29 95.7435C163.869 96.6639 165.18 97.9782 166.095 99.5572C167.028 101.161 167.494 102.97 167.494 104.985V106.36H151.289C151.578 107.932 152.281 109.171 153.398 110.075C154.516 110.979 155.876 111.432 157.48 111.433C158.69 111.433 159.754 111.165 160.674 110.631C161.57 110.115 162.318 109.377 162.843 108.488L166.667 111.753C165.617 113.037 164.27 114.066 162.626 114.84C160.982 115.613 159.162 116 157.166 116C154.957 116 152.985 115.528 151.251 114.584C149.564 113.686 148.153 112.347 147.17 110.711M151.449 102.552H161.779C161.464 101.292 160.852 100.321 159.941 99.6409C159.031 98.9604 157.946 98.6198 156.688 98.619C155.521 98.5963 154.381 98.9705 153.456 99.6798C152.51 100.386 151.84 101.343 151.444 102.551" fill="black"/>
<path d="M170.136 89.5596L175.656 84.3311V115.366H170.136V89.5596Z" fill="black"/>
<path d="M185 84L179.48 89.6363V115.366H185V84Z" fill="black"/>
<path d="M61.1778 88.7061C61.1778 89.2499 61.0161 89.7815 60.7132 90.2336C60.4103 90.6858 59.9797 91.0382 59.4759 91.2463C58.9722 91.4544 58.4179 91.5088 57.8831 91.4027C57.3483 91.2967 56.8571 91.0348 56.4715 90.6503C56.086 90.2658 55.8234 89.7759 55.717 89.2425C55.6107 88.7092 55.6653 88.1564 55.8739 87.654C56.0826 87.1516 56.4359 86.7222 56.8893 86.4201C57.3427 86.1179 57.8757 85.9567 58.4209 85.9567C59.1521 85.9567 59.8533 86.2464 60.3703 86.762C60.8873 87.2776 61.1778 87.9769 61.1778 88.7061Z" fill="black"/>
<path d="M20.4885 98.5331C21.6613 98.5331 22.7859 98.5457 23.9024 98.5331C24.398 98.5329 24.8927 98.4896 25.3808 98.4036C26.5088 98.1837 27.5035 97.746 27.9079 96.5432C28.5707 94.5498 27.4944 92.7627 25.3808 92.5221C23.9598 92.3629 22.524 92.4144 21.0973 92.3755H20.4896V98.5331H20.4885ZM20.4885 110.684C22.9421 110.615 25.3463 110.628 27.7356 110.447C29.2496 110.333 30.4477 109.577 30.8485 107.951C31.2563 106.298 30.6533 104.629 29.3173 104.023C28.6718 103.729 27.9389 103.499 27.2416 103.468C25.1062 103.376 22.9662 103.393 20.8285 103.372C20.7122 103.382 20.5969 103.401 20.4839 103.43V110.684H20.4885ZM15 115.639V87.3646C15.1673 87.3419 15.3356 87.3278 15.5043 87.3222C18.8275 87.3325 22.1518 87.3142 25.4738 87.3704C27.1647 87.399 28.805 87.7633 30.2983 88.5996C32.575 89.8597 33.6445 91.8473 33.7616 94.3826C33.8466 96.2155 33.4343 97.8995 32.0225 99.2021C31.6779 99.5206 31.269 99.7749 30.8336 100.093C31.2081 100.191 31.5435 100.277 31.8778 100.366C34.6346 101.099 36.3255 103.08 36.6276 105.914C36.7701 107.249 36.7425 108.573 36.3588 109.87C35.4215 113.026 33.0931 114.618 30.0353 115.301C28.9719 115.527 27.8878 115.642 26.8005 115.645C22.9995 115.685 19.1985 115.662 15.3974 115.661C15.2826 115.661 15.1677 115.649 15 115.64" fill="black"/>
</g>
<defs>
<clipPath id="clip0_2515_72383">
<rect width="170" height="32" fill="white" transform="translate(15 84)"/>
</clipPath>
</defs>
</svg>
