<svg width="100" height="100" viewBox="0 0 100 100" fill="none" xmlns="http://www.w3.org/2000/svg">
<g clip-path="url(#clip0_526_17813)">
<path d="M31.938 31.0702V47.1801L15.8281 31.0702H31.938Z" fill="#101010"/>
<path d="M31.938 47.1796V63.2907L15.8281 47.1796H31.938Z" fill="#101010"/>
<path d="M15.829 47.1798V60.0687L2.94141 47.1798H15.829Z" fill="#101010"/>
<path d="M15.8278 37.5144V47.181L6.16113 37.5144H15.8278Z" fill="#101010"/>
<path d="M38.382 47.1798V53.6243L31.9375 47.1798H38.382Z" fill="#101010"/>
<path d="M50.4816 62.4968C54.2254 62.4968 56.4434 61.1652 58.4414 59.03L55.7239 56.2839C54.1982 57.6712 52.8394 58.5576 50.6214 58.5576C47.293 58.5576 44.9909 55.7844 44.9909 52.4574V52.4017C44.9909 49.0734 47.3487 46.3572 50.6214 46.3572C52.5612 46.3572 54.0869 47.1879 55.5841 48.5467L58.303 45.4125C56.5003 43.6383 54.3095 42.418 50.6473 42.418C44.6855 42.418 40.5264 46.9382 40.5264 52.4574V52.513C40.5264 58.0866 44.7696 62.4968 50.4816 62.4968ZM61.0192 62.1642H68.5908C74.691 62.1642 78.9084 57.9209 78.9084 52.4574V52.4017C78.9084 46.9382 74.691 42.7506 68.5908 42.7506H59.6113V46.6406L61.0192 46.6186V62.1642ZM65.2896 58.3092V46.6056H68.5908C72.0848 46.6056 74.4426 49.0178 74.4426 52.4574V52.513C74.4426 55.9514 72.0848 58.3092 68.5908 58.3092H65.2896ZM81.8757 62.1642H86.1448V56.3396H89.3917C93.7436 56.3396 97.2402 54.0103 97.2402 49.5186V49.4616C97.2402 45.4966 94.4385 42.7506 89.8058 42.7506H80.4924V46.6186L81.8757 46.5901V62.1642ZM86.1448 52.5415V46.6056H89.446C91.5812 46.6056 92.9128 47.6305 92.9128 49.5457V49.6001C92.9128 51.2656 91.6653 52.5415 89.5288 52.5415H86.1448Z" fill="#101010"/>
<path d="M94.9629 42.753V42.8811H95.3459V43.9021H95.4999V42.8811H95.883V42.753H94.9629Z" fill="#101010"/>
<path d="M96.9464 42.753L96.5827 43.7196L96.2191 42.753H96.0107V43.9021H96.1557V42.9458H96.1596L96.518 43.9021H96.6487L97.0072 42.9458H97.0098V43.9021H97.156V42.753H96.9464Z" fill="#101010"/>
<path d="M6.46582 66.0322H7.76506C8.81326 66.0322 9.53664 66.7517 9.53664 67.6886V67.6989C9.53664 68.6358 8.81326 69.3644 7.76506 69.3644H6.46582V66.0322ZM7.76506 68.7031C8.36551 68.7031 8.76926 68.2981 8.76926 67.708V67.6989C8.76926 67.1075 8.36551 66.6934 7.76506 66.6934H7.19826V68.7031H7.76506Z" fill="#101010"/>
<path d="M10.2217 69.3641H10.9554V66.0318H10.2217V69.3641Z" fill="#101010"/>
<path d="M11.5596 68.8788L11.9931 68.3598C12.2933 68.607 12.6065 68.7649 12.9882 68.7649C13.2872 68.7649 13.4683 68.6458 13.4683 68.4504V68.4414C13.4683 68.255 13.3544 68.1605 12.7967 68.0169C12.1264 67.8461 11.6929 67.6597 11.6929 66.9985V66.9894C11.6929 66.3851 12.1781 65.9852 12.8588 65.9852C13.3454 65.9852 13.7595 66.1366 14.0972 66.4084L13.7155 66.9609C13.4204 66.7552 13.1306 66.6323 12.8498 66.6323C12.5689 66.6323 12.4214 66.7604 12.4214 66.9221V66.9325C12.4214 67.1512 12.5638 67.2223 13.1396 67.3699C13.8164 67.5459 14.1969 67.7892 14.1969 68.3702V68.3792C14.1969 69.0405 13.6922 69.4119 12.974 69.4119C12.4693 69.4119 11.9594 69.2359 11.5596 68.8788Z" fill="#101010"/>
<path d="M14.6885 67.7081V67.699C14.6885 66.7517 15.4028 65.9753 16.4264 65.9753C17.054 65.9753 17.4306 66.1849 17.7399 66.489L17.2727 67.0274C17.0165 66.7944 16.7551 66.6508 16.4212 66.6508C15.8596 66.6508 15.4546 67.118 15.4546 67.6886V67.699C15.4546 68.2697 15.8505 68.7459 16.4212 68.7459C16.8017 68.7459 17.0359 68.5932 17.2973 68.3551L17.7632 68.8261C17.4215 69.1936 17.0398 69.4214 16.3979 69.4214C15.417 69.4214 14.6885 68.6644 14.6885 67.7081Z" fill="#101010"/>
<path d="M18.3506 66.0322H19.083V68.6979H20.7446V69.3644H18.3506V66.0322Z" fill="#101010"/>
<path d="M21.1504 67.708V67.699C21.1504 66.7517 21.8984 65.9753 22.9259 65.9753C23.9546 65.9753 24.6923 66.7413 24.6923 67.6886V67.699C24.6923 68.6449 23.9443 69.4214 22.9168 69.4214C21.888 69.4214 21.1504 68.6553 21.1504 67.708ZM23.9262 67.708V67.699C23.9262 67.127 23.5069 66.6508 22.9168 66.6508C22.3267 66.6508 21.9165 67.1179 21.9165 67.6886V67.699C21.9165 68.2696 22.3358 68.7459 22.9259 68.7459C23.5159 68.7459 23.9262 68.2787 23.9262 67.708Z" fill="#101010"/>
<path d="M25.1172 68.8788L25.5507 68.3599C25.8509 68.6071 26.1641 68.765 26.5458 68.765C26.8448 68.765 27.0259 68.6459 27.0259 68.4505V68.4414C27.0259 68.2551 26.9121 68.1606 26.3556 68.017C25.684 67.8462 25.2505 67.6598 25.2505 66.9986V66.9895C25.2505 66.3852 25.7358 65.9853 26.4164 65.9853C26.903 65.9853 27.3171 66.1367 27.6549 66.4085L27.2731 66.961C26.9781 66.7553 26.6882 66.6323 26.4074 66.6323C26.1266 66.6323 25.979 66.7604 25.979 66.9222V66.9326C25.979 67.1513 26.1214 67.2224 26.6972 67.3699C27.374 67.5459 27.7545 67.7892 27.7545 68.3703V68.3793C27.7545 69.0406 27.2498 69.412 26.5316 69.412C26.0269 69.412 25.5171 69.236 25.1172 68.8788Z" fill="#101010"/>
<path d="M28.3418 67.9366V66.0331H29.0742V67.9172C29.0742 68.4607 29.346 68.7416 29.7937 68.7416C30.2415 68.7416 30.5119 68.4698 30.5119 67.9418V66.0331H31.2457V67.9134C31.2457 68.9214 30.6789 69.4171 29.7847 69.4171C28.8892 69.4171 28.3418 68.9176 28.3418 67.9366Z" fill="#101010"/>
<path d="M31.9941 66.0325H33.5173C33.9404 66.0325 34.2691 66.1515 34.4891 66.3702C34.6742 66.5566 34.7738 66.818 34.7738 67.1324V67.1415C34.7738 67.6798 34.4839 68.0176 34.0608 68.1741L34.8747 69.3647H34.0168L33.3037 68.2984H33.2934H32.7266V69.3647H31.9941V66.0325ZM33.4694 67.6513C33.8265 67.6513 34.031 67.4611 34.031 67.1803V67.1699C34.031 66.8568 33.8123 66.6937 33.4551 66.6937H32.7266V67.6513H33.4694Z" fill="#101010"/>
<path d="M35.4355 66.0322H37.9486V66.6844H36.1641V67.3599H37.7351V68.0121H36.1641V68.7122H37.9732V69.3644H35.4355V66.0322Z" fill="#101010"/>
<path d="M40.0869 69.3641H40.8194V66.0318H40.0869V69.3641Z" fill="#101010"/>
<path d="M41.6523 66.0322H42.3278L43.8898 68.0846V66.0322H44.6132V69.3644H43.9894L42.3757 67.246V69.3644H41.6523V66.0322Z" fill="#101010"/>
<path d="M45.1865 68.8788L45.62 68.3599C45.9203 68.607 46.2334 68.7649 46.6152 68.7649C46.9141 68.7649 47.0953 68.6459 47.0953 68.4504V68.4414C47.0953 68.255 46.9814 68.1606 46.4249 68.0169C45.7533 67.8461 45.3198 67.6598 45.3198 66.9985V66.9894C45.3198 66.3851 45.8051 65.9853 46.4858 65.9853C46.9723 65.9853 47.3864 66.1367 47.7242 66.4084L47.3424 66.961C47.0474 66.7552 46.7575 66.6323 46.4767 66.6323C46.1959 66.6323 46.0484 66.7604 46.0484 66.9222V66.9325C46.0484 67.1512 46.1907 67.2224 46.7666 67.3699C47.4434 67.5459 47.8238 67.7892 47.8238 68.3702V68.3793C47.8238 69.0405 47.3191 69.4119 46.6009 69.4119C46.0963 69.4119 45.5864 69.2359 45.1865 68.8788Z" fill="#101010"/>
<path d="M48.4971 69.3641H49.2295V66.0318H48.4971V69.3641Z" fill="#101010"/>
<path d="M49.916 67.708V67.699C49.916 66.7517 50.6536 65.9753 51.663 65.9753C52.2635 65.9753 52.6245 66.137 52.9726 66.4321L52.5106 66.9885C52.2531 66.775 52.0253 66.6508 51.6397 66.6508C51.1066 66.6508 50.6821 67.1218 50.6821 67.6886V67.699C50.6821 68.3085 51.1014 68.7549 51.6915 68.7549C51.9581 68.7549 52.1962 68.6889 52.3825 68.5556V68.0794H51.6436V67.4466H53.0917V68.8934C52.7487 69.1832 52.2777 69.4214 51.6682 69.4214C50.6303 69.4214 49.916 68.6928 49.916 67.708Z" fill="#101010"/>
<path d="M53.7959 66.0322H54.5283V67.3508H55.8806V66.0322H56.6144V69.3644H55.8806V68.0263H54.5283V69.3644H53.7959V66.0322Z" fill="#101010"/>
<path d="M58.19 66.7084H57.1768V66.0329H59.937V66.7084H58.9225V69.3651H58.19V66.7084Z" fill="#101010"/>
<path d="M63.0712 66.0083H63.7467L65.1754 69.3651H64.4093L64.1039 68.6171H62.6947L62.3905 69.3651H61.6426L63.0712 66.0083ZM63.8425 67.9701L63.3999 66.8896L62.9574 67.9701H63.8425Z" fill="#101010"/>
<path d="M65.541 67.708V67.699C65.541 66.7517 66.2553 65.9753 67.2789 65.9753C67.9066 65.9753 68.2831 66.1849 68.5924 66.489L68.1253 67.0273C67.869 66.7944 67.6063 66.6508 67.2738 66.6508C66.7121 66.6508 66.3071 67.1179 66.3071 67.6886V67.699C66.3071 68.2696 66.7018 68.7459 67.2738 68.7459C67.6542 68.7459 67.8885 68.5932 68.1499 68.355L68.6157 68.8261C68.2741 69.1936 67.8923 69.4214 67.2492 69.4214C66.2696 69.4214 65.541 68.6643 65.541 67.708Z" fill="#101010"/>
<path d="M69.9801 66.7084H68.9668V66.0329H71.727V66.7084H70.7125V69.3651H69.9801V66.7084Z" fill="#101010"/>
<path d="M72.3213 69.3641H73.0537V66.0318H72.3213V69.3641Z" fill="#101010"/>
<path d="M73.7402 67.708V67.699C73.7402 66.7517 74.4882 65.9753 75.5157 65.9753C76.5445 65.9753 77.2821 66.7413 77.2821 67.6886V67.699C77.2821 68.6449 76.5341 69.4214 75.5066 69.4214C74.4779 69.4214 73.7402 68.6553 73.7402 67.708ZM76.516 67.708V67.699C76.516 67.127 76.0967 66.6508 75.5066 66.6508C74.9165 66.6508 74.5063 67.1179 74.5063 67.6886V67.699C74.5063 68.2696 74.9256 68.7459 75.5157 68.7459C76.1058 68.7459 76.516 68.2787 76.516 67.708Z" fill="#101010"/>
<path d="M77.9355 66.0322H78.6111L80.173 68.0846V66.0322H80.8964V69.3644H80.2726L78.6589 67.246V69.3644H77.9355V66.0322Z" fill="#101010"/>
</g>
<defs>
<clipPath id="clip0_526_17813">
<rect width="100" height="100" fill="white"/>
</clipPath>
</defs>
</svg>
