<svg width="40" height="40" viewBox="0 0 40 40" fill="none" xmlns="http://www.w3.org/2000/svg">
<g clip-path="url(#clip0_785_77074)">
<path d="M18.3407 33.4408C18.0908 33.4408 17.8379 33.4335 17.5891 33.419C17.2346 33.3993 16.8739 33.363 16.5183 33.3122C12.86 32.7888 9.72945 30.7207 7.92987 27.6388C6.62372 25.4018 5.94992 22.7771 5.98206 20.0476C6.01315 17.4011 6.69629 14.8396 7.95889 12.6399C10.1721 8.78057 13.9184 6.56738 18.2349 6.56738H18.2598C18.7916 6.56738 19.3172 6.60263 19.8241 6.66897C19.9526 6.68556 20.049 6.7944 20.049 6.92398C20.049 7.05356 19.9557 7.16344 19.8272 7.1821C16.5328 7.66413 13.7557 9.4181 12.0069 12.1216C10.5038 14.4457 9.73878 17.2218 9.79475 20.1492C9.79475 20.2259 9.79786 20.3016 9.80097 20.3773C9.80201 20.4208 9.80305 20.4592 9.80512 20.4975C9.80512 20.4975 9.80512 20.5079 9.80512 20.5089C9.80823 20.5784 9.81134 20.6468 9.81549 20.7162C9.8186 20.7774 9.82171 20.8334 9.82689 20.8894C9.82689 20.8935 9.82689 20.8966 9.82689 20.9008C9.82896 20.9443 9.83207 20.9878 9.83518 21.0303C9.84762 21.2055 9.86421 21.3786 9.8839 21.5476C9.89116 21.6254 9.90049 21.6979 9.90982 21.7705C9.915 21.8182 9.92122 21.8617 9.92744 21.9073L9.92951 21.9249C9.94299 22.0276 9.95854 22.1302 9.97409 22.2318C9.98446 22.2961 9.99482 22.3593 10.0052 22.4225C10.0311 22.5811 10.0601 22.7356 10.0912 22.8838C10.1057 22.9605 10.1223 23.0352 10.1379 23.1088C10.1534 23.1834 10.171 23.256 10.1876 23.3285C10.1887 23.3348 10.1907 23.341 10.1918 23.3472C10.2094 23.4208 10.225 23.4892 10.2436 23.5566C10.284 23.7225 10.3286 23.8893 10.3773 24.0562C10.3991 24.1298 10.4188 24.1983 10.4395 24.2656C10.4623 24.3392 10.4841 24.4118 10.508 24.4844C10.5276 24.5466 10.5463 24.6046 10.566 24.6616C10.5847 24.7218 10.6033 24.7746 10.622 24.8265C10.6448 24.8949 10.6666 24.955 10.6894 25.0151C10.7764 25.2587 10.8739 25.5034 10.9786 25.747C11.0055 25.8112 11.0325 25.8734 11.0605 25.9336C11.0636 25.9398 11.0677 25.947 11.0698 25.9543C11.0968 26.0186 11.1258 26.0818 11.1558 26.145C11.2015 26.2446 11.2471 26.3389 11.2937 26.4322C11.3497 26.5441 11.4046 26.6551 11.4637 26.7639C11.5415 26.9101 11.6234 27.0583 11.7084 27.2055C11.7363 27.2542 11.7654 27.3029 11.7944 27.3517C11.7944 27.3517 11.8017 27.362 11.8037 27.3672C11.84 27.4284 11.8763 27.4895 11.9146 27.5486C12.0339 27.7414 12.1593 27.9311 12.2868 28.1136C12.3262 28.1706 12.3656 28.2266 12.405 28.2805C12.4133 28.2929 12.4174 28.2991 12.4226 28.3054C12.4267 28.3105 12.4309 28.3157 12.435 28.3209C12.4692 28.3686 12.5045 28.4163 12.5418 28.464C12.546 28.4702 12.5501 28.4754 12.5542 28.4816C12.5563 28.4847 12.5584 28.4868 12.5605 28.4899C12.6019 28.5459 12.6444 28.5998 12.6869 28.6547C12.7325 28.7128 12.7782 28.7708 12.8248 28.8278C12.9316 28.9605 13.0311 29.0776 13.1296 29.1886C13.171 29.2362 13.2125 29.2819 13.255 29.3275C13.2602 29.3327 13.2643 29.3389 13.2695 29.3441C13.3151 29.3949 13.3618 29.4446 13.4095 29.4933C13.4126 29.4964 13.4209 29.5058 13.4229 29.5078C13.5193 29.6105 13.6189 29.7121 13.7184 29.8095C13.8428 29.9318 13.9558 30.0386 14.0636 30.134C14.1164 30.1816 14.1693 30.2283 14.2211 30.2739C14.2781 30.3237 14.3352 30.3714 14.3911 30.419C14.4492 30.4688 14.5052 30.5144 14.5622 30.559C14.6804 30.6543 14.7985 30.7456 14.9198 30.8347C14.9737 30.8741 15.0245 30.9104 15.0753 30.9456C15.0805 30.9498 15.0867 30.9539 15.0919 30.9581C15.0919 30.9581 15.0878 30.956 15.0846 30.955C15.095 30.9602 15.1043 30.9664 15.1137 30.9736C15.1593 31.0068 15.2059 31.0389 15.2526 31.069C15.2598 31.0742 15.2671 31.0794 15.2743 31.0845C15.2806 31.0897 15.2878 31.0939 15.2951 31.098L15.3044 31.1042C15.3479 31.1333 15.3873 31.1592 15.4267 31.1851L15.4381 31.1924C15.4661 31.211 15.491 31.2266 15.5159 31.2421C15.519 31.2442 15.5231 31.2463 15.5262 31.2483C15.5719 31.2784 15.6195 31.3074 15.6662 31.3364C15.7958 31.4173 15.9274 31.494 16.056 31.5655C16.1223 31.6029 16.1866 31.6381 16.2529 31.6723C16.3234 31.7096 16.3908 31.7449 16.4571 31.778C16.5255 31.8133 16.5929 31.8454 16.6603 31.8776C16.7733 31.9315 16.8832 31.9812 16.9941 32.0299C17.0459 32.0538 17.0947 32.0745 17.1454 32.0953C17.1496 32.0973 17.1537 32.0984 17.1579 32.1004C17.1662 32.1035 17.1807 32.1087 17.1879 32.1118C17.2315 32.1315 17.2761 32.1481 17.3196 32.1657C17.4948 32.2362 17.6679 32.2995 17.8431 32.3586L17.8566 32.3627C17.8991 32.3772 17.9416 32.3917 17.9851 32.4052C17.9903 32.4073 17.9955 32.4083 18.0007 32.4104C18.0069 32.4125 18.0141 32.4145 18.0214 32.4166C18.0245 32.4166 18.0286 32.4187 18.0318 32.4197C18.0846 32.4373 18.1396 32.4539 18.1935 32.4695C18.2546 32.4881 18.3127 32.5068 18.3718 32.5223C18.4205 32.5358 18.4661 32.5493 18.5117 32.5607C18.5387 32.569 18.5615 32.5742 18.5832 32.5794C18.6309 32.5918 18.6703 32.6032 18.7118 32.6125C18.7823 32.6302 18.8507 32.6467 18.9191 32.6623C18.9606 32.6716 18.9989 32.6809 19.0373 32.6882C19.0808 32.6986 19.1192 32.7058 19.1565 32.7141C19.2052 32.7255 19.2477 32.7338 19.2902 32.7411C19.3545 32.7535 19.4156 32.7649 19.4768 32.7763C19.4841 32.7774 19.4913 32.7784 19.4986 32.7805C19.5058 32.7825 19.5121 32.7825 19.5193 32.7846C19.5266 32.7856 19.5328 32.7867 19.539 32.7888L19.6002 32.7981C19.681 32.8105 19.7619 32.8209 19.8417 32.8313C19.9132 32.8406 19.9775 32.8779 20.019 32.937C20.0615 32.995 20.077 33.0686 20.0635 33.1391C20.0418 33.249 19.9516 33.3382 19.8407 33.3516C19.6727 33.3724 19.4996 33.39 19.3244 33.4024C18.9948 33.4273 18.66 33.4398 18.3313 33.4398L18.3407 33.4408Z" fill="#07503E"/>
<path d="M18.2344 6.82691C18.2427 6.82691 18.251 6.82691 18.2592 6.82691C18.7817 6.82794 19.2928 6.86111 19.7903 6.92642C16.5664 7.39808 13.6318 9.13443 11.7897 11.982C10.2057 14.4316 9.48216 17.3155 9.53607 20.1558C9.5371 20.2335 9.53918 20.3113 9.54229 20.389C9.54332 20.4305 9.54436 20.4709 9.54643 20.5114C9.54954 20.586 9.55265 20.6606 9.55783 20.7353C9.56094 20.7944 9.56405 20.8535 9.56924 20.9125C9.57131 20.9602 9.57442 21.0069 9.57857 21.0535C9.59101 21.2287 9.60759 21.4039 9.62832 21.578C9.63558 21.6527 9.64491 21.7273 9.65424 21.802C9.66046 21.8548 9.66772 21.9067 9.67497 21.9595C9.68845 22.0632 9.704 22.1679 9.72058 22.2716C9.73095 22.3369 9.74132 22.4011 9.75272 22.4664C9.77864 22.623 9.80766 22.7795 9.8398 22.935C9.85431 23.0107 9.87089 23.0874 9.88748 23.163C9.90303 23.2377 9.92065 23.3123 9.93827 23.387C9.93827 23.3911 9.93931 23.3942 9.94035 23.3984C9.95797 23.473 9.97559 23.5476 9.99529 23.6223C10.0368 23.7923 10.0824 23.9612 10.1311 24.1281C10.1518 24.1997 10.1726 24.2712 10.1943 24.3417C10.2171 24.4163 10.2399 24.491 10.2648 24.5656C10.2835 24.6257 10.3032 24.6858 10.3239 24.746C10.3415 24.803 10.3612 24.86 10.3819 24.916C10.4037 24.9802 10.4265 25.0435 10.4504 25.1067C10.5406 25.3576 10.639 25.6053 10.7448 25.85C10.7728 25.9163 10.8007 25.9816 10.8308 26.0459C10.8308 26.05 10.8329 26.0532 10.836 26.0563C10.865 26.1236 10.8951 26.191 10.9272 26.2574C10.9718 26.3548 11.0184 26.4522 11.0672 26.5487C11.1231 26.6616 11.1801 26.7746 11.2403 26.8866C11.3201 27.0379 11.403 27.1872 11.4891 27.3355C11.5181 27.3852 11.5471 27.435 11.5761 27.4837C11.5782 27.4889 11.5813 27.493 11.5855 27.4982C11.6228 27.5614 11.6611 27.6247 11.7005 27.6869C11.8218 27.8828 11.9483 28.0746 12.0799 28.2622C12.1193 28.3192 12.1598 28.3762 12.2002 28.4322C12.2095 28.4457 12.2188 28.4592 12.2302 28.4726C12.2665 28.5234 12.3038 28.5732 12.3422 28.6229C12.3463 28.6302 12.3515 28.6385 12.3588 28.6457C12.4013 28.7028 12.4448 28.7587 12.4884 28.8147C12.535 28.8748 12.5827 28.935 12.6314 28.994C12.732 29.1184 12.8356 29.2418 12.9424 29.3621C12.9849 29.4108 13.0274 29.4585 13.072 29.5061C13.0741 29.5103 13.0782 29.5144 13.0824 29.5186C13.13 29.5714 13.1788 29.6233 13.2285 29.6751C13.2306 29.6793 13.2347 29.6834 13.2399 29.6875C13.3384 29.7922 13.439 29.8949 13.5426 29.9965C13.6577 30.1095 13.7759 30.2214 13.8971 30.3292C13.95 30.3769 14.0039 30.4246 14.0578 30.4712C14.1159 30.522 14.1739 30.5708 14.232 30.6195C14.29 30.6692 14.3491 30.718 14.4092 30.7646C14.5284 30.861 14.6497 30.9543 14.7731 31.0445C14.827 31.0839 14.8809 31.1233 14.9358 31.1606C14.9462 31.1689 14.9566 31.1772 14.968 31.1834C15.0177 31.2197 15.0675 31.2539 15.1183 31.2871C15.1349 31.3005 15.1535 31.3119 15.1711 31.3233C15.2157 31.3534 15.2603 31.3824 15.3049 31.4115C15.3339 31.4312 15.3629 31.4498 15.393 31.4674C15.4407 31.4985 15.4894 31.5286 15.5381 31.5587C15.6698 31.6405 15.8035 31.7193 15.9382 31.794C16.0056 31.8323 16.074 31.8696 16.1435 31.9049C16.2119 31.9412 16.2814 31.9774 16.3508 32.0117C16.4203 32.0469 16.4908 32.0811 16.5613 32.1153C16.6722 32.1682 16.7841 32.219 16.8971 32.2687C16.949 32.2926 17.0018 32.3154 17.0557 32.3372C17.0671 32.3423 17.0785 32.3465 17.091 32.3506C17.1407 32.3724 17.1905 32.3921 17.2402 32.4118C17.4134 32.4812 17.5886 32.5455 17.7679 32.6056C17.8166 32.6222 17.8653 32.6388 17.9151 32.6544C17.9286 32.6595 17.9431 32.6637 17.9576 32.6678C18.0136 32.6865 18.0716 32.7041 18.1286 32.7207C18.1888 32.7394 18.2499 32.758 18.3111 32.7746C18.3577 32.7881 18.4054 32.8016 18.4531 32.814C18.478 32.8213 18.5039 32.8275 18.5298 32.8337C18.5723 32.8451 18.6148 32.8565 18.6583 32.8669C18.7288 32.8845 18.7993 32.9021 18.8709 32.9177C18.9113 32.927 18.9517 32.9363 18.9921 32.9446C19.0326 32.9539 19.073 32.9622 19.1134 32.9705C19.159 32.9809 19.2057 32.9902 19.2523 32.9985C19.3166 33.011 19.3809 33.0234 19.4462 33.0348H19.4472C19.4607 33.0379 19.4731 33.04 19.4866 33.0421C19.5146 33.0472 19.5426 33.0514 19.5706 33.0555C19.6525 33.068 19.7354 33.0794 19.8183 33.0897V33.0949C19.6514 33.1157 19.4835 33.1322 19.3145 33.1447C18.989 33.1696 18.6646 33.182 18.3411 33.182C18.0944 33.182 17.8487 33.1747 17.6041 33.1602C17.2516 33.1405 16.9013 33.1053 16.555 33.0555C13.0979 32.5611 9.97663 30.6298 8.15321 27.5075C3.35572 19.2954 7.88991 6.82691 18.2344 6.82691ZM18.2344 6.30859C15.9289 6.30859 13.8152 6.89636 11.9535 8.05738C10.2586 9.1137 8.79903 10.6531 7.73234 12.5107C6.44797 14.7488 5.75239 17.3528 5.72129 20.0438C5.68916 22.821 6.3754 25.4923 7.70539 27.7688C9.5454 30.9201 12.7444 33.0338 16.4814 33.5687C16.8443 33.6205 17.2123 33.6578 17.5751 33.6775C17.827 33.692 18.0851 33.7003 18.3411 33.7003C18.676 33.7003 19.017 33.6868 19.3539 33.662C19.5301 33.6485 19.7084 33.6309 19.8816 33.6101C20.1024 33.5821 20.2817 33.4163 20.3252 33.1976V33.1924C20.3543 33.0514 20.3232 32.9042 20.2392 32.7871C20.1552 32.6699 20.0257 32.5932 19.8826 32.5756C19.8038 32.5663 19.7261 32.5548 19.6483 32.5434L19.5944 32.5352C19.5851 32.5331 19.5747 32.531 19.5644 32.53H19.5592C19.5467 32.5269 19.5353 32.5238 19.5229 32.5227C19.4648 32.5123 19.4078 32.5009 19.3508 32.4906C19.3487 32.4906 19.3456 32.4906 19.3425 32.4895C19.3042 32.4823 19.2658 32.475 19.2275 32.4667C19.2243 32.4667 19.2202 32.4647 19.2171 32.4647C19.1808 32.4574 19.1445 32.4502 19.1082 32.4419C19.1041 32.4419 19.0999 32.4398 19.0958 32.4387C19.0606 32.4315 19.0243 32.4232 18.989 32.4149C18.987 32.4149 18.9828 32.4139 18.9807 32.4128C18.9144 32.3983 18.8491 32.3817 18.7838 32.3662C18.7817 32.3662 18.7796 32.3662 18.7786 32.3651C18.7402 32.3558 18.7019 32.3455 18.6646 32.3361C18.6604 32.3351 18.6552 32.334 18.6511 32.333C18.6335 32.3289 18.6158 32.3247 18.5982 32.3195C18.593 32.3185 18.5889 32.3164 18.5837 32.3154C18.5402 32.304 18.4966 32.2915 18.4552 32.2791C18.4521 32.2791 18.45 32.277 18.4469 32.277C18.3919 32.2625 18.337 32.2449 18.2821 32.2283C18.2789 32.2283 18.2758 32.2262 18.2727 32.2252C18.2136 32.2076 18.1639 32.1931 18.1214 32.1786C18.1141 32.1765 18.1069 32.1744 18.0996 32.1723L18.0913 32.1703C18.0841 32.1672 18.0768 32.1651 18.0695 32.163C18.0239 32.1485 17.9794 32.134 17.9348 32.1184C17.7627 32.0604 17.5937 31.9992 17.4331 31.9339C17.3864 31.9153 17.3429 31.8987 17.2983 31.879C17.2848 31.8728 17.2713 31.8676 17.2579 31.8634C17.2548 31.8624 17.2527 31.8613 17.2496 31.8603C17.204 31.8417 17.1584 31.822 17.1138 31.8012C17.1117 31.8002 17.1086 31.7992 17.1065 31.7981C16.9873 31.7452 16.8826 31.6976 16.7852 31.6509C16.7209 31.6198 16.6525 31.5866 16.5861 31.5524C16.5841 31.5524 16.582 31.5504 16.581 31.5493C16.5136 31.5162 16.4452 31.4799 16.3871 31.4498C16.384 31.4488 16.3819 31.4467 16.3788 31.4457C16.3218 31.4166 16.2617 31.3845 16.1953 31.3461C16.1933 31.3461 16.1922 31.3441 16.1901 31.343C16.0658 31.2736 15.9382 31.1989 15.8128 31.1212C15.7651 31.0922 15.7206 31.0642 15.677 31.0362C15.6698 31.0321 15.6635 31.0279 15.6563 31.0238C15.6356 31.0124 15.6169 30.9989 15.5972 30.9864C15.5941 30.9844 15.592 30.9823 15.5889 30.9813C15.5464 30.9533 15.5039 30.9263 15.4624 30.8983C15.4593 30.8963 15.4573 30.8942 15.4541 30.8931L15.4438 30.8859L15.4365 30.8817C15.4262 30.8734 15.4148 30.8652 15.4034 30.8579C15.3588 30.8289 15.3163 30.7998 15.2748 30.7698C15.2676 30.7646 15.2603 30.7594 15.252 30.7542C15.2437 30.748 15.2354 30.7418 15.2282 30.7366C15.1784 30.7024 15.1286 30.6672 15.0799 30.6309C14.9638 30.5459 14.8488 30.4567 14.7358 30.3665C14.7327 30.3645 14.7306 30.3624 14.7275 30.3603C14.6777 30.322 14.6259 30.2795 14.5699 30.2307C14.5689 30.2297 14.5668 30.2287 14.5658 30.2276C14.5108 30.181 14.4548 30.1343 14.3999 30.0867C14.347 30.04 14.2952 29.9954 14.2454 29.9498C14.1376 29.8544 14.0278 29.7508 13.9065 29.6326C13.808 29.5362 13.7116 29.4377 13.6183 29.3382C13.6141 29.333 13.609 29.3278 13.6038 29.3227C13.5602 29.277 13.5167 29.2314 13.4742 29.1848C13.4669 29.1755 13.4597 29.1672 13.4514 29.1589C13.411 29.1153 13.3726 29.0718 13.3343 29.0283C13.2347 28.9163 13.1383 28.8023 13.0357 28.6748C12.987 28.6157 12.9424 28.5597 12.8989 28.5037C12.8574 28.4498 12.8159 28.397 12.7755 28.343C12.7745 28.341 12.7724 28.3389 12.7714 28.3368C12.7662 28.3285 12.76 28.3213 12.7548 28.314C12.7206 28.2694 12.6864 28.2249 12.6542 28.1782C12.648 28.1689 12.6408 28.1606 12.6335 28.1513L12.6283 28.144C12.6283 28.144 12.6242 28.1378 12.6221 28.1347C12.5837 28.0818 12.5454 28.0279 12.5081 27.974C12.3806 27.7926 12.2582 27.607 12.1432 27.4205C12.1432 27.4194 12.1411 27.4173 12.1401 27.4163C12.1069 27.3634 12.0716 27.3064 12.0333 27.2411C12.0291 27.2339 12.024 27.2256 12.0188 27.2183C11.9918 27.1727 11.9649 27.1271 11.9379 27.0804C11.855 26.9364 11.7741 26.7923 11.6995 26.6513C11.6363 26.5331 11.5772 26.4149 11.5326 26.3247C11.487 26.2346 11.4424 26.1423 11.3999 26.048C11.3978 26.0449 11.3968 26.0407 11.3947 26.0376C11.3699 25.9858 11.3439 25.9288 11.3128 25.8572C11.3087 25.8469 11.3035 25.8365 11.2983 25.8272C11.2745 25.7753 11.2506 25.7204 11.2227 25.6551C11.118 25.4125 11.0226 25.1731 10.9386 24.9377C10.9386 24.9357 10.9365 24.9326 10.9355 24.9305C10.9137 24.8724 10.893 24.8154 10.8733 24.7563C10.8712 24.7522 10.8702 24.747 10.8681 24.7429C10.8495 24.6921 10.8329 24.6433 10.8194 24.5998C10.8173 24.5946 10.8163 24.5894 10.8142 24.5843C10.7956 24.5293 10.7769 24.4744 10.7603 24.4194C10.7593 24.4163 10.7582 24.4122 10.7572 24.4091C10.7334 24.3386 10.7126 24.2681 10.6909 24.1976C10.6701 24.1292 10.6504 24.0618 10.6307 23.9944C10.581 23.8254 10.5374 23.6627 10.4991 23.5062C10.4991 23.5031 10.497 23.4999 10.497 23.4968C10.4794 23.4305 10.4638 23.3652 10.4483 23.2988C10.4473 23.2906 10.4452 23.2823 10.4431 23.275C10.4265 23.2024 10.4099 23.134 10.3954 23.0646C10.3954 23.0625 10.3954 23.0604 10.3944 23.0594C10.3788 22.9879 10.3633 22.9163 10.3498 22.8448C10.3498 22.8427 10.3498 22.8396 10.3488 22.8375C10.3187 22.6914 10.2907 22.54 10.2658 22.3897C10.2544 22.3223 10.2441 22.2612 10.2347 22.1979C10.2171 22.0891 10.2037 21.9927 10.1912 21.9004L10.1891 21.8828C10.1829 21.8382 10.1767 21.7947 10.1715 21.7501C10.1622 21.6765 10.1539 21.606 10.1466 21.5366C10.1466 21.5324 10.1466 21.5293 10.1456 21.5252C10.1259 21.3604 10.1104 21.1924 10.0979 21.0255C10.0979 21.0224 10.0979 21.0193 10.0979 21.0162C10.0948 20.9768 10.0917 20.9385 10.0907 20.8991C10.0907 20.8918 10.0907 20.8835 10.0896 20.8763C10.0855 20.8234 10.0824 20.7705 10.0793 20.7177C10.0793 20.7145 10.0793 20.7114 10.0793 20.7083C10.0741 20.6389 10.072 20.5684 10.0689 20.4989C10.0668 20.4575 10.0658 20.4222 10.0647 20.3849C10.0647 20.3818 10.0647 20.3797 10.0647 20.3766C10.0616 20.303 10.0596 20.2304 10.0585 20.1568C10.0036 17.2781 10.7541 14.5518 12.2292 12.2712C13.0886 10.9433 14.2061 9.84555 15.5495 9.01107C16.8525 8.20147 18.3059 7.6759 19.8691 7.44681C20.1252 7.40949 20.3138 7.18869 20.3128 6.93057C20.3107 6.67141 20.1189 6.45372 19.8619 6.42055C19.3446 6.35317 18.8076 6.31792 18.2644 6.31689H18.2385L18.2344 6.30859Z" fill="#07503E"/>
<path d="M20.0522 28.1246C20.0304 28.1246 20.0076 28.1215 19.9858 28.1163C19.9081 28.0956 19.8303 28.0728 19.7536 28.0489C18.9606 27.8043 18.2287 27.4062 17.5777 26.8651C17.4844 26.7884 17.4575 26.6567 17.5114 26.5489C17.7975 25.9798 18.1427 25.4491 18.5377 24.9712C18.5397 24.9681 18.5428 24.965 18.546 24.9618C19.1503 24.231 19.8925 23.6018 20.7519 23.0897C22.0539 22.3143 23.5435 21.9038 25.0601 21.9038C25.3991 21.9038 25.7412 21.9245 26.076 21.966C26.1765 21.9784 26.2605 22.0479 26.2906 22.1433C26.3134 22.2138 26.3051 22.2925 26.2678 22.3558C26.2304 22.42 26.1672 22.4657 26.0946 22.4802C26.0853 22.4822 26.0739 22.4843 26.0646 22.4874C25.936 22.5206 25.8251 22.5517 25.7225 22.5828C25.6707 22.5973 25.6282 22.6108 25.5846 22.6263C23.8286 23.1903 22.2965 24.3482 21.2681 25.8896C21.2671 25.8917 21.2619 25.899 21.2609 25.9C21.2277 25.9518 21.1945 26.0026 21.1634 26.0555L21.1344 26.1032C21.1344 26.1032 21.1292 26.1125 21.1271 26.1166C21.0919 26.1737 21.0587 26.2296 21.0256 26.2877C20.9913 26.3478 20.9582 26.4069 20.926 26.466C20.8939 26.5261 20.8618 26.5852 20.8307 26.6464C20.7685 26.7676 20.7104 26.8889 20.6576 27.0061L20.6461 27.0309C20.6233 27.0828 20.6005 27.1346 20.5788 27.1875C20.5259 27.3098 20.4782 27.43 20.4316 27.5586C20.4025 27.6363 20.3756 27.7141 20.3486 27.7908C20.3321 27.8374 20.3186 27.881 20.3041 27.9235L20.2978 27.9421C20.2626 28.052 20.161 28.1225 20.0511 28.1225L20.0522 28.1246Z" fill="#07503E"/>
<path d="M25.0595 22.1643C25.3881 22.1643 25.7167 22.184 26.0443 22.2244V22.2275C26.0298 22.2307 26.0132 22.2348 25.9977 22.2389C25.8805 22.269 25.7634 22.3011 25.6462 22.3374C25.5975 22.3509 25.5498 22.3664 25.5011 22.383C23.7471 22.9459 22.159 24.0904 21.053 25.7479C21.0499 25.7521 21.0467 25.7562 21.0447 25.7604C21.0094 25.8143 20.9752 25.8682 20.942 25.9231C20.9306 25.9418 20.9192 25.9604 20.9078 25.9791C20.9068 25.9801 20.9058 25.9822 20.9058 25.9832C20.8695 26.0423 20.8342 26.1014 20.8 26.1615C20.7648 26.2227 20.7306 26.2838 20.6974 26.345C20.6642 26.4062 20.6321 26.4673 20.6 26.5295C20.5367 26.6529 20.4766 26.7773 20.4206 26.9027C20.3926 26.9659 20.3646 27.0281 20.3387 27.0914C20.2838 27.2178 20.234 27.3443 20.1874 27.4729C20.1584 27.5516 20.1304 27.6304 20.1034 27.7092C20.0848 27.761 20.0682 27.8139 20.0516 27.8657C19.9769 27.846 19.9033 27.8243 19.8297 27.8015C19.0678 27.5661 18.3598 27.1785 17.743 26.6664C18.0146 26.1263 18.3432 25.6142 18.7371 25.1373L18.7392 25.1353C19.3073 24.4469 20.0132 23.8322 20.884 23.3139C22.1528 22.5572 23.601 22.1643 25.0595 22.1643ZM25.0595 21.646C23.4963 21.646 21.961 22.0689 20.6186 22.8682C19.7344 23.3948 18.9704 24.0427 18.3474 24.7953C18.3443 24.7994 18.3401 24.8035 18.337 24.8077C17.9307 25.3001 17.5741 25.8474 17.2797 26.4342C17.1708 26.6498 17.2257 26.912 17.4113 27.0655C18.0882 27.6273 18.8501 28.042 19.6763 28.297C19.7686 28.325 19.8453 28.3478 19.9189 28.3675C19.9635 28.3789 20.008 28.3851 20.0516 28.3851C20.2713 28.3851 20.4745 28.2441 20.545 28.0243L20.5512 28.0057C20.5637 27.9663 20.5772 27.9259 20.5906 27.8865C20.5906 27.8834 20.5927 27.8813 20.5937 27.8782C20.6197 27.8035 20.6456 27.7279 20.6736 27.6532C20.7202 27.5257 20.7658 27.4107 20.8135 27.2997C20.8145 27.2966 20.8166 27.2935 20.8176 27.2894C20.8384 27.2396 20.8591 27.1909 20.8819 27.1422L20.8944 27.1142C20.9431 27.0043 20.9991 26.8872 21.0613 26.7679C21.0913 26.7109 21.1214 26.6518 21.1535 26.5938C21.1846 26.5368 21.2167 26.4798 21.2499 26.4217C21.28 26.3688 21.3121 26.3149 21.3484 26.2559C21.3525 26.2496 21.3557 26.2434 21.3588 26.2372L21.3702 26.2185L21.3847 26.1937C21.4158 26.1418 21.4469 26.0931 21.479 26.0444C21.479 26.0444 21.479 26.0423 21.48 26.0423C21.4811 26.0402 21.4832 26.0382 21.4842 26.0361C22.4804 24.5434 23.9628 23.4217 25.6597 22.8775C25.6628 22.8775 25.6659 22.8754 25.668 22.8744C25.7178 22.8578 25.753 22.8464 25.7841 22.8381C25.7893 22.8371 25.7945 22.835 25.7997 22.834C25.8981 22.8039 26.0018 22.7749 26.1262 22.7427C26.1355 22.7407 26.1417 22.7386 26.1469 22.7376C26.2921 22.7075 26.4185 22.6163 26.4921 22.4877C26.5657 22.3592 26.5833 22.2058 26.5367 22.0658C26.4735 21.8761 26.3055 21.7362 26.1075 21.7123C25.7613 21.6698 25.4089 21.6481 25.0595 21.6481V21.646Z" fill="#07503E"/>
<path d="M24.6537 18.4318C24.6132 18.4318 24.5728 18.4225 24.5365 18.4038C24.4723 18.3717 24.4246 18.3137 24.4049 18.2442C24.3914 18.1955 22.9847 13.397 19.6799 12.5138C19.5939 12.491 19.5255 12.4246 19.4996 12.3396L19.4871 12.2992C19.4457 12.1644 19.5193 12.0214 19.653 11.9768C19.6924 11.9633 19.7328 11.9519 19.7732 11.9395C20.3206 11.7778 20.9042 11.6948 21.5106 11.6948C21.7812 11.6948 22.06 11.7114 22.341 11.7435C24.5552 11.9975 26.3558 13.4934 27.4111 15.9564C27.5572 16.2954 27.6879 16.6551 27.7988 17.0262C27.8382 17.1568 27.7687 17.2957 27.6402 17.3434L24.7439 18.4163C24.7148 18.4267 24.6848 18.4329 24.6537 18.4329V18.4318Z" fill="#07503E"/>
<path d="M21.5102 11.9534C21.7694 11.9534 22.0358 11.969 22.3105 12.0001C24.6678 12.2706 26.288 13.9935 27.1723 16.0574C27.3184 16.3964 27.4439 16.7457 27.5496 17.0992L24.6533 18.1721C24.6533 18.1721 23.2352 13.1953 19.7459 12.2623L19.7335 12.2219C19.7708 12.2095 19.8081 12.1981 19.8464 12.1867C20.3585 12.0353 20.9131 11.9534 21.5102 11.9534ZM21.5102 11.4351C20.8789 11.4351 20.2694 11.5212 19.6992 11.6901C19.6547 11.7036 19.6122 11.716 19.5697 11.7306C19.3022 11.8197 19.155 12.1058 19.2379 12.3743L19.2504 12.4147C19.3033 12.5858 19.4391 12.7174 19.6122 12.763C20.5088 13.0025 21.8326 13.7261 23.0486 15.8076C23.8022 17.0982 24.1515 18.3027 24.1546 18.3141C24.194 18.4531 24.2904 18.5692 24.419 18.6345C24.4926 18.6718 24.5724 18.6904 24.6533 18.6904C24.7144 18.6904 24.7745 18.6801 24.8326 18.6583L27.7289 17.5854C27.985 17.49 28.1239 17.2122 28.0451 16.951C27.9311 16.5705 27.7973 16.2015 27.647 15.8522C27.1526 14.6974 26.457 13.7001 25.637 12.9693C24.6895 12.1245 23.5897 11.6259 22.3675 11.4849C22.0773 11.4517 21.788 11.4341 21.5081 11.4341L21.5102 11.4351Z" fill="#07503E"/>
<path d="M19.4456 33.2945C19.4311 33.2945 19.4156 33.2935 19.4011 33.2904C19.3347 33.279 19.2684 33.2655 19.2031 33.2531C19.1564 33.2448 19.1056 33.2344 19.0559 33.223C19.0165 33.2147 18.975 33.2064 18.9335 33.1971C18.8973 33.1898 18.8548 33.1795 18.8123 33.1701C18.7407 33.1546 18.6682 33.1359 18.5956 33.1183C18.5521 33.1079 18.5075 33.0965 18.4629 33.0841C18.4401 33.0789 18.4101 33.0717 18.3821 33.0634C18.3385 33.052 18.2888 33.0385 18.24 33.024C18.1799 33.0074 18.1157 32.9877 18.0524 32.968C17.9985 32.9525 17.9384 32.9338 17.8814 32.9151C17.8648 32.91 17.8482 32.9048 17.8316 32.8996C17.786 32.8851 17.7425 32.8706 17.6979 32.855L17.6855 32.8509C17.502 32.7897 17.3195 32.7223 17.1443 32.6518C17.0915 32.6311 17.0448 32.6124 16.9982 32.5917C16.9826 32.5865 16.9681 32.5813 16.9546 32.5741C16.8987 32.5513 16.8437 32.5274 16.7898 32.5026C16.6779 32.4528 16.5638 32.401 16.4508 32.3471C16.3731 32.3097 16.3036 32.2755 16.2342 32.2403C16.1647 32.2061 16.0932 32.1688 16.0227 32.1315C15.9543 32.0962 15.8817 32.0568 15.8112 32.0174C15.6775 31.9428 15.5386 31.8619 15.4018 31.7769C15.3541 31.7469 15.3054 31.7168 15.2566 31.6857C15.2235 31.666 15.1913 31.6453 15.1592 31.6235L15.1519 31.6183C15.1105 31.5914 15.068 31.5634 15.0265 31.5354C15.0047 31.5219 14.9851 31.5084 14.9674 31.495C14.9197 31.4639 14.8721 31.4307 14.8254 31.3965C14.8078 31.3851 14.7933 31.3747 14.7819 31.3654C14.729 31.3291 14.6761 31.2907 14.6243 31.2534C14.4916 31.157 14.3662 31.0596 14.2459 30.9632C14.1869 30.9176 14.1247 30.8657 14.0635 30.8139C14.0054 30.7652 13.9464 30.7154 13.8873 30.6636C13.8334 30.6169 13.7774 30.5682 13.7235 30.5185C13.6105 30.4189 13.4913 30.307 13.3607 30.1785C13.2591 30.0789 13.1575 29.9753 13.059 29.8706C13.0486 29.8612 13.0393 29.8509 13.03 29.8395C12.9833 29.7908 12.9388 29.7431 12.8942 29.6933C12.888 29.6871 12.8807 29.6788 12.8714 29.6674C12.8289 29.6218 12.7884 29.5762 12.747 29.5285C12.6444 29.4134 12.5407 29.2901 12.4298 29.1532C12.3811 29.0941 12.3313 29.0319 12.2836 28.9698C12.2411 28.9158 12.1996 28.8619 12.1582 28.807C12.1457 28.7925 12.1354 28.778 12.1281 28.7655C12.0929 28.7199 12.0587 28.6733 12.0245 28.6266C12.012 28.6111 12.0006 28.5955 11.9892 28.58C11.9477 28.523 11.9063 28.4649 11.8659 28.4058C11.7332 28.2172 11.6026 28.0192 11.4792 27.8201C11.4419 27.761 11.4046 27.6999 11.3683 27.6387C11.361 27.6294 11.3538 27.617 11.3465 27.6035C11.3185 27.5568 11.2916 27.5091 11.2636 27.4615C11.1744 27.308 11.0894 27.1546 11.0096 27.0033C10.9495 26.8903 10.8904 26.7752 10.8334 26.6591C10.7836 26.5617 10.7359 26.4611 10.6903 26.3606C10.6623 26.3025 10.6333 26.2393 10.6053 26.175C10.5981 26.1615 10.5908 26.1481 10.5856 26.1335C10.5576 26.0724 10.5307 26.0102 10.5037 25.947C10.3949 25.6961 10.2943 25.4411 10.2041 25.1902C10.1803 25.128 10.1565 25.0617 10.1337 24.9953C10.114 24.9414 10.0922 24.8803 10.0735 24.8191C10.0549 24.7642 10.0341 24.702 10.0144 24.6387C9.9906 24.5672 9.96676 24.4905 9.94395 24.4138C9.92218 24.3443 9.90145 24.2728 9.88072 24.2013C9.82889 24.023 9.78224 23.8488 9.74078 23.6799C9.72212 23.6073 9.70346 23.5306 9.6848 23.4539C9.68376 23.4477 9.68169 23.4394 9.67961 23.429C9.66303 23.3564 9.64541 23.2849 9.63089 23.2123C9.61431 23.1367 9.59772 23.0579 9.58217 22.9801C9.55107 22.8288 9.52101 22.6681 9.49406 22.5054C9.48266 22.4411 9.47229 22.3758 9.46192 22.3094C9.44534 22.2037 9.42875 22.0959 9.41528 21.9902L9.4132 21.9746C9.40698 21.9259 9.39973 21.8782 9.39454 21.8285C9.38521 21.7538 9.37588 21.6771 9.36863 21.5994C9.3479 21.4283 9.33131 21.2469 9.31783 21.0676C9.31369 21.023 9.31058 20.9753 9.3085 20.9256C9.30332 20.8654 9.30021 20.8053 9.2971 20.7441C9.29192 20.6747 9.28881 20.6011 9.2857 20.5275C9.28363 20.4777 9.28155 20.4352 9.28155 20.3917C9.27844 20.316 9.27637 20.2362 9.27533 20.1553C9.21832 17.1253 10.0113 14.2487 11.5704 11.8375C13.4032 9.01061 16.3088 7.17372 19.7525 6.66992C20.3589 6.58077 20.9819 6.53516 21.6018 6.53516C22.146 6.53516 22.6986 6.5704 23.2438 6.63882C25.5638 6.93426 27.6671 7.9149 29.3278 9.47502C30.9325 10.9833 32.0935 12.9995 32.6854 15.305C32.7186 15.4346 32.647 15.5693 32.5206 15.6139L27.637 17.344C27.609 17.3544 27.58 17.3585 27.551 17.3585C27.5106 17.3585 27.4701 17.3492 27.4339 17.3305C27.3706 17.2984 27.3229 17.2414 27.3032 17.174C27.1985 16.8226 27.0741 16.4816 26.9363 16.1602C26.3692 14.8364 25.0113 12.5714 22.2829 12.2573C22.0216 12.2273 21.7625 12.2117 21.5116 12.2117C20.955 12.2117 20.4201 12.2863 19.9214 12.4346C19.8862 12.4449 19.851 12.4563 19.8157 12.4677C17.8824 13.0856 16.824 14.6726 16.2756 15.8948C15.1426 18.4221 15.1074 21.7569 16.1896 24.193C16.5814 25.0741 17.1754 25.8599 17.9073 26.4653C18.5054 26.9618 19.1782 27.3277 19.9049 27.5527C19.9754 27.5745 20.0458 27.5952 20.1163 27.6138C20.1858 27.6325 20.2438 27.6781 20.278 27.7414C20.3123 27.8046 20.3185 27.8782 20.2957 27.9466C20.276 28.0057 20.2584 28.0637 20.2407 28.1228L20.1848 28.3177C20.1682 28.3778 20.1516 28.4431 20.135 28.5074C20.1184 28.5717 20.1029 28.636 20.0873 28.7013C20.0738 28.7593 20.0614 28.8174 20.0479 28.8754L20.0438 28.8962C20.0179 29.0195 19.993 29.1449 19.9702 29.2714C19.9702 29.2735 19.936 29.4725 19.936 29.4725C19.936 29.4767 19.9318 29.5005 19.9318 29.5005C19.9225 29.5596 19.9132 29.6176 19.9049 29.6767C19.8841 29.8198 19.8655 29.9649 19.8489 30.11L19.8427 30.165C19.8385 30.2044 19.8344 30.2438 19.8302 30.2832C19.823 30.3557 19.8167 30.4231 19.8105 30.4905C19.8002 30.6076 19.7908 30.7258 19.7825 30.845C19.7794 30.8937 19.7763 30.9331 19.7742 30.9735C19.7711 31.0223 19.7691 31.0627 19.767 31.1052C19.7597 31.2441 19.7535 31.383 19.7494 31.5219C19.7463 31.5934 19.7442 31.6619 19.7431 31.7303C19.7359 32.035 19.7349 32.3523 19.738 32.6995C19.738 32.797 19.7411 32.8934 19.7421 32.9908V33.0271C19.7452 33.1639 19.6405 33.279 19.5047 33.2904L19.4653 33.2935C19.4581 33.2935 19.4519 33.2935 19.4446 33.2935L19.4456 33.2945Z" fill="white"/>
<path d="M21.6023 6.79468C22.1361 6.79468 22.6741 6.82889 23.2121 6.89627C27.9101 7.49336 31.276 10.8551 32.435 15.3696L27.5515 17.0997C27.4457 16.7463 27.3203 16.3969 27.1741 16.0579C26.2899 13.994 24.6696 12.2712 22.3124 12.0006C22.0377 11.9685 21.7702 11.954 21.5121 11.954C20.915 11.954 20.3604 12.0358 19.8483 12.1872C19.81 12.1986 19.7726 12.21 19.7353 12.2224C15.34 13.6281 14.151 20.2417 15.9537 24.2991C16.3694 25.2341 16.9883 26.0417 17.7429 26.6657C18.3597 27.1778 19.0677 27.5655 19.8296 27.8008C19.9032 27.8236 19.9768 27.8454 20.0515 27.8651C20.0308 27.9273 20.0121 27.9895 19.9934 28.0517L19.9375 28.2476C19.9198 28.3129 19.9022 28.3792 19.8856 28.4445C19.869 28.5099 19.8525 28.5762 19.8369 28.6425C19.8214 28.7089 19.8068 28.7752 19.7923 28.8416C19.7654 28.9691 19.7405 29.0966 19.7167 29.2251C19.7146 29.2396 19.7115 29.2531 19.7094 29.2666C19.699 29.3257 19.6897 29.3837 19.6793 29.4418V29.4449C19.669 29.5102 19.6586 29.5755 19.6493 29.6408C19.6285 29.787 19.6088 29.9342 19.5923 30.0814C19.586 30.1415 19.5788 30.2016 19.5736 30.2617C19.5663 30.3302 19.5601 30.3996 19.5539 30.468C19.5435 30.5872 19.5342 30.7075 19.5259 30.8277C19.5228 30.8723 19.5197 30.9169 19.5176 30.9625C19.5145 31.006 19.5124 31.0496 19.5104 31.0942C19.5031 31.2331 19.4969 31.374 19.4927 31.515C19.4896 31.5855 19.4876 31.656 19.4865 31.7265C19.4793 32.0489 19.4782 32.3744 19.4813 32.702C19.4824 32.8118 19.4845 32.9207 19.4865 33.0316L19.4471 33.0347H19.4461C19.3808 33.0233 19.3165 33.0109 19.2522 32.9984C19.2056 32.9901 19.159 32.9808 19.1133 32.9704C19.0729 32.9621 19.0325 32.9539 18.9921 32.9445C18.9516 32.9362 18.9112 32.9269 18.8708 32.9176C18.7992 32.902 18.7288 32.8844 18.6583 32.8668C18.6147 32.8564 18.5722 32.845 18.5297 32.8336C18.5038 32.8274 18.4779 32.8212 18.453 32.8139C18.4053 32.8015 18.3576 32.788 18.311 32.7745C18.2498 32.7579 18.1887 32.7393 18.1285 32.7206C18.0715 32.704 18.0135 32.6864 17.9575 32.6677C17.943 32.6636 17.9285 32.6595 17.915 32.6543C17.8652 32.6387 17.8165 32.6221 17.7678 32.6056C17.5885 32.5454 17.4133 32.4812 17.2402 32.4117C17.1904 32.392 17.1406 32.3723 17.0909 32.3505C17.0784 32.3464 17.067 32.3422 17.0556 32.3371C17.0017 32.3153 16.9489 32.2925 16.897 32.2686C16.784 32.2189 16.6721 32.1681 16.5612 32.1152C16.4907 32.081 16.4202 32.0468 16.3507 32.0116C16.2813 31.9774 16.2118 31.9411 16.1434 31.9048C16.074 31.8695 16.0055 31.8322 15.9382 31.7939C15.8034 31.7192 15.6697 31.6405 15.538 31.5586C15.4893 31.5285 15.4406 31.4984 15.3929 31.4673C15.3628 31.4497 15.3338 31.4311 15.3048 31.4114C15.2602 31.3823 15.2156 31.3533 15.1711 31.3232C15.1534 31.3118 15.1348 31.3004 15.1182 31.287C15.0674 31.2538 15.0176 31.2196 14.9679 31.1833C14.9565 31.1771 14.9461 31.1688 14.9358 31.1605C14.8808 31.1232 14.8269 31.0838 14.773 31.0444C14.6496 30.9542 14.5284 30.8609 14.4091 30.7645C14.349 30.7179 14.2899 30.6691 14.2319 30.6194C14.1738 30.5707 14.1158 30.5219 14.0577 30.4711C14.0038 30.4245 13.9499 30.3768 13.8971 30.3291C13.7758 30.2213 13.6576 30.1094 13.5425 29.9964C13.4389 29.8948 13.3383 29.7922 13.2398 29.6875C13.2347 29.6833 13.2305 29.6792 13.2284 29.675C13.1787 29.6232 13.13 29.5714 13.0823 29.5185C13.0781 29.5143 13.074 29.5102 13.0719 29.506C13.0273 29.4584 12.9848 29.4107 12.9423 29.362C12.8356 29.2417 12.7319 29.1184 12.6313 28.994C12.5826 28.9349 12.5349 28.8747 12.4883 28.8146C12.4447 28.7586 12.4012 28.7027 12.3587 28.6457C12.3514 28.6384 12.3463 28.6301 12.3421 28.6228C12.3038 28.5731 12.2664 28.5233 12.2302 28.4725C12.2188 28.4591 12.2094 28.4456 12.2001 28.4321C12.1597 28.3761 12.1192 28.3191 12.0799 28.2621C11.9482 28.0745 11.8217 27.8827 11.7004 27.6868C11.6611 27.6246 11.6227 27.5613 11.5854 27.4981C11.5812 27.4929 11.5781 27.4888 11.5761 27.4836C11.547 27.4349 11.518 27.3851 11.489 27.3354C11.4029 27.1871 11.32 27.0378 11.2402 26.8865C11.1801 26.7745 11.1231 26.6616 11.0671 26.5486C11.0184 26.4522 10.9717 26.3547 10.9271 26.2573C10.895 26.1909 10.8649 26.1235 10.8359 26.0562C10.8328 26.0531 10.8307 26.0499 10.8307 26.0458C10.8007 25.9815 10.7727 25.9162 10.7447 25.8499C10.6389 25.6052 10.5405 25.3575 10.4503 25.1066C10.4264 25.0434 10.4036 24.9802 10.3819 24.9159C10.3611 24.8599 10.3414 24.8029 10.3238 24.7459C10.3031 24.6858 10.2834 24.6256 10.2647 24.5655C10.2398 24.4909 10.217 24.4162 10.1942 24.3416C10.1725 24.2711 10.1517 24.1996 10.131 24.128C10.0823 23.9612 10.0367 23.7922 9.99521 23.6222C9.97551 23.5475 9.95789 23.4729 9.94026 23.3983C9.93923 23.3941 9.93819 23.391 9.93819 23.3869C9.92057 23.3122 9.90295 23.2376 9.8874 23.163C9.87081 23.0873 9.85422 23.0106 9.83971 22.9349C9.80758 22.7794 9.77855 22.6229 9.75264 22.4663C9.74123 22.401 9.73087 22.3368 9.7205 22.2715C9.70391 22.1678 9.68837 22.0631 9.67489 21.9594C9.66763 21.9066 9.66038 21.8547 9.65416 21.8019C9.64483 21.7272 9.6355 21.6526 9.62824 21.578C9.60751 21.4038 9.59092 21.2286 9.57848 21.0534C9.57434 21.0068 9.57123 20.9601 9.56915 20.9124C9.56397 20.8534 9.56086 20.7943 9.55775 20.7352C9.55257 20.6605 9.54946 20.5859 9.54635 20.5113C9.54427 20.4708 9.54324 20.4304 9.5422 20.389C9.53909 20.3112 9.53702 20.2335 9.53598 20.1557C9.48208 17.3154 10.2056 14.4315 11.7896 11.9819C13.6306 9.13537 16.5653 7.39903 19.7903 6.92737C20.3863 6.83925 20.9917 6.79572 21.6023 6.79468ZM21.6023 6.27637C20.9689 6.27637 20.3345 6.32302 19.7146 6.41424C18.0093 6.66406 16.4223 7.23835 14.9979 8.12363C13.5228 9.04 12.2975 10.2435 11.3542 11.701C9.76715 14.1557 8.95858 17.0832 9.01767 20.1661C9.01871 20.2438 9.02078 20.3257 9.02389 20.4066C9.02493 20.4511 9.02596 20.4947 9.02804 20.5382C9.03115 20.6108 9.03426 20.6896 9.03944 20.7673C9.04255 20.8223 9.04566 20.8834 9.05084 20.9467C9.05292 20.9964 9.05602 21.0451 9.06121 21.0949C9.07365 21.2742 9.09127 21.4556 9.112 21.6339C9.11926 21.7117 9.12963 21.7884 9.13895 21.8661C9.14414 21.9138 9.15139 21.9636 9.15865 22.0154L9.16072 22.0299C9.17316 22.1284 9.18871 22.2352 9.20841 22.3534C9.21877 22.4207 9.23018 22.4881 9.24158 22.5555C9.2675 22.7141 9.29859 22.8768 9.33073 23.0365C9.34524 23.1142 9.36287 23.193 9.37945 23.2718C9.39396 23.3433 9.41055 23.4149 9.42817 23.4864C9.43025 23.4988 9.43336 23.5102 9.43647 23.5227C9.45409 23.5983 9.47275 23.674 9.49244 23.7497C9.53391 23.9197 9.58159 24.0959 9.63342 24.2732C9.65519 24.3488 9.67696 24.4225 9.69873 24.494C9.72154 24.5697 9.74538 24.6464 9.77129 24.7241C9.78995 24.7853 9.81069 24.8464 9.83142 24.9066C9.85008 24.9646 9.86977 25.0247 9.89362 25.088C9.91539 25.1512 9.93819 25.2165 9.96411 25.2849C10.0553 25.5389 10.158 25.798 10.2689 26.0551C10.2917 26.1101 10.3186 26.1723 10.3466 26.2345C10.3549 26.2552 10.3632 26.2749 10.3736 26.2946C10.4036 26.363 10.4306 26.4221 10.4575 26.4781C10.5052 26.5828 10.555 26.6854 10.6037 26.7828C10.6504 26.8761 10.7146 27.0047 10.783 27.1322C10.8618 27.2825 10.9489 27.439 11.0401 27.5956C11.0681 27.6432 11.0951 27.6899 11.122 27.7355C11.1324 27.7531 11.1417 27.7697 11.151 27.7821C11.1894 27.8475 11.2257 27.9065 11.2609 27.9625C11.3864 28.1647 11.519 28.3658 11.6548 28.5606C11.6932 28.6166 11.7347 28.6747 11.7761 28.7317C11.7855 28.7462 11.8 28.7659 11.8176 28.7877C11.8477 28.8291 11.8798 28.8727 11.9161 28.9204C11.9285 28.939 11.9409 28.9556 11.9544 28.9722C11.9949 29.0261 12.0363 29.079 12.0778 29.1329C12.1327 29.2034 12.1825 29.2666 12.2302 29.3246C12.34 29.4604 12.4468 29.5869 12.5536 29.7072C12.5961 29.7559 12.6355 29.7994 12.6738 29.8409C12.6842 29.8533 12.6946 29.8647 12.7029 29.874C12.7423 29.9176 12.7858 29.9642 12.8345 30.0161C12.847 30.0306 12.8604 30.0451 12.8739 30.0586C12.9724 30.1633 13.075 30.2669 13.1776 30.3685C13.3103 30.4991 13.4326 30.6142 13.5508 30.7189C13.6037 30.7666 13.6597 30.8163 13.7167 30.8651C13.7747 30.9159 13.8349 30.9666 13.895 31.0164C13.9624 31.0734 14.0246 31.1253 14.0857 31.1729C14.2101 31.2735 14.3376 31.3709 14.4651 31.4653C14.517 31.5036 14.5698 31.542 14.6268 31.5814C14.6403 31.5917 14.6569 31.6042 14.6776 31.6176C14.7222 31.6498 14.7678 31.6809 14.8155 31.713C14.8414 31.7327 14.8642 31.7472 14.8808 31.7576L14.8839 31.7597C14.9275 31.7897 14.972 31.8177 15.0156 31.8467C15.0508 31.8706 15.084 31.8924 15.1172 31.911C15.1648 31.9421 15.2136 31.9722 15.2623 32.0022C15.4012 32.0883 15.5432 32.1722 15.6821 32.249C15.7609 32.2935 15.8324 32.3329 15.9019 32.3682C15.9651 32.4013 16.0398 32.4407 16.1165 32.478C16.188 32.5143 16.2606 32.5496 16.3321 32.5848C16.4409 32.6366 16.555 32.6885 16.6814 32.7445C16.7364 32.7704 16.7934 32.7942 16.8504 32.8181C16.868 32.8253 16.8846 32.8326 16.8991 32.8378C16.9478 32.8585 16.9966 32.8782 17.0463 32.8979C17.2236 32.9694 17.4112 33.0378 17.5999 33.1011C17.6465 33.1166 17.6952 33.1332 17.745 33.1487C17.7668 33.156 17.7865 33.1622 17.801 33.1664C17.8528 33.184 17.9098 33.2016 17.9762 33.2203C18.0456 33.242 18.1057 33.2597 18.1679 33.2773C18.2156 33.2908 18.2643 33.3042 18.3131 33.3177C18.3411 33.326 18.3701 33.3333 18.3991 33.3395C18.4437 33.3509 18.4872 33.3633 18.5318 33.3737C18.6033 33.3913 18.6769 33.41 18.7536 33.4266C18.7961 33.4369 18.8376 33.4463 18.878 33.4545C18.9185 33.4639 18.9599 33.4722 19.0003 33.4805C19.0491 33.4919 19.1009 33.5022 19.1538 33.5116C19.2201 33.524 19.2854 33.5375 19.3528 33.5489C19.3818 33.5541 19.4119 33.5561 19.4419 33.5561C19.4554 33.5561 19.4699 33.5561 19.4834 33.5541L19.5228 33.5509C19.7965 33.5292 20.0048 33.2991 19.9997 33.0243V33.0057C19.9976 32.9031 19.9955 32.8015 19.9945 32.6988C19.9914 32.3516 19.9924 32.0385 19.9997 31.74C20.0007 31.6705 20.0028 31.6052 20.0059 31.5399C20.0059 31.5378 20.0059 31.5347 20.0059 31.5326C20.01 31.4083 20.0152 31.2745 20.0235 31.1232C20.0256 31.0796 20.0276 31.0403 20.0297 31.0019C20.0297 30.9977 20.0297 30.9926 20.0297 30.9884C20.0318 30.947 20.0349 30.9065 20.037 30.8661C20.0453 30.749 20.0546 30.6318 20.0639 30.5157L20.066 30.4981C20.0712 30.439 20.0764 30.3789 20.0836 30.3188C20.0836 30.3156 20.0836 30.3115 20.0836 30.3084C20.0867 30.2721 20.0909 30.2369 20.095 30.2006L20.1023 30.1363C20.1158 30.0181 20.1334 29.8823 20.1572 29.7154C20.1665 29.6532 20.1759 29.5911 20.1862 29.5278C20.1862 29.5226 20.1873 29.5185 20.1883 29.5133C20.1925 29.4874 20.1976 29.4604 20.2018 29.4345L20.2153 29.3578C20.2153 29.3578 20.2163 29.3506 20.2173 29.3474C20.2194 29.336 20.2215 29.3246 20.2236 29.3143C20.2484 29.1816 20.2723 29.0624 20.2951 28.9504C20.3086 28.8903 20.322 28.826 20.3376 28.7628C20.3521 28.6996 20.3687 28.6363 20.3842 28.5741C20.3998 28.513 20.4164 28.4497 20.433 28.3886L20.4869 28.1989C20.5035 28.1429 20.52 28.0869 20.5387 28.0309C20.5843 27.8951 20.5708 27.7469 20.5035 27.6204C20.435 27.494 20.3179 27.4017 20.18 27.3654C20.1209 27.3499 20.0577 27.3312 19.9789 27.3074C19.2833 27.0928 18.6417 26.7434 18.0695 26.2687C17.3677 25.6882 16.7986 24.9356 16.4223 24.0907C15.368 21.7189 15.4022 18.4691 16.5083 16.004C17.0349 14.8295 18.0487 13.3067 19.8887 12.7179C19.8908 12.7179 19.8929 12.7169 19.895 12.7159C19.9271 12.7055 19.9592 12.6951 19.9914 12.6858C20.4661 12.5448 20.9762 12.4733 21.5069 12.4733C21.7474 12.4733 21.9972 12.4878 22.2481 12.5168C23.3635 12.6443 25.4243 13.3016 26.6931 16.2632C26.8279 16.5763 26.9481 16.9069 27.0508 17.249C27.0912 17.3848 27.1866 17.4988 27.313 17.5631C27.3866 17.6004 27.4664 17.6191 27.5473 17.6191C27.6054 17.6191 27.6644 17.6087 27.7204 17.589L32.604 15.8589C32.8569 15.7698 32.9999 15.5013 32.9326 15.2411C32.3282 12.8879 31.1423 10.8292 29.5013 9.28672C27.8013 7.68825 25.6482 6.6848 23.2733 6.3821C22.7177 6.31161 22.1538 6.27637 21.5981 6.27637L21.6023 6.27637Z" fill="#07503E"/>
<path d="M21.6072 33.4647C21.3988 33.4647 21.1874 33.4595 20.979 33.4512C20.5737 33.4326 20.1715 33.3984 19.7838 33.3476C19.6998 33.3372 19.6148 33.3258 19.5308 33.3123C19.5008 33.3082 19.4697 33.303 19.4386 33.2978C19.3152 33.275 19.2261 33.1682 19.2261 33.0428V33.0003C19.224 32.9008 19.2219 32.8034 19.2209 32.7059C19.2178 32.3535 19.2188 32.0311 19.2261 31.7222C19.2271 31.6506 19.2292 31.5781 19.2323 31.5045C19.2364 31.3656 19.2427 31.2225 19.2499 31.0815C19.252 31.0359 19.2541 30.9903 19.2572 30.9447C19.2582 30.9074 19.2613 30.8638 19.2644 30.8213C19.2738 30.6897 19.2831 30.5674 19.2935 30.4471C19.2997 30.3766 19.3059 30.3051 19.3132 30.2356C19.3163 30.1973 19.3214 30.1538 19.3256 30.1102L19.3318 30.0553C19.3494 29.9039 19.3691 29.7536 19.3899 29.6054C19.3982 29.5442 19.4085 29.4831 19.4178 29.4219C19.4178 29.4219 19.4199 29.4032 19.421 29.397L19.4572 29.1887C19.4832 29.0487 19.508 28.9191 19.536 28.7896L19.5412 28.7668C19.5547 28.7066 19.5682 28.6455 19.5816 28.5853C19.5972 28.5169 19.6148 28.4495 19.6314 28.3822C19.648 28.3158 19.6666 28.2484 19.6843 28.1821L19.7413 27.982C19.762 27.9126 19.7817 27.8483 19.8024 27.784L19.8076 27.7685C19.8232 27.7198 19.8387 27.671 19.8563 27.6223C19.8823 27.5456 19.9113 27.4648 19.9413 27.3839C19.9911 27.246 20.0429 27.1164 20.0979 26.9889C20.1196 26.9371 20.1445 26.8811 20.1694 26.8241L20.1808 26.7992C20.2368 26.6738 20.299 26.5432 20.3664 26.4126C20.3995 26.3483 20.4327 26.2851 20.4669 26.2229C20.5011 26.1607 20.5364 26.0974 20.5726 26.0342C20.6058 25.9751 20.6411 25.9171 20.6773 25.858C20.6794 25.8538 20.6846 25.8455 20.6846 25.8455L20.7178 25.7906C20.752 25.7346 20.7862 25.6807 20.8214 25.6258C20.8266 25.6175 20.8318 25.6092 20.838 25.6009C21.9317 23.9651 23.5581 22.7357 25.4199 22.1375C25.4686 22.121 25.5215 22.1033 25.5754 22.0888C25.678 22.0567 25.7972 22.0235 25.931 21.9893C25.9475 21.9852 25.9672 21.98 25.9859 21.9758C26.6711 21.8048 27.3739 21.7188 28.0768 21.7188C30.2516 21.7188 32.3321 22.5512 33.9368 24.0626C34.0125 24.1341 34.0384 24.2429 34.0021 24.3404L33.8912 24.6431C33.206 26.4686 32.2937 28.0411 31.1804 29.3193C29.2492 31.5335 26.4648 32.9682 23.3404 33.358C22.7713 33.4295 22.1877 33.4658 21.6062 33.4658L21.6072 33.4647Z" fill="#2FCE65"/>
<path d="M28.0783 21.9753C30.0915 21.9753 32.1222 22.7051 33.7611 24.2487L33.6502 24.5514C33.0251 26.2162 32.1585 27.8022 30.9871 29.1467C29.0061 31.4179 26.2352 32.7334 23.3099 33.0983C22.747 33.1688 22.1779 33.204 21.6077 33.204C21.4025 33.204 21.1962 33.1999 20.991 33.1906C20.5981 33.1729 20.2073 33.1398 19.8175 33.089C19.7346 33.0786 19.6516 33.0672 19.5697 33.0548C19.5418 33.0506 19.5138 33.0465 19.4858 33.0413V33.0309C19.4837 32.92 19.4816 32.8112 19.4806 32.7013C19.4775 32.3737 19.4785 32.0482 19.4858 31.7258C19.4868 31.6553 19.4889 31.5848 19.492 31.5143C19.4961 31.3734 19.5024 31.2324 19.5096 31.0935C19.5117 31.0489 19.5138 31.0054 19.5169 30.9618C19.5189 30.9162 19.5221 30.8716 19.5252 30.8271C19.5335 30.7068 19.5428 30.5866 19.5532 30.4674C19.5594 30.3989 19.5656 30.3295 19.5729 30.2611C19.578 30.2009 19.5853 30.1408 19.5915 30.0807C19.6081 29.9335 19.6278 29.7863 19.6485 29.6401C19.6579 29.5748 19.6682 29.5095 19.6786 29.4442V29.4411C19.689 29.383 19.6983 29.325 19.7087 29.2659C19.7107 29.2524 19.7138 29.239 19.7159 29.2244C19.7397 29.0959 19.7646 28.9684 19.7916 28.8409C19.8061 28.7746 19.8206 28.7082 19.8362 28.6419C19.8517 28.5755 19.8683 28.5092 19.8849 28.4439C19.9015 28.3786 19.9191 28.3122 19.9367 28.2469L19.9927 28.051C20.0113 27.9888 20.03 27.9266 20.0507 27.8644C20.0673 27.8126 20.0839 27.7597 20.1026 27.7079C20.1295 27.6291 20.1575 27.5503 20.1865 27.4715C20.2332 27.343 20.2829 27.2165 20.3379 27.09C20.3638 27.0268 20.3918 26.9646 20.4198 26.9014C20.4758 26.7759 20.5359 26.6515 20.5991 26.5282C20.6312 26.466 20.6634 26.4048 20.6966 26.3437C20.7297 26.2825 20.7639 26.2214 20.7992 26.1602C20.8334 26.1001 20.8686 26.041 20.9049 25.9819C20.9049 25.9809 20.9059 25.9788 20.907 25.9777C20.9184 25.9591 20.9298 25.9404 20.9412 25.9218C20.9744 25.8668 21.0086 25.8129 21.0438 25.759C21.0459 25.7549 21.049 25.7507 21.0521 25.7466C22.1582 24.089 23.7463 22.9446 25.5003 22.3817C25.549 22.3651 25.5967 22.3496 25.6454 22.3361C25.7625 22.2998 25.8797 22.2677 25.9968 22.2376C26.0124 22.2335 26.0289 22.2293 26.0445 22.2262C26.709 22.0603 27.3931 21.9753 28.0783 21.9753ZM28.0783 21.457C27.3558 21.457 26.6323 21.5462 25.9284 21.7214C25.9066 21.7255 25.8849 21.7317 25.8631 21.7369C25.7304 21.7711 25.6101 21.8043 25.4982 21.8385C25.437 21.8551 25.38 21.8748 25.3365 21.8893C23.4229 22.504 21.7508 23.7687 20.6261 25.4491C20.6188 25.4594 20.6105 25.4719 20.6012 25.4864C20.5628 25.5465 20.5276 25.6004 20.4965 25.6533L20.483 25.675L20.4633 25.7072C20.4633 25.7072 20.4571 25.7176 20.454 25.7227C20.4146 25.787 20.3793 25.8471 20.3472 25.9041C20.3109 25.9663 20.2746 26.0316 20.2394 26.097C20.2042 26.1612 20.171 26.2255 20.1368 26.2908C20.0663 26.4287 20.002 26.5624 19.945 26.6909L19.9326 26.72C19.9077 26.777 19.8828 26.833 19.859 26.89C19.803 27.0195 19.7501 27.1522 19.6983 27.2963C19.6693 27.3751 19.6402 27.457 19.6122 27.5379C19.5946 27.5876 19.578 27.6395 19.5615 27.6892L19.5563 27.7048C19.5345 27.7711 19.5148 27.8374 19.4941 27.9038C19.4941 27.9059 19.493 27.9079 19.492 27.91L19.436 28.1059C19.436 28.1059 19.435 28.1111 19.4339 28.1132C19.4153 28.1806 19.3977 28.25 19.38 28.3174C19.3624 28.3858 19.3458 28.4553 19.3292 28.5247C19.3127 28.5931 19.2981 28.6626 19.2826 28.731C19.2556 28.8564 19.2308 28.986 19.2038 29.1311C19.2028 29.1363 19.2017 29.1426 19.2007 29.1477V29.1519C19.1976 29.1612 19.1966 29.1716 19.1945 29.1809C19.1893 29.2079 19.1852 29.2338 19.181 29.2607C19.1758 29.2908 19.1706 29.3209 19.1655 29.3509C19.1634 29.3613 19.1624 29.3727 19.1603 29.383C19.1509 29.4442 19.1406 29.5064 19.1323 29.5676C19.1074 29.7459 19.0888 29.89 19.0732 30.0237L19.0659 30.0869C19.0618 30.1284 19.0566 30.1709 19.0535 30.2123C19.0473 30.2756 19.0411 30.3388 19.0348 30.402L19.0328 30.4217C19.0224 30.5461 19.012 30.6695 19.0037 30.7929C19.0006 30.8395 18.9975 30.8851 18.9955 30.9328C18.9923 30.9784 18.9903 31.024 18.9882 31.0707C18.9799 31.2241 18.9747 31.3651 18.9706 31.4967C18.9675 31.5714 18.9654 31.645 18.9644 31.7196C18.9571 32.0254 18.9561 32.3499 18.9592 32.7075C18.9592 32.8132 18.9623 32.9179 18.9644 33.0237V33.0371V33.0423C18.9644 33.2922 19.1427 33.5067 19.3883 33.5523C19.4225 33.5586 19.4568 33.5637 19.491 33.5689C19.5739 33.5814 19.661 33.5938 19.7501 33.6052C20.142 33.656 20.5514 33.6913 20.965 33.7099C21.1775 33.7192 21.3932 33.7244 21.6046 33.7244C22.1976 33.7244 22.7916 33.6871 23.3721 33.6145C26.5597 33.2165 29.4021 31.7517 31.3748 29.4898C32.5089 28.1878 33.4366 26.5883 34.1322 24.7359L34.2442 24.429C34.3157 24.2341 34.2639 24.0154 34.1125 23.8734C32.4591 22.3164 30.3154 21.4591 28.0752 21.4591L28.0783 21.457Z" fill="#07503E"/>
</g>
<defs>
<clipPath id="clip0_785_77074">
<rect width="28.56" height="27.4477" fill="white" transform="translate(5.72021 6.27637)"/>
</clipPath>
</defs>
</svg>
