<svg width="200" height="200" viewBox="0 0 200 200" fill="none" xmlns="http://www.w3.org/2000/svg">
<path d="M145.767 91.6871H155.276V95.2454H149.417V97.9448H153.896V101.411H149.417V107.73H145.767V91.6871ZM163.619 102.086C163.619 100.552 162.577 99.4785 161.196 99.4785C159.816 99.4785 158.773 100.552 158.773 102.086C158.773 103.62 159.816 104.755 161.196 104.755C162.577 104.755 163.619 103.62 163.619 102.086ZM155.307 102.086C155.276 98.8344 157.914 96.1656 161.166 96.135C164.417 96.1043 167.086 98.7423 167.116 101.994C167.147 105.245 164.509 107.914 161.258 107.945H161.196C157.975 107.945 155.307 105.337 155.307 102.086ZM176.411 102.086C176.411 100.552 175.368 99.4785 173.988 99.4785C172.607 99.4785 171.564 100.552 171.564 102.086C171.564 103.62 172.607 104.755 173.988 104.755C175.368 104.755 176.411 103.62 176.411 102.086ZM168.067 102.086C168.037 98.8344 170.675 96.1656 173.926 96.135C177.178 96.1043 179.846 98.7423 179.877 101.994C179.908 105.245 177.27 107.914 174.018 107.945H173.957C170.736 107.914 168.129 105.307 168.067 102.086ZM184.325 102.086C184.325 103.589 185.307 104.785 186.902 104.785C187.669 104.816 188.374 104.479 188.834 103.834V100.307C188.405 99.6933 187.669 99.3252 186.902 99.3558C185.245 99.3558 184.325 100.583 184.325 102.086ZM188.804 107.73V107.086C188.098 107.638 187.208 107.945 186.319 107.914C183.006 107.914 180.859 105.215 180.859 102.117C180.859 99.0184 182.975 96.2577 186.319 96.2577C187.208 96.2577 188.098 96.5337 188.804 97.0859V91.6564H192.208V107.699H188.804V107.73ZM102.577 102.086C102.607 98.8344 105.276 96.227 108.527 96.227C110.491 96.2577 112.331 97.2393 113.405 98.8957L110.705 100.828C110.276 99.9693 109.417 99.4172 108.466 99.4172C107.055 99.4172 106.043 100.491 106.043 102.086C106.043 103.681 107.086 104.693 108.466 104.693C109.417 104.693 110.276 104.141 110.705 103.282L113.405 105.215C111.626 107.914 107.975 108.681 105.276 106.902C103.589 105.859 102.577 104.018 102.577 102.086ZM93.4968 100.675H98.1287C97.9446 99.4479 96.963 98.9571 95.8281 98.9571C94.7238 98.9264 93.7729 99.6319 93.4968 100.675ZM90.1532 102.086C90.1532 98.773 92.4845 96.227 95.9508 96.227C99.325 96.227 101.84 98.7117 101.319 102.699H93.3741C93.5275 103.926 94.6011 104.847 95.8587 104.816C96.871 104.847 97.8219 104.325 98.2821 103.405L100.981 105.215C99.8772 106.933 97.9446 107.975 95.8894 107.914C92.6992 107.914 90.1225 105.337 90.1225 102.178V102.086M79.9078 91.6871H83.3127V107.73H79.9078V91.6871ZM85.3373 91.6871H88.7422V107.73H85.3373V91.6871ZM75.0612 102.086C75.0612 100.552 74.0183 99.4172 72.6379 99.4172C71.2575 99.4172 70.2146 100.491 70.2146 102.086C70.2146 103.681 71.2575 104.693 72.6379 104.693C74.0183 104.693 75.0612 103.62 75.0612 102.086ZM66.7483 102.086C66.7176 98.8344 69.2943 96.1963 72.5459 96.135C75.7974 96.0736 78.4354 98.681 78.4968 101.933C78.5275 105.184 75.9508 107.822 72.6992 107.883H72.6379C69.4477 107.945 66.8097 105.399 66.7483 102.209C66.7483 102.147 66.7483 102.117 66.7483 102.086ZM50.9814 99.6933C51.0121 95.1534 54.6931 91.4724 59.233 91.5031C61.871 91.5031 64.3557 92.7914 65.8894 94.9693L63.19 97.2086C62.3618 95.7975 60.8281 94.9693 59.2023 94.9693C56.5949 94.9693 54.4784 97.0859 54.4784 99.6933C54.4784 102.301 56.5949 104.417 59.2023 104.417C60.8281 104.417 62.3311 103.558 63.19 102.178L65.8894 104.417C63.2514 108.129 58.1287 108.988 54.417 106.35C52.3005 104.816 51.0121 102.331 50.9814 99.6933ZM115.859 104.233V99.4172H114.233V96.411H115.859V93.0368H119.264V96.411H122.116V99.4172H119.264V103.896C119.264 104.294 119.57 104.632 120 104.632C120 104.632 120 104.632 120.031 104.632H122.147V107.761H119.325C117.208 107.73 115.889 106.38 115.859 104.233ZM124.08 96.411H127.485V107.699H124.08V96.411ZM136.902 96.411L134.601 101.227L132.362 96.411H128.435L134.601 107.883L140.828 96.411H136.902ZM125.828 95.4295C126.902 95.4295 127.791 94.5399 127.791 93.4663C127.791 92.3926 126.902 91.5031 125.828 91.5031C124.754 91.5031 123.865 92.3926 123.865 93.4663C123.865 94.5399 124.754 95.3988 125.828 95.4295Z" fill="black"/>
<path d="M29.4174 101.135L41.5033 89.0491L37.3315 84.8773L29.3868 92.8221V81.411H23.5279V92.7914L15.5831 84.8466L11.4113 89.0491L23.5279 101.135H8.19043C9.04933 111.258 17.945 118.742 28.0677 117.883C36.9941 117.117 44.0493 110.061 44.8162 101.135H29.4174Z" fill="#434649"/>
</svg>
