<svg width="200" height="200" viewBox="0 0 200 200" fill="none" xmlns="http://www.w3.org/2000/svg">
<path d="M28.3072 85.8349C26.6874 85.8086 25.0794 86.1151 23.5829 86.7356C22.0864 87.356 20.7332 88.2772 19.6072 89.4419C18.4641 90.577 17.5569 91.9271 16.9378 93.4143C16.3187 94.9015 16 96.4965 16 98.1074C16 99.7184 16.3187 101.313 16.9378 102.801C17.5569 104.288 18.4641 105.638 19.6072 106.773C20.7358 107.935 22.0894 108.854 23.5852 109.475C25.0811 110.096 26.6878 110.405 28.3072 110.384C29.9401 110.395 31.5578 110.07 33.0592 109.428C34.4413 108.835 35.7046 107.997 36.7882 106.954L34.1872 104.387C32.6031 105.895 30.494 106.726 28.3072 106.705C27.1742 106.712 26.0508 106.495 25.0021 106.066C23.9534 105.637 23.0001 105.005 22.1973 104.205C21.3945 103.405 20.7581 102.455 20.3249 101.408C19.8917 100.36 19.6702 99.238 19.6732 98.1049C19.6599 96.9748 19.8775 95.8538 20.3127 94.8107C20.7479 93.7676 21.3916 92.8244 22.2042 92.0389C22.9956 91.2246 23.9447 90.5802 24.9935 90.1451C26.0423 89.7099 27.1688 89.4931 28.3042 89.5079C30.4989 89.4818 32.6142 90.3281 34.1852 91.8609L36.7852 89.2609C35.6996 88.2202 34.4363 87.3823 33.0552 86.7869C31.5539 86.1447 29.9361 85.8193 28.3032 85.8309" fill="black"/>
<path d="M48.4126 98.331L57.0446 98.366C57.6236 98.372 58.1979 98.2598 58.7321 98.0363C59.2663 97.8128 59.7493 97.4826 60.1516 97.066C60.7672 96.4481 61.1866 95.6621 61.357 94.8067C61.5275 93.9513 61.4414 93.0646 61.1095 92.258C60.7777 91.4513 60.2149 90.7607 59.4919 90.2729C58.7688 89.7851 57.9178 89.5217 57.0456 89.516H48.4126V98.331ZM60.7286 110.387L55.8906 102.045H48.4116V110.387H44.7686V85.835H57.0446C58.9137 85.8434 60.7225 86.498 62.1641 87.6878C63.6057 88.8776 64.5915 90.5294 64.9542 92.3631C65.3169 94.1968 65.0343 96.0995 64.1542 97.7486C63.2741 99.3976 61.8508 100.692 60.1256 101.411L59.8526 101.521L64.9426 110.385L60.7286 110.387Z" fill="black"/>
<path d="M139.179 94.3299L131.873 110.036L120.562 85.8359H124.34L131.875 101.887L139.18 86.1869L146.518 101.887L154.018 85.8329H157.796L146.516 110.033L139.179 94.3299Z" fill="black"/>
<path d="M166.779 106.706H171.224C173.461 106.642 175.586 105.708 177.146 104.103C178.706 102.498 179.578 100.348 179.578 98.1094C179.578 95.8711 178.706 93.7209 177.146 92.1157C175.586 90.5105 173.461 89.5768 171.224 89.5129H166.779V106.706ZM163.139 110.384V85.8349H171.224C173.651 85.8313 176.025 86.5486 178.045 87.896C180.064 89.2434 181.638 91.1602 182.566 93.4032C183.495 95.6462 183.736 98.1144 183.26 100.495C182.784 102.875 181.612 105.061 179.892 106.774C178.771 107.938 177.424 108.858 175.933 109.48C174.442 110.101 172.839 110.409 171.224 110.385L163.139 110.384Z" fill="black"/>
<path d="M108.736 96.1819C108.297 96.0989 107.557 95.9719 107.049 95.8379C106.975 93.3596 106.748 90.8882 106.369 88.4379L104.312 88.7309C98.5557 94.2369 89.3246 94.3369 82.2376 94.8389C82.1659 95.1575 82.0992 95.4772 82.0377 95.7979C81.3507 95.9919 80.4637 96.1399 80.1067 96.2059C79.9186 97.5053 79.9156 98.8247 80.0976 100.125C80.6866 100.225 81.4196 100.365 82.0266 100.538C82.0876 100.862 82.1536 101.18 82.2266 101.49C83.0956 101.561 83.9937 101.625 84.9107 101.69C84.5717 102.515 84.2529 103.349 83.9547 104.19C83.4854 105.64 83.1228 107.123 82.8697 108.626C82.831 108.804 82.8601 108.991 82.9512 109.149C83.0423 109.307 83.189 109.426 83.3626 109.482C84.6484 109.811 85.9501 110.074 87.2626 110.271C87.4481 110.307 87.6402 110.271 87.8002 110.17C87.9602 110.07 88.0761 109.912 88.1246 109.73C88.1564 109.596 88.1509 109.455 88.1086 109.324C88.0663 109.193 87.9888 109.075 87.8847 108.985C86.7467 108.01 87.2456 104.747 88.4626 101.976C94.1716 102.51 100.14 103.616 104.304 107.596L106.357 107.903C106.753 105.454 106.987 102.982 107.057 100.503C107.587 100.367 108.44 100.203 108.742 100.157C108.898 98.8386 108.898 97.5063 108.742 96.1879M114.001 98.2509C113.993 103.417 111.935 108.368 108.279 112.017C104.622 115.666 99.6663 117.713 94.5006 117.71C92.5556 117.692 90.6226 117.403 88.7577 116.85L82.0576 119.47L82.4436 113.548C80.1199 111.704 78.2413 109.36 76.9471 106.691C75.6529 104.021 74.9763 101.095 74.9677 98.1279C75.017 92.9737 77.1032 88.0483 80.771 84.4267C84.4388 80.8052 89.3903 78.7816 94.5448 78.7977C99.6992 78.8138 104.638 80.8683 108.283 84.5127C111.928 88.1571 113.984 93.0965 114.001 98.2509ZM117.667 98.2619C117.68 94.4081 116.732 90.6118 114.909 87.2165C113.086 83.8211 110.445 80.9337 107.226 78.8156C104.006 76.6974 100.309 75.4153 96.4696 75.0852C92.6299 74.7551 88.7685 75.3874 85.2347 76.9249C81.7009 78.4624 78.6061 80.8567 76.2302 83.8911C73.8544 86.9255 72.2725 90.5043 71.6277 94.3037C70.9828 98.1032 71.2953 102.004 72.5369 105.652C73.7785 109.3 75.91 112.582 78.7387 115.199L78.2216 124.799L88.7727 120.66L89.0176 120.722C90.8139 121.153 92.6534 121.378 94.5006 121.393C100.635 121.384 106.517 118.945 110.859 114.611C115.2 110.276 117.648 104.399 117.667 98.2639" fill="#434649"/>
</svg>
