<svg width="200" height="200" viewBox="0 0 200 200" fill="none" xmlns="http://www.w3.org/2000/svg">
<g clip-path="url(#clip0_2515_73268)">
<path d="M181 112.033H19V112.467H181V112.033Z" fill="#778490"/>
<path d="M19 78.209H25.2677C32.3259 78.209 36.3726 82.2105 36.3726 89.2885C36.3726 96.2345 32.4576 100.028 25.2489 100.028H19V78.209ZM24.816 95.9513C29.6532 95.9513 32.0436 94.2904 32.0436 89.0998C32.0436 84.0602 29.672 82.2482 25.1736 82.2482H23.2914V95.9513H24.816Z" fill="#13132E"/>
<path d="M52.1641 93.894H42.0944C42.2826 95.4795 43.3366 96.612 45.5011 96.612C46.7999 96.6497 48.0609 96.0646 48.8703 95.0642L51.75 97.5935C50.1313 99.3866 48.0609 100.368 45.4823 100.368C40.1369 100.368 37.9912 96.5365 37.9912 92.5917C37.9912 88.7412 40.0616 84.6642 45.2376 84.6642C49.9243 84.6642 52.2582 88.0806 52.2582 92.4784C52.2582 92.9503 52.2394 93.4221 52.1641 93.894ZM48.3432 90.7608C48.2868 89.1187 46.9128 88.1183 45.2188 88.1183C43.1296 88.1183 42.2638 89.5528 42.0944 90.7608H48.3432Z" fill="#13132E"/>
<path d="M54.2725 96.31V78.209H58.3756V95.8758C58.3756 96.5742 58.7332 96.7629 59.3544 96.7629C59.712 96.7441 60.0696 96.7063 60.4084 96.6119V99.8773C59.6367 100.179 58.8085 100.349 57.9804 100.368C55.8911 100.368 54.2725 99.1223 54.2725 96.31Z" fill="#13132E"/>
<path d="M86.5334 90.5154V100.028H82.769L82.4679 98.2918C81.4138 99.8207 79.7387 100.368 78.2141 100.368C74.9579 100.368 72.624 98.273 72.624 95.3096C72.624 93.5354 73.4145 92.2519 74.7885 91.5536C75.7673 91.0628 76.9719 90.8552 78.4965 90.8552H82.4491V90.5154C82.4491 89.1376 81.4515 88.2693 79.7387 88.2693C78.4023 88.2693 77.1225 88.8545 75.899 90.2134L72.9064 87.7031C74.7321 85.6269 77.2354 84.6454 79.9081 84.6454C84.0113 84.6643 86.5334 86.9104 86.5334 90.5154ZM82.4302 93.894H79.0611C78.2141 93.894 77.6306 94.0261 77.273 94.2904C76.9154 94.5169 76.7084 94.9321 76.7272 95.3663C76.7272 96.2722 77.4801 96.9517 78.8917 96.9517C80.7927 96.9517 82.4114 95.6305 82.4302 93.894Z" fill="#13132E"/>
<path d="M95.5107 89.383C95.5107 82.588 99.6139 78.228 105.938 78.228C110.531 78.228 113.956 80.5118 115.518 84.5699L111.566 86.1176C110.681 83.5884 108.686 82.3049 105.938 82.3049C102.042 82.3049 99.8021 84.8341 99.8021 89.3452C99.8021 93.8563 102.117 96.4232 105.976 96.4232C108.78 96.4232 110.756 95.1209 111.566 92.5162L115.575 94.045C114.088 98.2164 110.587 100.538 105.976 100.538C99.6516 100.538 95.5107 96.159 95.5107 89.383Z" fill="#13132E"/>
<path d="M130.896 90.5154V100.028H127.131L126.83 98.2918C125.757 99.8207 124.101 100.368 122.576 100.368C119.32 100.368 116.986 98.273 116.986 95.3096C116.986 93.5354 117.777 92.2519 119.151 91.5536C120.13 91.0628 121.334 90.8552 122.859 90.8552H126.811V90.5154C126.811 89.1376 125.814 88.2693 124.101 88.2693C122.765 88.2693 121.485 88.8545 120.28 90.2134L117.287 87.7031C119.113 85.6269 121.598 84.6454 124.289 84.6454C128.374 84.6643 130.896 86.9104 130.896 90.5154ZM126.793 93.894H123.423C122.576 93.894 121.993 94.0261 121.635 94.2904C121.278 94.5169 121.071 94.9321 121.09 95.3663C121.09 96.2722 121.842 96.9517 123.254 96.9517C125.155 96.9517 126.774 95.6305 126.793 93.894Z" fill="#13132E"/>
<path d="M147.553 92.535C147.553 97.5746 144.786 100.368 141.323 100.368C139.78 100.368 138.161 99.7263 137.22 98.6882V106.257H133.079V84.9851H137.22V86.2686C138.293 85.1173 139.893 84.6454 141.323 84.6454C145.351 84.6643 147.553 88.0806 147.553 92.535ZM143.431 92.4973C143.431 89.7227 142.396 88.2882 140.269 88.2882C137.709 88.2882 136.806 90.0813 136.806 92.4973C136.806 94.8755 137.785 96.7441 140.213 96.7441C142.377 96.7252 143.431 95.2719 143.431 92.4973Z" fill="#13132E"/>
<path d="M181 90.5154V100.028H177.236L176.935 98.2918C175.862 99.8207 174.205 100.368 172.681 100.368C169.425 100.368 167.091 98.273 167.091 95.3096C167.091 93.5354 167.881 92.2519 169.255 91.5536C170.234 91.0628 171.439 90.8552 172.963 90.8552H176.916V90.5154C176.916 89.1376 175.918 88.2693 174.205 88.2693C172.869 88.2693 171.589 88.8545 170.366 90.2134L167.373 87.7031C169.199 85.6269 171.683 84.6454 174.375 84.6454C178.478 84.6643 181 86.9104 181 90.5154ZM176.897 93.894H173.528C172.681 93.894 172.097 94.0261 171.74 94.2904C171.382 94.5169 171.175 94.9321 171.194 95.3663C171.194 96.2722 171.947 96.9517 173.359 96.9517C175.26 96.9517 176.859 95.6305 176.897 93.894Z" fill="#13132E"/>
<path d="M162.084 79.3982L160.484 80.5684L157.981 82.437V85.004H155.553V88.2316H157.981V95.5173C157.981 99.0468 160.296 100.368 162.969 100.368C163.947 100.368 164.926 100.217 165.848 99.8773V96.612C165.246 96.8196 164.606 96.9329 163.966 96.9517C162.442 96.9517 162.084 96.0646 162.084 95.1775V88.2316H165.848V84.9851H162.084V79.3982Z" fill="#13132E"/>
<path d="M67.2031 79.3982L64.3986 81.4744L63.0999 82.437V84.9851H60.6719V88.2127H63.0999V95.5173C63.0999 99.0468 65.415 100.368 68.0877 100.368C69.0664 100.368 70.0452 100.217 70.9863 99.8773V96.612C70.384 96.8196 69.744 96.9329 69.1041 96.9517C67.5795 96.9517 67.2219 96.0646 67.2219 95.1775V88.2316H70.9863V84.9851H67.2219L67.2031 79.3982Z" fill="#13132E"/>
<path d="M149.379 88.779V100.028H153.52V85.7213L149.379 88.779Z" fill="#13132E"/>
<path d="M148.514 82.4181L154.386 78.2091L148.514 74V82.4181Z" fill="black"/>
<path d="M23.9502 125.151H23.0655L22.5762 123.999H20.3364L19.847 125.151H19L21.0892 120.356H21.8609L23.9502 125.151ZM21.4657 121.357L20.6375 123.263H22.275L21.4657 121.357Z" fill="#778490"/>
<path d="M93.0453 121.149H90.335V122.452H92.7254V123.207H90.335V125.151H89.5068V120.394H93.0265V121.149H93.0453Z" fill="#778490"/>
<path d="M93.873 121.017V120.243H94.7577V121.017H93.873ZM93.9107 125.151V121.564H94.7389V125.151H93.9107Z" fill="#778490"/>
<path d="M96.6211 125.151H95.793V121.564H96.6211V122.131C96.6776 122.036 96.7529 121.961 96.8093 121.885C96.8846 121.81 96.9599 121.734 97.054 121.678C97.1481 121.621 97.2423 121.564 97.3552 121.546C97.4681 121.508 97.5999 121.489 97.7316 121.489C98.1457 121.489 98.4469 121.621 98.6727 121.866C98.8986 122.112 99.0115 122.452 99.0115 122.867V125.151H98.1834V123.112C98.1834 122.829 98.1081 122.621 97.9763 122.47C97.8446 122.319 97.6563 122.244 97.4117 122.244C97.167 122.244 96.9787 122.319 96.8282 122.47C96.6776 122.621 96.6023 122.848 96.6023 123.131V125.151H96.6211Z" fill="#778490"/>
<path d="M102.193 125.151V124.717C102.08 124.868 101.911 124.981 101.722 125.075C101.534 125.17 101.308 125.226 101.026 125.226C100.857 125.226 100.687 125.207 100.537 125.151C100.386 125.094 100.254 125.037 100.141 124.943C100.028 124.849 99.9343 124.735 99.859 124.603C99.7837 124.471 99.7461 124.301 99.7461 124.131V124.113C99.7461 123.924 99.7837 123.754 99.859 123.603C99.9343 123.452 100.028 123.339 100.16 123.244C100.292 123.15 100.443 123.074 100.612 123.037C100.781 122.98 100.988 122.961 101.195 122.961C101.421 122.961 101.591 122.98 101.741 122.999C101.892 123.018 102.042 123.056 102.174 123.112V123.018C102.174 122.772 102.099 122.584 101.948 122.452C101.798 122.319 101.572 122.263 101.289 122.263C101.082 122.263 100.913 122.282 100.744 122.319C100.593 122.357 100.424 122.414 100.254 122.489L100.028 121.829C100.235 121.734 100.424 121.659 100.631 121.602C100.838 121.546 101.082 121.527 101.384 121.527C101.911 121.527 102.306 121.659 102.569 121.923C102.833 122.187 102.965 122.565 102.965 123.037V125.151H102.193ZM102.212 123.622C102.099 123.584 101.986 123.546 101.835 123.527C101.685 123.509 101.534 123.49 101.384 123.49C101.12 123.49 100.932 123.546 100.781 123.641C100.631 123.735 100.555 123.886 100.555 124.075V124.094C100.555 124.264 100.631 124.396 100.762 124.49C100.894 124.584 101.064 124.622 101.252 124.622C101.384 124.622 101.515 124.603 101.628 124.566C101.741 124.528 101.835 124.471 101.929 124.415C102.024 124.358 102.08 124.264 102.136 124.169C102.193 124.075 102.212 123.98 102.212 123.867V123.622Z" fill="#778490"/>
<path d="M104.809 125.151H103.98V121.564H104.809V122.131C104.865 122.036 104.94 121.961 104.997 121.885C105.072 121.81 105.147 121.734 105.242 121.678C105.336 121.621 105.43 121.564 105.543 121.546C105.656 121.527 105.787 121.489 105.919 121.489C106.333 121.489 106.634 121.621 106.86 121.866C107.086 122.112 107.199 122.452 107.199 122.867V125.151H106.371V123.112C106.371 122.829 106.296 122.621 106.164 122.47C106.032 122.319 105.844 122.244 105.599 122.244C105.354 122.244 105.166 122.319 105.016 122.47C104.865 122.621 104.79 122.848 104.79 123.131V125.151H104.809Z" fill="#778490"/>
<path d="M110.701 125.037C110.475 125.17 110.192 125.226 109.835 125.226C109.571 125.226 109.327 125.17 109.101 125.075C108.875 124.981 108.687 124.849 108.517 124.679C108.348 124.509 108.216 124.32 108.122 124.094C108.028 123.867 107.99 123.622 107.99 123.376C107.99 123.112 108.028 122.867 108.122 122.64C108.216 122.414 108.348 122.206 108.517 122.036C108.687 121.866 108.875 121.734 109.101 121.621C109.327 121.527 109.571 121.47 109.835 121.47C110.174 121.47 110.456 121.527 110.682 121.64C110.908 121.753 111.096 121.904 111.265 122.093L110.757 122.64C110.625 122.508 110.494 122.395 110.362 122.319C110.23 122.244 110.042 122.187 109.835 122.187C109.684 122.187 109.552 122.225 109.421 122.282C109.289 122.338 109.195 122.433 109.101 122.527C109.007 122.64 108.931 122.754 108.894 122.886C108.837 123.018 108.818 123.169 108.818 123.339C108.818 123.509 108.837 123.66 108.894 123.792C108.95 123.924 109.025 124.056 109.12 124.15C109.214 124.264 109.327 124.339 109.458 124.396C109.59 124.452 109.741 124.49 109.891 124.49C110.079 124.49 110.249 124.452 110.399 124.358C110.55 124.282 110.682 124.169 110.814 124.037L111.303 124.528C111.133 124.754 110.926 124.924 110.701 125.037Z" fill="#778490"/>
<path d="M112.056 121.017V120.243H112.94V121.017H112.056ZM112.093 125.151V121.564H112.921V125.151H112.093Z" fill="#778490"/>
<path d="M116.177 125.151V124.717C116.064 124.868 115.895 124.981 115.707 125.075C115.519 125.17 115.293 125.226 115.01 125.226C114.841 125.226 114.672 125.207 114.521 125.151C114.37 125.094 114.239 125.037 114.126 124.943C114.013 124.849 113.919 124.735 113.843 124.603C113.768 124.471 113.73 124.301 113.73 124.131V124.113C113.73 123.924 113.768 123.754 113.843 123.603C113.919 123.452 114.013 123.339 114.145 123.244C114.276 123.15 114.427 123.074 114.596 123.037C114.766 122.98 114.973 122.961 115.18 122.961C115.406 122.961 115.575 122.98 115.726 122.999C115.876 123.018 116.027 123.056 116.158 123.112V123.018C116.158 122.772 116.083 122.584 115.933 122.452C115.782 122.319 115.556 122.263 115.274 122.263C115.067 122.263 114.897 122.282 114.728 122.319C114.559 122.357 114.408 122.414 114.239 122.489L114.013 121.829C114.22 121.734 114.408 121.659 114.615 121.602C114.822 121.546 115.067 121.527 115.368 121.527C115.895 121.527 116.29 121.659 116.554 121.923C116.817 122.187 116.949 122.565 116.949 123.037V125.151H116.177ZM116.196 123.622C116.083 123.584 115.97 123.546 115.82 123.527C115.669 123.509 115.519 123.49 115.368 123.49C115.104 123.49 114.916 123.546 114.766 123.641C114.615 123.735 114.54 123.886 114.54 124.075V124.094C114.54 124.264 114.615 124.396 114.747 124.49C114.879 124.584 115.048 124.622 115.236 124.622C115.368 124.622 115.5 124.603 115.613 124.566C115.726 124.528 115.82 124.471 115.914 124.415C116.008 124.358 116.064 124.264 116.121 124.169C116.177 124.075 116.196 123.98 116.196 123.867V123.622Z" fill="#778490"/>
<path d="M118.003 125.151V120.187H118.831V125.151H118.003Z" fill="#778490"/>
<path d="M122.784 121.885C122.821 121.961 122.878 122.017 122.953 122.074C123.028 122.131 123.16 122.187 123.292 122.244C123.443 122.301 123.631 122.338 123.857 122.395C124.101 122.452 124.327 122.527 124.515 122.603C124.704 122.678 124.873 122.772 124.986 122.886C125.099 122.999 125.212 123.131 125.268 123.282C125.325 123.433 125.362 123.603 125.362 123.811C125.362 124.037 125.325 124.245 125.231 124.415C125.155 124.584 125.024 124.735 124.892 124.868C124.741 124.981 124.572 125.075 124.365 125.151C124.158 125.207 123.932 125.245 123.687 125.245C123.33 125.245 122.972 125.188 122.633 125.056C122.294 124.924 121.993 124.735 121.711 124.49L122.219 123.886C122.445 124.094 122.69 124.245 122.916 124.339C123.141 124.452 123.424 124.49 123.706 124.49C123.97 124.49 124.177 124.433 124.327 124.32C124.478 124.207 124.553 124.056 124.553 123.886C124.553 123.792 124.534 123.716 124.515 123.66C124.478 123.584 124.44 123.527 124.346 123.471C124.271 123.414 124.158 123.358 124.026 123.32C123.894 123.263 123.706 123.225 123.48 123.169C123.236 123.112 123.01 123.037 122.803 122.98C122.614 122.905 122.445 122.81 122.313 122.716C122.181 122.603 122.069 122.47 122.012 122.319C121.937 122.168 121.899 121.98 121.899 121.753C121.899 121.546 121.937 121.357 122.012 121.187C122.087 121.017 122.2 120.866 122.351 120.753C122.501 120.64 122.671 120.545 122.859 120.47C123.066 120.413 123.273 120.375 123.518 120.375C123.857 120.375 124.177 120.432 124.459 120.526C124.741 120.621 125.005 120.772 125.249 120.979L124.798 121.602C124.572 121.451 124.365 121.319 124.158 121.244C123.951 121.168 123.725 121.111 123.518 121.111C123.273 121.111 123.085 121.168 122.953 121.281C122.821 121.395 122.746 121.527 122.746 121.678C122.727 121.734 122.746 121.81 122.784 121.885Z" fill="#778490"/>
<path d="M127.244 124.32C127.433 124.471 127.658 124.547 127.922 124.547C128.129 124.547 128.298 124.509 128.449 124.433C128.6 124.358 128.75 124.264 128.882 124.113L129.371 124.547C129.202 124.754 128.995 124.905 128.75 125.037C128.505 125.17 128.223 125.226 127.903 125.226C127.64 125.226 127.414 125.188 127.188 125.094C126.962 125 126.774 124.868 126.604 124.717C126.435 124.547 126.303 124.358 126.209 124.131C126.115 123.905 126.059 123.641 126.059 123.376C126.059 123.112 126.096 122.867 126.19 122.64C126.284 122.414 126.397 122.225 126.548 122.055C126.699 121.885 126.887 121.753 127.094 121.659C127.301 121.564 127.546 121.508 127.79 121.508C128.073 121.508 128.317 121.564 128.543 121.659C128.75 121.772 128.938 121.904 129.07 122.074C129.221 122.244 129.315 122.452 129.39 122.697C129.465 122.923 129.503 123.188 129.503 123.433C129.503 123.471 129.503 123.509 129.503 123.546C129.503 123.584 129.503 123.622 129.484 123.66H126.849C126.943 123.943 127.056 124.169 127.244 124.32ZM128.731 123.093C128.712 122.961 128.694 122.848 128.637 122.716C128.581 122.584 128.524 122.508 128.449 122.414C128.374 122.338 128.28 122.263 128.167 122.206C128.054 122.15 127.941 122.131 127.809 122.131C127.564 122.131 127.338 122.225 127.188 122.395C127.019 122.565 126.924 122.791 126.887 123.074H128.731V123.093Z" fill="#778490"/>
<path d="M131.197 125.151H130.369V121.564H131.197V122.376C131.31 122.112 131.48 121.885 131.687 121.715C131.894 121.546 132.157 121.47 132.477 121.489V122.357H132.421C132.233 122.357 132.082 122.395 131.931 122.452C131.781 122.508 131.649 122.603 131.536 122.716C131.423 122.829 131.348 122.98 131.291 123.169C131.235 123.339 131.197 123.546 131.197 123.792V125.151Z" fill="#778490"/>
<path d="M135.639 121.564H136.505L135.037 125.188H134.303L132.835 121.564H133.72L134.68 124.207L135.639 121.564Z" fill="#778490"/>
<path d="M137.201 121.017V120.243H138.086V121.017H137.201ZM137.239 125.151V121.564H138.067V125.151H137.239Z" fill="#778490"/>
<path d="M141.663 125.037C141.437 125.17 141.154 125.226 140.797 125.226C140.533 125.226 140.289 125.17 140.063 125.075C139.837 124.981 139.649 124.849 139.479 124.679C139.31 124.509 139.178 124.32 139.084 124.094C138.99 123.867 138.952 123.622 138.952 123.376C138.952 123.112 138.99 122.867 139.084 122.64C139.178 122.414 139.31 122.206 139.479 122.036C139.649 121.866 139.837 121.734 140.063 121.621C140.289 121.527 140.533 121.47 140.797 121.47C141.135 121.47 141.418 121.527 141.644 121.64C141.87 121.753 142.058 121.904 142.227 122.093L141.719 122.64C141.587 122.508 141.455 122.395 141.324 122.319C141.192 122.244 141.004 122.187 140.797 122.187C140.646 122.187 140.514 122.225 140.383 122.282C140.251 122.338 140.157 122.433 140.063 122.527C139.969 122.64 139.893 122.754 139.856 122.886C139.799 123.018 139.78 123.169 139.78 123.339C139.78 123.509 139.799 123.66 139.856 123.792C139.912 123.924 139.987 124.056 140.081 124.15C140.176 124.264 140.289 124.339 140.42 124.396C140.552 124.452 140.703 124.49 140.853 124.49C141.041 124.49 141.211 124.452 141.361 124.358C141.512 124.282 141.644 124.169 141.775 124.037L142.265 124.528C142.077 124.754 141.888 124.924 141.663 125.037Z" fill="#778490"/>
<path d="M143.883 124.32C144.071 124.471 144.297 124.547 144.561 124.547C144.768 124.547 144.937 124.509 145.088 124.433C145.238 124.358 145.389 124.264 145.521 124.113L146.01 124.547C145.841 124.754 145.633 124.905 145.389 125.037C145.144 125.17 144.862 125.226 144.542 125.226C144.278 125.226 144.052 125.188 143.827 125.094C143.601 125 143.412 124.868 143.243 124.717C143.074 124.547 142.942 124.358 142.848 124.131C142.754 123.905 142.697 123.641 142.697 123.376C142.697 123.112 142.735 122.867 142.829 122.64C142.923 122.414 143.036 122.225 143.187 122.055C143.337 121.885 143.525 121.753 143.732 121.659C143.94 121.564 144.184 121.508 144.429 121.508C144.711 121.508 144.956 121.564 145.182 121.659C145.389 121.772 145.577 121.904 145.709 122.074C145.859 122.244 145.953 122.452 146.029 122.697C146.104 122.923 146.142 123.188 146.142 123.433C146.142 123.471 146.142 123.509 146.142 123.546C146.142 123.584 146.142 123.622 146.123 123.66H143.488C143.582 123.943 143.695 124.169 143.883 124.32ZM145.351 123.093C145.332 122.961 145.314 122.848 145.257 122.716C145.201 122.584 145.144 122.508 145.069 122.414C144.994 122.338 144.899 122.263 144.786 122.206C144.674 122.15 144.561 122.131 144.429 122.131C144.184 122.131 143.958 122.225 143.808 122.395C143.638 122.565 143.544 122.791 143.507 123.074H145.351V123.093Z" fill="#778490"/>
<path d="M149.454 124.584C149.379 124.717 149.285 124.849 149.172 124.943C149.059 125.037 148.908 125.113 148.758 125.151C148.588 125.207 148.419 125.226 148.231 125.226C147.967 125.226 147.704 125.188 147.44 125.094C147.177 125 146.932 124.868 146.706 124.698L147.064 124.131C147.252 124.282 147.459 124.377 147.666 124.452C147.873 124.528 148.061 124.566 148.249 124.566C148.419 124.566 148.569 124.528 148.664 124.452C148.758 124.377 148.814 124.282 148.814 124.169V124.15C148.814 124.075 148.795 124.018 148.758 123.98C148.72 123.924 148.664 123.886 148.588 123.848C148.513 123.811 148.419 123.773 148.325 123.754C148.231 123.716 148.137 123.697 148.024 123.66C147.892 123.622 147.76 123.565 147.628 123.527C147.497 123.471 147.384 123.414 147.271 123.339C147.158 123.263 147.082 123.169 147.007 123.056C146.932 122.942 146.913 122.791 146.913 122.621V122.603C146.913 122.433 146.951 122.282 147.007 122.15C147.064 122.017 147.158 121.904 147.271 121.81C147.384 121.715 147.515 121.64 147.685 121.583C147.835 121.527 148.005 121.508 148.174 121.508C148.4 121.508 148.626 121.546 148.852 121.621C149.078 121.697 149.285 121.791 149.473 121.923L149.153 122.508C148.984 122.395 148.814 122.319 148.626 122.263C148.456 122.206 148.287 122.168 148.137 122.168C147.986 122.168 147.854 122.206 147.76 122.263C147.666 122.338 147.628 122.414 147.628 122.527V122.546C147.628 122.603 147.647 122.659 147.704 122.716C147.741 122.772 147.817 122.81 147.892 122.848C147.967 122.886 148.061 122.923 148.155 122.961C148.249 122.999 148.344 123.037 148.456 123.056C148.588 123.093 148.72 123.15 148.852 123.207C148.984 123.263 149.096 123.32 149.209 123.414C149.322 123.49 149.398 123.584 149.473 123.697C149.548 123.811 149.567 123.943 149.567 124.113V124.131C149.548 124.282 149.511 124.433 149.454 124.584Z" fill="#778490"/>
<path d="M155.76 120.715C156.042 120.942 156.174 121.225 156.174 121.602C156.174 121.753 156.155 121.885 156.117 121.999C156.08 122.112 156.023 122.206 155.967 122.301C155.91 122.376 155.835 122.452 155.76 122.527C155.685 122.584 155.59 122.64 155.515 122.697C155.647 122.754 155.779 122.81 155.892 122.867C156.005 122.923 156.099 123.018 156.193 123.093C156.268 123.188 156.343 123.282 156.381 123.414C156.419 123.546 156.456 123.678 156.456 123.848C156.456 124.056 156.419 124.245 156.324 124.415C156.23 124.584 156.117 124.717 155.967 124.83C155.816 124.943 155.628 125.019 155.421 125.075C155.195 125.132 154.969 125.151 154.706 125.151H152.522V120.394H154.649C155.101 120.394 155.496 120.507 155.76 120.715ZM155.12 122.244C155.289 122.131 155.365 121.98 155.365 121.753C155.365 121.564 155.289 121.413 155.158 121.3C155.007 121.187 154.819 121.13 154.536 121.13H153.332V122.395H154.461C154.743 122.395 154.95 122.338 155.12 122.244ZM155.383 124.245C155.553 124.131 155.628 123.962 155.628 123.754C155.628 123.546 155.553 123.395 155.383 123.282C155.214 123.169 154.988 123.112 154.649 123.112H153.332V124.415H154.706C154.988 124.415 155.214 124.358 155.383 124.245Z" fill="#778490"/>
<path d="M159.656 121.564H160.484V125.151H159.656V124.584C159.543 124.754 159.393 124.905 159.223 125.037C159.054 125.17 158.828 125.226 158.546 125.226C158.131 125.226 157.83 125.094 157.604 124.849C157.379 124.603 157.266 124.264 157.266 123.848V121.564H158.094V123.603C158.094 123.886 158.169 124.094 158.301 124.245C158.433 124.396 158.621 124.471 158.865 124.471C159.11 124.471 159.298 124.396 159.449 124.245C159.6 124.094 159.675 123.867 159.675 123.584V121.564H159.656Z" fill="#778490"/>
<path d="M163.966 124.584C163.89 124.717 163.796 124.849 163.683 124.943C163.571 125.037 163.42 125.113 163.269 125.151C163.1 125.207 162.931 125.226 162.742 125.226C162.479 125.226 162.215 125.188 161.952 125.094C161.688 125 161.444 124.868 161.218 124.698L161.575 124.131C161.764 124.282 161.971 124.377 162.178 124.452C162.385 124.528 162.573 124.566 162.761 124.566C162.931 124.566 163.081 124.528 163.175 124.452C163.269 124.377 163.326 124.282 163.326 124.169V124.15C163.326 124.075 163.307 124.018 163.269 123.98C163.232 123.924 163.175 123.886 163.1 123.848C163.025 123.811 162.931 123.773 162.836 123.754C162.742 123.716 162.648 123.697 162.535 123.66C162.404 123.622 162.272 123.565 162.14 123.527C162.008 123.471 161.895 123.414 161.782 123.339C161.669 123.263 161.594 123.169 161.519 123.056C161.444 122.942 161.425 122.791 161.425 122.621V122.603C161.425 122.433 161.462 122.282 161.519 122.15C161.575 122.017 161.669 121.904 161.782 121.81C161.895 121.715 162.027 121.64 162.197 121.583C162.347 121.527 162.516 121.508 162.686 121.508C162.912 121.508 163.138 121.546 163.363 121.621C163.589 121.697 163.796 121.791 163.985 121.923L163.665 122.508C163.495 122.395 163.326 122.319 163.138 122.263C162.968 122.206 162.799 122.168 162.648 122.168C162.498 122.168 162.366 122.206 162.272 122.263C162.178 122.338 162.14 122.414 162.14 122.527V122.546C162.14 122.603 162.159 122.659 162.215 122.716C162.253 122.772 162.328 122.81 162.404 122.848C162.479 122.886 162.573 122.923 162.667 122.961C162.761 122.999 162.855 123.037 162.968 123.056C163.1 123.093 163.232 123.15 163.363 123.207C163.495 123.263 163.608 123.32 163.721 123.414C163.834 123.49 163.909 123.584 163.985 123.697C164.06 123.811 164.079 123.943 164.079 124.113V124.131C164.06 124.282 164.022 124.433 163.966 124.584Z" fill="#778490"/>
<path d="M164.907 121.017V120.243H165.792V121.017H164.907ZM164.945 125.151V121.564H165.773V125.151H164.945Z" fill="#778490"/>
<path d="M167.655 125.151H166.827V121.564H167.655V122.131C167.712 122.036 167.787 121.961 167.844 121.885C167.919 121.81 167.994 121.734 168.088 121.678C168.182 121.621 168.276 121.564 168.389 121.546C168.502 121.527 168.634 121.489 168.766 121.489C169.18 121.489 169.481 121.621 169.707 121.866C169.933 122.112 170.046 122.452 170.046 122.867V125.151H169.218V123.112C169.218 122.829 169.142 122.621 169.01 122.47C168.879 122.319 168.691 122.244 168.446 122.244C168.201 122.244 168.013 122.319 167.862 122.47C167.712 122.621 167.636 122.848 167.636 123.131V125.151H167.655Z" fill="#778490"/>
<path d="M172.003 124.32C172.191 124.471 172.417 124.547 172.681 124.547C172.888 124.547 173.057 124.509 173.208 124.433C173.358 124.358 173.509 124.264 173.641 124.113L174.13 124.547C173.961 124.754 173.754 124.905 173.509 125.037C173.264 125.17 172.982 125.226 172.662 125.226C172.398 125.226 172.173 125.188 171.947 125.094C171.721 125 171.533 124.868 171.363 124.717C171.194 124.547 171.062 124.358 170.968 124.131C170.874 123.905 170.817 123.641 170.817 123.376C170.817 123.112 170.855 122.867 170.949 122.64C171.043 122.414 171.156 122.225 171.307 122.055C171.457 121.885 171.646 121.753 171.853 121.659C172.06 121.564 172.304 121.508 172.549 121.508C172.831 121.508 173.076 121.564 173.302 121.659C173.509 121.772 173.697 121.904 173.829 122.074C173.979 122.244 174.074 122.452 174.149 122.697C174.224 122.923 174.262 123.188 174.262 123.433C174.262 123.471 174.262 123.509 174.262 123.546C174.262 123.584 174.262 123.622 174.243 123.66H171.608C171.702 123.943 171.815 124.169 172.003 124.32ZM173.49 123.093C173.471 122.961 173.452 122.848 173.396 122.716C173.34 122.584 173.283 122.508 173.208 122.414C173.132 122.338 173.038 122.263 172.925 122.206C172.813 122.15 172.7 122.131 172.568 122.131C172.323 122.131 172.097 122.225 171.947 122.395C171.777 122.565 171.683 122.791 171.646 123.074H173.49V123.093Z" fill="#778490"/>
<path d="M177.574 124.584C177.499 124.717 177.405 124.849 177.292 124.943C177.179 125.037 177.028 125.113 176.878 125.151C176.708 125.207 176.539 125.226 176.351 125.226C176.087 125.226 175.824 125.188 175.56 125.094C175.297 125 175.052 124.868 174.826 124.698L175.184 124.131C175.372 124.282 175.579 124.377 175.786 124.452C175.993 124.528 176.181 124.566 176.37 124.566C176.539 124.566 176.69 124.528 176.784 124.452C176.878 124.377 176.934 124.282 176.934 124.169V124.15C176.934 124.075 176.915 124.018 176.878 123.98C176.84 123.924 176.784 123.886 176.708 123.848C176.633 123.811 176.539 123.773 176.445 123.754C176.351 123.716 176.257 123.697 176.144 123.66C176.012 123.622 175.88 123.565 175.748 123.527C175.617 123.471 175.504 123.414 175.391 123.339C175.278 123.263 175.203 123.169 175.127 123.056C175.052 122.942 175.033 122.791 175.033 122.621V122.603C175.033 122.433 175.071 122.282 175.127 122.15C175.184 122.017 175.278 121.904 175.391 121.81C175.504 121.715 175.636 121.64 175.805 121.583C175.955 121.527 176.125 121.508 176.294 121.508C176.52 121.508 176.746 121.546 176.972 121.621C177.198 121.697 177.405 121.791 177.593 121.923L177.273 122.508C177.104 122.395 176.934 122.319 176.746 122.263C176.577 122.206 176.407 122.168 176.257 122.168C176.106 122.168 175.974 122.206 175.88 122.263C175.786 122.338 175.748 122.414 175.748 122.527V122.546C175.748 122.603 175.767 122.659 175.824 122.716C175.861 122.772 175.937 122.81 176.012 122.848C176.087 122.886 176.181 122.923 176.275 122.961C176.37 122.999 176.464 123.037 176.577 123.056C176.708 123.093 176.84 123.15 176.972 123.207C177.104 123.263 177.217 123.32 177.329 123.414C177.442 123.49 177.518 123.584 177.593 123.697C177.668 123.811 177.687 123.943 177.687 124.113V124.131C177.687 124.282 177.649 124.433 177.574 124.584Z" fill="#778490"/>
<path d="M180.906 124.584C180.831 124.717 180.737 124.849 180.624 124.943C180.511 125.037 180.36 125.113 180.21 125.151C180.04 125.207 179.871 125.226 179.683 125.226C179.419 125.226 179.156 125.188 178.892 125.094C178.629 125 178.384 124.868 178.158 124.698L178.516 124.131C178.704 124.282 178.911 124.377 179.118 124.452C179.325 124.528 179.513 124.566 179.702 124.566C179.871 124.566 180.022 124.528 180.116 124.452C180.21 124.377 180.266 124.282 180.266 124.169V124.15C180.266 124.075 180.247 124.018 180.21 123.98C180.172 123.924 180.116 123.886 180.04 123.848C179.965 123.811 179.871 123.773 179.777 123.754C179.683 123.716 179.589 123.697 179.476 123.66C179.344 123.622 179.212 123.565 179.08 123.527C178.949 123.471 178.836 123.414 178.723 123.339C178.61 123.263 178.535 123.169 178.459 123.056C178.384 122.942 178.365 122.791 178.365 122.621V122.603C178.365 122.433 178.403 122.282 178.459 122.15C178.516 122.017 178.61 121.904 178.723 121.81C178.836 121.715 178.968 121.64 179.137 121.583C179.288 121.527 179.457 121.508 179.626 121.508C179.852 121.508 180.078 121.546 180.304 121.621C180.53 121.697 180.737 121.791 180.925 121.923L180.605 122.508C180.436 122.395 180.266 122.319 180.078 122.263C179.909 122.206 179.739 122.168 179.589 122.168C179.438 122.168 179.306 122.206 179.212 122.263C179.118 122.338 179.08 122.414 179.08 122.527V122.546C179.08 122.603 179.099 122.659 179.156 122.716C179.193 122.772 179.269 122.81 179.344 122.848C179.419 122.886 179.513 122.923 179.607 122.961C179.702 122.999 179.796 123.037 179.909 123.056C180.04 123.093 180.172 123.15 180.304 123.207C180.436 123.263 180.549 123.32 180.662 123.414C180.774 123.49 180.85 123.584 180.925 123.697C181 123.811 181.019 123.943 181.019 124.113V124.131C181 124.282 180.963 124.433 180.906 124.584Z" fill="#778490"/>
<path d="M33.3613 119.035H29.0322V126H30.3309V120.168H33.3989C34.0765 120.168 34.5659 120.545 34.5659 121.244C34.5659 121.885 34.1706 122.301 33.3801 122.301H31.3661L30.8768 123.433H33.3801C34.9235 123.433 35.8834 122.584 35.8834 121.244C35.9022 120.64 35.6575 120.036 35.2058 119.639C34.7353 119.243 34.133 119.035 33.3613 119.035Z" fill="#778490"/>
<path d="M46.1601 121.168C46.1601 119.847 45.1061 119.035 43.4498 119.035H39.2148V126H40.5324V120.149H43.6192C44.3909 120.149 44.8802 120.564 44.8802 121.168C44.8802 121.772 44.3909 122.168 43.5815 122.168H41.5488L41.0782 123.32H42.8286L44.8991 126H46.5177L44.2968 123.188C45.4637 122.98 46.1601 122.225 46.1601 121.168Z" fill="#778490"/>
<path d="M52.3153 122.055L50.019 119.035H48.4756L51.6377 123.225V126H52.9364V123.225L56.1173 119.035H54.6115L52.3153 122.055Z" fill="#778490"/>
<path d="M64.8315 119.035H57.7168V120.224H64.8315V119.035Z" fill="#778490"/>
<path d="M60.6152 126H61.9139V120.602L60.6152 121.376V126Z" fill="#778490"/>
<path d="M68.9725 120.168H73.7721V119.035H67.6738V126H74.0544V124.868H68.9725V120.168Z" fill="#778490"/>
<path d="M73.6586 123.037V121.923H69.8189L69.3672 123.037H73.6586Z" fill="#778490"/>
<path d="M80.7921 122.244L84.1612 119.035H82.5613L79.1357 122.319L82.7119 126H84.4247L80.7921 122.244Z" fill="#778490"/>
<path d="M78.6845 119.035H77.3857V126H78.6845V119.035Z" fill="#778490"/>
</g>
<defs>
<clipPath id="clip0_2515_73268">
<rect width="162" height="52" fill="white" transform="translate(19 74)"/>
</clipPath>
</defs>
</svg>
