<svg width="200" height="200" viewBox="0 0 200 200" fill="none" xmlns="http://www.w3.org/2000/svg">
<g clip-path="url(#clip0_2515_73277)">
<path d="M119.519 106.105H111.911L110.404 110.385C108.967 110.503 107.524 110.503 106.087 110.385L113.721 90.5693C115.089 90.4491 116.466 90.4491 117.834 90.5693L125.455 110.391C123.988 110.51 122.513 110.51 121.046 110.391L119.519 106.105ZM115.722 95.3698L113.089 102.702H118.308L115.722 95.3698ZM139.795 90.5693C141.183 90.4504 142.579 90.4504 143.968 90.5693V105.228C143.968 109.362 140.605 110.741 135.504 110.741C130.404 110.741 126.988 109.362 126.988 105.228V90.5693C128.396 90.4506 129.812 90.4506 131.22 90.5693V104.417C131.22 106.758 133.129 107.055 135.504 107.055C137.88 107.055 139.795 106.731 139.795 104.417V90.5693ZM32.3921 94.1433H25.9492V94.8027L27.2259 95.0928C27.4662 95.1503 27.6804 95.2867 27.8342 95.4803C27.9881 95.6739 28.0728 95.9136 28.0749 96.1611V106.712H33.7873C34.454 106.712 35.0935 106.446 35.5649 105.974C36.0364 105.501 36.3012 104.861 36.3012 104.193V96.7216C36.3012 94.5257 34.5375 94.1433 32.3921 94.1433Z" fill="black"/>
<path d="M80.9807 83.7905C60.746 82.8234 40.5049 82.8234 20.2571 83.7905C20.083 83.7981 19.9122 83.8403 19.7545 83.9145C19.5968 83.9887 19.4554 84.0936 19.3385 84.2231C19.2215 84.3525 19.1314 84.5039 19.0733 84.6685C19.0152 84.8331 18.9904 85.0076 19.0001 85.1819V115.818C18.9886 116.163 19.1089 116.499 19.3364 116.757C19.564 117.016 19.8815 117.178 20.2242 117.209C40.4632 118.177 60.7044 118.177 80.9477 117.209C81.2904 117.178 81.608 117.016 81.8355 116.757C82.0631 116.499 82.1834 116.163 82.1718 115.818V85.1819C82.1921 84.8405 82.0792 84.5045 81.8569 84.2449C81.6347 83.9854 81.3205 83.8224 80.9807 83.7905ZM40.5071 105.024C40.5071 108.98 37.4337 110.385 32.3926 110.385H23.8372V90.5693H32.3926C37.4337 90.5693 40.5071 91.8881 40.5071 95.9303V105.024ZM48.9901 110.385C47.5842 110.503 46.1709 110.503 44.765 110.385V90.5693C46.1709 90.4506 47.5842 90.4506 48.9901 90.5693V110.385ZM68.8123 109.857C66.6301 110.401 64.3939 110.697 62.1456 110.741C56.7294 110.741 53.2217 109.422 53.2217 105.254V95.6665C53.2217 91.499 56.7294 90.1538 62.1456 90.1538C64.2442 90.1485 66.339 90.3339 68.4042 90.7077C68.5227 91.8388 68.5227 92.9792 68.4042 94.1103C66.5615 93.8555 64.7034 93.7277 62.8432 93.7278C59.8028 93.7278 57.4533 93.9323 57.4533 96.5435V104.318C57.4533 106.956 59.8028 107.16 62.8432 107.16C63.396 107.16 64.1199 107.16 64.8175 107.074V103.118H61.8955C61.7507 101.94 61.7507 100.748 61.8955 99.5702H68.8123V109.857ZM77.3282 110.385C75.9201 110.503 74.5046 110.503 73.0965 110.385V90.5693C74.5046 90.4506 75.9201 90.4506 77.3282 90.5693V110.385ZM99.2629 90.5693V98.3899H90.9181V90.5693C89.5122 90.4506 88.0989 90.4506 86.693 90.5693V110.385C88.0989 110.503 89.5122 110.503 90.9181 110.385V104.193C90.9257 103.94 90.8451 103.692 90.6901 103.492C90.5352 103.293 90.3156 103.153 90.0691 103.098L88.7924 102.808V102.142H99.2629V110.385C100.671 110.503 102.086 110.503 103.494 110.385V90.5693C102.086 90.4506 100.671 90.4506 99.2629 90.5693ZM161.441 106.929H150.082V106.237L151.359 105.947C151.599 105.89 151.814 105.754 151.968 105.56C152.122 105.366 152.207 105.126 152.208 104.878V90.5693C150.8 90.4505 149.384 90.4505 147.976 90.5693V110.385H161.454C161.594 109.237 161.59 108.076 161.441 106.929ZM176.617 104.166C176.465 104.404 176.314 104.654 176.15 104.905C178.723 105.182 180.559 105.881 180.559 106.712C180.559 107.78 177.518 108.644 173.78 108.644C170.042 108.644 167.002 107.78 167.002 106.712C167.002 105.881 168.831 105.182 171.405 104.905L170.944 104.166C167.798 104.641 165.554 105.887 165.554 107.345C165.554 109.217 169.239 110.741 173.78 110.741C178.321 110.741 182 109.217 182 107.345C182 105.887 179.756 104.641 176.617 104.166Z" fill="black"/>
<path d="M178.21 88.6834C177.02 87.537 175.434 86.8966 173.784 86.8966C172.134 86.8966 170.547 87.537 169.358 88.6834C168.759 89.2722 168.285 89.9766 167.965 90.7541C167.645 91.5316 167.485 92.366 167.496 93.207V93.3191C167.509 94.0561 167.631 94.7872 167.858 95.4885C169.246 99.834 172.839 105.347 173.623 106.698C173.638 106.726 173.661 106.749 173.688 106.765C173.715 106.78 173.746 106.789 173.777 106.789C173.809 106.789 173.84 106.78 173.867 106.765C173.894 106.749 173.916 106.726 173.932 106.698C174.722 105.38 178.308 99.8406 179.697 95.4885C179.924 94.7872 180.046 94.0561 180.059 93.3191V93.207C180.071 92.367 179.913 91.5333 179.595 90.7559C179.278 89.9785 178.806 89.2736 178.21 88.6834ZM173.774 96.9722C173.026 96.9709 172.296 96.7473 171.675 96.3297C171.054 95.9121 170.571 95.3193 170.287 94.6265C170.003 93.9336 169.93 93.1717 170.078 92.4374C170.226 91.7031 170.588 91.0293 171.119 90.5014C171.649 89.9736 172.324 89.6153 173.058 89.472C173.792 89.3288 174.552 89.4069 175.241 89.6966C175.931 89.9863 176.519 90.4745 176.932 91.0994C177.344 91.7243 177.562 92.4578 177.558 93.207C177.553 94.2085 177.152 95.1672 176.442 95.8729C175.733 96.5787 174.774 96.9739 173.774 96.9722Z" fill="black"/>
</g>
<defs>
<clipPath id="clip0_2515_73277">
<rect width="163" height="61" fill="white" transform="translate(19 70)"/>
</clipPath>
</defs>
</svg>
