<svg width="200" height="200" viewBox="0 0 200 200" fill="none" xmlns="http://www.w3.org/2000/svg">
<path d="M71.6 51H51V56.8H71.6C79.8 57 86.3 63.8 86.1 72.1C85.9 80 79.5 86.4 71.6 86.6H51V92.4H71.6C83 92.4 92.2 83.2 92.2 71.8C92.3 60.2 83.1 51 71.6 51Z" fill="black"/>
<path d="M149.4 71.7V51H143.6V71.7C143.8 79.9 137.3 86.7 129.1 87C120.9 87.3 114.1 80.7 113.8 72.5C113.8 72.2 113.8 72 113.8 71.7V51H108V71.7C108 83.1 117.2 92.4 128.6 92.4C140.1 92.3 149.4 83.1 149.4 71.7Z" fill="black"/>
<path d="M71.6 149.4H92.2V143.6H71.6C63.4 143.8 56.6 137.3 56.3 129.1C56 120.9 62.6 114.1 70.8 113.8C71.1 113.8 71.3 113.8 71.6 113.8H92.2V108H71.6C60.2 108 51 117.3 51 128.7C51 140.1 60.3 149.3 71.6 149.4Z" fill="black"/>
<path d="M128.7 113.9C120.5 113.9 113.8 120.6 113.8 128.8C113.8 137 120.5 143.7 128.7 143.7C136.9 143.7 143.6 137 143.6 128.8C143.6 120.5 136.9 113.9 128.7 113.9ZM128.7 149.4C117.3 149.4 108 140.2 108 128.8C108 117.4 117.2 108.1 128.6 108.1C140 108.1 149.3 117.3 149.3 128.7C149.4 140.1 140.1 149.4 128.7 149.4Z" fill="black"/>
</svg>
