<svg width="43" height="48" viewBox="0 0 43 48" fill="none" xmlns="http://www.w3.org/2000/svg">
<path d="M12.8748 39.2397C12.8748 39.2397 8.80894 36.4913 9.88745 27.1248C9.88745 27.1248 30.8756 25.4059 38.8756 16.2017C46.8756 6.99759 41.0909 0.351851 33.1123 0.030135C25.1337 -0.291581 13.7572 1.66323 3.52054 20.6751C-6.71616 39.6839 7.67527 48.9187 17.3697 47.5982C25.6148 46.4737 32.2513 42.8674 38.9614 35.6426L37.8063 34.1382C37.8063 34.1382 24.5332 48.7165 12.8748 39.2397ZM29.7481 2.61612C30.9399 2.46292 32.6037 2.61612 33.6516 3.20747C35.5083 4.25228 36.9422 6.78005 33.7251 12.7241C28.5776 22.2347 15.8101 23.9934 10.3379 24.1895C10.3379 24.1895 14.7837 4.55254 29.7481 2.61306V2.61612Z" fill="white"/>
</svg>
