<svg width="200" height="200" viewBox="0 0 200 200" fill="none" xmlns="http://www.w3.org/2000/svg">
<g clip-path="url(#clip0_2515_72454)">
<path d="M47.9053 102.28V96.4059H50.8789V97.2238H49.0008V98.8596H50.5659V99.7518H49.0008V101.462H50.8789V102.28H47.9053Z" fill="#4D4B47"/>
<path d="M57.9996 98.4878V97.6699C57.9996 97.2981 57.7649 97.1494 57.4519 97.1494C57.1389 97.1494 56.9041 97.2981 56.9041 97.6699V98.0416C56.9041 98.3391 56.9824 98.4878 57.3736 98.6365L58.1562 99.0082C58.7822 99.3057 59.1734 99.6031 59.1734 100.198V101.016C59.1734 101.908 58.5474 102.28 57.5301 102.28C56.5128 102.28 55.8868 101.982 55.8868 101.016V99.9748H56.9824V101.016C56.9824 101.388 57.2171 101.536 57.5301 101.536C57.8431 101.536 58.0779 101.388 58.0779 101.016V100.57C58.0779 100.272 57.9996 100.124 57.6084 99.9748L56.8259 99.6031C56.1998 99.3057 55.8086 99.0082 55.8086 98.4134V97.6699C55.8086 96.7776 56.5128 96.4802 57.4519 96.4802C58.3909 96.4802 59.0952 96.852 59.0952 97.6699V98.6365H57.9996V98.4878Z" fill="#4D4B47"/>
<path d="M67.1549 97.2238H66.0594V102.28H64.8856V97.2238H63.79V96.4059H67.1549V97.2238Z" fill="#4D4B47"/>
<path d="M72.6512 96.4059H71.5557V102.28H72.6512V96.4059Z" fill="#4D4B47"/>
<path d="M79.865 98.4878V97.6699C79.865 97.2981 79.63 97.1494 79.317 97.1494C79.0039 97.1494 78.7694 97.2981 78.7694 97.6699V98.0416C78.7694 98.3391 78.8474 98.4878 79.2389 98.6365L80.0215 99.0082C80.6475 99.3057 81.0386 99.6031 81.0386 100.198V101.016C81.0386 101.908 80.4125 102.28 79.3954 102.28C78.3779 102.28 77.7519 101.982 77.7519 101.016V99.9748H78.8474V101.016C78.8474 101.388 79.0824 101.536 79.3954 101.536C79.7085 101.536 79.943 101.388 79.943 101.016V100.57C79.943 100.272 79.865 100.124 79.4735 99.9748L78.6909 99.6031C78.0649 99.3057 77.6738 99.0082 77.6738 98.4134V97.6699C77.6738 96.7776 78.3779 96.4802 79.317 96.4802C80.256 96.4802 80.9605 96.852 80.9605 97.6699V98.6365H79.865V98.4878Z" fill="#4D4B47"/>
<path d="M94.1971 101.09C94.1971 101.982 93.4926 102.354 92.4755 102.354C91.458 102.354 90.7539 102.057 90.7539 101.09V97.5212C90.7539 96.6289 91.458 96.2571 92.4755 96.2571C93.4926 96.2571 94.1971 96.6289 94.1971 97.5212V98.6365H93.1016V97.7442C93.1016 97.2981 92.8666 97.2237 92.4755 97.2237C92.084 97.2237 91.8495 97.3725 91.8495 97.7442V101.016C91.8495 101.462 92.084 101.536 92.4755 101.536C92.8666 101.536 93.1016 101.388 93.1016 101.016V99.9749H94.1971V101.09Z" fill="#4D4B47"/>
<path d="M101.005 101.462C101.396 101.462 101.631 101.313 101.631 100.941V97.6699C101.631 97.2237 101.396 97.1494 101.005 97.1494C100.613 97.1494 100.379 97.2981 100.379 97.6699V100.941C100.379 101.388 100.613 101.462 101.005 101.462ZM101.005 96.3315C102.1 96.3315 102.804 96.7033 102.804 97.5955V101.165C102.804 102.057 102.1 102.429 101.083 102.429H101.005C99.9873 102.429 99.2832 102.057 99.2832 101.165V97.5955C99.2832 96.6289 99.9873 96.3315 101.005 96.3315Z" fill="#4D4B47"/>
<path d="M110.179 101.462H109.553L108.536 98.7108V102.28H107.519V96.4059H108.536L109.866 99.8261L111.196 96.4059H112.292V102.28H111.196V98.7108L110.179 101.462Z" fill="#4D4B47"/>
<path d="M119.803 97.8186C119.803 97.3724 119.569 97.2981 119.177 97.2981H118.551V99.2313H119.177C119.569 99.2313 119.803 99.0826 119.803 98.7108V97.8186ZM120.977 97.6699V98.7852C120.977 99.6775 120.273 100.049 119.256 100.049H118.63V102.354H117.534V96.4059H119.256C120.273 96.4059 120.977 96.7033 120.977 97.6699Z" fill="#4D4B47"/>
<path d="M127.081 99.0826H127.707C128.098 99.0826 128.333 98.9339 128.333 98.5621V97.8186C128.333 97.3724 128.098 97.2981 127.707 97.2981H127.081V99.0826ZM128.49 102.28L127.629 99.9005H127.081V102.28H125.985V96.4059H127.707C128.725 96.4059 129.429 96.7776 129.429 97.6699V98.7108C129.429 99.3057 129.194 99.6031 128.725 99.8261L129.663 102.354H128.49V102.28Z" fill="#4D4B47"/>
<path d="M134.143 102.28V96.4059H137.038V97.2238H135.238V98.8595H136.803V99.7518H135.238V101.462H137.116V102.28H134.143Z" fill="#4D4B47"/>
<path d="M143.786 98.4878V97.6699C143.786 97.2981 143.551 97.1494 143.238 97.1494C142.925 97.1494 142.69 97.2981 142.69 97.6699V98.0416C142.69 98.3391 142.769 98.4878 143.16 98.6365L143.942 99.0082C144.568 99.3057 144.96 99.6031 144.96 100.198V101.016C144.96 101.908 144.334 102.28 143.316 102.28C142.299 102.28 141.673 101.982 141.673 101.016V99.9748H142.769V101.016C142.769 101.388 143.003 101.536 143.316 101.536C143.629 101.536 143.864 101.388 143.864 101.016V100.57C143.864 100.272 143.786 100.124 143.395 99.9748L142.612 99.6031C141.986 99.3057 141.595 99.0082 141.595 98.4134V97.6699C141.595 96.7776 142.299 96.4802 143.238 96.4802C144.177 96.4802 144.881 96.852 144.881 97.6699V98.6365H143.786V98.4878Z" fill="#4D4B47"/>
<path d="M152.081 98.4878V97.6699C152.081 97.2981 151.846 97.1494 151.533 97.1494C151.22 97.1494 150.985 97.2981 150.985 97.6699V98.0416C150.985 98.3391 151.063 98.4878 151.455 98.6365L152.237 99.0082C152.863 99.3057 153.254 99.6031 153.254 100.198V101.016C153.254 101.908 152.628 102.28 151.611 102.28C150.594 102.28 149.968 101.982 149.968 101.016V99.9748H151.063V101.016C151.063 101.388 151.298 101.536 151.611 101.536C151.924 101.536 152.159 101.388 152.159 101.016V100.57C152.159 100.272 152.081 100.124 151.689 99.9748L150.907 99.6031C150.281 99.3057 149.89 99.0082 149.89 98.4134V97.6699C149.89 96.7776 150.594 96.4802 151.533 96.4802C152.472 96.4802 153.176 96.852 153.176 97.6699V98.6365H152.081V98.4878Z" fill="#4D4B47"/>
<path d="M159.358 96.4059H158.263V102.28H159.358V96.4059Z" fill="#4D4B47"/>
<path d="M165.95 101.462C166.341 101.462 166.576 101.313 166.576 100.941V97.6699C166.576 97.2237 166.341 97.1494 165.95 97.1494C165.559 97.1494 165.324 97.2981 165.324 97.6699V100.941C165.324 101.388 165.559 101.462 165.95 101.462ZM165.872 96.3315C166.967 96.3315 167.672 96.7033 167.672 97.5955V101.165C167.672 102.057 166.967 102.429 165.95 102.429H165.872C164.854 102.429 164.15 102.057 164.15 101.165V97.5955C164.15 96.6289 164.854 96.3315 165.872 96.3315Z" fill="#4D4B47"/>
<path d="M172.386 102.28V96.4059H173.559L174.968 100.049V96.4059H175.985V102.28H174.889L173.403 98.4878V102.28H172.386Z" fill="#4D4B47"/>
<path d="M36.0427 103.329H30.1341C29.9537 103.329 29.8184 103.243 29.7282 103.114L28.8261 101.657C28.6457 101.4 28.781 101.014 29.1418 101.014H32.2991C32.6599 101.014 32.8404 100.843 32.8404 100.586V98.4C32.8404 98.1429 32.6599 97.9714 32.2991 97.9714H29.1418C28.8261 97.9714 28.6457 97.6286 28.8261 97.3286L29.7282 95.8714C29.8184 95.7429 29.9537 95.6571 30.1341 95.6571H36.0427C36.4036 95.6571 36.584 95.3143 36.4487 95.0143L35.276 93.2143C35.2309 93.0857 35.0955 93 34.9151 93H28.1045C27.7436 93 27.5181 93.2143 27.3377 93.4714L24.0451 99.3C24 99.3429 24 99.4286 24 99.5143C24 99.6 24 99.6429 24.0451 99.7286L27.3377 105.557C27.5181 105.814 27.7436 106.029 28.1045 106.029H34.9151C35.0504 106.029 35.2309 105.943 35.276 105.814L36.4036 103.971C36.584 103.671 36.3585 103.329 36.0427 103.329Z" fill="#4D4B47"/>
<path d="M41.3202 99.3428L39.3356 96.6857C39.3356 96.6857 39.2454 96.5143 39.1101 96.5143H34.4644C34.3291 96.5143 34.2389 96.5571 34.1938 96.6857L33.6976 97.4571C33.5623 97.6714 33.7427 97.9286 33.9682 97.9286H35.9979C36.3587 97.9286 36.5843 98.1 36.5843 98.3143V100.586C36.5843 100.843 36.4489 101.014 36.0881 101.057H33.9682C33.6976 101.057 33.5623 101.314 33.6976 101.529L34.1938 102.3C34.2389 102.386 34.3742 102.471 34.4644 102.471H39.1101C39.2454 102.471 39.3356 102.343 39.3356 102.343L41.3653 99.6857C41.4104 99.6428 41.4104 99.5571 41.4104 99.5571C41.3653 99.5143 41.3653 99.4286 41.3202 99.3428Z" fill="black"/>
<path d="M51.9648 107.357H171.941" stroke="black" stroke-width="2"/>
</g>
<defs>
<clipPath id="clip0_2515_72454">
<rect width="152" height="15" fill="white" transform="translate(24 93)"/>
</clipPath>
</defs>
</svg>
