<svg width="40" height="40" viewBox="0 0 40 40" fill="none" xmlns="http://www.w3.org/2000/svg">
<rect width="40" height="40" rx="12" fill="#9E499B"/>
<path d="M17.6847 17.6847C17.9217 16.6632 18.8522 15.9549 19.8999 15.9983C21.0726 15.9334 22.0779 16.827 22.1509 17.9992C22.1509 19.5037 20 20 20 21.0004" stroke="#F7CAF5" stroke-width="1.5" stroke-linecap="round" stroke-linejoin="round"/>
<path d="M20.1252 23.7517C20.1251 23.8207 20.0691 23.8766 20.0001 23.8766C19.9311 23.8766 19.8751 23.8206 19.8751 23.7516C19.8751 23.6826 19.931 23.6266 20 23.6265C20.0332 23.6265 20.0651 23.6397 20.0886 23.6631C20.1121 23.6866 20.1252 23.7185 20.1252 23.7517" stroke="#F7CAF5" stroke-width="1.5" stroke-linecap="round" stroke-linejoin="round"/>
<path fill-rule="evenodd" clip-rule="evenodd" d="M12.6284 25.1604C9.9453 21.3307 10.6348 16.0854 14.2165 13.0792C17.7982 10.073 23.0836 10.3034 26.3901 13.6099C29.6966 16.9164 29.927 22.2018 26.9208 25.7835C23.9146 29.3652 18.6693 30.0547 14.8396 27.3716L11.9967 28.0033L12.6284 25.1604Z" stroke="#F7CAF5" stroke-width="1.5" stroke-linecap="round" stroke-linejoin="round"/>
</svg>
