<svg width="41" height="40" viewBox="0 0 41 40" fill="none" xmlns="http://www.w3.org/2000/svg">
<circle cx="20.9181" cy="14.528" r="11.7224" fill="#75CBF0" stroke="#07503E" stroke-width="1.28105"/>
<path d="M16.0229 36.0779C17.1333 31.7593 21.2142 28.0241 29.6384 29.4834C28.7748 33.8328 23.6681 37.9845 16.0229 36.0779C9.686 34.4977 8.04435 30.4942 8.01562 28.6901C15.1618 29.8093 16.3314 34.0817 16.0229 36.0779Z" fill="#07503E"/>
<path d="M18.2507 26.084L16.0229 36.0779M16.0229 36.0779C17.1333 31.7593 21.2142 28.0241 29.6384 29.4834C28.7748 33.8328 23.6681 37.9845 16.0229 36.0779ZM16.0229 36.0779C16.3314 34.0817 15.1618 29.8093 8.01562 28.6901C8.04435 30.4942 9.686 34.4977 16.0229 36.0779Z" stroke="#07503E" stroke-width="1.28105" stroke-linejoin="round"/>
<path d="M18.7901 23.5361C18.4711 23.4708 18.2654 23.1592 18.3308 22.8403L21.7864 5.96389C21.8517 5.6449 22.1633 5.43927 22.4822 5.50458C22.8012 5.5699 23.0069 5.88143 22.9415 6.20042L19.4859 23.0768C19.4206 23.3958 19.109 23.6014 18.7901 23.5361ZM25.1272 12.2475C24.3455 12.0875 23.8887 11.2759 23.4127 10.6355C23.3765 10.5867 23.3374 10.5391 23.2956 10.4928C22.9327 10.0907 22.385 9.8146 21.6524 9.66461C21.1547 9.56269 20.72 9.54707 20.3484 9.61775C19.9777 9.68374 19.6758 9.82007 19.4427 10.0267C19.2142 10.2344 19.0683 10.4932 19.0048 10.8031C18.9426 11.0594 18.9504 11.2959 19.0284 11.5124C19.111 11.73 19.2436 11.9308 19.4261 12.1149C19.6095 12.2944 19.8291 12.4641 20.085 12.6241C20.3419 12.7795 20.6204 12.9246 20.9206 13.0594L22.1532 13.6347C22.7535 13.9044 23.2927 14.2105 23.7705 14.553C24.2483 14.8955 24.6447 15.2775 24.9596 15.6992C25.2744 16.1208 25.4899 16.5857 25.606 17.0938C25.7268 17.6029 25.728 18.1585 25.6097 18.7605C25.4242 19.6423 25.0421 20.3616 24.4633 20.9182C23.8902 21.4712 23.1492 21.8405 22.2403 22.0262C21.337 22.2082 20.2984 22.179 19.1245 21.9386C17.96 21.7002 16.9822 21.3141 16.1913 20.7803C15.405 20.2475 14.8417 19.5817 14.5013 18.783C14.3453 18.409 14.2462 18.009 14.204 17.5829C14.1188 16.7234 14.979 16.1581 15.8251 16.3313L15.9348 16.3538C16.6662 16.5035 17.0809 17.2422 17.4015 17.9164C17.585 18.2867 17.8665 18.5963 18.2461 18.8452C18.6313 19.0905 19.0869 19.2669 19.6128 19.3746C20.1293 19.4804 20.5932 19.4971 21.0043 19.4247C21.4201 19.3533 21.7611 19.2054 22.0272 18.981C22.2933 18.7566 22.4619 18.4707 22.5331 18.1232C22.5994 17.7992 22.5589 17.5071 22.4116 17.247C22.269 16.9878 22.0304 16.7433 21.6958 16.5133C21.366 16.2843 20.9511 16.0526 20.4511 15.8181L18.9612 15.1021C17.8056 14.5572 16.94 13.8981 16.3645 13.1246C15.789 12.3512 15.6127 11.4319 15.8357 10.367C16.0098 9.49262 16.3985 8.77716 17.0017 8.22061C17.6096 7.66502 18.3643 7.2887 19.2657 7.09166C20.1672 6.89462 21.1438 6.90379 22.1957 7.11917C23.2663 7.33839 24.1632 7.71286 24.8865 8.24258C25.6145 8.77327 26.1347 9.41063 26.4471 10.1547C26.5614 10.4269 26.644 10.7069 26.6948 10.9949C26.8455 11.8489 25.9768 12.4215 25.1272 12.2475Z" fill="#07503E"/>
</svg>
