<svg width="48" height="48" viewBox="0 0 48 48" fill="none" xmlns="http://www.w3.org/2000/svg">
<path d="M27.9919 1.85141C27.9382 1.8316 27.8815 1.82522 27.8263 1.83156C27.7798 1.82622 27.7321 1.82992 27.6859 1.84317C27.5766 1.87454 27.4885 1.95574 27.4484 2.06217L25.2756 7.82288C25.2554 7.8765 25.2483 7.93416 25.2548 7.99109L26.1089 15.4115L26.109 15.412L26.135 15.6405C26.1356 15.6459 26.1363 15.6513 26.1372 15.6566C26.1552 15.7946 26.2513 15.9101 26.3842 15.9527L26.4184 15.9637C27.7902 16.6289 29.2031 17.4838 30.5874 18.5142C32.0489 19.6021 33.332 20.7767 34.3974 21.9641C34.4772 22.0531 34.5961 22.0966 34.7145 22.0803L42.2647 21.0389C42.3068 21.0331 42.3467 21.02 42.3832 21.0008C42.4772 20.9646 42.5554 20.8892 42.5922 20.7874L44.7043 14.951C44.7486 14.8286 44.7229 14.6942 44.6419 14.5974C44.6405 14.5954 44.6391 14.5934 44.6377 14.5913C42.686 11.814 40.0546 9.10009 36.8673 6.72757C33.9715 4.57199 30.9376 2.93691 27.9919 1.85141ZM25.9911 17.9404C25.9992 17.9284 26.0068 17.9161 26.0139 17.9035C26.0781 17.8287 26.1098 17.7295 26.0984 17.6287L26.091 17.5624C26.0904 17.5542 26.0896 17.5461 26.0887 17.5379L26.0886 17.5378L26.0663 17.3439L26.0662 17.3431L25.3552 11.0456L25.3551 11.0452L25.1767 9.44586C25.162 9.31477 25.0769 9.20218 24.9547 9.15241L24.9526 9.15154C24.9526 9.15154 24.9526 9.15153 24.9525 9.15152C21.0667 7.56745 17.2704 6.86157 14.0214 7.10891C10.7716 7.35631 8.03983 8.56197 6.35098 10.8308C6.21995 11.0068 6.09675 11.1872 5.98128 11.3717L5.98432 11.3736L5.98128 11.3717L5.97227 11.3862C5.95239 11.4077 5.93394 11.4308 5.91709 11.4553L4.09787 14.1106C4.04159 14.1811 3.98639 14.2528 3.93228 14.3254C1.63395 17.413 1.77531 21.7754 3.7264 26.2602C5.68207 30.7554 9.48218 35.4498 14.6511 39.2974C19.8199 43.145 25.4073 45.4384 30.2747 46.0221C35.1306 46.6044 39.3502 45.4882 41.6485 42.4006C41.7452 42.2707 41.8376 42.1385 41.9258 42.004L44.0378 38.9451L44.0578 38.9186L44.0579 38.9184L44.067 38.9062L44.0672 38.9059C45.6679 36.7556 46.0851 33.9807 45.5318 30.986C44.9788 27.9929 43.4539 24.7558 41.1331 21.6311C41.0541 21.5248 40.9231 21.4704 40.7921 21.4895L35.9282 22.1998L35.9246 22.2003L35.9234 22.2004L35.9199 22.2009L33.3653 22.5739L33.3618 22.5745L33.3605 22.5747L33.357 22.5752L33.2666 22.5884C33.1718 22.6022 33.0864 22.6533 33.0294 22.7303L32.9742 22.8047L32.9724 22.8072L32.9718 22.8079L32.9699 22.8104L30.3698 26.3191C30.1956 26.554 30.2186 26.8764 30.4126 27.0862C32.727 29.5901 34.0983 32.1279 34.2922 34.0974C32.9345 34.4255 31.0913 34.2484 28.9973 33.5665C26.7693 32.8411 24.2994 31.5575 21.9084 29.7777C21.5542 29.5141 21.2099 29.2456 20.8759 28.9732C18.8797 27.345 17.2572 25.5802 16.1124 23.8799C15.0069 22.2379 14.3625 20.6796 14.2343 19.3766C15.2269 19.1367 16.4826 19.166 17.9139 19.4701C19.4754 19.8019 21.221 20.4555 23.0162 21.4084C23.2854 21.5514 23.6254 21.4723 23.799 21.213L25.9911 17.9404Z" fill="#9CB9B2" stroke="#9CB9B2" stroke-width="0.72" stroke-linejoin="round"/>
<mask id="path-2-inside-1_2028_64308" fill="white">
<path fill-rule="evenodd" clip-rule="evenodd" d="M30.6599 26.5335C30.5907 26.6268 30.599 26.7567 30.6778 26.8419C34.1449 30.5929 35.6282 34.5322 34.042 36.6632C33.8892 36.8684 33.7122 37.0512 33.5129 37.2119C33.4661 37.2497 33.4059 37.2665 33.3459 37.2608L33.3409 37.2603L22.3744 34.6457C22.3343 34.6362 22.2974 34.6165 22.2672 34.5886L12.7929 25.8375C12.7624 25.8093 12.7397 25.7737 12.7271 25.7341L11.4902 21.8516C11.4792 21.8173 11.4761 21.7809 11.4816 21.7453C11.5654 21.2065 11.7581 20.7218 12.0676 20.3059C13.7393 18.0602 18.3132 18.504 23.1858 21.0906C23.2952 21.1487 23.4318 21.1157 23.5008 21.0128L25.6927 17.7404C25.7245 17.693 25.7383 17.6359 25.7318 17.5793L25.3745 14.4788C25.3653 14.3996 25.317 14.3298 25.2462 14.2933C18.4339 10.7822 11.6136 9.94577 7.24059 12.0785C7.144 12.1256 7.02817 12.105 6.95509 12.0263L6.58881 11.6315C6.48415 11.5187 6.30186 11.5321 6.21488 11.659L4.38707 14.3268C4.33093 14.397 4.27592 14.4683 4.22203 14.5406C-0.15447 20.42 4.61144 31.3748 14.867 39.0088C25.1225 46.6429 36.9841 48.0653 41.3606 42.1859C41.4551 42.059 41.5453 41.9297 41.6313 41.7982L43.8267 38.6186C43.9308 38.4678 43.8344 38.2607 43.652 38.2433L43.1569 38.1961C43.0227 38.1833 42.9255 38.0631 42.9383 37.9289C43.3688 33.4151 40.8652 27.7367 36.1839 22.6325C36.1304 22.5742 36.0511 22.5459 35.9728 22.5574L33.4181 22.9304C33.3549 22.9396 33.298 22.9737 33.2599 23.025L30.6599 26.5335Z"/>
</mask>
<path fill-rule="evenodd" clip-rule="evenodd" d="M30.6599 26.5335C30.5907 26.6268 30.599 26.7567 30.6778 26.8419C34.1449 30.5929 35.6282 34.5322 34.042 36.6632C33.8892 36.8684 33.7122 37.0512 33.5129 37.2119C33.4661 37.2497 33.4059 37.2665 33.3459 37.2608L33.3409 37.2603L22.3744 34.6457C22.3343 34.6362 22.2974 34.6165 22.2672 34.5886L12.7929 25.8375C12.7624 25.8093 12.7397 25.7737 12.7271 25.7341L11.4902 21.8516C11.4792 21.8173 11.4761 21.7809 11.4816 21.7453C11.5654 21.2065 11.7581 20.7218 12.0676 20.3059C13.7393 18.0602 18.3132 18.504 23.1858 21.0906C23.2952 21.1487 23.4318 21.1157 23.5008 21.0128L25.6927 17.7404C25.7245 17.693 25.7383 17.6359 25.7318 17.5793L25.3745 14.4788C25.3653 14.3996 25.317 14.3298 25.2462 14.2933C18.4339 10.7822 11.6136 9.94577 7.24059 12.0785C7.144 12.1256 7.02817 12.105 6.95509 12.0263L6.58881 11.6315C6.48415 11.5187 6.30186 11.5321 6.21488 11.659L4.38707 14.3268C4.33093 14.397 4.27592 14.4683 4.22203 14.5406C-0.15447 20.42 4.61144 31.3748 14.867 39.0088C25.1225 46.6429 36.9841 48.0653 41.3606 42.1859C41.4551 42.059 41.5453 41.9297 41.6313 41.7982L43.8267 38.6186C43.9308 38.4678 43.8344 38.2607 43.652 38.2433L43.1569 38.1961C43.0227 38.1833 42.9255 38.0631 42.9383 37.9289C43.3688 33.4151 40.8652 27.7367 36.1839 22.6325C36.1304 22.5742 36.0511 22.5459 35.9728 22.5574L33.4181 22.9304C33.3549 22.9396 33.298 22.9737 33.2599 23.025L30.6599 26.5335Z" fill="#2A7097"/>
<path d="M34.042 36.6632L34.6196 37.0931L34.042 36.6632ZM33.3409 37.2603L33.1739 37.9606C33.2064 37.9684 33.2393 37.9739 33.2726 37.977L33.3409 37.2603ZM12.0676 20.3059L11.4901 19.876L12.0676 20.3059ZM4.38707 14.3268L4.94931 14.7766C4.96041 14.7627 4.97099 14.7484 4.98103 14.7338L4.38707 14.3268ZM4.22203 14.5406L3.64448 14.1107H3.64448L4.22203 14.5406ZM14.867 39.0088L14.4371 39.5864L14.867 39.0088ZM41.3606 42.1859L41.9382 42.6158L41.9382 42.6158L41.3606 42.1859ZM41.6313 41.7982L41.0388 41.3891C41.0353 41.3941 41.0319 41.3991 41.0286 41.4042L41.6313 41.7982ZM33.4181 22.9304L33.5221 23.6429L33.4181 22.9304ZM33.2599 23.025L33.8384 23.4537L33.2599 23.025ZM36.1839 22.6325L35.6533 23.1192L36.1839 22.6325ZM35.9728 22.5574L35.8688 21.8449L35.9728 22.5574ZM43.1569 38.1961L43.0886 38.9128L43.1569 38.1961ZM42.9383 37.9289L43.6551 37.9972L42.9383 37.9289ZM43.8267 38.6186L43.2342 38.2095L43.8267 38.6186ZM43.652 38.2433L43.5837 38.96L43.652 38.2433ZM7.24059 12.0785L6.92497 11.4314L7.24059 12.0785ZM6.95509 12.0263L7.48291 11.5366L6.95509 12.0263ZM25.3745 14.4788L26.0897 14.3964L25.3745 14.4788ZM25.2462 14.2933L24.9163 14.9333L25.2462 14.2933ZM25.6927 17.7404L25.0945 17.3397L25.6927 17.7404ZM25.7318 17.5793L25.0165 17.6617L25.7318 17.5793ZM23.5008 21.0128L22.9026 20.6121L23.5008 21.0128ZM12.7929 25.8375L12.3044 26.3664L12.7929 25.8375ZM12.7271 25.7341L13.4131 25.5155L12.7271 25.7341ZM22.3744 34.6457L22.5413 33.9454L22.3744 34.6457ZM22.2672 34.5886L22.7557 34.0597L22.2672 34.5886ZM33.5129 37.2119L33.965 37.7723L33.5129 37.2119ZM33.3459 37.2608L33.4142 36.544L33.3459 37.2608ZM11.4902 21.8516L12.1762 21.6331L11.4902 21.8516ZM11.4816 21.7453L12.193 21.856L11.4816 21.7453ZM6.58881 11.6315L6.06099 12.1212L6.58881 11.6315ZM30.6778 26.8419L31.2065 26.3532L30.6778 26.8419ZM34.6196 37.0931C35.6195 35.7498 35.576 33.9432 34.934 32.1208C34.2859 30.281 32.9838 28.276 31.2065 26.3532L30.149 27.3307C31.8389 29.1588 33.012 30.999 33.5758 32.5993C34.1457 34.2171 34.0507 35.4456 33.4644 36.2332L34.6196 37.0931ZM33.965 37.7723C34.2101 37.5746 34.4296 37.3483 34.6196 37.0931L33.4644 36.2332C33.3488 36.3885 33.2143 36.5277 33.0609 36.6515L33.965 37.7723ZM33.2726 37.977L33.2776 37.9775L33.4142 36.544L33.4092 36.5435L33.2726 37.977ZM22.2074 35.3461L33.1739 37.9606L33.5079 36.5599L22.5413 33.9454L22.2074 35.3461ZM12.3044 26.3664L21.7786 35.1175L22.7557 34.0597L13.2814 25.3086L12.3044 26.3664ZM10.8042 22.0702L12.041 25.9526L13.4131 25.5155L12.1762 21.6331L10.8042 22.0702ZM11.4901 19.876C11.1034 20.3955 10.87 20.9927 10.7702 21.6346L12.193 21.856C12.2608 21.4203 12.4128 21.048 12.6452 20.7358L11.4901 19.876ZM23.5234 20.4547C21.0287 19.1304 18.5705 18.3318 16.4826 18.1683C14.42 18.0068 12.5437 18.4605 11.4901 19.876L12.6452 20.7358C13.2632 19.9056 14.5097 19.4583 16.3702 19.6039C18.2053 19.7476 20.4703 20.4643 22.8482 21.7266L23.5234 20.4547ZM24.099 21.4135L26.2909 18.141L25.0945 17.3397L22.9026 20.6121L24.099 21.4135ZM26.447 17.4969L26.0897 14.3964L24.6592 14.5612L25.0165 17.6617L26.447 17.4969ZM7.5562 12.7257C11.6298 10.739 18.1883 11.4656 24.9163 14.9333L25.576 13.6533C18.6795 10.0987 11.5975 9.15257 6.92497 11.4314L7.5562 12.7257ZM6.06099 12.1212L6.42726 12.516L7.48291 11.5366L7.11664 11.1418L6.06099 12.1212ZM4.98103 14.7338L6.80884 12.066L5.62092 11.2521L3.79311 13.9199L4.98103 14.7338ZM4.79959 14.9706C4.84848 14.9049 4.89839 14.8402 4.94931 14.7766L3.82483 13.877C3.76347 13.9537 3.70335 14.0316 3.64448 14.1107L4.79959 14.9706ZM15.2969 38.4313C10.2513 34.6755 6.58545 30.1227 4.71771 25.8295C2.84081 21.5153 2.83149 17.6145 4.79959 14.9706L3.64448 14.1107C1.23607 17.3462 1.42145 21.8624 3.39726 26.404C5.38224 30.9666 9.22709 35.7082 14.4371 39.5864L15.2969 38.4313ZM40.7831 41.7559C38.815 44.3999 35.0755 45.5102 30.4042 44.95C25.7557 44.3926 20.3425 42.1871 15.2969 38.4313L14.4371 39.5864C19.647 43.4646 25.2924 45.7873 30.2327 46.3798C35.1502 46.9694 39.5298 45.8512 41.9382 42.6158L40.7831 41.7559ZM41.0286 41.4042C40.9506 41.5236 40.8688 41.6408 40.7831 41.7559L41.9382 42.6158C42.0414 42.4771 42.14 42.3359 42.2339 42.1921L41.0286 41.4042ZM43.2342 38.2095L41.0388 41.3891L42.2238 42.2073L44.4192 39.0277L43.2342 38.2095ZM43.0886 38.9128L43.5837 38.96L43.7203 37.5265L43.2252 37.4793L43.0886 38.9128ZM35.6533 23.1192C40.2688 28.1517 42.6245 33.636 42.2216 37.8605L43.6551 37.9972C44.1131 33.1942 41.4615 27.3217 36.7146 22.1459L35.6533 23.1192ZM35.8688 21.8449L33.314 22.218L33.5221 23.6429L36.0768 23.2698L35.8688 21.8449ZM32.6815 22.5963L30.0814 26.1048L31.2383 26.9622L33.8384 23.4537L32.6815 22.5963ZM33.314 22.218C33.0612 22.2549 32.8336 22.391 32.6815 22.5963L33.8384 23.4537C33.7623 23.5563 33.6485 23.6244 33.5221 23.6429L33.314 22.218ZM36.7146 22.1459C36.5001 21.9121 36.1832 21.799 35.8688 21.8449L36.0768 23.2698C35.919 23.2929 35.7608 23.2364 35.6533 23.1192L36.7146 22.1459ZM43.2252 37.4793C43.4957 37.5051 43.6792 37.7445 43.6551 37.9972L42.2216 37.8605C42.1719 38.3817 42.5497 38.8614 43.0886 38.9128L43.2252 37.4793ZM44.4192 39.0277C44.8356 38.4246 44.4499 37.5961 43.7203 37.5265L43.5837 38.96C43.2189 38.9252 43.026 38.511 43.2342 38.2095L44.4192 39.0277ZM6.92497 11.4314C7.10819 11.342 7.33623 11.3785 7.48291 11.5366L6.42726 12.516C6.72011 12.8316 7.17982 12.9092 7.5562 12.7257L6.92497 11.4314ZM26.0897 14.3964C26.0531 14.0783 25.8599 13.7996 25.576 13.6533L24.9163 14.9333C24.7741 14.86 24.6776 14.7209 24.6592 14.5612L26.0897 14.3964ZM26.2909 18.141C26.4178 17.9517 26.4731 17.7233 26.447 17.4969L25.0165 17.6617C25.0035 17.5485 25.0311 17.4343 25.0945 17.3397L26.2909 18.141ZM22.8482 21.7266C23.2773 21.9543 23.8205 21.8292 24.099 21.4135L22.9026 20.6121C23.0431 20.4022 23.3131 20.3431 23.5234 20.4547L22.8482 21.7266ZM13.2814 25.3086C13.3425 25.365 13.3879 25.4363 13.4131 25.5155L12.041 25.9526C12.0915 26.111 12.1822 26.2536 12.3044 26.3664L13.2814 25.3086ZM22.5413 33.9454C22.6214 33.9645 22.6952 34.0038 22.7557 34.0597L21.7786 35.1175C21.8996 35.2292 22.0472 35.3079 22.2074 35.3461L22.5413 33.9454ZM33.0609 36.6515C33.169 36.5643 33.2983 36.533 33.4142 36.544L33.2776 37.9775C33.5134 38 33.7631 37.9352 33.965 37.7723L33.0609 36.6515ZM12.1762 21.6331C12.1975 21.7 12.2054 21.7763 12.193 21.856L10.7702 21.6346C10.7467 21.7855 10.7609 21.9345 10.8042 22.0702L12.1762 21.6331ZM7.11664 11.1418C6.69799 10.6905 5.96883 10.7443 5.62092 11.2521L6.80884 12.066C6.63489 12.3199 6.27031 12.3468 6.06099 12.1212L7.11664 11.1418ZM31.2065 26.3532C31.358 26.5171 31.3793 26.772 31.2383 26.9622L30.0814 26.1048C29.8022 26.4815 29.84 26.9963 30.149 27.3307L31.2065 26.3532Z" fill="#07503E" mask="url(#path-2-inside-1_2028_64308)"/>
<mask id="path-4-inside-2_2028_64308" fill="white">
<path fill-rule="evenodd" clip-rule="evenodd" d="M40.8452 21.846C45.4394 28.0315 46.8296 34.5939 43.7796 38.6912C39.4031 44.5706 27.5415 43.1482 17.2859 35.5142C7.03038 27.8802 2.26448 16.9254 6.64098 11.046C9.85876 6.72325 17.1228 6.34767 24.8199 9.48599L25.6798 17.191L25.4477 17.5133C20.6342 15.0002 16.1403 14.5897 14.4866 16.8113C12.3994 19.6152 15.6266 25.5498 21.6947 30.0668C27.7627 34.5837 34.3738 35.9724 36.4609 33.1685C38.0536 31.029 36.5519 27.0666 33.0548 23.3021L33.3196 22.9449L40.8452 21.846Z"/>
</mask>
<path fill-rule="evenodd" clip-rule="evenodd" d="M40.8452 21.846C45.4394 28.0315 46.8296 34.5939 43.7796 38.6912C39.4031 44.5706 27.5415 43.1482 17.2859 35.5142C7.03038 27.8802 2.26448 16.9254 6.64098 11.046C9.85876 6.72325 17.1228 6.34767 24.8199 9.48599L25.6798 17.191L25.4477 17.5133C20.6342 15.0002 16.1403 14.5897 14.4866 16.8113C12.3994 19.6152 15.6266 25.5498 21.6947 30.0668C27.7627 34.5837 34.3738 35.9724 36.4609 33.1685C38.0536 31.029 36.5519 27.0666 33.0548 23.3021L33.3196 22.9449L40.8452 21.846Z" fill="#75CBF0"/>
<path d="M43.7796 38.6912L44.3571 39.1211H44.3571L43.7796 38.6912ZM40.8452 21.846L41.4232 21.4167C41.2653 21.204 41.0033 21.0953 40.7412 21.1335L40.8452 21.846ZM17.2859 35.5142L16.856 36.0918L17.2859 35.5142ZM6.64098 11.046L7.21853 11.4759L6.64098 11.046ZM24.8199 9.48599L25.5354 9.40613C25.5062 9.14401 25.3359 8.91886 25.0917 8.81928L24.8199 9.48599ZM25.6798 17.191L26.2641 17.6116C26.3684 17.4668 26.4151 17.2885 26.3954 17.1111L25.6798 17.191ZM25.4477 17.5133L25.1145 18.1516C25.4319 18.3173 25.8228 18.2246 26.032 17.934L25.4477 17.5133ZM14.4866 16.8113L15.0641 17.2412L14.4866 16.8113ZM21.6947 30.0668L22.1246 29.4892L21.6947 30.0668ZM36.4609 33.1685L35.8834 32.7386L36.4609 33.1685ZM33.0548 23.3021L32.4764 22.8734C32.2699 23.152 32.2913 23.5381 32.5273 23.7921L33.0548 23.3021ZM33.3196 22.9449L33.2156 22.2324C33.026 22.2601 32.8552 22.3622 32.7411 22.5162L33.3196 22.9449ZM44.3571 39.1211C46.0336 36.8691 46.453 33.9843 45.887 30.9208C45.3216 27.8605 43.7678 24.5734 41.4232 21.4167L40.2672 22.2753C42.5168 25.3041 43.9552 28.3909 44.4709 31.1825C44.9861 33.9709 44.5756 36.416 43.202 38.2613L44.3571 39.1211ZM16.856 36.0918C22.066 39.97 27.7114 42.2927 32.6517 42.8851C37.5692 43.4748 41.9487 42.3566 44.3571 39.1211L43.202 38.2613C41.2339 40.9053 37.4944 42.0155 32.8231 41.4554C28.1746 40.8979 22.7614 38.6925 17.7158 34.9367L16.856 36.0918ZM6.06342 10.6161C3.65502 13.8516 3.8404 18.3678 5.81621 22.9094C7.80119 27.472 11.646 32.2136 16.856 36.0918L17.7158 34.9367C12.6703 31.1808 9.0044 26.628 7.13666 22.3349C5.25976 18.0207 5.25043 14.1199 7.21853 11.4759L6.06342 10.6161ZM25.0917 8.81928C21.1679 7.21941 17.3145 6.49772 13.9961 6.75017C10.6763 7.00273 7.83253 8.23948 6.06342 10.6161L7.21853 11.4759C8.66721 9.52979 11.0644 8.41736 14.1053 8.18602C17.1477 7.95457 20.7748 8.61425 24.548 10.1527L25.0917 8.81928ZM26.3954 17.1111L25.5354 9.40613L24.1043 9.56585L24.9642 17.2708L26.3954 17.1111ZM26.032 17.934L26.2641 17.6116L25.0955 16.7703L24.8634 17.0927L26.032 17.934ZM25.781 16.8751C23.3159 15.5881 20.8923 14.8168 18.8339 14.6686C16.7994 14.5222 14.9514 14.981 13.909 16.3814L15.0641 17.2412C15.6755 16.4199 16.9013 15.9732 18.7305 16.1049C20.5359 16.2349 22.766 16.9254 25.1145 18.1516L25.781 16.8751ZM13.909 16.3814C12.5969 18.144 13.0673 20.69 14.3999 23.1406C15.7645 25.6501 18.1665 28.3381 21.2647 30.6443L22.1246 29.4892C19.1548 27.2785 16.9091 24.7407 15.665 22.4527C14.3887 20.1057 14.2891 18.2824 15.0641 17.2412L13.909 16.3814ZM21.2647 30.6443C24.363 32.9506 27.6271 34.4803 30.4226 35.0676C33.1526 35.641 35.7264 35.3611 37.0385 33.5985L35.8834 32.7386C35.1083 33.7798 33.3331 34.2075 30.7187 33.6583C28.1699 33.1229 25.0944 31.6999 22.1246 29.4892L21.2647 30.6443ZM37.0385 33.5985C38.0425 32.2497 37.9946 30.4342 37.345 28.6039C36.6891 26.7556 35.3748 24.7416 33.5823 22.8121L32.5273 23.7921C34.2319 25.6271 35.417 27.4765 35.988 29.0855C36.5653 30.7124 36.472 31.9478 35.8834 32.7386L37.0385 33.5985ZM32.7411 22.5162L32.4764 22.8734L33.6333 23.7308L33.8981 23.3735L32.7411 22.5162ZM40.7412 21.1335L33.2156 22.2324L33.4236 23.6573L40.9493 22.5584L40.7412 21.1335Z" fill="#07503E" mask="url(#path-4-inside-2_2028_64308)"/>
<path d="M14.1968 16.5963C13.0879 18.086 13.3596 20.2707 14.4889 22.5346C15.5794 24.7209 17.5174 27.0908 20.0627 29.2343L14.8283 33.0537C10.7185 29.4062 7.79293 25.2596 6.36477 21.3816C4.90951 17.43 5.02591 13.8173 6.92878 11.261C8.44866 9.21916 10.9371 8.0771 14.0227 7.83129C17.091 7.58685 20.7211 8.23325 24.4833 9.73867L25.3072 17.0369C22.9604 15.8511 20.6822 15.154 18.7607 15.0244C16.798 14.892 15.1242 15.3504 14.1968 16.5963Z" fill="#CAEDFD" stroke="#07503E" stroke-width="0.72" stroke-linejoin="round"/>
<path fill-rule="evenodd" clip-rule="evenodd" d="M28.0214 2.50952L25.9199 8.08135L26.7588 15.3697L26.7714 15.4805C26.7715 15.4805 26.7715 15.4805 26.7716 15.4805L26.7727 15.4902L26.8294 15.5084C28.1837 16.1633 29.5767 17.0053 30.9398 18.0199C32.371 19.0853 33.6294 20.237 34.6761 21.4035L41.9788 20.3962C41.9701 20.3839 41.9614 20.3716 41.9528 20.3593L42.0155 20.3794L44.0583 14.7344L28.0214 2.50952Z" fill="#2A7097"/>
<path d="M25.9199 8.08135L25.5831 7.9543C25.5629 8.00792 25.5557 8.06558 25.5623 8.12251L25.9199 8.08135ZM28.0214 2.50952L28.2397 2.22322C28.1492 2.15426 28.0315 2.13211 27.9222 2.16348C27.8128 2.19485 27.7247 2.27605 27.6846 2.38248L28.0214 2.50952ZM26.7588 15.3697L27.1165 15.329L27.1164 15.3286L26.7588 15.3697ZM26.7714 15.4805L26.4137 15.5212C26.4277 15.6443 26.5041 15.7516 26.616 15.8052L26.7714 15.4805ZM26.7716 15.4805L27.1292 15.4394C27.115 15.3164 27.0387 15.2093 26.927 15.1558L26.7716 15.4805ZM26.7727 15.4902L26.415 15.5314C26.4312 15.6718 26.5281 15.7898 26.6627 15.833L26.7727 15.4902ZM26.8294 15.5084L26.9861 15.1843C26.971 15.177 26.9553 15.1707 26.9393 15.1656L26.8294 15.5084ZM30.9398 18.0199L31.1547 17.7312L30.9398 18.0199ZM34.6761 21.4035L34.4081 21.6439C34.488 21.7329 34.6068 21.7764 34.7252 21.7601L34.6761 21.4035ZM41.9788 20.3962L42.0279 20.7528C42.1523 20.7357 42.2587 20.655 42.3088 20.5399C42.3589 20.4248 42.3455 20.2919 42.2733 20.1892L41.9788 20.3962ZM41.9528 20.3593L42.0627 20.0165C41.9153 19.9692 41.7543 20.0214 41.6626 20.1462C41.571 20.2709 41.5694 20.4403 41.6586 20.5667L41.9528 20.3593ZM42.0155 20.3794L41.9056 20.7222C42.09 20.7814 42.2882 20.684 42.3541 20.5019L42.0155 20.3794ZM44.0583 14.7344L44.3969 14.8569C44.4504 14.709 44.4017 14.5434 44.2766 14.4481L44.0583 14.7344ZM26.2568 8.20839L28.3583 2.63657L27.6846 2.38248L25.5831 7.9543L26.2568 8.20839ZM27.1164 15.3286L26.2776 8.04018L25.5623 8.12251L26.4012 15.4109L27.1164 15.3286ZM26.4011 15.4104L26.4137 15.5212L27.1291 15.4398L27.1165 15.329L26.4011 15.4104ZM26.616 15.8052C26.616 15.8052 26.616 15.8052 26.616 15.8052C26.616 15.8052 26.616 15.8052 26.616 15.8052C26.616 15.8052 26.616 15.8052 26.616 15.8052C26.616 15.8052 26.616 15.8052 26.616 15.8052C26.616 15.8052 26.616 15.8052 26.616 15.8052C26.616 15.8052 26.616 15.8052 26.616 15.8052C26.616 15.8052 26.616 15.8052 26.616 15.8052C26.616 15.8052 26.616 15.8052 26.616 15.8052C26.616 15.8052 26.616 15.8052 26.616 15.8052C26.616 15.8052 26.616 15.8052 26.616 15.8052C26.616 15.8052 26.616 15.8052 26.616 15.8052C26.616 15.8052 26.616 15.8052 26.616 15.8052C26.616 15.8052 26.616 15.8052 26.616 15.8052C26.616 15.8052 26.616 15.8052 26.616 15.8052C26.616 15.8052 26.616 15.8052 26.616 15.8052C26.616 15.8052 26.616 15.8052 26.616 15.8052C26.616 15.8052 26.616 15.8052 26.616 15.8052C26.616 15.8052 26.616 15.8052 26.616 15.8052C26.616 15.8052 26.616 15.8052 26.616 15.8052C26.616 15.8052 26.616 15.8052 26.616 15.8052C26.616 15.8052 26.616 15.8052 26.616 15.8052C26.616 15.8052 26.616 15.8052 26.616 15.8052C26.616 15.8052 26.616 15.8052 26.616 15.8052C26.616 15.8052 26.616 15.8052 26.616 15.8052C26.616 15.8052 26.616 15.8052 26.616 15.8052C26.616 15.8052 26.616 15.8052 26.616 15.8052C26.616 15.8052 26.616 15.8052 26.616 15.8052C26.616 15.8052 26.616 15.8052 26.616 15.8052C26.616 15.8052 26.616 15.8052 26.616 15.8052C26.616 15.8052 26.616 15.8052 26.616 15.8052C26.616 15.8052 26.616 15.8052 26.616 15.8052C26.616 15.8052 26.616 15.8052 26.616 15.8052C26.616 15.8052 26.616 15.8052 26.616 15.8052C26.616 15.8052 26.616 15.8052 26.616 15.8052C26.616 15.8052 26.616 15.8052 26.616 15.8052C26.616 15.8052 26.616 15.8052 26.616 15.8052C26.616 15.8052 26.616 15.8052 26.616 15.8052C26.616 15.8052 26.616 15.8052 26.616 15.8052C26.616 15.8052 26.616 15.8052 26.616 15.8052C26.616 15.8052 26.616 15.8052 26.616 15.8052C26.616 15.8052 26.616 15.8052 26.616 15.8052C26.616 15.8052 26.616 15.8052 26.616 15.8052C26.616 15.8052 26.616 15.8052 26.616 15.8052C26.616 15.8052 26.616 15.8052 26.616 15.8052C26.616 15.8052 26.616 15.8052 26.616 15.8052C26.616 15.8052 26.616 15.8052 26.616 15.8052C26.616 15.8052 26.616 15.8052 26.616 15.8052C26.616 15.8052 26.616 15.8052 26.616 15.8052C26.616 15.8052 26.616 15.8052 26.616 15.8052C26.616 15.8052 26.616 15.8052 26.616 15.8052C26.616 15.8052 26.616 15.8052 26.616 15.8052C26.616 15.8052 26.616 15.8052 26.616 15.8052C26.616 15.8052 26.616 15.8052 26.616 15.8052C26.616 15.8052 26.616 15.8052 26.616 15.8052C26.616 15.8052 26.616 15.8052 26.616 15.8052C26.616 15.8052 26.616 15.8052 26.616 15.8052C26.616 15.8052 26.616 15.8052 26.616 15.8052C26.616 15.8052 26.616 15.8052 26.616 15.8052C26.616 15.8052 26.616 15.8052 26.616 15.8052C26.616 15.8052 26.616 15.8052 26.616 15.8052C26.616 15.8052 26.616 15.8052 26.616 15.8052C26.616 15.8052 26.616 15.8052 26.616 15.8052C26.616 15.8052 26.616 15.8052 26.616 15.8052C26.616 15.8052 26.616 15.8052 26.616 15.8052C26.616 15.8052 26.616 15.8052 26.616 15.8052C26.616 15.8052 26.616 15.8052 26.616 15.8052C26.616 15.8052 26.616 15.8052 26.616 15.8052C26.616 15.8052 26.616 15.8052 26.616 15.8052C26.616 15.8052 26.616 15.8052 26.616 15.8052C26.616 15.8052 26.616 15.8052 26.616 15.8052C26.616 15.8052 26.616 15.8052 26.616 15.8052C26.616 15.8052 26.616 15.8052 26.616 15.8052C26.616 15.8052 26.616 15.8052 26.616 15.8052C26.616 15.8052 26.616 15.8052 26.616 15.8052C26.616 15.8052 26.616 15.8052 26.616 15.8052C26.616 15.8052 26.616 15.8052 26.616 15.8052C26.616 15.8052 26.616 15.8052 26.616 15.8052C26.616 15.8052 26.616 15.8052 26.616 15.8052C26.616 15.8052 26.616 15.8052 26.616 15.8052C26.616 15.8052 26.616 15.8052 26.616 15.8052C26.616 15.8052 26.616 15.8052 26.616 15.8052C26.616 15.8052 26.616 15.8052 26.616 15.8052C26.616 15.8052 26.616 15.8052 26.616 15.8052C26.616 15.8052 26.616 15.8052 26.616 15.8052C26.616 15.8052 26.616 15.8052 26.616 15.8052C26.616 15.8052 26.616 15.8052 26.616 15.8052C26.616 15.8052 26.616 15.8052 26.616 15.8052C26.616 15.8052 26.616 15.8052 26.616 15.8052C26.616 15.8052 26.616 15.8052 26.616 15.8052C26.616 15.8052 26.616 15.8052 26.616 15.8052C26.616 15.8052 26.616 15.8052 26.616 15.8052C26.616 15.8052 26.616 15.8052 26.616 15.8052C26.616 15.8052 26.616 15.8052 26.616 15.8052C26.616 15.8052 26.616 15.8052 26.616 15.8052C26.616 15.8052 26.616 15.8052 26.616 15.8052C26.616 15.8052 26.616 15.8052 26.616 15.8052C26.616 15.8052 26.616 15.8052 26.616 15.8052C26.616 15.8052 26.616 15.8052 26.616 15.8052C26.616 15.8052 26.616 15.8052 26.616 15.8052C26.616 15.8052 26.616 15.8052 26.616 15.8052C26.616 15.8052 26.616 15.8052 26.616 15.8052C26.616 15.8052 26.616 15.8052 26.616 15.8052C26.616 15.8052 26.616 15.8052 26.616 15.8052C26.616 15.8052 26.616 15.8052 26.616 15.8052C26.616 15.8052 26.616 15.8052 26.616 15.8052C26.616 15.8052 26.616 15.8052 26.616 15.8052C26.616 15.8052 26.616 15.8052 26.616 15.8052C26.616 15.8052 26.616 15.8052 26.616 15.8052C26.616 15.8052 26.616 15.8052 26.616 15.8052C26.616 15.8052 26.616 15.8052 26.616 15.8052C26.616 15.8052 26.616 15.8052 26.616 15.8052C26.616 15.8052 26.616 15.8052 26.616 15.8052C26.616 15.8052 26.616 15.8052 26.616 15.8052C26.616 15.8052 26.616 15.8052 26.616 15.8052C26.616 15.8052 26.616 15.8052 26.616 15.8052C26.616 15.8052 26.616 15.8052 26.616 15.8052C26.616 15.8052 26.616 15.8052 26.616 15.8052C26.616 15.8052 26.616 15.8052 26.616 15.8052C26.616 15.8052 26.616 15.8052 26.616 15.8052C26.616 15.8052 26.616 15.8052 26.616 15.8052C26.616 15.8052 26.616 15.8052 26.616 15.8052C26.616 15.8052 26.616 15.8052 26.616 15.8052C26.616 15.8052 26.616 15.8052 26.616 15.8052C26.616 15.8052 26.616 15.8052 26.616 15.8052C26.616 15.8052 26.616 15.8052 26.616 15.8052C26.616 15.8052 26.616 15.8052 26.616 15.8052C26.616 15.8052 26.616 15.8052 26.616 15.8052C26.616 15.8052 26.616 15.8052 26.616 15.8052C26.616 15.8052 26.616 15.8052 26.616 15.8052C26.616 15.8052 26.616 15.8052 26.616 15.8052C26.616 15.8052 26.616 15.8052 26.616 15.8052C26.616 15.8052 26.616 15.8052 26.616 15.8052C26.616 15.8052 26.616 15.8052 26.616 15.8052C26.616 15.8052 26.616 15.8052 26.616 15.8052C26.616 15.8052 26.616 15.8052 26.616 15.8052C26.616 15.8052 26.616 15.8052 26.616 15.8052C26.616 15.8052 26.616 15.8052 26.616 15.8052C26.616 15.8052 26.616 15.8052 26.616 15.8052C26.616 15.8052 26.616 15.8052 26.616 15.8052C26.616 15.8052 26.616 15.8052 26.616 15.8052C26.616 15.8052 26.616 15.8052 26.616 15.8052C26.616 15.8052 26.616 15.8052 26.616 15.8052C26.616 15.8052 26.616 15.8052 26.616 15.8052C26.616 15.8052 26.616 15.8052 26.616 15.8052C26.616 15.8052 26.616 15.8052 26.616 15.8052C26.616 15.8052 26.616 15.8052 26.616 15.8052C26.616 15.8052 26.616 15.8052 26.616 15.8052C26.616 15.8052 26.616 15.8052 26.616 15.8052C26.616 15.8052 26.616 15.8052 26.616 15.8052C26.616 15.8052 26.616 15.8052 26.616 15.8052C26.616 15.8052 26.616 15.8052 26.616 15.8052C26.616 15.8052 26.616 15.8052 26.616 15.8052C26.616 15.8052 26.616 15.8052 26.616 15.8052C26.616 15.8052 26.616 15.8052 26.616 15.8052C26.616 15.8052 26.616 15.8052 26.616 15.8052C26.616 15.8052 26.616 15.8052 26.616 15.8052C26.616 15.8052 26.616 15.8052 26.616 15.8052C26.616 15.8052 26.616 15.8052 26.616 15.8052C26.616 15.8052 26.616 15.8052 26.616 15.8052C26.616 15.8052 26.616 15.8052 26.616 15.8052C26.616 15.8052 26.616 15.8052 26.616 15.8052C26.616 15.8052 26.616 15.8052 26.616 15.8052C26.616 15.8052 26.616 15.8052 26.616 15.8052C26.616 15.8052 26.616 15.8052 26.616 15.8052C26.616 15.8052 26.616 15.8052 26.616 15.8052C26.616 15.8052 26.616 15.8052 26.616 15.8052C26.616 15.8052 26.616 15.8052 26.616 15.8052C26.616 15.8052 26.616 15.8052 26.616 15.8052C26.616 15.8052 26.616 15.8052 26.616 15.8052C26.616 15.8052 26.616 15.8052 26.616 15.8052C26.616 15.8052 26.616 15.8052 26.616 15.8052C26.616 15.8052 26.616 15.8052 26.616 15.8052C26.616 15.8052 26.616 15.8052 26.616 15.8052C26.616 15.8052 26.616 15.8052 26.616 15.8052C26.616 15.8052 26.616 15.8052 26.616 15.8052C26.616 15.8052 26.616 15.8052 26.616 15.8052C26.616 15.8052 26.616 15.8052 26.616 15.8052C26.616 15.8052 26.616 15.8052 26.616 15.8052C26.616 15.8052 26.616 15.8052 26.616 15.8052C26.616 15.8052 26.616 15.8052 26.616 15.8052C26.616 15.8052 26.616 15.8052 26.616 15.8052C26.616 15.8052 26.616 15.8052 26.616 15.8052C26.616 15.8052 26.616 15.8052 26.616 15.8052C26.616 15.8052 26.616 15.8052 26.616 15.8052C26.616 15.8052 26.616 15.8052 26.616 15.8052C26.616 15.8052 26.616 15.8052 26.616 15.8052C26.616 15.8052 26.616 15.8052 26.616 15.8052C26.616 15.8052 26.616 15.8052 26.616 15.8052C26.616 15.8052 26.616 15.8052 26.616 15.8052C26.616 15.8052 26.616 15.8052 26.616 15.8052C26.616 15.8052 26.616 15.8052 26.616 15.8052C26.616 15.8052 26.616 15.8052 26.616 15.8052C26.616 15.8052 26.616 15.8052 26.616 15.8052C26.616 15.8052 26.616 15.8052 26.616 15.8052C26.616 15.8052 26.616 15.8052 26.616 15.8052C26.616 15.8052 26.616 15.8052 26.616 15.8052C26.616 15.8052 26.616 15.8052 26.616 15.8052C26.616 15.8052 26.616 15.8052 26.616 15.8052C26.616 15.8052 26.616 15.8052 26.616 15.8052C26.616 15.8052 26.616 15.8052 26.616 15.8052C26.616 15.8052 26.616 15.8052 26.616 15.8052C26.616 15.8052 26.616 15.8052 26.616 15.8052C26.616 15.8052 26.616 15.8052 26.616 15.8052C26.616 15.8052 26.616 15.8052 26.616 15.8052C26.616 15.8052 26.616 15.8052 26.616 15.8052C26.616 15.8052 26.616 15.8052 26.616 15.8052C26.616 15.8052 26.616 15.8052 26.616 15.8052C26.616 15.8052 26.616 15.8052 26.616 15.8052C26.616 15.8052 26.616 15.8052 26.616 15.8052C26.616 15.8052 26.616 15.8052 26.616 15.8052C26.616 15.8052 26.616 15.8052 26.616 15.8052C26.616 15.8052 26.616 15.8052 26.616 15.8052C26.616 15.8052 26.616 15.8052 26.616 15.8052C26.616 15.8052 26.616 15.8052 26.616 15.8052C26.616 15.8052 26.616 15.8052 26.616 15.8052C26.616 15.8052 26.616 15.8052 26.616 15.8052C26.616 15.8052 26.616 15.8052 26.616 15.8052C26.616 15.8052 26.616 15.8052 26.616 15.8052C26.616 15.8052 26.616 15.8052 26.616 15.8052C26.616 15.8052 26.616 15.8052 26.616 15.8052C26.616 15.8052 26.616 15.8052 26.616 15.8052C26.616 15.8052 26.616 15.8052 26.616 15.8052C26.616 15.8052 26.616 15.8052 26.616 15.8052C26.616 15.8052 26.616 15.8052 26.616 15.8052C26.616 15.8052 26.616 15.8052 26.616 15.8052C26.616 15.8052 26.616 15.8052 26.616 15.8052C26.616 15.8052 26.616 15.8052 26.616 15.8052C26.616 15.8052 26.616 15.8052 26.616 15.8052C26.616 15.8052 26.616 15.8052 26.616 15.8052C26.616 15.8052 26.616 15.8052 26.616 15.8052C26.616 15.8052 26.616 15.8052 26.616 15.8052C26.616 15.8052 26.616 15.8052 26.616 15.8052C26.616 15.8052 26.616 15.8052 26.616 15.8052C26.616 15.8052 26.616 15.8052 26.616 15.8052C26.616 15.8052 26.616 15.8052 26.616 15.8052C26.616 15.8052 26.616 15.8052 26.616 15.8052C26.616 15.8052 26.616 15.8052 26.616 15.8052C26.616 15.8052 26.616 15.8052 26.616 15.8052C26.616 15.8052 26.616 15.8052 26.616 15.8052C26.616 15.8052 26.616 15.8052 26.616 15.8052C26.616 15.8052 26.616 15.8052 26.616 15.8052C26.616 15.8052 26.616 15.8052 26.616 15.8052C26.616 15.8052 26.616 15.8052 26.616 15.8052C26.616 15.8052 26.616 15.8052 26.616 15.8052C26.616 15.8052 26.616 15.8052 26.616 15.8052C26.616 15.8052 26.616 15.8052 26.616 15.8052C26.616 15.8052 26.616 15.8052 26.616 15.8052C26.616 15.8052 26.616 15.8052 26.616 15.8052C26.616 15.8052 26.616 15.8052 26.616 15.8052C26.616 15.8052 26.616 15.8052 26.616 15.8052C26.616 15.8052 26.616 15.8052 26.616 15.8052C26.616 15.8052 26.616 15.8052 26.616 15.8052C26.616 15.8052 26.616 15.8052 26.616 15.8052C26.616 15.8052 26.616 15.8052 26.616 15.8052C26.616 15.8052 26.616 15.8052 26.616 15.8052C26.616 15.8052 26.616 15.8052 26.616 15.8052C26.616 15.8052 26.616 15.8052 26.616 15.8052C26.616 15.8052 26.616 15.8052 26.616 15.8052C26.616 15.8052 26.616 15.8052 26.616 15.8052C26.616 15.8052 26.616 15.8052 26.616 15.8052C26.616 15.8052 26.616 15.8052 26.616 15.8052C26.616 15.8052 26.616 15.8052 26.616 15.8052C26.616 15.8052 26.616 15.8052 26.616 15.8052C26.616 15.8052 26.616 15.8052 26.616 15.8052C26.616 15.8052 26.616 15.8052 26.616 15.8052C26.616 15.8052 26.616 15.8052 26.616 15.8052C26.616 15.8052 26.616 15.8052 26.616 15.8052C26.616 15.8052 26.616 15.8052 26.616 15.8052C26.616 15.8052 26.616 15.8052 26.616 15.8052C26.616 15.8052 26.616 15.8052 26.616 15.8052C26.616 15.8052 26.616 15.8052 26.616 15.8052C26.616 15.8052 26.616 15.8052 26.616 15.8052C26.616 15.8052 26.616 15.8052 26.616 15.8052C26.616 15.8052 26.616 15.8052 26.616 15.8052C26.616 15.8052 26.616 15.8052 26.616 15.8052C26.616 15.8052 26.616 15.8052 26.616 15.8052C26.616 15.8052 26.616 15.8052 26.616 15.8052C26.616 15.8052 26.616 15.8052 26.616 15.8052C26.616 15.8052 26.616 15.8052 26.616 15.8052C26.616 15.8052 26.616 15.8052 26.616 15.8052C26.616 15.8052 26.616 15.8052 26.616 15.8052C26.616 15.8052 26.616 15.8052 26.616 15.8052C26.616 15.8052 26.616 15.8052 26.616 15.8052C26.616 15.8052 26.616 15.8052 26.616 15.8052C26.616 15.8052 26.616 15.8052 26.616 15.8052C26.616 15.8052 26.616 15.8052 26.616 15.8052C26.616 15.8052 26.616 15.8052 26.616 15.8052C26.616 15.8052 26.616 15.8052 26.616 15.8052C26.616 15.8052 26.616 15.8052 26.616 15.8052C26.616 15.8052 26.616 15.8052 26.616 15.8052C26.616 15.8052 26.616 15.8052 26.616 15.8052C26.616 15.8052 26.616 15.8052 26.616 15.8052C26.616 15.8052 26.616 15.8052 26.616 15.8052C26.616 15.8052 26.616 15.8052 26.616 15.8052C26.616 15.8052 26.616 15.8052 26.616 15.8052C26.616 15.8052 26.616 15.8052 26.616 15.8052C26.616 15.8052 26.616 15.8052 26.616 15.8052C26.616 15.8052 26.616 15.8052 26.616 15.8052C26.616 15.8052 26.616 15.8052 26.616 15.8052C26.616 15.8052 26.616 15.8052 26.616 15.8052C26.616 15.8052 26.616 15.8052 26.616 15.8052C26.616 15.8052 26.6161 15.8052 26.6161 15.8052C26.6161 15.8052 26.6161 15.8052 26.6161 15.8052C26.6161 15.8052 26.6161 15.8052 26.6161 15.8052C26.6161 15.8052 26.6161 15.8052 26.6161 15.8052C26.6161 15.8052 26.6161 15.8052 26.6161 15.8052C26.6161 15.8052 26.6161 15.8052 26.6161 15.8052C26.6161 15.8052 26.6161 15.8052 26.6161 15.8052C26.6161 15.8052 26.6161 15.8052 26.6161 15.8052C26.6161 15.8052 26.6161 15.8052 26.6161 15.8052C26.6161 15.8052 26.6161 15.8052 26.6161 15.8052C26.6161 15.8052 26.6161 15.8052 26.6161 15.8052C26.6161 15.8052 26.6161 15.8052 26.6161 15.8052C26.6161 15.8052 26.6161 15.8052 26.6161 15.8052C26.6161 15.8052 26.6161 15.8052 26.6161 15.8052C26.6161 15.8052 26.6161 15.8052 26.6161 15.8052C26.6161 15.8052 26.6161 15.8052 26.6161 15.8052C26.6161 15.8052 26.6161 15.8052 26.6161 15.8052C26.6161 15.8052 26.6161 15.8052 26.6161 15.8052C26.6161 15.8052 26.6161 15.8052 26.6161 15.8052C26.6161 15.8052 26.6161 15.8052 26.6161 15.8052C26.6161 15.8052 26.6161 15.8052 26.6161 15.8052C26.6161 15.8052 26.6161 15.8052 26.6161 15.8052C26.6161 15.8052 26.6161 15.8052 26.6161 15.8052C26.6161 15.8052 26.6161 15.8052 26.6161 15.8052C26.6161 15.8052 26.6161 15.8052 26.6161 15.8052C26.6161 15.8052 26.6161 15.8052 26.6161 15.8052C26.6161 15.8052 26.6161 15.8052 26.6161 15.8052C26.6161 15.8052 26.6161 15.8052 26.6161 15.8052C26.6161 15.8052 26.6161 15.8052 26.6161 15.8052C26.6161 15.8052 26.6161 15.8052 26.6161 15.8052C26.6161 15.8052 26.6161 15.8052 26.6161 15.8052C26.6161 15.8052 26.6161 15.8052 26.6161 15.8052C26.6161 15.8052 26.6161 15.8052 26.6161 15.8052C26.6161 15.8052 26.6161 15.8052 26.6161 15.8052C26.6161 15.8052 26.6161 15.8052 26.6161 15.8052C26.6161 15.8052 26.6161 15.8052 26.6161 15.8052C26.6161 15.8052 26.6161 15.8052 26.6161 15.8052C26.6161 15.8052 26.6161 15.8052 26.6161 15.8052C26.6161 15.8052 26.6161 15.8052 26.6161 15.8052C26.6161 15.8052 26.6161 15.8052 26.6161 15.8052C26.6161 15.8052 26.6161 15.8052 26.6161 15.8052C26.6161 15.8052 26.6161 15.8052 26.6161 15.8052C26.6161 15.8052 26.6161 15.8052 26.6161 15.8052C26.6161 15.8052 26.6161 15.8052 26.6161 15.8052C26.6161 15.8052 26.6161 15.8052 26.6161 15.8052C26.6161 15.8052 26.6161 15.8052 26.6161 15.8052C26.6161 15.8052 26.6161 15.8052 26.6161 15.8052C26.6161 15.8052 26.6161 15.8052 26.6161 15.8052C26.6161 15.8052 26.6161 15.8052 26.6161 15.8052C26.6161 15.8052 26.6161 15.8052 26.6161 15.8052C26.6161 15.8052 26.6161 15.8052 26.6161 15.8052C26.6161 15.8052 26.6161 15.8052 26.6161 15.8052C26.6161 15.8052 26.6161 15.8052 26.6161 15.8052C26.6161 15.8052 26.6161 15.8052 26.6161 15.8052C26.6161 15.8052 26.6161 15.8052 26.6161 15.8052C26.6161 15.8052 26.6161 15.8052 26.6161 15.8052C26.6161 15.8052 26.6161 15.8052 26.6161 15.8052C26.6161 15.8052 26.6161 15.8052 26.6161 15.8052C26.6161 15.8052 26.6161 15.8052 26.6161 15.8052C26.6161 15.8052 26.6161 15.8052 26.6161 15.8052C26.6161 15.8052 26.6161 15.8052 26.6161 15.8052C26.6161 15.8052 26.6161 15.8052 26.6161 15.8052C26.6161 15.8052 26.6161 15.8052 26.6161 15.8052C26.6161 15.8052 26.6161 15.8052 26.6161 15.8052C26.6161 15.8052 26.6161 15.8052 26.6161 15.8052C26.6161 15.8052 26.6161 15.8052 26.6161 15.8052C26.6161 15.8052 26.6161 15.8052 26.6161 15.8052C26.6161 15.8052 26.6161 15.8052 26.6161 15.8052C26.6161 15.8052 26.6161 15.8052 26.6161 15.8052C26.6161 15.8052 26.6161 15.8052 26.6161 15.8052C26.6161 15.8052 26.6161 15.8052 26.6161 15.8052C26.6161 15.8052 26.6161 15.8052 26.6161 15.8052C26.6161 15.8052 26.6161 15.8052 26.6161 15.8052C26.6161 15.8052 26.6161 15.8052 26.6161 15.8052C26.6161 15.8052 26.6161 15.8052 26.6161 15.8052C26.6161 15.8052 26.6161 15.8052 26.6161 15.8052C26.6161 15.8052 26.6161 15.8052 26.6161 15.8052C26.6161 15.8052 26.6161 15.8052 26.6161 15.8052C26.6161 15.8052 26.6161 15.8052 26.6161 15.8052C26.6161 15.8052 26.6161 15.8052 26.6161 15.8052C26.6161 15.8052 26.6161 15.8052 26.6161 15.8052C26.6161 15.8052 26.6161 15.8052 26.6161 15.8052C26.6161 15.8052 26.6161 15.8052 26.6161 15.8052C26.6161 15.8052 26.6161 15.8052 26.6161 15.8052C26.6161 15.8052 26.6161 15.8052 26.6161 15.8052C26.6161 15.8052 26.6161 15.8052 26.6161 15.8052C26.6161 15.8052 26.6161 15.8052 26.6161 15.8052C26.6161 15.8052 26.6161 15.8052 26.6161 15.8052C26.6161 15.8052 26.6161 15.8052 26.6161 15.8052C26.6161 15.8052 26.6161 15.8052 26.6161 15.8052C26.6161 15.8052 26.6161 15.8052 26.6161 15.8052C26.6161 15.8052 26.6161 15.8052 26.6161 15.8052C26.6161 15.8052 26.6161 15.8052 26.6161 15.8052C26.6161 15.8052 26.6161 15.8052 26.6161 15.8052C26.6161 15.8052 26.6161 15.8052 26.6161 15.8052C26.6161 15.8052 26.6161 15.8052 26.6161 15.8052C26.6161 15.8052 26.6161 15.8052 26.6161 15.8052C26.6161 15.8052 26.6161 15.8052 26.6161 15.8052C26.6161 15.8052 26.6161 15.8052 26.6161 15.8052C26.6161 15.8052 26.6161 15.8052 26.6161 15.8052C26.6161 15.8052 26.6161 15.8052 26.6161 15.8052C26.6161 15.8052 26.6161 15.8052 26.6161 15.8052C26.6161 15.8052 26.6161 15.8052 26.6161 15.8052C26.6161 15.8052 26.6161 15.8052 26.6161 15.8052C26.6161 15.8052 26.6161 15.8052 26.6161 15.8052C26.6161 15.8052 26.6161 15.8052 26.6161 15.8052C26.6161 15.8052 26.6161 15.8052 26.6161 15.8052C26.6161 15.8052 26.6161 15.8052 26.6161 15.8052C26.6161 15.8052 26.6161 15.8052 26.6161 15.8052C26.6161 15.8052 26.6161 15.8052 26.6161 15.8052C26.6161 15.8052 26.6161 15.8052 26.6161 15.8052C26.6161 15.8052 26.6161 15.8052 26.6161 15.8052C26.6161 15.8052 26.6161 15.8052 26.6161 15.8052C26.6161 15.8052 26.6161 15.8052 26.6161 15.8052C26.6161 15.8052 26.6161 15.8052 26.6161 15.8052C26.6161 15.8052 26.6161 15.8052 26.6161 15.8052C26.6161 15.8052 26.6161 15.8052 26.6161 15.8052C26.6161 15.8052 26.6161 15.8052 26.6161 15.8052C26.6161 15.8052 26.6161 15.8052 26.6161 15.8052C26.6161 15.8052 26.6161 15.8052 26.6161 15.8052C26.6161 15.8052 26.6161 15.8052 26.6161 15.8052C26.6161 15.8052 26.6161 15.8052 26.6161 15.8052C26.6161 15.8052 26.6161 15.8052 26.6161 15.8052C26.6161 15.8052 26.6161 15.8052 26.6161 15.8052C26.6161 15.8052 26.6161 15.8052 26.6161 15.8052C26.6161 15.8052 26.6161 15.8052 26.6161 15.8052C26.6161 15.8052 26.6161 15.8052 26.6161 15.8052C26.6161 15.8052 26.6161 15.8052 26.6161 15.8052C26.6161 15.8052 26.6161 15.8052 26.6161 15.8052C26.6161 15.8052 26.6161 15.8052 26.6161 15.8052C26.6161 15.8052 26.6161 15.8052 26.6161 15.8052C26.6161 15.8052 26.6161 15.8052 26.6161 15.8052C26.6161 15.8052 26.6161 15.8052 26.6161 15.8052C26.6161 15.8052 26.6161 15.8052 26.6161 15.8052C26.6161 15.8052 26.6161 15.8052 26.6161 15.8052C26.6161 15.8052 26.6161 15.8052 26.6161 15.8052C26.6161 15.8052 26.6161 15.8052 26.6161 15.8052C26.6161 15.8052 26.6161 15.8052 26.6161 15.8052C26.6161 15.8052 26.6161 15.8052 26.6161 15.8052C26.6161 15.8052 26.6161 15.8052 26.6161 15.8052C26.6161 15.8052 26.6161 15.8052 26.6161 15.8052C26.6161 15.8052 26.6161 15.8052 26.6161 15.8052C26.6161 15.8052 26.6161 15.8052 26.6161 15.8052C26.6161 15.8052 26.6161 15.8052 26.6161 15.8052C26.6161 15.8052 26.6161 15.8052 26.6161 15.8052C26.6161 15.8052 26.6161 15.8052 26.6161 15.8052C26.6161 15.8052 26.6161 15.8052 26.6161 15.8052C26.6161 15.8052 26.6161 15.8052 26.6161 15.8052C26.6161 15.8052 26.6161 15.8052 26.6161 15.8052C26.6161 15.8052 26.6161 15.8052 26.6161 15.8052C26.6161 15.8052 26.6161 15.8052 26.6161 15.8052C26.6161 15.8052 26.6161 15.8052 26.6161 15.8052C26.6161 15.8052 26.6161 15.8052 26.6161 15.8052C26.6161 15.8052 26.6161 15.8052 26.6161 15.8052C26.6161 15.8052 26.6161 15.8052 26.6161 15.8052C26.6161 15.8052 26.6161 15.8052 26.6161 15.8052C26.6161 15.8052 26.6161 15.8052 26.6161 15.8052C26.6161 15.8052 26.6161 15.8052 26.6161 15.8052C26.6161 15.8052 26.6161 15.8052 26.6161 15.8052C26.6161 15.8052 26.6161 15.8052 26.6161 15.8052C26.6161 15.8052 26.6161 15.8052 26.6161 15.8052C26.6161 15.8052 26.6161 15.8052 26.6161 15.8052C26.6161 15.8052 26.6161 15.8052 26.6161 15.8052C26.6161 15.8052 26.6161 15.8052 26.6161 15.8052C26.6161 15.8052 26.6161 15.8052 26.6161 15.8052C26.6161 15.8052 26.6161 15.8052 26.6161 15.8052C26.6161 15.8052 26.6161 15.8052 26.6161 15.8052C26.6161 15.8052 26.6161 15.8052 26.6161 15.8052C26.6161 15.8052 26.6161 15.8052 26.6161 15.8052C26.6161 15.8052 26.6161 15.8052 26.6161 15.8052C26.6161 15.8052 26.6161 15.8052 26.6161 15.8052C26.6161 15.8052 26.6161 15.8052 26.6161 15.8052C26.6161 15.8052 26.6161 15.8052 26.6161 15.8052C26.6161 15.8052 26.6161 15.8052 26.6161 15.8052C26.6161 15.8052 26.6161 15.8052 26.6161 15.8052C26.6161 15.8052 26.6161 15.8052 26.6161 15.8052C26.6161 15.8052 26.6161 15.8052 26.6161 15.8052C26.6161 15.8052 26.6161 15.8052 26.6161 15.8052C26.6161 15.8052 26.6161 15.8052 26.6161 15.8052C26.6161 15.8052 26.6161 15.8052 26.6161 15.8052C26.6161 15.8052 26.6161 15.8052 26.6161 15.8052C26.6161 15.8052 26.6161 15.8052 26.6161 15.8052C26.6161 15.8052 26.6161 15.8052 26.6161 15.8052C26.6161 15.8052 26.6161 15.8052 26.6161 15.8052C26.6161 15.8052 26.6161 15.8052 26.6161 15.8052C26.6161 15.8052 26.6161 15.8052 26.6161 15.8052C26.6161 15.8052 26.6161 15.8052 26.6161 15.8052C26.6161 15.8052 26.6161 15.8052 26.6161 15.8052C26.6161 15.8052 26.6161 15.8052 26.6161 15.8052C26.6161 15.8052 26.6161 15.8052 26.6161 15.8052C26.6161 15.8052 26.6161 15.8052 26.6161 15.8052C26.6161 15.8052 26.6161 15.8052 26.6161 15.8052C26.6161 15.8052 26.6161 15.8052 26.6161 15.8052C26.6161 15.8052 26.6161 15.8052 26.6161 15.8052C26.6161 15.8052 26.6161 15.8052 26.6161 15.8052C26.6161 15.8052 26.6161 15.8052 26.6161 15.8052C26.6161 15.8052 26.6161 15.8052 26.6161 15.8052C26.6161 15.8052 26.6161 15.8052 26.6161 15.8052C26.6161 15.8052 26.6161 15.8052 26.6161 15.8052C26.6161 15.8052 26.6161 15.8052 26.6161 15.8052C26.6161 15.8052 26.6161 15.8052 26.6161 15.8052C26.6161 15.8052 26.6161 15.8052 26.6161 15.8052C26.6161 15.8052 26.6161 15.8052 26.6161 15.8052C26.6161 15.8052 26.6161 15.8052 26.6161 15.8052C26.6161 15.8052 26.6161 15.8052 26.6161 15.8052C26.6161 15.8052 26.6161 15.8052 26.6161 15.8052C26.6161 15.8052 26.6161 15.8052 26.6161 15.8052C26.6161 15.8052 26.6161 15.8052 26.6161 15.8052C26.6161 15.8052 26.6161 15.8052 26.6161 15.8052C26.6161 15.8052 26.6161 15.8052 26.6161 15.8052C26.6161 15.8052 26.6161 15.8052 26.6161 15.8052L26.927 15.1558C26.927 15.1558 26.927 15.1558 26.927 15.1558C26.927 15.1558 26.927 15.1558 26.927 15.1558C26.927 15.1558 26.927 15.1558 26.927 15.1558C26.927 15.1558 26.927 15.1558 26.927 15.1558C26.927 15.1558 26.927 15.1558 26.927 15.1558C26.927 15.1558 26.927 15.1558 26.927 15.1558C26.927 15.1558 26.927 15.1558 26.927 15.1558C26.927 15.1558 26.927 15.1558 26.927 15.1558C26.927 15.1558 26.927 15.1558 26.927 15.1558C26.927 15.1558 26.927 15.1558 26.927 15.1558C26.927 15.1558 26.927 15.1558 26.927 15.1558C26.927 15.1558 26.927 15.1558 26.927 15.1558C26.927 15.1558 26.927 15.1558 26.927 15.1558C26.927 15.1558 26.927 15.1558 26.927 15.1558C26.927 15.1558 26.927 15.1558 26.927 15.1558C26.927 15.1558 26.927 15.1558 26.927 15.1558C26.927 15.1558 26.927 15.1558 26.927 15.1558C26.927 15.1558 26.927 15.1558 26.927 15.1558C26.927 15.1558 26.927 15.1558 26.927 15.1558C26.927 15.1558 26.927 15.1558 26.927 15.1558C26.927 15.1558 26.927 15.1558 26.927 15.1558C26.927 15.1558 26.927 15.1558 26.927 15.1558C26.927 15.1558 26.927 15.1558 26.927 15.1558C26.927 15.1558 26.927 15.1558 26.927 15.1558C26.927 15.1558 26.927 15.1558 26.927 15.1558C26.927 15.1558 26.927 15.1558 26.927 15.1558C26.927 15.1558 26.927 15.1558 26.927 15.1558C26.927 15.1558 26.927 15.1558 26.927 15.1558C26.927 15.1558 26.927 15.1558 26.927 15.1558C26.927 15.1558 26.927 15.1558 26.927 15.1558C26.927 15.1558 26.927 15.1558 26.927 15.1558C26.927 15.1558 26.927 15.1558 26.927 15.1558C26.927 15.1558 26.927 15.1558 26.927 15.1558C26.927 15.1558 26.927 15.1558 26.927 15.1558C26.927 15.1558 26.927 15.1558 26.927 15.1558C26.927 15.1558 26.927 15.1558 26.927 15.1558C26.927 15.1558 26.927 15.1558 26.927 15.1558C26.927 15.1558 26.927 15.1558 26.927 15.1558C26.927 15.1558 26.927 15.1558 26.927 15.1558C26.927 15.1558 26.927 15.1558 26.927 15.1558C26.927 15.1558 26.927 15.1558 26.927 15.1558C26.927 15.1558 26.927 15.1558 26.927 15.1558C26.927 15.1558 26.927 15.1558 26.927 15.1558C26.927 15.1558 26.927 15.1558 26.927 15.1558C26.927 15.1558 26.927 15.1558 26.927 15.1558C26.927 15.1558 26.927 15.1558 26.927 15.1558C26.927 15.1558 26.927 15.1558 26.927 15.1558C26.927 15.1558 26.927 15.1558 26.927 15.1558C26.927 15.1558 26.927 15.1558 26.927 15.1558C26.927 15.1558 26.927 15.1558 26.927 15.1558C26.927 15.1558 26.927 15.1558 26.927 15.1558C26.927 15.1558 26.927 15.1558 26.927 15.1558C26.927 15.1558 26.927 15.1558 26.927 15.1558C26.927 15.1558 26.927 15.1558 26.927 15.1558C26.927 15.1558 26.927 15.1558 26.927 15.1558C26.927 15.1558 26.927 15.1558 26.927 15.1558C26.927 15.1558 26.927 15.1558 26.927 15.1558C26.927 15.1558 26.927 15.1558 26.927 15.1558C26.927 15.1558 26.927 15.1558 26.927 15.1558C26.927 15.1558 26.927 15.1558 26.927 15.1558C26.927 15.1558 26.927 15.1558 26.927 15.1558C26.927 15.1558 26.927 15.1558 26.927 15.1558C26.927 15.1558 26.927 15.1558 26.927 15.1558C26.927 15.1558 26.927 15.1558 26.927 15.1558C26.927 15.1558 26.927 15.1558 26.927 15.1558C26.927 15.1558 26.927 15.1558 26.927 15.1558C26.927 15.1558 26.927 15.1558 26.927 15.1558C26.927 15.1558 26.927 15.1558 26.927 15.1558C26.927 15.1558 26.927 15.1558 26.927 15.1558C26.927 15.1558 26.927 15.1558 26.927 15.1558C26.927 15.1558 26.927 15.1558 26.927 15.1558C26.927 15.1558 26.927 15.1558 26.927 15.1558C26.927 15.1558 26.927 15.1558 26.927 15.1558C26.927 15.1558 26.927 15.1558 26.927 15.1558C26.927 15.1558 26.927 15.1558 26.927 15.1558C26.927 15.1558 26.927 15.1558 26.927 15.1558C26.927 15.1558 26.927 15.1558 26.927 15.1558C26.927 15.1558 26.927 15.1558 26.927 15.1558C26.927 15.1558 26.927 15.1558 26.927 15.1558C26.927 15.1558 26.927 15.1558 26.927 15.1558C26.927 15.1558 26.927 15.1558 26.927 15.1558C26.927 15.1558 26.927 15.1558 26.927 15.1558C26.927 15.1558 26.927 15.1558 26.927 15.1558C26.927 15.1558 26.927 15.1558 26.927 15.1558C26.927 15.1558 26.927 15.1558 26.927 15.1558C26.927 15.1558 26.927 15.1558 26.927 15.1558C26.927 15.1558 26.927 15.1558 26.927 15.1558C26.927 15.1558 26.927 15.1558 26.927 15.1558C26.927 15.1558 26.927 15.1558 26.927 15.1558C26.927 15.1558 26.927 15.1558 26.927 15.1558C26.927 15.1558 26.927 15.1558 26.927 15.1558C26.927 15.1558 26.927 15.1558 26.927 15.1558C26.927 15.1558 26.927 15.1558 26.927 15.1558C26.927 15.1558 26.927 15.1558 26.927 15.1558C26.927 15.1558 26.927 15.1558 26.927 15.1558C26.927 15.1558 26.927 15.1558 26.927 15.1558C26.927 15.1558 26.927 15.1558 26.927 15.1558C26.927 15.1558 26.927 15.1558 26.927 15.1558C26.927 15.1558 26.927 15.1558 26.927 15.1558C26.927 15.1558 26.927 15.1558 26.927 15.1558C26.927 15.1558 26.927 15.1558 26.927 15.1558C26.927 15.1558 26.927 15.1558 26.927 15.1558C26.927 15.1558 26.927 15.1558 26.927 15.1558C26.927 15.1558 26.927 15.1558 26.927 15.1558C26.927 15.1558 26.927 15.1558 26.927 15.1558C26.927 15.1558 26.927 15.1558 26.927 15.1558C26.927 15.1558 26.927 15.1558 26.927 15.1558C26.927 15.1558 26.927 15.1558 26.927 15.1558C26.927 15.1558 26.927 15.1558 26.927 15.1558C26.927 15.1558 26.927 15.1558 26.927 15.1558C26.927 15.1558 26.927 15.1558 26.927 15.1558C26.927 15.1558 26.927 15.1558 26.927 15.1558C26.927 15.1558 26.927 15.1558 26.927 15.1558C26.927 15.1558 26.927 15.1558 26.927 15.1558C26.927 15.1558 26.927 15.1558 26.927 15.1558C26.927 15.1558 26.927 15.1558 26.927 15.1558C26.927 15.1558 26.927 15.1558 26.927 15.1558C26.927 15.1558 26.927 15.1558 26.927 15.1558C26.927 15.1558 26.927 15.1558 26.927 15.1558C26.927 15.1558 26.927 15.1558 26.927 15.1558C26.927 15.1558 26.927 15.1558 26.927 15.1558C26.927 15.1558 26.927 15.1558 26.927 15.1558C26.927 15.1558 26.927 15.1558 26.927 15.1558C26.927 15.1558 26.927 15.1558 26.927 15.1558C26.927 15.1558 26.927 15.1558 26.927 15.1558C26.927 15.1558 26.927 15.1558 26.927 15.1558C26.927 15.1558 26.927 15.1558 26.927 15.1558C26.927 15.1558 26.927 15.1558 26.927 15.1558C26.927 15.1558 26.927 15.1558 26.927 15.1558C26.927 15.1558 26.927 15.1558 26.927 15.1558C26.927 15.1558 26.927 15.1558 26.927 15.1558C26.927 15.1558 26.927 15.1558 26.927 15.1558C26.927 15.1558 26.927 15.1558 26.927 15.1558C26.927 15.1558 26.927 15.1558 26.927 15.1558C26.927 15.1558 26.927 15.1558 26.927 15.1558C26.927 15.1558 26.927 15.1558 26.927 15.1558C26.927 15.1558 26.927 15.1558 26.927 15.1558C26.927 15.1558 26.927 15.1558 26.927 15.1558C26.927 15.1558 26.927 15.1558 26.927 15.1558C26.927 15.1558 26.927 15.1558 26.927 15.1558C26.927 15.1558 26.927 15.1558 26.927 15.1558C26.927 15.1558 26.927 15.1558 26.927 15.1558C26.927 15.1558 26.927 15.1558 26.927 15.1558C26.927 15.1558 26.927 15.1558 26.927 15.1558C26.927 15.1558 26.927 15.1558 26.927 15.1558C26.927 15.1558 26.927 15.1558 26.927 15.1558C26.927 15.1558 26.927 15.1558 26.927 15.1558C26.927 15.1558 26.927 15.1558 26.927 15.1558C26.927 15.1558 26.927 15.1558 26.927 15.1558C26.927 15.1558 26.927 15.1558 26.927 15.1558C26.927 15.1558 26.927 15.1558 26.927 15.1558C26.927 15.1558 26.927 15.1558 26.927 15.1558C26.927 15.1558 26.927 15.1558 26.927 15.1558C26.927 15.1558 26.927 15.1558 26.927 15.1558C26.927 15.1558 26.927 15.1558 26.927 15.1558C26.927 15.1558 26.927 15.1558 26.927 15.1558C26.927 15.1558 26.927 15.1558 26.927 15.1558C26.927 15.1558 26.927 15.1558 26.927 15.1558C26.927 15.1558 26.927 15.1558 26.927 15.1558C26.927 15.1558 26.927 15.1558 26.927 15.1558C26.927 15.1558 26.927 15.1558 26.927 15.1558C26.927 15.1558 26.927 15.1558 26.927 15.1558C26.927 15.1558 26.927 15.1558 26.927 15.1558C26.927 15.1558 26.927 15.1558 26.927 15.1558C26.9269 15.1558 26.9269 15.1558 26.9269 15.1558C26.9269 15.1558 26.9269 15.1558 26.9269 15.1558C26.9269 15.1558 26.9269 15.1558 26.9269 15.1558C26.9269 15.1558 26.9269 15.1558 26.9269 15.1558C26.9269 15.1558 26.9269 15.1558 26.9269 15.1558C26.9269 15.1558 26.9269 15.1558 26.9269 15.1558C26.9269 15.1558 26.9269 15.1558 26.9269 15.1558C26.9269 15.1558 26.9269 15.1558 26.9269 15.1558C26.9269 15.1558 26.9269 15.1558 26.9269 15.1558C26.9269 15.1558 26.9269 15.1558 26.9269 15.1558C26.9269 15.1558 26.9269 15.1558 26.9269 15.1558C26.9269 15.1558 26.9269 15.1558 26.9269 15.1558C26.9269 15.1558 26.9269 15.1558 26.9269 15.1558C26.9269 15.1558 26.9269 15.1558 26.9269 15.1558C26.9269 15.1558 26.9269 15.1558 26.9269 15.1558C26.9269 15.1558 26.9269 15.1558 26.9269 15.1558C26.9269 15.1558 26.9269 15.1558 26.9269 15.1558C26.9269 15.1558 26.9269 15.1558 26.9269 15.1558C26.9269 15.1558 26.9269 15.1558 26.9269 15.1558C26.9269 15.1558 26.9269 15.1558 26.9269 15.1558C26.9269 15.1558 26.9269 15.1558 26.9269 15.1558C26.9269 15.1558 26.9269 15.1558 26.9269 15.1558C26.9269 15.1558 26.9269 15.1558 26.9269 15.1558C26.9269 15.1558 26.9269 15.1558 26.9269 15.1558C26.9269 15.1558 26.9269 15.1558 26.9269 15.1558C26.9269 15.1558 26.9269 15.1558 26.9269 15.1558C26.9269 15.1558 26.9269 15.1558 26.9269 15.1558C26.9269 15.1558 26.9269 15.1558 26.9269 15.1558C26.9269 15.1558 26.9269 15.1558 26.9269 15.1558C26.9269 15.1558 26.9269 15.1558 26.9269 15.1558C26.9269 15.1558 26.9269 15.1558 26.9269 15.1558C26.9269 15.1558 26.9269 15.1558 26.9269 15.1558C26.9269 15.1558 26.9269 15.1558 26.9269 15.1558C26.9269 15.1558 26.9269 15.1558 26.9269 15.1558C26.9269 15.1558 26.9269 15.1558 26.9269 15.1558C26.9269 15.1558 26.9269 15.1558 26.9269 15.1558C26.9269 15.1558 26.9269 15.1558 26.9269 15.1558C26.9269 15.1558 26.9269 15.1558 26.9269 15.1558C26.9269 15.1558 26.9269 15.1558 26.9269 15.1558C26.9269 15.1558 26.9269 15.1558 26.9269 15.1558C26.9269 15.1558 26.9269 15.1558 26.9269 15.1558C26.9269 15.1558 26.9269 15.1558 26.9269 15.1558C26.9269 15.1558 26.9269 15.1558 26.9269 15.1558C26.9269 15.1558 26.9269 15.1558 26.9269 15.1558C26.9269 15.1558 26.9269 15.1558 26.9269 15.1558C26.9269 15.1558 26.9269 15.1558 26.9269 15.1558C26.9269 15.1558 26.9269 15.1558 26.9269 15.1558C26.9269 15.1558 26.9269 15.1558 26.9269 15.1558C26.9269 15.1558 26.9269 15.1558 26.9269 15.1558C26.9269 15.1558 26.9269 15.1558 26.9269 15.1558C26.9269 15.1558 26.9269 15.1558 26.9269 15.1558C26.9269 15.1558 26.9269 15.1558 26.9269 15.1558C26.9269 15.1558 26.9269 15.1558 26.9269 15.1558C26.9269 15.1558 26.9269 15.1558 26.9269 15.1558C26.9269 15.1558 26.9269 15.1558 26.9269 15.1558C26.9269 15.1558 26.9269 15.1558 26.9269 15.1558C26.9269 15.1558 26.9269 15.1558 26.9269 15.1558C26.9269 15.1558 26.9269 15.1558 26.9269 15.1558C26.9269 15.1558 26.9269 15.1558 26.9269 15.1558C26.9269 15.1558 26.9269 15.1558 26.9269 15.1558C26.9269 15.1558 26.9269 15.1558 26.9269 15.1558C26.9269 15.1558 26.9269 15.1558 26.9269 15.1558C26.9269 15.1558 26.9269 15.1558 26.9269 15.1558C26.9269 15.1558 26.9269 15.1558 26.9269 15.1558C26.9269 15.1558 26.9269 15.1558 26.9269 15.1558C26.9269 15.1558 26.9269 15.1558 26.9269 15.1558C26.9269 15.1558 26.9269 15.1558 26.9269 15.1558C26.9269 15.1558 26.9269 15.1558 26.9269 15.1558C26.9269 15.1558 26.9269 15.1558 26.9269 15.1558C26.9269 15.1558 26.9269 15.1558 26.9269 15.1558C26.9269 15.1558 26.9269 15.1558 26.9269 15.1558C26.9269 15.1558 26.9269 15.1558 26.9269 15.1558C26.9269 15.1558 26.9269 15.1558 26.9269 15.1558C26.9269 15.1558 26.9269 15.1558 26.9269 15.1558C26.9269 15.1558 26.9269 15.1558 26.9269 15.1558C26.9269 15.1558 26.9269 15.1558 26.9269 15.1558C26.9269 15.1558 26.9269 15.1558 26.9269 15.1558C26.9269 15.1558 26.9269 15.1558 26.9269 15.1558C26.9269 15.1558 26.9269 15.1558 26.9269 15.1558C26.9269 15.1558 26.9269 15.1558 26.9269 15.1558C26.9269 15.1558 26.9269 15.1558 26.9269 15.1558C26.9269 15.1558 26.9269 15.1558 26.9269 15.1558C26.9269 15.1558 26.9269 15.1558 26.9269 15.1558C26.9269 15.1558 26.9269 15.1558 26.9269 15.1558C26.9269 15.1558 26.9269 15.1558 26.9269 15.1558C26.9269 15.1558 26.9269 15.1558 26.9269 15.1558C26.9269 15.1558 26.9269 15.1558 26.9269 15.1558C26.9269 15.1558 26.9269 15.1558 26.9269 15.1558C26.9269 15.1558 26.9269 15.1558 26.9269 15.1558C26.9269 15.1558 26.9269 15.1558 26.9269 15.1558C26.9269 15.1558 26.9269 15.1558 26.9269 15.1558C26.9269 15.1558 26.9269 15.1558 26.9269 15.1558C26.9269 15.1558 26.9269 15.1558 26.9269 15.1558C26.9269 15.1558 26.9269 15.1558 26.9269 15.1558C26.9269 15.1558 26.9269 15.1558 26.9269 15.1558C26.9269 15.1558 26.9269 15.1558 26.9269 15.1558C26.9269 15.1558 26.9269 15.1558 26.9269 15.1558C26.9269 15.1558 26.9269 15.1558 26.9269 15.1558C26.9269 15.1558 26.9269 15.1558 26.9269 15.1558C26.9269 15.1558 26.9269 15.1558 26.9269 15.1558C26.9269 15.1558 26.9269 15.1558 26.9269 15.1558C26.9269 15.1558 26.9269 15.1558 26.9269 15.1558C26.9269 15.1558 26.9269 15.1558 26.9269 15.1558C26.9269 15.1558 26.9269 15.1558 26.9269 15.1558C26.9269 15.1558 26.9269 15.1558 26.9269 15.1558C26.9269 15.1558 26.9269 15.1558 26.9269 15.1558C26.9269 15.1558 26.9269 15.1558 26.9269 15.1558C26.9269 15.1558 26.9269 15.1558 26.9269 15.1558C26.9269 15.1558 26.9269 15.1558 26.9269 15.1558C26.9269 15.1558 26.9269 15.1558 26.9269 15.1558C26.9269 15.1558 26.9269 15.1558 26.9269 15.1558C26.9269 15.1558 26.9269 15.1558 26.9269 15.1558C26.9269 15.1558 26.9269 15.1558 26.9269 15.1558C26.9269 15.1558 26.9269 15.1558 26.9269 15.1558C26.9269 15.1558 26.9269 15.1558 26.9269 15.1558C26.9269 15.1558 26.9269 15.1558 26.9269 15.1558C26.9269 15.1558 26.9269 15.1558 26.9269 15.1558C26.9269 15.1558 26.9269 15.1558 26.9269 15.1558C26.9269 15.1558 26.9269 15.1558 26.9269 15.1558C26.9269 15.1558 26.9269 15.1558 26.9269 15.1558C26.9269 15.1558 26.9269 15.1558 26.9269 15.1558C26.9269 15.1558 26.9269 15.1558 26.9269 15.1558C26.9269 15.1558 26.9269 15.1558 26.9269 15.1558C26.9269 15.1558 26.9269 15.1558 26.9269 15.1558C26.9269 15.1558 26.9269 15.1558 26.9269 15.1558C26.9269 15.1558 26.9269 15.1558 26.9269 15.1558C26.9269 15.1558 26.9269 15.1558 26.9269 15.1558C26.9269 15.1558 26.9269 15.1558 26.9269 15.1558C26.9269 15.1558 26.9269 15.1558 26.9269 15.1558C26.9269 15.1558 26.9269 15.1558 26.9269 15.1558C26.9269 15.1558 26.9269 15.1558 26.9269 15.1558C26.9269 15.1558 26.9269 15.1558 26.9269 15.1558C26.9269 15.1558 26.9269 15.1558 26.9269 15.1558C26.9269 15.1558 26.9269 15.1558 26.9269 15.1558C26.9269 15.1558 26.9269 15.1558 26.9269 15.1558C26.9269 15.1558 26.9269 15.1558 26.9269 15.1558C26.9269 15.1558 26.9269 15.1558 26.9269 15.1558C26.9269 15.1558 26.9269 15.1558 26.9269 15.1558C26.9269 15.1558 26.9269 15.1558 26.9269 15.1558C26.9269 15.1558 26.9269 15.1558 26.9269 15.1558C26.9269 15.1558 26.9269 15.1558 26.9269 15.1558C26.9269 15.1558 26.9269 15.1558 26.9269 15.1558C26.9269 15.1558 26.9269 15.1558 26.9269 15.1558C26.9269 15.1558 26.9269 15.1558 26.9269 15.1558C26.9269 15.1558 26.9269 15.1558 26.9269 15.1558C26.9269 15.1558 26.9269 15.1558 26.9269 15.1558C26.9269 15.1558 26.9269 15.1558 26.9269 15.1558C26.9269 15.1558 26.9269 15.1558 26.9269 15.1558C26.9269 15.1558 26.9269 15.1558 26.9269 15.1558C26.9269 15.1558 26.9269 15.1558 26.9269 15.1558C26.9269 15.1558 26.9269 15.1558 26.9269 15.1558C26.9269 15.1558 26.9269 15.1558 26.9269 15.1558C26.9269 15.1558 26.9269 15.1558 26.9269 15.1558C26.9269 15.1558 26.9269 15.1558 26.9269 15.1558C26.9269 15.1558 26.9269 15.1558 26.9269 15.1558C26.9269 15.1558 26.9269 15.1558 26.9269 15.1558C26.9269 15.1558 26.9269 15.1558 26.9269 15.1558C26.9269 15.1558 26.9269 15.1558 26.9269 15.1558C26.9269 15.1558 26.9269 15.1558 26.9269 15.1558C26.9269 15.1558 26.9269 15.1558 26.9269 15.1558C26.9269 15.1558 26.9269 15.1558 26.9269 15.1558C26.9269 15.1558 26.9269 15.1558 26.9269 15.1558C26.9269 15.1558 26.9269 15.1558 26.9269 15.1558C26.9269 15.1558 26.9269 15.1558 26.9269 15.1558C26.9269 15.1558 26.9269 15.1558 26.9269 15.1558C26.9269 15.1558 26.9269 15.1558 26.9269 15.1558C26.9269 15.1558 26.9269 15.1558 26.9269 15.1558C26.9269 15.1558 26.9269 15.1558 26.9269 15.1558C26.9269 15.1558 26.9269 15.1558 26.9269 15.1558C26.9269 15.1558 26.9269 15.1558 26.9269 15.1558C26.9269 15.1558 26.9269 15.1558 26.9269 15.1558C26.9269 15.1558 26.9269 15.1558 26.9269 15.1558C26.9269 15.1558 26.9269 15.1558 26.9269 15.1558C26.9269 15.1558 26.9269 15.1558 26.9269 15.1558C26.9269 15.1558 26.9269 15.1558 26.9269 15.1558C26.9269 15.1558 26.9269 15.1558 26.9269 15.1558C26.9269 15.1558 26.9269 15.1558 26.9269 15.1558C26.9269 15.1558 26.9269 15.1558 26.9269 15.1558C26.9269 15.1558 26.9269 15.1558 26.9269 15.1558C26.9269 15.1558 26.9269 15.1558 26.9269 15.1558C26.9269 15.1558 26.9269 15.1558 26.9269 15.1558C26.9269 15.1558 26.9269 15.1558 26.9269 15.1558C26.9269 15.1558 26.9269 15.1558 26.9269 15.1558C26.9269 15.1558 26.9269 15.1558 26.9269 15.1558C26.9269 15.1558 26.9269 15.1558 26.9269 15.1558C26.9269 15.1558 26.9269 15.1558 26.9269 15.1558C26.9269 15.1558 26.9269 15.1558 26.9269 15.1558C26.9269 15.1558 26.9269 15.1558 26.9269 15.1558C26.9269 15.1558 26.9269 15.1558 26.9269 15.1558C26.9269 15.1558 26.9269 15.1558 26.9269 15.1558C26.9269 15.1558 26.9269 15.1558 26.9269 15.1558C26.9269 15.1558 26.9269 15.1558 26.9269 15.1558C26.9269 15.1558 26.9269 15.1558 26.9269 15.1558C26.9269 15.1558 26.9269 15.1558 26.9269 15.1558C26.9269 15.1558 26.9269 15.1558 26.9269 15.1558C26.9269 15.1558 26.9269 15.1558 26.9269 15.1558C26.9269 15.1558 26.9269 15.1558 26.9269 15.1558C26.9269 15.1558 26.9269 15.1558 26.9269 15.1558C26.9269 15.1558 26.9269 15.1558 26.9269 15.1558C26.9269 15.1558 26.9269 15.1558 26.9269 15.1558C26.9269 15.1558 26.9269 15.1558 26.9269 15.1558C26.9269 15.1558 26.9269 15.1558 26.9269 15.1558C26.9269 15.1558 26.9269 15.1558 26.9269 15.1558C26.9269 15.1558 26.9269 15.1558 26.9269 15.1558C26.9269 15.1558 26.9269 15.1558 26.9269 15.1558C26.9269 15.1558 26.9269 15.1558 26.9269 15.1558C26.9269 15.1558 26.9269 15.1558 26.9269 15.1558C26.9269 15.1558 26.9269 15.1558 26.9269 15.1558C26.9269 15.1558 26.9269 15.1558 26.9269 15.1558C26.9269 15.1558 26.9269 15.1558 26.9269 15.1558C26.9269 15.1558 26.9269 15.1558 26.9269 15.1558C26.9269 15.1558 26.9269 15.1558 26.9269 15.1558C26.9269 15.1558 26.9269 15.1558 26.9269 15.1558C26.9269 15.1558 26.9269 15.1558 26.9269 15.1558C26.9269 15.1558 26.9269 15.1558 26.9269 15.1558C26.9269 15.1558 26.9269 15.1558 26.9269 15.1558C26.9269 15.1558 26.9269 15.1558 26.9269 15.1558C26.9269 15.1558 26.9269 15.1558 26.9269 15.1558C26.9269 15.1558 26.9269 15.1558 26.9269 15.1558C26.9269 15.1558 26.9269 15.1558 26.9269 15.1558C26.9269 15.1558 26.9269 15.1558 26.9269 15.1558C26.9269 15.1558 26.9269 15.1558 26.9269 15.1558C26.9269 15.1558 26.9269 15.1558 26.9269 15.1558C26.9269 15.1558 26.9269 15.1558 26.9269 15.1558C26.9269 15.1558 26.9269 15.1558 26.9269 15.1558C26.9269 15.1558 26.9269 15.1558 26.9269 15.1558C26.9269 15.1558 26.9269 15.1558 26.9269 15.1558C26.9269 15.1558 26.9269 15.1558 26.9269 15.1558C26.9269 15.1558 26.9269 15.1558 26.9269 15.1558C26.9269 15.1558 26.9269 15.1558 26.9269 15.1558C26.9269 15.1558 26.9269 15.1558 26.9269 15.1558C26.9269 15.1558 26.9269 15.1558 26.9269 15.1558C26.9269 15.1558 26.9269 15.1558 26.9269 15.1558C26.9269 15.1558 26.9269 15.1558 26.9269 15.1558C26.9269 15.1558 26.9269 15.1558 26.9269 15.1558C26.9269 15.1558 26.9269 15.1558 26.9269 15.1558C26.9269 15.1558 26.9269 15.1558 26.9269 15.1558C26.9269 15.1558 26.9269 15.1558 26.9269 15.1558C26.9269 15.1558 26.9269 15.1558 26.9269 15.1558C26.9269 15.1558 26.9269 15.1558 26.9269 15.1558C26.9269 15.1558 26.9269 15.1558 26.9269 15.1558C26.9269 15.1558 26.9269 15.1558 26.9269 15.1558C26.9269 15.1558 26.9269 15.1558 26.9269 15.1558C26.9269 15.1558 26.9269 15.1558 26.9269 15.1558C26.9269 15.1558 26.9269 15.1558 26.9269 15.1558C26.9269 15.1558 26.9269 15.1558 26.9269 15.1558C26.9269 15.1558 26.9269 15.1558 26.9269 15.1558C26.9269 15.1558 26.9269 15.1558 26.9269 15.1558C26.9269 15.1558 26.9269 15.1558 26.9269 15.1558C26.9269 15.1558 26.9269 15.1558 26.9269 15.1558C26.9269 15.1558 26.9269 15.1558 26.9269 15.1558C26.9269 15.1558 26.9269 15.1558 26.9269 15.1558C26.9269 15.1558 26.9269 15.1558 26.9269 15.1558C26.9269 15.1558 26.9269 15.1558 26.9269 15.1558C26.9269 15.1558 26.9269 15.1558 26.9269 15.1558C26.9269 15.1558 26.9269 15.1558 26.9269 15.1558C26.9269 15.1558 26.9269 15.1558 26.9269 15.1558C26.9269 15.1558 26.9269 15.1558 26.9269 15.1558C26.9269 15.1558 26.9269 15.1558 26.9269 15.1558C26.9269 15.1558 26.9269 15.1558 26.9269 15.1558C26.9269 15.1558 26.9269 15.1558 26.9269 15.1558C26.9269 15.1558 26.9269 15.1558 26.9269 15.1558C26.9269 15.1558 26.9269 15.1558 26.9269 15.1558C26.9269 15.1558 26.9269 15.1558 26.9269 15.1558C26.9269 15.1558 26.9269 15.1558 26.9269 15.1558C26.9269 15.1558 26.9269 15.1558 26.9269 15.1558C26.9269 15.1558 26.9269 15.1558 26.9269 15.1558C26.9269 15.1558 26.9269 15.1558 26.9269 15.1558C26.9269 15.1558 26.9269 15.1558 26.9269 15.1558C26.9269 15.1558 26.9269 15.1558 26.9269 15.1558C26.9269 15.1558 26.9269 15.1558 26.9269 15.1558C26.9269 15.1558 26.9269 15.1558 26.9269 15.1558C26.9269 15.1558 26.9269 15.1558 26.9269 15.1558C26.9269 15.1558 26.9269 15.1558 26.9269 15.1558C26.9269 15.1558 26.9269 15.1558 26.9269 15.1558C26.9269 15.1558 26.9269 15.1558 26.9269 15.1558C26.9269 15.1558 26.9269 15.1558 26.9269 15.1558C26.9269 15.1558 26.9269 15.1558 26.9269 15.1558C26.9269 15.1558 26.9269 15.1558 26.9269 15.1558C26.9269 15.1558 26.9269 15.1558 26.9269 15.1558C26.9269 15.1558 26.9269 15.1558 26.9269 15.1558C26.9269 15.1558 26.9269 15.1558 26.9269 15.1558C26.9269 15.1558 26.9269 15.1558 26.9269 15.1558C26.9269 15.1558 26.9269 15.1558 26.9269 15.1558C26.9269 15.1558 26.9269 15.1558 26.9269 15.1558C26.9269 15.1558 26.9269 15.1558 26.9269 15.1558C26.9269 15.1558 26.9269 15.1558 26.9269 15.1558C26.9269 15.1558 26.9269 15.1558 26.9269 15.1558C26.9269 15.1558 26.9269 15.1558 26.9269 15.1558C26.9269 15.1558 26.9269 15.1558 26.9269 15.1558C26.9269 15.1558 26.9269 15.1558 26.9269 15.1558C26.9269 15.1558 26.9269 15.1558 26.9269 15.1558C26.9269 15.1558 26.9269 15.1558 26.9269 15.1558C26.9269 15.1558 26.9269 15.1558 26.9269 15.1558C26.9269 15.1558 26.9269 15.1558 26.9269 15.1558C26.9269 15.1558 26.9269 15.1558 26.9269 15.1558C26.9269 15.1558 26.9269 15.1558 26.9269 15.1558C26.9269 15.1558 26.9269 15.1558 26.9269 15.1558C26.9269 15.1558 26.9269 15.1558 26.9269 15.1558C26.9269 15.1558 26.9269 15.1558 26.9269 15.1558C26.9269 15.1558 26.9269 15.1558 26.9269 15.1558C26.9269 15.1558 26.9269 15.1558 26.9269 15.1558C26.9269 15.1558 26.9269 15.1558 26.9269 15.1558C26.9269 15.1558 26.9269 15.1558 26.9269 15.1558C26.9269 15.1558 26.9269 15.1558 26.9269 15.1558C26.9269 15.1558 26.9269 15.1558 26.9269 15.1558C26.9269 15.1558 26.9269 15.1558 26.9269 15.1558C26.9269 15.1558 26.9269 15.1558 26.9269 15.1558C26.9269 15.1558 26.9269 15.1558 26.9269 15.1558C26.9269 15.1558 26.9269 15.1558 26.9269 15.1558C26.9269 15.1558 26.9269 15.1558 26.9269 15.1558C26.9269 15.1558 26.9269 15.1558 26.9269 15.1558C26.9269 15.1558 26.9269 15.1558 26.9269 15.1558C26.9269 15.1558 26.9269 15.1558 26.9269 15.1558C26.9269 15.1558 26.9269 15.1558 26.9269 15.1557C26.9269 15.1557 26.9269 15.1557 26.9269 15.1557C26.9269 15.1557 26.9269 15.1557 26.9269 15.1557C26.9269 15.1557 26.9269 15.1557 26.9269 15.1557C26.9269 15.1557 26.9269 15.1557 26.9269 15.1557C26.9269 15.1557 26.9269 15.1557 26.9269 15.1557C26.9269 15.1557 26.9269 15.1557 26.9269 15.1557C26.9269 15.1557 26.9269 15.1557 26.9269 15.1557C26.9269 15.1557 26.9269 15.1557 26.9269 15.1557C26.9269 15.1557 26.9269 15.1557 26.9269 15.1557C26.9269 15.1557 26.9269 15.1557 26.9269 15.1557C26.9269 15.1557 26.9269 15.1557 26.9269 15.1557C26.9269 15.1557 26.9269 15.1557 26.9269 15.1557C26.9269 15.1557 26.9269 15.1557 26.9269 15.1557C26.9269 15.1557 26.9269 15.1557 26.9269 15.1557C26.9269 15.1557 26.9268 15.1557 26.9268 15.1557C26.9268 15.1557 26.9268 15.1557 26.9268 15.1557C26.9268 15.1557 26.9268 15.1557 26.9268 15.1557C26.9268 15.1557 26.9268 15.1557 26.9268 15.1557C26.9268 15.1557 26.9268 15.1557 26.9268 15.1557C26.9268 15.1557 26.9268 15.1557 26.9268 15.1557C26.9268 15.1557 26.9268 15.1557 26.9268 15.1557C26.9268 15.1557 26.9268 15.1557 26.9268 15.1557C26.9268 15.1557 26.9268 15.1557 26.9268 15.1557C26.9268 15.1557 26.9268 15.1557 26.9268 15.1557C26.9268 15.1557 26.9268 15.1557 26.9268 15.1557C26.9268 15.1557 26.9268 15.1557 26.9268 15.1557C26.9268 15.1557 26.9268 15.1557 26.9268 15.1557C26.9268 15.1557 26.9268 15.1557 26.9268 15.1557C26.9268 15.1557 26.9268 15.1557 26.9268 15.1557C26.9268 15.1557 26.9268 15.1557 26.9268 15.1557C26.9268 15.1557 26.9268 15.1557 26.9268 15.1557C26.9268 15.1557 26.9268 15.1557 26.9268 15.1557C26.9268 15.1557 26.9268 15.1557 26.9268 15.1557L26.616 15.8052ZM27.1303 15.449L27.1292 15.4394L26.4139 15.5217L26.415 15.5314L27.1303 15.449ZM26.9393 15.1656L26.8826 15.1474L26.6627 15.833L26.7194 15.8512L26.9393 15.1656ZM26.6726 15.8325C28.0055 16.4771 29.3792 17.307 30.7248 18.3087L31.1547 17.7312C29.7742 16.7036 28.3618 15.8496 26.9861 15.1843L26.6726 15.8325ZM30.7248 18.3087C32.1378 19.3605 33.3782 20.4961 34.4081 21.6439L34.944 21.163C33.8805 19.9778 32.6042 18.8101 31.1547 17.7312L30.7248 18.3087ZM34.7252 21.7601L42.0279 20.7528L41.9296 20.0396L34.6269 21.0468L34.7252 21.7601ZM42.2733 20.1892C42.2645 20.1768 42.2558 20.1643 42.247 20.1518L41.6586 20.5667C41.6671 20.5789 41.6757 20.591 41.6842 20.6032L42.2733 20.1892ZM42.1255 20.0366L42.0627 20.0165L41.8428 20.7021L41.9056 20.7222L42.1255 20.0366ZM43.7198 14.6119L41.677 20.2569L42.3541 20.5019L44.3969 14.8569L43.7198 14.6119ZM27.8032 2.79582L43.8401 15.0207L44.2766 14.4481L28.2397 2.22322L27.8032 2.79582Z" fill="#07503E"/>
<path d="M28.9752 9.77441L26.9004 15.4882M36.7958 15.6478L34.6571 21.3616" stroke="#07503E" stroke-width="0.72"/>
<path fill-rule="evenodd" clip-rule="evenodd" d="M28.1006 2.50952L28.9327 9.82307C30.2957 10.4774 31.6993 11.3231 33.0723 12.3451C34.4937 13.4032 35.7435 14.5469 36.783 15.7054L44.0358 14.7051C42.1708 12.0511 39.6523 9.45243 36.5972 7.17831C33.8217 5.11228 30.9166 3.54728 28.1006 2.50952Z" fill="#E9F8FF"/>
<path d="M28.1006 2.50952L28.2251 2.17173C28.1078 2.12853 27.9766 2.1492 27.8783 2.22634C27.78 2.30349 27.7288 2.42608 27.7429 2.55022L28.1006 2.50952ZM28.9327 9.82307L28.575 9.86376C28.589 9.9868 28.6652 10.094 28.7769 10.1476L28.9327 9.82307ZM33.0723 12.3451L33.2873 12.0563L33.0723 12.3451ZM36.783 15.7054L36.5151 15.9459C36.5949 16.0349 36.7138 16.0784 36.8322 16.0621L36.783 15.7054ZM44.0358 14.7051L44.085 15.0617C44.2093 15.0445 44.3158 14.9638 44.3659 14.8488C44.416 14.7337 44.4025 14.6008 44.3304 14.4981L44.0358 14.7051ZM36.5972 7.17831L36.3823 7.46709L36.5972 7.17831ZM27.7429 2.55022L28.575 9.86376L29.2904 9.78237L28.4583 2.46883L27.7429 2.55022ZM33.2873 12.0563C31.8966 11.0211 30.4733 10.1633 29.0885 9.49852L28.7769 10.1476C30.1181 10.7915 31.502 11.625 32.8573 12.6339L33.2873 12.0563ZM37.051 15.465C35.9946 14.2878 34.727 13.128 33.2873 12.0563L32.8573 12.6339C34.2605 13.6783 35.4923 14.8061 36.5151 15.9459L37.051 15.465ZM36.8322 16.0621L44.085 15.0617L43.9866 14.3484L36.7338 15.3488L36.8322 16.0621ZM44.3304 14.4981C42.4419 11.8107 39.8958 9.18495 36.8122 6.88954L36.3823 7.46709C39.4087 9.71991 41.8997 12.2914 43.7413 14.912L44.3304 14.4981ZM36.8122 6.88954C34.0105 4.80405 31.0752 3.22205 28.2251 2.17173L27.9761 2.84731C30.7581 3.87251 33.6329 5.42051 36.3823 7.46709L36.8122 6.88954Z" fill="#07503E"/>
<path d="M34.6496 24.6384L32.1995 27.9395L31.0381 26.6352L33.5406 23.2974L40.6394 22.2163L41.6214 23.5256L34.6496 24.6384Z" fill="#07503E"/>
</svg>
