<svg width="38" height="38" viewBox="0 0 38 38" fill="none" xmlns="http://www.w3.org/2000/svg">
<path d="M33 15.9715H32.8797C31.982 15.9715 31.167 15.4294 30.8384 14.5919C30.8007 14.4946 30.7612 14.3992 30.7217 14.3037C30.3447 13.4068 30.5458 12.3747 31.2316 11.6867C32.1346 10.7808 32.1346 9.30926 31.2316 8.40331L29.9354 7.10291C29.0323 6.19696 27.5655 6.19696 26.6625 7.10291C25.9767 7.79093 24.9479 7.99266 24.0539 7.61442C23.9587 7.5748 23.8636 7.53518 23.7666 7.49735C22.93 7.16235 22.3896 6.34285 22.3896 5.44229V5.32162C22.3896 4.03924 21.3537 3 20.0754 3H18.2424C16.9623 3 15.9264 4.03924 15.9264 5.32162V5.44229C15.9264 6.34285 15.386 7.16055 14.5512 7.49015C14.4542 7.52977 14.3591 7.5676 14.2639 7.60902C13.3698 7.98725 12.3411 7.78553 11.6553 7.09751C10.7522 6.19155 9.28546 6.19155 8.38241 7.09751L7.08438 8.3979C6.18133 9.30386 6.18133 10.7754 7.08438 11.6813C7.7702 12.3693 7.97127 13.4014 7.59425 14.2983C7.55296 14.3956 7.51526 14.491 7.47756 14.5883C7.14901 15.4258 6.33214 15.9679 5.43447 15.9679H5.31418C4.03591 15.9679 3 17.0072 3 18.2896V20.1285C3 21.4127 4.03591 22.4519 5.31418 22.4519H5.43447C6.33214 22.4519 7.14722 22.994 7.47576 23.8316C7.51346 23.9288 7.55296 24.0243 7.59246 24.1197C7.96948 25.0167 7.7684 26.0487 7.08258 26.7367C6.17953 27.6427 6.17953 29.1142 7.08258 30.0201L8.37881 31.3205C9.28187 32.2265 10.7487 32.2265 11.6517 31.3205" stroke="#101010" stroke-width="2.5" stroke-linecap="round" stroke-linejoin="round"/>
<path d="M25.8976 27.1392C22.2255 27.7535 18.9892 29.9038 17 33.051" stroke="#101010" stroke-width="2.5" stroke-linecap="round" stroke-linejoin="round"/>
<path d="M25.4211 34.0417C30.5969 34.0417 31.8673 27.6005 34.8331 25.8891C32.6422 22.8873 29.1373 21.1273 25.4211 21.1629" stroke="#101010" stroke-width="2.5" stroke-linecap="round" stroke-linejoin="round"/>
<path d="M25.4212 34.0417C21.8646 34.0417 18.9814 31.1585 18.9814 27.6019C18.9814 24.0453 21.8646 21.1621 25.4212 21.1621" stroke="#101010" stroke-width="2.5" stroke-linecap="round" stroke-linejoin="round"/>
<path d="M14.0402 24C11.3199 21.2548 11.3199 16.804 14.0402 14.0589C16.7604 11.3137 21.1708 11.3137 23.891 14.0589C24.3323 14.5041 24.7019 14.9943 25 15.5147" stroke="#101010" stroke-width="3" stroke-linecap="round" stroke-linejoin="round"/>
</svg>
