<svg width="38" height="38" viewBox="0 0 38 38" fill="none" xmlns="http://www.w3.org/2000/svg">
<g id="Group">
<path id="Path" d="M30.0834 9.5H31.6667C33.4156 9.5 34.8334 10.9178 34.8334 12.6667V30.0833C34.8334 31.8322 33.4156 33.25 31.6667 33.25H6.33341C4.58451 33.25 3.16675 31.8322 3.16675 30.0833V12.6667C3.16675 10.9178 4.58451 9.5 6.33341 9.5H7.91675" stroke="#101010" stroke-width="2.5" stroke-linecap="round" stroke-linejoin="round"/>
<path id="Path_2" d="M18.9999 31.6667V9.24512" stroke="#101010" stroke-width="2.5" stroke-linecap="round" stroke-linejoin="round"/>
<path id="Path_3" d="M19 9.24504V9.24504C21.046 6.94326 23.8348 5.43231 26.8804 4.97547L28.2651 4.76777C28.721 4.6994 29.184 4.83306 29.5332 5.13385C29.8825 5.43464 30.0833 5.87269 30.0833 6.33363V25.5531C30.0833 26.3368 29.5099 27.0026 28.7349 27.1189L26.8804 27.3971C23.8348 27.8539 21.046 29.3649 19 31.6666V31.6666" stroke="#101010" stroke-width="2.5" stroke-linecap="round" stroke-linejoin="round"/>
<path id="Path_4" d="M19.0001 9.24501V9.24501C16.9541 6.94325 14.1653 5.43231 11.1197 4.97547L9.73495 4.76777C9.27912 4.6994 8.81613 4.83305 8.46686 5.13384C8.1176 5.43462 7.91675 5.87267 7.91675 6.33359V25.553C7.91675 26.3368 8.49013 27.0026 9.26521 27.1189L11.1197 27.397C14.1653 27.8539 16.9541 29.3648 19.0001 31.6666V31.6666" stroke="#101010" stroke-width="2.5" stroke-linecap="round" stroke-linejoin="round"/>
</g>
</svg>
