<svg width="40" height="40" viewBox="0 0 40 40" fill="none" xmlns="http://www.w3.org/2000/svg">
<rect width="40" height="40" rx="12" fill="#07503E"/>
<g clip-path="url(#clip0_2412_13645)">
<path d="M16 12L17.3 10.375C17.49 10.138 17.777 10 18.081 10H21.92C22.224 10 22.511 10.138 22.701 10.375L24 12V13C24 13.552 23.552 14 23 14H17C16.448 14 16 13.552 16 13V12V12Z" stroke="#8BC53F" stroke-width="1.4" stroke-linecap="round" stroke-linejoin="round"/>
<path d="M16 12H14C12.895 12 12 12.895 12 14V27C12 28.105 12.895 29 14 29H26C27.105 29 28 28.105 28 27V14C28 12.895 27.105 12 26 12H24" stroke="#8BC53F" stroke-width="1.4" stroke-linecap="round" stroke-linejoin="round"/>
<path d="M16 19H24" stroke="#8BC53F" stroke-width="1.4" stroke-linecap="round" stroke-linejoin="round"/>
<path d="M16 24H24" stroke="#8BC53F" stroke-width="1.4" stroke-linecap="round" stroke-linejoin="round"/>
</g>
<defs>
<clipPath id="clip0_2412_13645">
<rect width="24" height="24" fill="white" transform="translate(8 8)"/>
</clipPath>
</defs>
</svg>
