<svg width="200" height="200" viewBox="0 0 200 200" fill="none" xmlns="http://www.w3.org/2000/svg">
<path d="M125.368 120.277V102.152H138.189V106.191H130.404V109.305H137.143V112.784H130.404V116.214H138.432V120.277H125.368V120.277ZM174.657 120.277V102.152H169.377V108.551C165.923 109.718 163.149 109.743 162.931 109.743V102.152H157.651V120.277H162.931V113.805H163.076C163.004 113.83 166.458 113.684 169.353 112.589V120.277H174.657ZM98.4374 120.277V114.024H104.398V110.205H98.4374V106.629H105.93V102.201H93.1582V120.277H98.4374V120.277ZM125.49 99.8412V95.7785H117.462V92.3482H124.201V88.8694H117.462V85.7554H125.587V81.717H112.426V99.8412H125.49ZM154.416 99.8169V95.3892H147.215V81.6926H141.936V99.8169H154.416ZM140.087 99.8169V95.3892H132.886V81.6926H127.606V99.8169H140.087ZM165.023 85.6824C167.918 85.6581 169.913 87.8962 169.864 90.7669C169.864 91.7887 169.645 92.6888 169.231 93.443C167.601 96.6299 162.42 96.6299 160.814 93.443C160.4 92.6888 160.206 91.7644 160.206 90.7669C160.157 87.8962 162.128 85.6581 165.023 85.6824ZM165.023 100.303C170.594 100.376 175.119 96.5326 174.997 90.7669C174.997 88.8694 174.559 87.1664 173.708 85.7554C170.205 79.7464 159.817 79.7221 156.313 85.7554C155.486 87.1907 155.048 88.8694 155.048 90.7669C154.975 96.5326 159.452 100.376 165.023 100.303ZM110.163 99.8169V81.6926H104.884V88.0909C101.43 89.2586 98.6563 89.2829 98.4374 89.2829V81.6926H93.1582V99.8169H98.4374V93.3214H98.5833C98.5103 93.3457 101.965 93.1997 104.86 92.105V99.7926H110.163V99.8169ZM147.92 120.617C151.691 120.69 155.948 118.793 156.07 114.681C156.119 113.295 155.802 112.2 155.146 111.421C154.464 110.643 153.637 110.083 152.688 109.767C151.423 109.28 148.334 108.794 146.971 108.453C146.534 108.332 146.144 108.161 145.852 107.918C145.244 107.48 145.22 106.483 145.731 105.948C146.242 105.388 147.117 105.242 147.92 105.266C149.331 105.315 150.548 106.021 150.84 107.407L154.635 105.388C153.978 103.953 152.81 102.955 151.326 102.298C148.188 100.985 143.42 101.252 141.303 104.172C140.014 105.777 139.843 109.061 141.181 110.545C141.863 111.324 142.665 111.884 143.59 112.2C144.806 112.711 147.92 113.197 149.331 113.586C150.158 113.854 151.059 114.268 151.01 115.241C150.913 116.652 149.064 117.017 147.823 116.944C146.485 116.895 145.244 116.481 144.466 115.484C144.174 115.119 143.979 114.681 143.882 114.219L139.746 116.409C141.108 119.425 144.636 120.642 147.92 120.617ZM112.961 110.497H115.272C115.759 110.497 116.221 110.4 116.635 110.205C117.948 109.645 118.532 108.161 117.681 106.969C117.145 106.239 116.197 105.875 115.272 105.875H112.961V110.497V110.497ZM123.154 120.52C118.897 120.569 115.516 117.844 113.983 113.976H112.961V120.325H107.682V102.201H115.929C118.508 102.201 121.014 103.004 122.425 105.047C123.398 106.458 123.641 108.648 122.911 110.229C122.254 111.64 120.843 112.492 119.189 113.076C119.189 113.076 119.943 114.9 121.695 115.63C122.157 115.825 122.692 115.946 123.252 115.971V120.544C123.203 120.52 123.179 120.52 123.154 120.52Z" fill="black"/>
<path d="M84.0114 85.1227C84.5466 86.0228 84.5223 87.0933 84.0357 87.9447C82.2841 90.6451 81.5056 93.8807 81.7975 97.092C82.4057 106.093 77.3699 115.533 68.2469 120.836C59.124 126.139 48.4197 125.848 40.9024 120.86C38.275 119.011 35.0637 118.087 31.8524 118.257C30.8793 118.233 29.9305 117.722 29.3953 116.822C28.8601 115.922 28.8844 114.851 29.371 114C31.1226 111.299 31.9011 108.064 31.6092 104.853C31.001 95.8513 36.0368 86.4121 45.1598 81.1086C54.2827 75.8051 64.987 76.0971 72.5043 81.0843C75.1317 82.9332 78.343 83.8577 81.5543 83.663C82.5517 83.6874 83.5005 84.1982 84.0114 85.1227Z" fill="black"/>
</svg>
