<svg width="614" height="343" viewBox="0 0 614 343" fill="none" xmlns="http://www.w3.org/2000/svg">
<mask id="mask0_1124_64358" style="mask-type:alpha" maskUnits="userSpaceOnUse" x="0" y="0" width="614" height="343">
<rect width="613.1" height="342.55" fill="#D9D9D9"/>
</mask>
<g mask="url(#mask0_1124_64358)">
<path d="M99.6926 314.535C58.4581 286.253 22.9221 324.923 20.1394 350.011C19.9522 351.699 21.3468 353.067 23.045 353.056L384.852 350.678C386.395 350.667 387.699 349.464 387.844 347.928C393.909 284.078 339.194 271.951 312.013 291.12C309.842 292.652 306.414 291.316 305.985 288.694C298.553 243.28 246.679 234.298 228.889 252.797C227.75 253.981 225.87 254.285 224.488 253.398C153.535 207.853 103.998 267.205 106.875 310.258C107.088 313.435 102.319 316.336 99.6926 314.535Z" fill="white" stroke="#AFEDC4" stroke-width="18.2254"/>
<path d="M166.38 206.823C194.277 190.671 220.641 166.636 243.38 141.848C243.027 141.524 242.776 141.097 242.688 140.61C242.57 139.962 242.747 139.299 243.159 138.798L257.896 121.113C258.574 120.288 259.738 120.082 260.682 120.598L261.522 121.069C263.614 118.549 265.677 116.044 267.682 113.568C265.088 113.878 262.656 114.054 260.446 114.054C252.842 114.054 247.463 112.198 244.383 108.513C241.759 105.36 240.978 102.029 242.025 98.8312C241.995 98.8312 241.951 98.8312 241.922 98.8312C232.122 98.8312 222.041 95.6186 219.949 87.8522C219.035 84.4775 220.008 80.0417 224.812 76.5491C220.126 73.7048 212.595 67.7069 213.671 59.0859C214.644 51.2017 223.029 45.1006 234.037 44.2311C240.3 43.7301 269.406 43.9511 288.048 86.9975C307.088 60.9427 318.568 41.5637 318.848 41.0922C319.393 40.1785 320.499 39.7658 321.501 40.1343L418.027 74.7659C418.337 74.8838 418.617 75.0606 418.838 75.2817L442.417 98.8607C443.124 99.5681 443.271 100.673 442.77 101.543C436.92 111.579 430.937 121.393 424.821 130.972C447.692 125.063 466.01 129.941 477.859 139.431C488.558 147.993 492.92 160.033 488.484 168.728C483.4 178.69 470.638 179.206 464.065 178.749C466.57 184.953 465.745 190.671 461.634 194.223C458.937 196.551 455.577 197.539 451.907 197.539C445.143 197.539 437.362 194.164 430.745 189.492C429.817 193.81 426.692 196.89 421.608 198.335C420.282 198.718 418.897 198.909 417.438 198.909C409.642 198.909 400.107 193.383 389.04 182.433L389.01 182.404C354.202 228.221 315.797 267.48 274.21 299.665C273.812 299.975 273.341 300.122 272.854 300.122C272.442 300.122 272.029 300.004 271.661 299.783L239.239 279.152V279.122C239.151 279.048 239.018 279.004 238.915 278.901L165.968 210.375C165.452 209.888 165.201 209.21 165.29 208.503C165.363 207.81 165.776 207.191 166.38 206.838V206.823Z" fill="#EEFFFD" stroke="#AFEDC4" stroke-width="14.7369" stroke-linecap="round" stroke-linejoin="round"/>
<path d="M105.596 319.02C60.8518 281.676 21.1868 325.76 19.9918 351.881C19.9613 352.548 20.5076 353.073 21.175 353.068L386.491 350.667C387.097 350.663 387.609 350.181 387.675 349.579C395.148 281.548 334.664 270.831 308.716 293.721C307.933 294.412 306.632 293.894 306.529 292.855C301.567 242.733 244.724 233.311 227.703 254.132C227.294 254.632 226.547 254.744 226.008 254.388C150.091 204.264 98.2314 274.19 107.918 317.595C108.191 318.817 106.558 319.822 105.596 319.02Z" fill="white" stroke="#07503E" stroke-width="4.31655"/>
<path d="M244.958 95.2581C242.512 98.176 241.686 101.772 245.135 105.913C254.861 117.57 291.261 104.071 291.261 104.071C270.025 30.519 217.223 39.6853 214.924 58.1801C213.583 68.8201 228.276 75.2307 228.276 75.2307L228.32 75.3338C213.583 82.1423 221.615 97.4538 244.958 95.2581Z" fill="white"/>
<path d="M228.276 75.2307C228.276 75.2307 213.583 68.8201 214.924 58.1801C217.223 39.6853 270.025 30.519 291.261 104.071C291.261 104.071 254.861 117.57 245.135 105.913C241.686 101.772 242.512 98.176 244.958 95.2581C249.246 90.1444 258.56 87.1675 258.56 87.1675" fill="white"/>
<path d="M228.276 75.2307C228.276 75.2307 213.583 68.8201 214.924 58.1801C217.223 39.6853 270.025 30.519 291.261 104.071C291.261 104.071 254.861 117.57 245.135 105.913C241.686 101.772 242.512 98.176 244.958 95.2581C249.246 90.1444 258.56 87.1675 258.56 87.1675" stroke="#05503E" stroke-width="4.88724" stroke-linecap="round" stroke-linejoin="round"/>
<path d="M187.192 206.653L242.248 259.632C296.731 218.015 360.541 144.405 396.337 84.013L323.493 57.2361C323.493 57.2361 250.59 169.045 187.192 206.653Z" fill="#BBEECC"/>
<path d="M166.56 207.553L239.507 276.079C311.703 222.26 368.912 153.748 416.35 75.6575L319.823 41.0259C319.823 41.0259 250.56 158.921 166.56 207.553ZM242.248 259.633L187.192 206.654C250.59 169.045 323.493 57.2364 323.493 57.2364L396.337 84.0133C360.541 144.405 296.731 218.016 242.248 259.633Z" fill="#8BC53F"/>
<path d="M239.508 276.078L271.929 296.71C337.818 245.705 393.641 178.741 439.929 99.2357L416.35 75.6567C368.912 153.747 311.704 222.259 239.508 276.078Z" fill="#8BC53F"/>
<path d="M239.508 276.078L271.929 296.71C337.818 245.705 393.641 178.741 439.929 99.2357L424.574 83.8799L416.35 75.6567" stroke="#05503E" stroke-width="4.88724" stroke-linejoin="round"/>
<path d="M416.35 75.6575L319.823 41.0259C319.823 41.0259 250.56 158.921 166.56 207.553L239.507 276.079C311.703 222.26 368.912 153.748 416.35 75.6575Z" stroke="#05503E" stroke-width="4.88724" stroke-linejoin="round"/>
<path d="M423.718 83.0256C377.164 163.695 318.379 230.674 248.35 281.973" stroke="#05503E" stroke-width="4.88724" stroke-linejoin="round"/>
<path d="M432.56 91.8687C386.006 172.538 328.12 237.69 258.09 289.004" stroke="#05503E" stroke-width="4.88724" stroke-linejoin="round"/>
<path d="M295.138 186.183C279.063 186.183 266.033 173.152 266.033 157.078C266.033 141.004 279.063 127.973 295.138 127.973C311.212 127.973 324.243 141.004 324.243 157.078C324.243 173.152 311.212 186.183 295.138 186.183Z" fill="#8BC53F"/>
<path d="M295.138 186.183C279.063 186.183 266.033 173.152 266.033 157.078C266.033 141.004 279.063 127.973 295.138 127.973C311.212 127.973 324.243 141.004 324.243 157.078C324.243 173.152 311.212 186.183 295.138 186.183Z" stroke="#05503E" stroke-width="4.88724" stroke-linejoin="round"/>
<path d="M459.381 174.969L459.499 174.895C459.499 174.895 479.423 178.609 485.583 166.525C496.312 145.539 447.547 98.4404 373.097 160.335C373.097 160.335 401.613 200.316 420.063 195.011C426.606 193.14 428.301 188.792 427.815 184.003C450.686 202.881 469.962 192.55 459.381 174.969Z" fill="white"/>
<path d="M459.499 174.895C459.499 174.895 479.423 178.609 485.583 166.525C496.312 145.539 447.547 98.4404 373.097 160.335C373.097 160.335 401.613 200.316 420.063 195.011C426.606 193.14 428.301 188.792 427.815 184.003C426.945 175.603 419.326 165.862 419.326 165.862" stroke="#05503E" stroke-width="4.88724" stroke-linecap="round" stroke-linejoin="round"/>
<path d="M427.815 184.003C450.687 202.881 469.963 192.55 459.382 174.969C456.287 169.826 450.643 164.079 441.8 158.243" stroke="#05503E" stroke-width="4.88724" stroke-linecap="round" stroke-linejoin="round"/>
<path d="M372.139 161.132C372.139 161.132 373.569 178.536 380.967 186.052L387.834 177.725L372.139 161.132Z" fill="#05503E"/>
<path d="M243.928 139.025L333.823 189.131L358.087 219.158L372.388 202.175L349.296 172.183L258.665 121.341L243.928 139.025Z" fill="#FFD489" stroke="#05503E" stroke-width="4.88724" stroke-linejoin="round"/>
<path d="M244.958 95.2573C221.615 97.4531 213.584 82.1415 228.321 75.3331C232.624 73.3436 238.872 72.0762 247.243 72.1941" fill="white"/>
<path d="M244.958 95.2573C221.615 97.4531 213.584 82.1415 228.321 75.3331C232.624 73.3436 238.872 72.0762 247.243 72.1941" stroke="#05503E" stroke-width="4.88724" stroke-linecap="round" stroke-linejoin="round"/>
</g>
</svg>
