<svg width="200" height="200" viewBox="0 0 200 200" fill="none" xmlns="http://www.w3.org/2000/svg">
<path d="M38.4336 80.244H77.8972V119.708H38.4336V80.244Z" fill="white"/>
<path d="M97.6294 100.023L77.8969 80.244V119.756L97.6294 100.023ZM58.1643 100.023L77.8969 80.244H38.4333L58.1643 100.023ZM18.6523 100.023L38.4333 119.756V80.244L18.6523 100.023ZM58.1643 100.023L38.4333 119.756H77.8969L58.1643 100.023Z" fill="#434649"/>
<path d="M118.651 101.502H109.753V110.284H105.305V89.7157H109.753V98.152H118.651V89.7157H123.1V110.286H118.651V101.502ZM133.846 110.689C129.398 110.689 125.757 108.9 125.699 103.986H130.147C130.206 106.182 131.476 107.511 133.902 107.511C135.691 107.511 137.774 106.587 137.774 104.577C137.774 102.96 136.388 102.498 134.078 101.791L132.576 101.386C129.34 100.462 126.105 99.1904 126.105 95.4929C126.105 90.9287 130.38 89.3681 134.252 89.3681C138.239 89.3681 141.706 90.7541 141.762 95.3199H137.312C137.139 93.4719 136.04 92.3865 133.96 92.3865C132.285 92.3865 130.666 93.2665 130.666 95.1028C130.666 96.6047 132.052 97.0681 134.942 97.9921L136.675 98.5128C140.2 99.6128 142.454 100.824 142.454 104.291C142.395 108.914 137.89 110.705 133.845 110.705L133.846 110.689ZM144.941 89.7744H152.106C153.435 89.7157 154.822 89.7744 156.151 90.0061C158.636 90.584 160.542 92.2017 160.542 94.9752C160.542 97.6328 158.867 98.9616 156.44 99.5981C159.227 100.119 161.28 101.505 161.28 104.567C161.28 109.261 156.657 110.287 153.075 110.287H144.987L144.941 89.7744ZM152.106 98.3251C154.071 98.3251 156.092 97.9203 156.092 95.5384C156.092 93.4 154.244 92.8221 152.396 92.8221H149.277V98.3119L152.106 98.3251ZM152.511 107.223C154.591 107.223 156.613 106.761 156.613 104.217C156.613 101.672 154.879 101.21 152.741 101.21H149.217V107.219L152.511 107.223ZM172.849 110.691C166.205 110.691 163.257 106.472 163.257 100.175C163.257 93.8767 166.551 89.3124 173.079 89.3124C177.182 89.3124 181.168 91.1604 181.284 95.7833H176.661C176.429 93.7036 175.043 92.6637 173.078 92.6637C169.033 92.6637 167.82 96.9977 167.82 100.29C167.82 103.583 169.033 107.398 172.905 107.398C174.929 107.398 176.429 106.298 176.718 104.22H181.341C180.879 108.957 177.123 110.691 172.834 110.691H172.849Z" fill="black"/>
</svg>
