<svg width="200" height="200" viewBox="0 0 200 200" fill="none" xmlns="http://www.w3.org/2000/svg">
<g clip-path="url(#clip0_2504_78025)">
<path d="M165.404 80.5315V88.8015H171V75H157.036V80.5315H165.404Z" fill="#070707"/>
<path d="M162.605 83.2701H157.036V88.788H162.605V83.2701Z" fill="#070707"/>
<path d="M37.3675 80.5315H29V88.807H37.3675V80.5315Z" fill="#070707"/>
<path d="M97.1193 105.83C97.1193 104.528 97.0644 101.166 95.144 98.8883C92.3182 95.6345 87.3252 95.2549 84.9659 95.2549C82.6065 95.2549 78.9029 95.6887 76.2966 97.5325C73.6903 99.3764 73.1417 102.684 73.0594 104.203H81.2897C81.2285 103.321 81.4389 102.442 81.8932 101.681C82.256 101.185 82.7349 100.782 83.289 100.509C83.8432 100.235 84.4561 100.097 85.0756 100.108C85.8712 100.108 88.0659 100.407 88.8067 102.467C89.1359 103.471 89.1907 104.366 89.1907 106.209C86.4199 106.209 81.3994 106.209 77.8878 107.782C72.6204 110.195 71.8248 114.317 71.8248 116.567C71.7977 118.881 72.6947 121.112 74.3213 122.777C75.4461 123.834 77.3117 125 81.4543 125C83.018 125 86.8314 125 89.9863 120.472C89.9693 121.761 90.0611 123.048 90.2607 124.322H97.86C97.37 121.968 97.1401 119.567 97.1741 117.164L97.1193 105.83ZM87.627 118.004C87.1823 118.509 86.6346 118.915 86.0199 119.195C85.4052 119.475 84.7375 119.624 84.0605 119.631C81.2897 119.631 79.9728 117.516 79.9728 115.618C79.9728 112.256 83.8136 110.575 89.1907 111.009C89.1907 114.046 89.081 116.215 87.627 118.004Z" fill="#070707"/>
<path d="M145.788 88.91L137.475 91.1605V96.0412H131.988V101.518H137.475V117.218C137.475 119.577 137.475 124.837 145.897 124.837C148.095 124.815 150.28 124.515 152.399 123.943V118.52C151.462 118.633 150.518 118.688 149.574 118.682C145.843 118.682 145.843 117.055 145.788 114.479V101.518H152.564V96.0412H145.788V88.91Z" fill="#070707"/>
<path d="M37.3675 96.0412H29V124.336H37.3675V96.0412Z" fill="#070707"/>
<path d="M63.265 96.0412L56.7082 115.211L50.2611 96.0412H41.2627L51.7426 124.322H61.0428L71.3581 96.0412H63.265Z" fill="#070707"/>
<path d="M128.23 100.624C127.49 98.6714 125.103 95.3091 119.506 95.3091C113.279 95.3091 111.029 98.9425 110.233 100.217L110.014 96.0412H101.976C102.14 97.9935 102.14 101.003 102.14 101.112V124.322H110.563V107.782C110.563 105.586 111.084 104.203 111.578 103.471C112.072 102.786 112.728 102.231 113.487 101.854C114.247 101.476 115.089 101.286 115.94 101.302C116.78 101.273 117.611 101.483 118.335 101.906C119.06 102.328 119.647 102.947 120.027 103.688C120.466 104.582 120.466 105.586 120.466 106.779V124.322H128.998V109.056C128.998 103.796 128.834 102.359 128.23 100.624Z" fill="#070707"/>
<path d="M165.404 96.0412H157.036V124.336H165.404V96.0412Z" fill="#070707"/>
</g>
<defs>
<clipPath id="clip0_2504_78025">
<rect width="142" height="50" fill="white" transform="translate(29 75)"/>
</clipPath>
</defs>
</svg>
