<svg width="200" height="200" viewBox="0 0 200 200" fill="none" xmlns="http://www.w3.org/2000/svg">
<path d="M34.2374 101.798C34.6862 101.927 33.9009 102.159 34.2374 101.798ZM34.0972 103.859C34.6581 103.679 33.8728 104.4 34.0972 103.859ZM33.8167 100.356C34.5459 100.021 33.8167 100.974 33.8167 100.356ZM33.8167 97.2387C34.2094 96.9296 33.8167 97.6251 33.8167 97.2387ZM33.8167 105.971C34.3777 105.765 33.5923 106.487 33.8167 105.971ZM33.6484 105.456C34.7142 104.374 34.574 105.662 33.6484 105.456ZM33.5082 102.829C34.3496 102.7 33.368 103.601 33.5082 102.829ZM33.0875 96.3114C33.5643 96.7235 32.3863 96.4402 33.0875 96.3114ZM32.6668 101.927C34.0411 101.283 33.368 102.597 32.6668 101.927ZM32.6668 94.8946C33.1436 94.74 32.5826 95.4098 32.6668 94.8946ZM32.3863 100.613C32.6668 100.356 32.3863 101.025 32.3863 100.613ZM32.3863 101.386C32.5546 100.742 32.0497 101.412 32.3863 101.386ZM32.1058 108.959C32.779 108.522 32.4985 109.706 32.1058 108.959ZM32.1058 103.473C32.0497 102.185 33.3119 104.761 32.1058 103.473ZM31.9375 107.517C32.779 107.388 31.7693 108.29 31.9375 107.517ZM31.9375 95.1522C33.8448 95.7447 31.5449 96.2341 31.9375 95.1522ZM31.6571 98.0115C32.0778 97.7024 31.6571 98.4237 31.6571 98.0115ZM31.6571 108.058C32.1058 107.568 31.7973 108.676 31.6571 108.058ZM31.6571 107.285C32.1058 107.105 33.6204 107.105 32.4985 106.95C32.5546 106.95 31.3766 106.693 31.6571 107.259V107.285ZM31.4888 101C31.7132 100.33 32.0217 101.386 31.4888 101ZM32.5265 97.0069C32.1058 97.5221 31.5168 97.4448 32.1058 97.7797C31.4607 98.4237 34.3777 98.2949 33.0314 98.0115C31.4607 98.3722 33.985 96.4144 33.3119 96.8523C32.6107 97.4448 32.9753 96.3887 32.5265 97.0069ZM31.4046 95.5644C31.8254 95.384 31.3486 96.0023 31.4046 95.5644ZM31.4046 96.8523C31.9656 96.8008 31.2364 97.2903 31.4046 96.8523ZM31.6851 109.269C32.3583 110.222 30.5071 109.603 31.6851 109.269ZM31.0961 97.0069C31.5449 96.8523 30.9839 97.5479 31.0961 97.0069ZM30.9278 100.871C31.3766 100.691 30.8998 101.309 30.9278 100.871ZM30.9278 100.613C31.8254 100.381 31.5729 101.463 30.9278 100.613ZM31.2083 104.014C29.806 103.421 33.1716 104.735 31.2083 104.014ZM30.8157 95.6674C31.012 96.3114 31.6571 95.822 30.8157 95.6674ZM30.6754 105.714C31.0961 105.405 30.6754 106.1 30.6754 105.714ZM30.5352 106.615C31.1803 106.59 30.7876 107.749 30.5352 106.615ZM30.3949 104.915C31.2644 105.044 32.4704 105.43 31.2925 106.023C30.7876 106.126 30.1706 106.074 30.5352 105.559C30.2267 105.405 30.423 105.147 30.3949 104.915ZM30.2547 97.0069C29.862 96.8781 30.3949 97.3418 30.2547 97.0069ZM31.0961 88.635C33.0594 87.7076 34.9947 90.1806 33.9289 91.6489C35.191 90.3094 33.9289 93.0914 33.7887 91.6489C34.0691 91.4943 32.8351 89.6396 33.0314 91.1852C33.1155 91.5716 33.6484 92.0353 33.9289 92.8338C32.4985 94.637 29.3572 93.0141 29.834 90.9791C30.5632 92.061 28.7402 89.6654 31.0961 88.635ZM28.2914 108.985C28.7121 108.599 28.5158 109.372 28.2914 108.985ZM27.9829 108.728C28.4316 108.728 27.6463 109.114 27.9829 108.728ZM27.4219 110.041C28.0951 109.81 27.4219 110.634 27.4219 110.041ZM27.0012 109.784C27.0293 108.264 27.3378 110.428 27.0012 109.784ZM31.5168 94.9204C32.2461 94.6112 33.0033 95.0492 33.5082 94.6628C34.013 95.0492 33.9289 94.8946 33.368 95.178C33.6484 95.2552 33.9569 97.0842 33.9289 96.0023C34.0972 93.9415 34.1252 98.3464 34.7703 97.9085C34.2935 99.145 34.8545 101.669 33.368 100.768C32.9192 100.098 32.3583 101.592 31.9656 100.51C34.2655 99.789 30.5071 100.484 31.9656 100.897C31.6851 101.772 33.1716 101.721 32.5265 101.283C34.4057 100.459 33.396 102.726 34.3216 101.128C34.3496 101.927 34.7984 102.571 34.0972 102.983C34.9386 103.035 34.5459 103.756 33.9289 103.241C34.8825 103.653 34.2374 104.992 34.4898 106.229C34.1533 109.217 31.7973 112.875 27.9829 112.154C26.9732 111.381 25.9074 109.706 27.0012 108.856C28.7962 107.826 27.5902 108.547 28.5158 107.878C29.5535 107.671 29.7218 109.5 30.2267 109.397C30.5071 108.882 30.1986 108.367 30.8998 108.393C31.4607 108.341 29.2731 106.409 31.5168 106.126C33.0875 105.611 31.1242 106.306 31.7973 106.512C31.2364 106.049 31.7973 107.285 30.9559 107.156C32.0778 106.718 32.2461 105.611 33.6484 106.255C32.8351 105.302 31.9095 105.714 32.2461 105.224C33.9569 104.709 31.9095 105.07 31.3205 104.889C31.1803 104.426 30.0023 105.405 30.3949 104.271C30.1706 103.782 31.1522 102.519 31.1242 103.37C31.4607 103.421 31.4607 103.885 31.7412 103.318C30.8998 102.7 31.9375 103.421 31.9656 102.983C31.5729 102.519 30.0584 103.189 31.1242 102.339C30.0023 103.086 30.2828 100.974 30.2828 100.433C30.5071 99.4026 30.7315 97.213 30.6754 97.2645C31.1242 96.8266 31.4607 96.2341 30.5352 96.3372C29.4413 96.028 31.2083 96.569 30.3949 96.7235C30.0303 96.8781 29.0767 96.5432 30.1145 97.3933C29.6377 97.0584 29.0767 97.1357 28.8523 97.0327C28.2353 96.1568 28.5719 94.9719 29.862 94.9719C30.0584 95.1007 30.0023 95.1522 30.451 95.384C29.9742 94.5082 31.2644 94.9719 30.9559 95.4356C30.451 95.925 29.9181 95.178 29.3572 95.4356C28.656 95.384 30.3949 96.569 29.862 95.9508C30.0023 95.7704 31.8254 96.5947 31.4046 95.8477C31.1242 95.5128 30.7315 95.3583 31.3486 95.0749C31.9656 94.8173 31.1522 95.8477 31.8254 95.178L31.7412 94.9719L31.5168 94.9204ZM46.8026 99.4798C46.2697 100.047 45.26 99.0677 46.8026 99.4798C46.1575 98.8616 47.0831 99.1965 46.8026 99.4798ZM45.7929 101.283C46.3538 101.128 45.6527 101.695 45.7929 101.283ZM45.2319 97.5221C45.9051 97.4191 45.2039 98.0115 45.2319 97.5221ZM45.0917 95.6932C44.3625 95.2037 45.6527 96.2341 45.0917 95.6932ZM44.2503 97.2387C44.8112 97.213 44.082 97.6767 44.2503 97.2387ZM43.9698 98.2949C44.4186 98.1403 43.8857 98.8616 43.9698 98.2949ZM43.5211 95.5644C44.082 95.3583 43.3247 96.0796 43.5211 95.5644ZM42.5394 105.739C43.1004 105.405 42.6516 106.383 42.5394 105.739ZM42.5394 105.482C42.9601 105.173 42.5394 105.868 42.5394 105.482ZM40.9688 106.126C41.1651 106.95 42.3711 107.594 42.0907 106.693C41.8663 106.667 41.6419 106.693 41.2492 106.512C41.081 106.358 41.5297 105.92 40.9688 106.126ZM40.9688 105.456C41.7541 105.533 40.8005 106.126 40.9688 105.456ZM43.8296 96.3372C44.5027 96.8008 44.3905 96.9296 43.8296 96.5948C44.5027 98.0631 42.0626 95.281 40.6883 97.1099C41.081 96.0023 39.903 97.1872 40.6322 97.7539C38.2201 100.072 44.7271 99.8662 43.8296 97.7539C43.6333 97.2387 44.7271 97.316 44.1942 96.4402H44.1662L43.8296 96.3372ZM40.1273 105.353C40.6041 105.276 39.903 105.971 40.1273 105.353ZM40.2676 100.639C39.7066 100.819 40.4078 99.8662 40.2676 100.639ZM39.8469 101.566C39.8469 101.979 40.2676 101.232 39.8469 101.566ZM39.8469 100.639C40.4078 100.639 39.6225 101.154 39.8469 100.639ZM39.8469 102.983C40.52 102.726 39.8469 103.576 39.8469 102.983ZM39.8469 103.911C38.6689 103.55 41.109 104.426 40.492 103.911C40.2115 103.395 40.7163 103.447 39.8469 103.911ZM39.1457 103.395C38.0799 103.782 40.8285 103.73 39.6786 103.215C39.2579 103.06 39.342 102.88 39.1176 103.37L39.1457 103.395ZM38.6969 103.911C39.1457 103.911 38.3884 104.297 38.6969 103.911ZM38.5567 104.555C39.1176 104.348 38.3323 105.07 38.5567 104.555ZM38.4165 96.2084C39.2859 95.8735 38.5847 96.9296 38.4165 96.2084ZM38.2762 101.695C38.4165 102.133 38.6969 101.489 38.2762 101.695ZM38.2762 104.683C38.725 104.683 37.9677 105.07 38.2762 104.683ZM36.7336 104.168C36.7336 104.58 37.1543 103.859 36.7336 104.168ZM36.4532 101.566C37.4348 101.309 36.9019 102.288 36.4532 101.566ZM36.4532 100.639C37.7153 100.124 37.1263 101.077 36.4532 100.639ZM36.2849 103.112C37.0421 102.777 36.2849 103.73 36.2849 103.112ZM36.2849 99.995C37.7714 99.995 37.1824 100.897 36.2849 99.995ZM38.2762 95.0492C39.9871 94.1733 42.1187 93.5036 43.8296 94.534C44.5308 94.6112 45.0076 95.1522 45.5124 95.4356C46.6403 96.9937 47.4395 98.7326 47.8684 100.562C47.7562 101.721 46.3258 101.85 45.3722 101.438C45.6527 101.953 43.4089 101.077 43.1004 101.644C42.1748 101.489 41.4175 101.901 40.9407 101.206C41.4175 100.922 41.5017 100.819 41.109 100.33C40.2115 100.871 40.6602 100.665 40.8285 101.283C41.109 101.927 39.3981 101.412 39.7066 100.897C38.8652 100.742 38.5287 100.381 38.3604 101.309C38.0238 100.768 37.4068 100.201 39.1457 100.124C38.3043 99.0162 37.9958 100.845 37.3226 100.459C37.2665 100.407 38.3884 101.386 37.6031 101.489C38.2482 100.459 35.6959 101.592 37.1263 101.669C37.9397 102.288 36.7897 100.922 37.575 101.618C37.8836 102.236 36.7056 101.566 37.4909 102.545C37.9116 103.704 38.0518 101.283 38.2762 102.082C39.0335 101.772 38.725 100.974 40.2115 101.618C40.0152 103.035 41.1651 105.559 43.4369 104.889C44.5588 104.297 45.5405 103.421 46.2697 102.494C48.794 102.313 47.0831 105.662 46.3538 105.508C45.9892 106.152 45.9331 106.023 43.9979 107.208C43.5162 107.411 42.9873 107.5 42.4585 107.469C41.9298 107.437 41.4179 107.286 40.9688 107.027C40.3237 107.8 39.342 106.77 40.4639 106.512C40.0432 106.203 39.0616 106.796 38.6408 106.512C37.8836 105.997 37.1263 105.405 36.8739 104.555C37.9397 104.374 37.4629 103.627 37.9958 103.267C36.8458 102.7 37.519 103.473 36.6775 103.576C36.341 103.06 36.5092 103.704 37.0141 103.911C35.3313 103.576 35.5556 101.36 35.4435 100.227C35.6398 98.9904 37.1263 96.672 36.6495 96.9296C36.6495 96.3887 37.6872 95.822 37.9397 95.2552L38.2762 95.0492ZM66.5198 95.5644C66.9966 95.4098 66.4076 96.1053 66.5198 95.5644ZM65.9589 96.2084C66.4076 96.1053 65.9308 97.0069 65.9589 96.2084ZM65.6784 94.6628C66.4076 94.2249 66.043 95.178 65.6784 94.6628ZM65.2577 94.6628C65.8186 94.5597 65.1455 94.9719 65.2577 94.6628ZM64.9772 95.4356C65.426 95.6159 64.4724 95.5901 64.9772 95.4356ZM64.5004 98.2949C64.3321 98.7328 65.0614 98.2176 64.5004 98.2949ZM64.9211 96.8523C66.2113 97.213 63.3224 97.6767 64.9211 96.8523ZM64.3602 95.5644C65.0333 95.2295 64.4724 96.1311 64.3602 95.5644ZM64.5004 98.5525C63.659 100.15 65.3418 98.8101 64.5004 98.5525ZM64.6407 95.6932C63.6871 95.7447 64.5846 97.7539 64.22 96.3629C64.3041 95.7189 65.9028 96.1826 65.0894 95.822C65.5943 95.4098 66.015 95.5901 64.6407 95.6932ZM63.9395 98.6813C63.9395 99.0934 64.3602 98.3722 63.9395 98.6813ZM63.9395 98.0373C64.5004 98.1146 64.5004 97.3418 63.9395 98.0373ZM63.9395 94.637C64.4163 94.4309 64.1639 95.1522 63.9395 94.637ZM63.2383 99.2222C62.0323 99.5829 64.5565 99.6086 63.4066 99.145C63.4066 98.4752 63.1261 98.8874 63.2383 99.2222ZM62.5091 99.7374C63.2102 99.6344 62.481 100.227 62.5091 99.7374ZM62.2286 102.468C62.9298 102.21 62.2566 103.06 62.2286 102.468ZM63.07 94.3794C65.3138 94.2764 66.6601 94.7143 66.4357 95.4098C66.4918 94.5855 66.8283 95.8735 67.0808 96.466C65.4821 97.4448 65.3979 97.6509 63.9956 97.7539C64.276 96.0023 62.3969 99.2995 62.9298 96.9039C64.1639 97.0069 62.2286 96.7493 61.892 96.1311C61.9762 95.5386 61.9762 95.5128 62.481 95.1007C62.0603 93.89 62.8456 95.4613 63.3785 94.7916C63.2102 95.2552 62.9859 95.3325 63.2383 95.822C62.7334 95.1522 62.5371 95.925 61.9481 95.5644C62.6773 96.1311 63.4627 95.7962 63.4346 95.3068C64.0797 94.8688 63.5188 96.1568 64.1919 95.6674C65.0053 95.0492 63.1822 95.6159 64.5004 95.3068C65.8186 95.4098 65.9028 95.2552 64.9211 94.9461C64.8089 94.4309 63.8834 95.3583 63.5188 94.9204C63.7712 94.5082 63.1542 94.6628 63.0981 94.4052L63.07 94.3794ZM60.9665 101.566C60.7982 100.922 61.892 101.412 60.9665 101.566ZM60.4055 100.794C61.0506 100.021 61.275 100.588 60.4055 100.794ZM60.125 103.885C61.6676 104.451 60.4055 104.4 60.125 103.885ZM59.9568 100.253C60.7982 99.5571 61.0226 100.098 59.9568 100.253ZM60.9665 104.168C62.2847 105.25 58.33 105.173 60.9104 105.095C61.5835 105.405 61.7798 104.632 61.1908 104.039C61.1049 104.063 61.0275 104.108 60.9665 104.168ZM59.8446 100.51C60.2933 100.356 59.7324 101.077 59.8446 100.51ZM59.5641 94.3794C59.7604 95.0492 60.0409 94.0188 59.5641 94.3794ZM59.5641 100.768C60.1531 101.128 58.4983 101.283 59.5641 100.768ZM59.1434 96.5948C60.2653 96.3887 59.0593 97.3675 59.1434 96.5948ZM58.5824 97.3675C59.1434 96.9811 58.6946 97.9085 58.5824 97.3675ZM58.5824 94.637C59.508 95.5644 59.7043 93.7869 58.5824 94.637ZM58.302 101.438C58.6666 101.128 58.4703 101.85 58.302 101.438ZM58.1617 99.0677C58.4983 99.5829 58.4983 98.6298 58.7788 98.6298C58.4983 98.6813 58.3581 98.8874 58.1617 99.0677ZM58.0215 95.0492C58.6105 95.5128 59.6482 94.74 58.0215 95.0492ZM57.741 97.7797C57.4606 98.9904 58.5544 97.3933 58.6385 98.3722C58.3581 98.9646 59.7043 97.3933 58.2459 97.6509C58.4703 97.2387 57.8813 97.857 57.713 97.7797H57.741ZM57.4606 98.8101C57.8813 98.7328 57.741 99.7374 57.9935 98.8616C57.6849 98.604 58.2178 98.1661 57.4325 98.8101H57.4606ZM57.4606 94.5082C57.9093 95.4356 59.0032 94.1991 57.4606 94.5082ZM57.1801 100.124C57.8532 99.8662 57.1801 100.716 57.1801 100.124ZM57.1801 99.0934C57.9374 99.0419 57.124 99.789 57.1801 99.0934ZM57.1801 97.0069C56.9838 97.4191 57.741 96.9296 57.1801 97.0069ZM56.3106 98.8101C57.5727 98.4495 55.6375 98.4237 56.1143 98.6813L56.3106 98.8101ZM56.0301 100.381C56.5911 100.15 55.7216 101 56.0301 100.381ZM55.7497 98.9389C56.1984 98.7843 55.6655 99.5056 55.7497 98.9389ZM55.4692 99.7117C56.563 99.8662 55.4131 100.484 55.4692 99.7117ZM55.3009 98.0373C56.2265 98.2434 55.2168 97.213 55.3009 98.0373ZM55.0204 101.438C55.6375 101.566 55.3009 101.103 55.0204 101.438ZM55.4412 100.768C56.2545 101.103 55.918 101.309 56.7313 100.897C56.6752 101.695 55.8619 102.674 55.0485 101.824C56.1423 100.948 55.7216 101.824 55.4412 100.794V100.768ZM55.8899 95.6932C56.9277 95.2552 55.3009 96.2084 55.1887 96.3887C54.2632 95.9508 55.2729 96.028 55.8899 95.6932ZM54.5997 100.639C55.4412 100.51 54.4595 101.412 54.5997 100.639ZM54.8802 104.812C55.2448 105.456 53.59 105.327 54.8802 104.812ZM54.74 96.466C53.7303 97.213 56.2265 96.4917 54.74 96.466ZM54.3193 103.37C55.1046 103.344 54.2632 104.091 54.3193 103.37ZM54.179 95.822C53.9546 96.4144 55.2448 96.6978 54.179 95.822ZM54.0388 95.178C53.9827 93.89 56.563 94.4052 56.7313 94.6628C56.7313 95.0234 55.6936 94.3536 55.329 95.0492C53.9266 93.7097 55.1046 96.3372 54.8241 94.9719C55.1046 94.4567 55.4692 95.7447 54.6839 95.5386C54.9083 95.7962 53.7583 95.5386 54.4595 95.281C54.2912 95.281 54.179 95.1522 54.0388 95.178ZM53.6181 102.597C54.0668 102.442 53.5339 103.163 53.6181 102.597ZM53.7583 101.695C53.1693 100.407 54.6839 102.185 53.7583 101.695ZM53.3376 101.953C54.2351 102.957 55.5253 102.571 54.0949 102.21C53.8425 102.107 53.6461 101.901 53.3376 101.953ZM52.8889 95.9508C53.1693 95.6416 53.1693 96.2599 52.8889 95.9508ZM52.8889 95.5644C53.3657 95.4098 52.8328 96.1053 52.8889 95.5644ZM52.6084 98.2949C53.0852 98.0115 52.5523 98.8616 52.6084 98.2949ZM52.4681 104.426C53.2254 104.477 53.5059 105.018 52.4681 104.426ZM52.3279 95.6674C52.3279 94.9976 53.0852 95.6674 52.3279 95.6674ZM52.1877 97.1357C52.6645 96.9554 52.0755 97.6767 52.1877 97.1357ZM51.9072 99.8662C52.3279 99.8662 51.6267 100.15 51.9072 99.8662ZM51.4865 102.339C54.0107 103.988 52.2157 102.983 51.4865 103.112C52.8047 104.014 52.3279 103.37 53.7303 104.039C52.6084 103.704 54.5717 103.009 53.4498 103.267C53.4498 102.829 52.2438 102.88 51.767 102.21C51.6828 102.288 51.5706 102.313 51.4865 102.339ZM51.6267 97.9085C51.1219 98.2434 52.1877 97.9085 51.6267 97.9085ZM51.206 97.5221C51.6828 97.3675 51.0938 98.0631 51.206 97.5221ZM50.9255 97.0069C51.3743 97.0069 50.5609 97.3933 50.9255 97.0069ZM50.1963 95.5644C50.1122 94.8688 51.0658 95.5128 50.1963 95.5644ZM49.7756 96.7235C50.2805 96.7235 49.5512 97.4448 49.7756 96.7235ZM49.4951 97.9085C49.8317 97.8055 49.3829 98.4495 49.4951 97.9085ZM49.2147 95.0492C49.5512 94.2249 50.3646 95.2037 49.2147 95.0492ZM48.205 95.4356C48.7659 95.3583 48.0647 95.8735 48.205 95.4356ZM47.3635 94.5082C48.3171 94.3279 48.0928 94.3794 48.4854 94.7658C47.7001 96.0538 50.3366 95.7962 50.7012 96.028C52.384 96.1826 51.795 96.2084 52.2999 95.4356C53.9827 95.5901 52.0755 94.9204 53.3096 94.74C52.4681 94.8431 51.767 95.3583 50.8975 95.7704C50.617 95.7962 51.8792 94.5597 51.0377 95.1522C50.8975 94.9461 50.3085 96.2341 49.6634 95.7704C50.028 95.6159 50.3646 95.0492 49.1025 95.4613C48.1208 94.1733 48.7379 94.637 50.0561 94.3794C50.1122 95.2552 50.8694 95.3068 50.617 94.3794C51.0938 94.2764 51.3743 94.6628 52.1877 94.7916C51.5987 94.534 53.9546 93.9673 53.59 95.0492C53.562 95.6932 53.1132 95.5386 53.59 96.0796C52.9449 96.3372 52.7486 96.6463 52.7486 96.8523C52.2157 96.7493 53.4498 98.1403 53.0291 98.1403C52.7206 97.8827 51.795 97.7797 52.4681 98.0373C51.6828 98.3979 52.4681 98.0373 51.767 97.7797C49.8037 97.5994 50.8975 98.2691 51.767 98.5525C52.8328 99.145 52.7206 97.1615 52.8889 98.8101C53.0291 99.3253 54.0107 100.15 53.3376 100.098C54.9924 100.742 55.357 100.304 54.6278 99.7632C55.8338 99.0162 54.9083 98.5267 55.6936 98.8616C55.8058 98.7071 55.4972 98.1919 55.8899 97.9085C56.9277 99.145 57.0959 97.0069 56.3667 97.8312C55.918 97.5736 56.8716 95.9765 57.3484 97.5221C57.6288 98.4495 56.2826 98.2176 57.2923 98.9131C57.5727 99.1192 57.152 97.7797 57.6849 97.4706C58.3861 97.1357 59.5641 96.8523 58.5824 96.5948C58.0215 96.2599 57.9654 97.5736 57.2362 96.5175C56.563 96.9296 55.8899 96.5948 56.7313 96.0796C57.4045 96.5432 57.4606 96.5432 57.3484 96.0538C57.7971 95.3068 59.0312 96.4402 58.7227 95.5386C58.1617 95.281 59.5641 96.0023 59.3397 96.1568C60.4055 96.9554 59.0032 95.4098 59.0032 95.4613C59.8726 95.1264 60.4055 95.822 60.5177 95.9765C60.2372 95.7189 60.5458 94.8173 60.9945 95.7189C61.4713 96.8008 58.919 96.5175 60.2372 97.7797C60.4055 98.2434 59.0873 98.9904 60.2092 98.3722C60.3214 99.0162 59.7324 98.1661 59.2836 98.1661C58.1617 99.248 60.9945 98.501 60.5738 99.2995C61.1067 99.9178 60.686 100.278 61.6957 101.154C62.3127 100.381 61.9762 100.948 62.1725 99.9693C61.6116 99.4026 63.1261 99.5056 62.3688 99.1965C62.481 98.7071 62.5371 97.7539 63.3224 98.1146C63.8834 98.0115 63.4066 99.145 64.248 99.7374C64.6968 98.7586 64.4163 100.665 63.8834 101.025C63.1822 101.18 63.4627 103.498 62.5091 103.936C62.2847 103.936 62.1445 104.735 62.453 105.327C62.3969 106.512 61.4994 107.568 60.125 107.285C60.125 106.899 59.0312 105.688 59.8446 105.739C59.0032 105.791 59.3958 105.276 59.1995 104.915C59.1434 104.658 58.6385 103.73 58.302 102.726C57.4606 102.185 57.6288 99.892 56.5911 100.768C55.7216 100.51 55.4692 101.051 54.5717 101.18C54.2071 101.283 54.6278 102.082 54.8802 101.953C55.357 102.313 55.8619 102.21 55.6375 103.267C55.3851 103.524 56.0862 103.653 55.7497 103.782C55.5253 104.735 54.6278 105.07 54.8802 105.662C54.6558 106.487 53.6181 107.981 52.7486 106.899C51.9913 105.044 51.0658 103.267 50.2244 101.438C50.1122 101.025 50.2244 100.407 49.7756 100.253C50.6731 100.227 49.2988 99.995 49.6354 99.4798C48.7379 98.501 50.0841 98.6298 49.0744 98.5525C48.9061 98.0373 48.3171 97.0584 49.411 97.5221C49.6354 97.0842 50.2524 98.4237 49.8037 97.3933C49.2427 97.213 46.7465 96.8781 47.644 95.5644C48.4854 96.6978 48.6818 95.1264 47.1953 95.5644C48.4013 95.1007 45.9331 95.5644 47.3635 94.534M77.9351 99.4798C77.4022 100.021 76.3925 99.0677 77.9351 99.4798C77.29 98.8616 78.2155 99.1965 77.9351 99.4798ZM76.9254 101.283C77.4863 101.128 76.7851 101.695 76.9254 101.283ZM76.3644 97.5221C77.0375 97.4191 76.3364 98.0115 76.3644 97.5221ZM76.2242 95.6932C75.495 95.2037 76.7851 96.2341 76.2242 95.6932ZM75.3828 97.2387C75.9437 97.213 75.2145 97.6767 75.3828 97.2387ZM75.1023 98.2949C75.5791 98.1403 74.9901 98.8616 75.1023 98.2949ZM74.6535 95.5644C75.2145 95.3583 74.4572 96.0796 74.6535 95.5644ZM73.6719 105.714C74.345 105.482 73.6719 106.306 73.6719 105.714ZM73.6719 105.456C74.0926 105.173 73.6719 105.868 73.6719 105.456ZM72.1012 106.126C72.3537 107.671 74.0645 106.693 72.9426 106.77C72.7744 106.564 72.2415 106.641 72.1012 106.126ZM72.1012 105.456C72.8866 105.533 71.9329 106.126 72.1012 105.456ZM74.9621 96.3372C75.6352 96.8008 75.523 96.9296 74.9621 96.5948C75.6352 98.0631 73.1951 95.281 71.8208 97.1099C71.4561 95.9508 71.8208 97.8827 71.2598 99.248C73.8682 100.33 75.3547 98.0631 75.1864 97.1872C75.8315 97.1872 75.523 96.2341 74.9621 96.3372ZM71.2598 105.353C71.9049 105.353 70.9793 105.971 71.2598 105.353ZM71.4 100.639C70.8391 100.819 71.5403 99.8662 71.4 100.639ZM70.9793 101.566C70.9793 101.953 71.4 101.257 70.9793 101.566ZM70.9793 100.639C71.5403 100.639 70.755 101.154 70.9793 100.639ZM70.9793 102.983C71.6525 102.726 70.9793 103.576 70.9793 102.983ZM70.9793 103.911C69.8014 103.55 72.2134 104.426 71.6244 103.911C71.344 103.395 71.8488 103.447 70.9793 103.911ZM70.2782 103.395C69.1563 103.807 72.2415 103.653 70.6428 103.138C70.3062 102.777 70.4464 103.189 70.2782 103.395ZM69.8294 103.911C70.2782 103.911 69.5209 104.297 69.8294 103.911ZM69.6892 104.555C70.2501 104.348 69.4648 105.07 69.6892 104.555ZM69.5489 96.2084C70.4184 95.8735 69.7172 96.9296 69.5489 96.2084ZM69.4087 101.695C69.5209 102.133 69.8294 101.489 69.4087 101.695ZM69.4087 104.683C69.8575 104.683 69.1002 105.07 69.4087 104.683ZM67.8661 104.168C67.8661 104.58 68.2868 103.859 67.8661 104.168ZM67.5856 101.566C68.2868 101.309 68.1466 102.236 67.5856 101.566ZM67.5856 100.639C68.1466 101.36 68.5392 99.9693 68.0063 100.716C67.9502 101.051 67.6417 100.15 67.5856 100.639ZM67.4173 103.112C68.1746 102.777 67.4173 103.73 67.4173 103.112ZM67.4173 99.995C68.9038 99.995 68.3149 100.897 67.4173 99.995ZM69.4087 95.0492C71.1196 94.1733 73.2512 93.5036 74.9621 94.534C75.8596 94.534 75.523 95.1007 76.5047 95.2295C76.5888 96.0538 77.907 96.3114 78.1875 97.8055C78.1875 99.4798 79.3374 99.789 78.8045 101.077C78.4399 102.185 76.5607 101.283 76.5607 101.644C75.1584 101.309 73.6158 101.85 72.2415 101.566C72.6341 101.386 71.2879 100.794 72.4658 101.025C72.8866 101.283 72.3537 99.789 71.9049 100.562C71.0635 100.819 72.9146 101.747 71.344 101.489C70.5025 100.665 70.4745 101.025 70.1099 100.716C69.6892 100.484 69.605 100.588 69.5489 101.566C69.3806 100.484 68.3709 100.613 70.0538 100.021C70.5025 99.6344 68.8758 99.7632 68.988 100.536C67.9502 100.15 68.988 101.386 69.0721 101.36C68.2868 100.742 67.782 102.056 68.427 101.515C68.9599 101.438 68.9038 102.21 68.427 101.901C68.0063 102.983 69.8855 103.009 68.988 101.824C69.8855 102.854 69.605 101.051 70.4745 101.309C72.0451 101.592 71.0354 103.859 72.7744 104.658C74.7657 105.611 76.3364 103.73 77.4022 102.494C79.9264 102.313 78.2155 105.688 77.4863 105.508C77.1217 106.152 77.0656 105.997 75.1303 107.208C74.1767 107.568 72.9707 107.568 72.1012 107.027C71.8208 107.646 70.166 107.079 71.7366 106.564C70.9793 105.843 71.0074 107.337 70.1379 106.383C70.0818 106.899 69.0721 106.049 68.6234 105.585C68.3709 105.327 67.5856 104.271 68.427 104.683C68.4831 103.807 69.6331 103.627 68.427 102.88C68.7356 103.576 68.1746 103.138 67.8661 103.576C67.4454 103.112 67.6417 103.679 68.1466 103.911C66.5198 103.601 66.6881 101.463 66.5759 100.33C66.5759 98.8359 67.6978 97.3675 67.6978 96.7235C68.399 96.3114 68.6234 95.4098 69.4087 95.0492ZM85.5078 107.027C85.9005 106.693 85.6481 107.44 85.5078 107.027ZM85.2274 106.461C85.8444 105.894 85.2834 107.362 85.2274 106.461ZM84.9469 105.946C85.7883 105.379 84.8347 106.718 84.9469 105.946ZM84.4981 105.43C85.2834 105.379 84.442 106.152 84.4981 105.43ZM84.2177 101.515C83.9372 102.7 85.2554 101.618 84.2177 101.515ZM84.0774 91.211C84.6384 91.314 83.8811 91.6231 84.0774 91.211ZM83.7969 90.567C83.7128 90.0518 84.2737 90.567 83.7969 90.567ZM83.6567 91.7519C83.6006 92.1383 84.2457 92.0095 83.6567 91.7519ZM83.3762 88.3259C83.7969 88.3259 83.0397 88.7123 83.3762 88.3259ZM83.5165 90.9534C83.1799 91.9837 83.236 91.6231 83.8811 92.3959C84.6384 92.705 83.7408 92.1383 84.2177 91.6231C82.5068 91.4943 85.3676 90.5927 83.5165 90.9534ZM82.7872 104.786C83.5165 104.606 82.8714 105.482 82.7872 104.786ZM82.5068 88.8411C83.236 88.5835 82.5068 89.4851 82.5068 88.8411ZM82.3665 92.9111C83.208 92.8853 82.2263 93.6581 82.3665 92.9111ZM82.0861 97.9858C82.647 97.6767 82.1983 98.6555 82.0861 97.9858ZM81.8056 102.545C82.0861 103.163 82.619 102.674 81.8056 102.545ZM81.6654 103.318C81.8336 104.348 82.3665 104.374 82.0861 103.318H81.8056H81.6654ZM81.3849 97.5994C82.1422 97.3418 81.3849 98.2949 81.3849 97.5994ZM81.2446 101.644C81.8056 101.644 81.0203 102.262 81.2446 101.644ZM82.7872 101.901C83.0116 104.065 81.5251 101.206 81.8056 102.674C80.6276 103.833 81.2446 103.06 82.7872 102.829C82.4787 103.679 82.1422 103.627 83.3482 102.957C82.7592 102.803 83.0677 102.391 82.7872 101.927V101.901ZM81.2446 90.567C81.441 91.2625 80.5996 92.0868 81.2446 90.567ZM80.9642 100.201C81.5251 99.995 80.7398 100.716 80.9642 100.201ZM80.8239 100.716C80.7959 101.232 81.2446 100.639 80.8239 100.716ZM80.8239 97.0842C81.1885 96.7751 80.9922 97.5221 80.8239 97.0842ZM80.9642 95.8992C80.6557 94.74 81.3288 96.9811 80.9642 95.8992ZM80.6837 100.871C79.3935 102.159 81.9739 101.566 80.6837 100.871ZM79.5338 105.688C78.8887 105.662 79.5899 105.868 80.3752 105.946C82.058 105.997 79.0009 105.946 79.8142 105.173C79.3094 104.915 79.6179 105.508 79.5338 105.688ZM83.5165 88.1713C85.1993 88.7638 84.4981 91.3655 84.6384 92.8081C84.3579 93.3748 84.3579 94.4309 84.4701 94.4309C84.2737 95.1264 85.1993 96.569 84.0774 96.569C85.2554 97.4706 84.2177 99.4798 84.6384 100.871C84.6384 101.257 82.7592 102.185 84.6103 102.288C84.3859 102.107 83.3482 103.241 84.6384 103.215C83.7969 104.4 84.3018 102.983 83.0116 103.73C83.4043 104.22 84.6945 103.601 84.6384 104.915C86.6578 104.992 84.5262 105.92 86.0407 105.559C85.3115 106.461 87.1626 106.512 85.5639 107.362C85.1713 107.182 81.3568 107.182 80.0667 107.362C79.4496 107.878 78.468 106.332 79.5338 107.156C81.3849 107.027 78.0753 106.77 78.9728 106.152C79.7301 106.049 78.0753 105.997 79.085 105.636C79.057 104.812 80.88 104.915 80.4593 103.833C80.5715 102.442 81.0203 103.189 80.5154 102.236C80.7117 100.613 82.8714 101.541 81.8056 100.691C82.0861 100.33 80.291 101.232 80.4313 100.253C80.4874 98.5267 80.3471 96.7235 80.5996 95.1007C80.9361 94.9976 80.7117 95.7189 81.5251 95.2552C80.1228 95.1264 81.3568 94.3021 80.5996 94.6112C80.3191 93.9415 80.4313 92.0868 80.7398 91.8807C80.1508 92.9111 81.7495 91.211 81.1044 91.855C80.0947 91.3398 81.1044 91.3398 80.7398 90.9018C81.1605 91.0049 79.5057 89.8972 80.1228 90.6442C80.9922 91.3398 79.1972 90.3866 78.8326 90.567C77.4583 89.1244 78.8045 88.1198 80.2349 88.2486C81.4971 88.1971 81.7495 88.1971 83.5165 88.1971V88.1713ZM93.3611 107.053C93.7818 106.718 93.5293 107.465 93.3611 107.053ZM93.0806 106.487C93.7257 105.92 93.1367 107.388 93.0806 106.487ZM92.8001 105.971C93.7257 105.456 92.5757 106.641 92.8001 105.971ZM92.3794 105.456C93.1367 105.405 92.3233 106.177 92.3794 105.456ZM92.0989 101.541C91.8185 102.726 93.1367 101.644 92.0989 101.541ZM91.9587 91.2367C92.5196 91.3398 91.7624 91.6489 91.9587 91.2367ZM91.6782 90.5927C91.5941 90.0775 92.155 90.5927 91.6782 90.5927ZM91.5099 91.7777C91.4819 92.1898 92.0709 92.0353 91.5099 91.7777ZM91.2295 88.3516C91.6782 88.3516 90.8929 88.738 91.2295 88.3516ZM91.3697 90.9791C91.0331 92.0095 91.0892 91.6489 91.7624 92.4217C92.5196 92.7308 91.5941 92.1641 92.0989 91.6489C90.36 91.5201 93.2489 90.6185 91.3697 90.9791ZM90.6685 104.786C91.3978 104.632 90.7527 105.508 90.6685 104.786ZM90.3881 88.8668C91.1173 88.6092 90.3881 89.5108 90.3881 88.8668ZM90.2478 92.9369C91.0612 92.9111 90.1076 93.6839 90.2478 92.9369ZM89.9673 98.0115C90.6405 97.7797 89.9673 98.604 89.9673 98.0115ZM89.6869 102.571C89.9393 103.189 90.5002 102.7 89.6869 102.571ZM89.5466 103.344C89.771 104.374 90.2198 104.4 89.9673 103.344H89.6588H89.5466ZM89.2662 97.6251C90.0234 97.3675 89.2662 98.3207 89.2662 97.6251ZM89.0979 101.669C89.6588 101.669 88.8735 102.288 89.0979 101.669ZM90.6685 101.927C90.8649 104.091 89.4064 101.232 89.6869 102.7C88.4808 103.859 89.1259 103.086 90.6685 102.854C90.8929 103.421 89.4905 103.704 90.949 103.37C91.4538 102.726 90.5844 103.009 90.7527 102.133C90.7323 102.062 90.7041 101.993 90.6685 101.927ZM89.0979 90.5927C89.4625 90.9018 88.3686 92.4217 89.0979 90.5927ZM88.8174 100.227C89.3784 100.021 88.593 100.742 88.8174 100.227ZM88.6772 100.742C88.6211 101.206 89.154 100.716 88.6772 100.742ZM88.6772 97.1099C89.0698 96.8008 88.8455 97.5479 88.6772 97.1099ZM88.8174 95.925C88.5369 94.7658 89.2101 97.0069 88.8174 95.925ZM88.5369 100.897C87.2748 102.185 89.8271 101.592 88.5369 100.897ZM87.415 105.714C85.9846 105.946 90.6966 106.074 87.7516 105.765C87.3589 105.843 87.7236 104.426 87.415 105.714ZM91.3697 88.1971C92.4355 88.3001 92.7721 90.3866 92.4636 91.2882C93.0245 92.3959 92.0148 93.2975 92.3794 94.3794C92.155 94.4309 92.5757 95.6932 92.4355 96.4144C91.6782 96.6205 92.8282 98.0888 92.4355 99.248C92.4916 99.8662 92.6038 101.824 92.2672 101.232C91.1453 101.335 92.3514 102.777 92.0989 102.442C91.4538 103.06 92.6599 103.318 92.3794 103.627C92.0428 103.498 89.9954 103.679 91.6502 103.988C92.4635 103.936 92.5477 105.43 93.5013 105.199C93.2489 105.739 93.6135 105.817 94.2025 106.615C93.1647 108.109 93.4732 106.796 91.7904 107.311C89.7149 107.053 89.0698 107.568 87.1626 107.311C86.3212 106.564 88.2565 107.259 87.9479 107.105C87.1907 106.899 86.8821 105.714 86.7139 105.946C86.2932 105.997 87.3309 105.379 87.1346 105.07C89.0418 105.353 87.8077 103.138 88.8174 102.726C87.8077 103.189 88.9576 100.407 89.3784 101.412C90.5563 101.128 89.6308 100.588 89.2381 100.768C87.3589 101.103 88.593 98.3464 88.3406 96.9296C88.5369 96.3629 87.9199 95.3325 88.6772 95.0234C89.154 96.0538 89.4625 94.8173 88.593 94.7658C89.2942 94.1991 87.976 95.0234 88.3126 94.1733C88.3126 93.3748 88.3126 92.5247 88.5369 91.7777C88.0601 92.9884 89.5186 91.3398 88.9857 91.855C88.1443 91.4428 88.8174 91.1852 88.6211 90.7988C88.0601 90.4639 87.3309 90.0775 88.3967 90.8503C87.8358 91.0564 87.3029 90.4124 86.7139 90.5927C85.0871 88.7638 87.1346 88.2228 88.6211 88.2228C89.182 88.3259 90.0515 88.1713 91.3697 88.2228V88.1971Z" fill="#101010"/>
<path d="M104.777 99.4797C104.244 100.046 103.234 99.0675 104.777 99.4797C104.132 98.8614 105.057 99.1963 104.777 99.4797ZM103.767 101.283C104.328 101.103 103.599 101.721 103.767 101.283ZM103.206 97.5219C103.879 97.4189 103.178 98.0114 103.206 97.5219ZM103.066 95.693C102.168 95.2293 103.711 96.3112 103.066 95.693ZM102.225 97.2386C102.785 97.2128 102.056 97.6765 102.225 97.2386ZM101.944 98.2947C102.393 98.1402 101.86 98.8614 101.944 98.2947ZM101.495 95.5642C102.056 95.3581 101.271 96.0794 101.495 95.5642ZM100.486 105.739C101.159 105.482 100.486 106.306 100.486 105.739ZM100.486 105.482C100.906 105.173 100.486 105.868 100.486 105.482ZM98.915 106.126C99.1113 106.95 100.317 107.594 100.037 106.692C99.7844 106.744 99.6442 106.641 99.2515 106.538C98.9991 106.383 99.5039 105.92 98.915 106.126ZM98.915 105.456C99.7003 105.533 98.7467 106.126 98.915 105.456ZM101.776 96.337C102.449 96.8007 102.337 96.9295 101.776 96.5946C102.449 98.0629 100.009 95.2808 98.6345 97.1098C98.1577 96.0021 98.8308 97.6765 98.0735 98.6811C98.8308 100.819 103.01 98.3205 101.776 97.3931C102.365 97.3416 102.673 96.3627 101.776 96.3627V96.337ZM98.0735 105.353C98.5503 105.276 97.8492 105.971 98.0735 105.353ZM98.2138 100.639C97.6528 100.819 98.354 99.8661 98.2138 100.639ZM97.7931 101.566C97.7931 101.978 98.2138 101.231 97.7931 101.566ZM97.7931 100.639C98.354 100.639 97.5687 101.154 97.7931 100.639ZM97.7931 102.983C98.4662 102.725 97.7931 103.575 97.7931 102.983ZM97.7931 103.91C96.6151 103.55 99.0552 104.426 98.4382 103.91C98.1577 103.395 98.6345 103.447 97.7931 103.91ZM97.0919 103.395C95.97 103.807 99.0552 103.653 97.4565 103.138C97.1199 102.751 97.2882 103.189 97.0919 103.395ZM96.6431 103.91C97.0919 103.91 96.3346 104.297 96.6431 103.91ZM96.5029 104.554C97.0638 104.348 96.2785 105.07 96.5029 104.554ZM96.3627 96.2082C97.2321 95.8733 96.5309 96.9295 96.3627 96.2082ZM96.2224 101.695C96.3627 102.133 96.6431 101.489 96.2224 101.695ZM96.2224 104.683C96.6712 104.683 95.9139 105.07 96.2224 104.683ZM94.6798 104.168C94.6798 104.58 95.1005 103.859 94.6798 104.168ZM94.3994 101.566C95.381 101.309 94.8481 102.287 94.3994 101.566ZM94.3994 100.639C94.764 101.231 95.409 100.124 94.8481 100.639C94.792 101.103 94.5676 100.227 94.3994 100.639ZM94.2311 103.112C94.9883 102.777 94.2311 103.73 94.2311 103.112ZM94.2311 99.9949C95.7176 99.9949 95.1286 100.896 94.2311 99.9949ZM96.2224 95.049C97.9333 94.1732 100.065 93.5034 101.776 94.5338C102.673 94.5338 102.337 95.1005 103.318 95.2293C103.683 96.1567 105.646 97.625 105.45 99.7373C105.562 99.8918 106.123 100.562 105.534 101.18C105.085 102.107 103.403 101.309 103.346 101.644C101.944 101.309 100.43 101.85 99.0552 101.566C99.4479 101.386 98.1016 100.793 99.2796 101.025C99.504 101.103 99.2515 99.7888 98.5223 100.69C98.6906 100.69 99.1113 102.107 97.9613 101.386C97.1199 100.536 97.2602 100.948 96.4468 100.613C96.7834 101.721 96.0822 100.871 95.8017 100.639C96.0822 100.278 97.7089 99.6085 96.2505 99.9176C96.0261 100.381 94.8761 100.459 95.5493 100.51C95.0444 100.562 96.4748 101.927 95.5493 101.154C94.3152 101.412 94.9883 101.592 95.5493 101.669C95.8578 101.772 95.5212 102.133 95.2408 101.901C94.8201 102.983 96.6992 103.035 95.8017 101.824C96.6992 102.854 96.4188 101.051 97.2882 101.309C98.8028 101.721 97.8492 103.91 99.6442 104.709C101.327 105.482 102.785 104.091 103.739 102.983C106.207 101.154 105.562 105.585 104.328 105.559C104.048 106.255 103.935 105.585 103.234 106.615C102.056 107.285 100.261 107.903 98.915 107.027C98.6345 107.646 96.9797 107.079 98.5503 106.564C97.7089 106.383 98.4101 106.151 97.8492 106.667C96.6992 106.667 97.0919 106.615 96.1944 106.255C95.5419 105.839 95.0506 105.244 94.792 104.554C95.8859 104.374 95.4091 103.627 95.942 103.266C94.792 102.7 95.4651 103.472 94.6237 103.575C94.2872 103.06 94.4554 103.704 94.9603 103.91C93.3336 103.601 93.5018 101.463 93.3896 100.33C93.3896 98.8357 94.4835 97.3674 94.5115 96.7491C95.2127 96.3112 95.4371 95.4096 96.2224 95.049ZM111.873 97.3931C112.434 97.1871 111.733 97.8568 111.873 97.3931ZM111.144 102.287C110.835 103.009 112.041 102.107 111.144 102.287ZM111.003 101.18C111.705 101.077 110.947 101.695 111.003 101.18ZM110.751 97.2643C111.368 97.2128 110.386 98.0629 110.751 97.2643ZM110.583 104.013C111.228 103.756 112.462 103.55 111.985 104.451C111.031 105.482 111.985 103.679 110.442 104.554C110.106 104.477 110.33 104.039 110.583 104.039V104.013ZM110.134 102.803C110.975 102.828 109.124 103.369 110.134 102.803ZM109.124 103.756C111.62 103.575 108.283 105.662 109.685 104.529C109.966 104.58 109.545 103.859 109.124 103.756ZM109.264 104.168C108.647 104.606 109.938 104.451 109.264 104.168ZM108.816 104.967C108.647 105.404 109.405 104.889 108.816 104.967ZM108.255 105.507C108.086 105.817 109.657 106.795 108.956 106.151C109.012 105.894 109.517 105.353 108.227 105.507H108.255ZM108.255 99.6858C109.04 99.66 108.199 100.459 108.255 99.6858ZM108.086 103.344C108.535 103.163 108.171 103.936 108.086 103.344ZM107.946 100.922C108.703 100.845 107.974 101.695 107.946 100.922ZM107.778 101.85C108.367 100.69 109.349 102.803 108.058 102.287C107.778 102.133 108.311 101.901 107.778 101.85ZM106.768 105.507C107.329 106.332 107.441 104.477 106.768 105.507ZM106.768 105.095C106.404 105.507 107.217 105.095 106.768 105.095ZM112.49 94.6884C114.481 93.3231 117.594 94.2247 117.651 96.5688C117.594 97.8311 117.735 98.2432 117.23 98.8614C116.388 99.4797 115.098 99.8146 114.537 98.6039C114.173 98.1659 113.808 96.2855 113.219 97.4962C113.247 98.7069 111.817 100.021 112.209 100.896C111.172 101.515 112.826 101.978 111.564 102.133C111.424 101.566 110.358 101.721 110.639 102.03C109.966 103.833 112.406 102.107 112.041 103.627C111.957 103.395 110.358 104.142 110.891 103.086C111.284 103.807 109.349 104.632 109.853 103.344C109.012 104.013 108.928 104.013 108.591 103.859C108.199 104.116 108.311 104.76 107.778 104.297C107.946 103.524 108.451 102.159 108.956 103.447C108.872 102.906 108.143 102.803 108.647 103.524C110.442 103.524 109.461 102.751 108.816 102.391C109.966 102.159 110.134 102.751 109.825 102.081C111.144 101.515 108.479 101.978 109.433 101.283C109.489 101.103 111.228 100.021 109.18 100.768C109.32 102.004 107.217 101.386 107.778 100.33C108.03 99.8918 107.722 99.8146 107.834 98.5266C108.255 98.3463 108.255 98.7069 107.778 97.2386C107.497 96.3627 105.871 97.084 105.843 95.9248C105.31 94.7399 106.684 94.0701 107.806 94.3277C108.956 94.2504 109.068 94.4308 110.555 94.1989C111.564 94.508 111.508 96.337 112.434 94.7656L112.49 94.7141V94.6884ZM107.666 104.554C108.928 104.812 109.909 105.971 109.797 105.173C110.47 105.353 109.994 104.683 110.302 104.58C111.789 104.657 109.713 105.276 111.508 105.636C110.386 104.348 113.107 104.76 113.556 105.25C113.387 104.426 114.818 105.92 114.734 106.177C115.295 107.13 113.443 106.641 114.06 106.873C114.257 107.465 112.882 107.156 113.78 106.615C113.5 106.667 112.153 106.151 112.939 106.744C113.948 107.517 110.975 106.898 109.292 107.414C107.75 107.259 107.133 107.8 106.095 106.898C105.59 106.048 106.796 106.976 107.077 106.177C105.983 105.92 106.179 106.486 105.955 105.714C105.815 105.198 108.451 106.873 108.367 105.636C107.694 105.585 106.936 105.585 107.806 104.992C108.451 104.992 107.862 104.812 107.666 104.554ZM105.758 105.25C105.422 105.894 106.712 104.967 105.758 105.25ZM131.674 95.4354C131.899 94.4565 132.319 95.4869 131.674 95.4354ZM131.113 96.2082C131.59 96.6203 130.412 96.3112 131.113 96.2082ZM130.412 96.8522C130.188 97.4447 131.253 96.6719 130.496 96.7749L130.412 96.8522ZM129.122 97.2643C129.683 97.0583 128.954 97.6765 129.122 97.2643ZM129.262 98.0371C128.084 99.016 130.664 97.5219 128.841 97.6507L129.262 98.0371ZM128.561 98.1659C129.122 98.0887 128.393 98.6038 128.561 98.1659ZM128.421 94.3792C129.038 93.9671 130.496 94.8429 128.701 94.8944C129.374 94.0444 127.131 95.2293 128.421 94.3792ZM127.972 98.5523C128.477 97.8568 128.561 98.8099 127.972 98.5523ZM127.804 102.468C128.28 102.313 127.72 103.035 127.804 102.468ZM127.523 94.9202C127.439 95.4354 128.308 94.8172 127.523 94.9202ZM127.383 95.8218C127.383 96.234 127.804 95.5127 127.383 95.8218ZM127.243 96.0794C126.934 96.6976 128.168 95.8218 127.243 96.0794ZM127.102 101.309C127.523 100.974 127.102 101.721 127.102 101.309ZM126.962 101.566C127.86 101.437 127.187 102.262 126.962 101.566ZM126.822 94.6368C127.607 94.8172 126.682 93.9671 126.822 94.6368ZM125.139 95.693C126.57 95.8476 124.775 96.8522 125.42 95.8218C125.335 95.7188 125.223 95.693 125.139 95.693ZM124.859 104.709C124.803 105.611 126.037 104.348 125.476 104.786C124.831 104.863 125.644 104.219 124.831 104.683L124.859 104.709ZM124.859 103.241C125.279 103.163 124.746 103.885 124.859 103.241ZM124.69 95.9506C124.831 95.8733 125.392 96.2855 124.69 95.9506ZM124.55 98.6811C124.999 98.6811 124.214 99.0675 124.55 98.6811ZM124.831 95.3066C123.989 95.3066 124.859 94.7399 124.831 95.3066ZM124.41 101.824C124.831 101.515 124.41 102.21 124.41 101.824ZM124.41 97.5219C123.989 98.4493 125.251 98.6038 124.41 97.5219ZM124.129 102.597C124.41 102.339 124.129 102.983 124.129 102.597ZM123.989 108.47C124.578 108.367 125.672 107.8 124.775 107.903C124.485 108.057 124.221 108.248 123.989 108.47ZM123.989 95.1778C125.111 94.9975 124.354 95.8218 123.989 95.1778ZM123.989 99.6085C124.438 99.6085 123.653 99.9949 123.989 99.6085ZM123.849 101.927C124.438 101.592 124.354 102.313 123.849 101.927ZM123.849 98.1659C124.101 98.8357 124.298 97.728 123.849 98.1659ZM123.989 101.154C123.793 101.772 126.233 100.896 124.971 102.262C123.681 102.107 125.924 103.035 125.223 101.721C126.149 102.391 125.812 101.206 124.971 101.025C124.606 101.412 124.354 100.922 123.989 101.154ZM123.428 96.7234C123.849 96.44 123.428 97.1355 123.428 96.7234ZM122.699 97.9083C122.699 98.3205 123.12 97.5992 122.699 97.9083ZM122.699 97.0067C123.176 96.8522 122.643 97.5219 122.699 97.0067ZM122.138 110.917C122.559 110.659 122.138 111.329 122.138 110.917ZM121.717 97.3931C122.194 97.2386 121.633 97.9341 121.717 97.3931ZM121.577 95.5642C121.493 96.1052 122.054 95.4096 121.577 95.5642ZM120.287 107.671C121.493 107.105 121.184 108.264 120.287 107.671ZM120.147 96.7234C120.848 96.4658 120.175 97.3159 120.147 96.7234ZM120.567 95.5642C119.67 95.3581 120.203 95.9506 120.567 95.5642ZM119.726 109.243C120.287 109.037 119.502 109.758 119.726 109.243ZM119.586 96.3627C120.063 96.2855 119.361 96.981 119.586 96.3627ZM119.446 109.114C119.894 109.114 119.109 109.5 119.446 109.114ZM119.165 95.1778C118.997 94.4308 119.614 95.0232 119.165 95.1778ZM119.025 109.243C119.698 109.062 118.829 109.835 119.025 109.243ZM119.446 109.758C118.492 110.943 119.558 109.784 119.978 109.732C119.67 109.629 119.025 108.985 119.446 109.758ZM119.726 94.3792C121.97 94.1732 120.624 94.6368 119.866 94.7399C119.754 94.4823 120.96 95.4869 121.269 94.6368C120.091 94.0701 123.008 94.8429 122.306 94.508C122.362 93.9928 123.849 94.7656 122.503 95.152C123.372 95.152 122.447 96.2855 122.222 95.4096C121.213 95.2808 121.998 94.3535 121.241 95.3066C121.184 94.946 120.399 95.4612 120.371 95.1005C120.091 95.1778 119.558 95.5642 118.885 95.3066C118.52 95.6672 118.043 94.946 118.885 94.6884L119.726 94.3792ZM123.288 94.2504C124.522 94.3792 123.484 94.7656 123.849 95.0232C124.158 93.8125 124.831 94.5596 125.392 95.2036C125.784 95.5384 124.186 95.4096 124.69 95.5642C124.186 95.6415 122.559 95.9506 123.989 95.9506C124.41 97.8568 123.344 96.337 124.045 97.8311C124.578 98.0887 122.951 97.9856 123.456 97.8311C123.456 97.9341 121.549 97.5219 122.699 98.0371C120.511 97.084 123.709 99.3509 122.811 98.1917C122.951 97.9599 123.905 98.0887 123.625 98.5781C123.148 98.7584 123.961 99.2994 123.569 98.7069C124.466 97.8568 123.849 99.8146 124.242 98.8099C124.158 97.2901 126.878 100.793 124.634 100.227C123.737 99.5054 123.989 100.613 124.831 100.381C125.616 99.0418 126.205 102.03 126.149 101.412C126.373 101.875 127.215 100.948 126.822 100.51C126.99 100.278 127.102 98.4751 127.944 99.1706C127.439 98.7326 128.252 97.3674 128.505 98.0371C129.094 97.5477 127.776 97.5735 128.673 97.084C130.272 96.7491 128.701 96.1052 128.168 96.6203C127.355 96.1309 127.663 96.1567 128.196 95.7703C128.701 95.5127 130.496 96.2082 129.963 95.8991C129.823 95.7703 128.477 94.7914 129.402 95.3839C130.075 94.8944 131.506 95.693 131.646 94.9202C132.656 94.5596 132.768 96.2082 131.646 96.6719C130.075 96.7234 130.496 98.2175 129.599 97.9599C129.234 98.3463 130.861 98.2175 129.795 98.5523C127.663 99.2478 128.505 98.372 129.795 98.5523C129.515 99.9949 128.757 101.566 128.028 103.292C127.972 104.683 126.682 103.241 127.271 104.451C126.738 105.121 127.187 105.301 126.598 106.28C126.766 106.821 125.588 107.826 125.981 107.955C124.943 109.217 125.111 109.629 123.569 110.788C123.484 110.608 122.671 111.046 121.97 111.406C121.044 111.922 119.165 111.252 119.249 110.582C118.408 110.453 118.941 109.681 118.324 109.371C118.52 108.083 118.969 105.585 121.297 107.233C121.942 108.47 122.559 109.655 123.316 107.491C123.961 106.461 124.298 105.353 123.597 104.297C123.456 102.88 123.4 103.601 124.494 103.138C124.775 103.163 123.905 102.519 123.849 102.983C123.709 102.597 122.531 102.494 123.204 102.931C124.073 103.601 122.25 103.086 122.839 102.468C122.25 101.953 121.802 100.871 121.437 99.9949C122.334 100.613 121.241 99.5827 121.213 99.557C120.904 99.2736 121.353 98.0371 120.876 98.9387C120.315 98.1144 120.455 97.728 120.035 97.2643C119.502 96.5431 118.492 96.7491 118.352 95.8991C117.819 95.5642 119.389 95.4354 118.829 95.7188C120.091 95.4612 120.988 95.796 122.026 96.0279C123.008 96.1052 124.073 95.0748 123.428 95.0748C122.082 94.7656 124.27 94.7399 123.288 94.2504ZM145.445 104.142C145.109 104.529 145.866 104.142 145.445 104.142ZM143.847 96.7491C144.688 96.5946 143.51 97.3674 143.847 96.7491ZM143.286 97.7795C144.604 98.3463 143.51 99.3766 143.286 97.7795ZM142.164 95.7188C142.22 96.1309 144.52 97.1613 143.23 96.0536C142.669 95.4096 143.594 95.6672 142.136 95.693L142.164 95.7188ZM141.603 107.053C142.024 106.77 141.603 107.465 141.603 107.053ZM140.761 95.3066C140.874 94.6626 141.799 96.1309 140.761 95.3066ZM140.06 106.512C140.565 105.842 140.593 107.336 140.06 106.512ZM139.92 96.1052C139.331 95.8991 141.911 96.4915 141.042 95.8218C140.733 95.5384 140.341 96.3885 139.92 96.0794V96.1052ZM138.91 106.667C139.135 106.924 140.257 106.512 139.612 106.409C139.612 107.156 138.714 105.894 138.91 106.667ZM138.63 95.59C139.948 95.8733 138.462 96.8779 138.63 95.59ZM138.63 106.667C139.191 106.615 138.462 107.105 138.63 106.667ZM137.929 95.7188C138.209 95.152 138.686 96.0021 137.929 95.7188ZM138.349 106.538C136.386 106.795 139.836 106.358 138.434 106.461L138.377 106.486L138.349 106.538ZM138.349 97.9341C137.704 97.8568 138.069 99.8403 137.788 100.922C137.424 101.618 138.49 102.803 137.508 102.983C138.013 103.807 138.406 105.559 140.032 105.044C140.677 105.044 140.229 104.477 140.93 104.194C142.192 102.468 141.771 100.201 141.322 98.269C141.126 97.4962 139.976 96.4143 139.051 97.1613L138.63 97.4704L138.349 97.9341ZM137.228 89.8455C137.087 89.2788 138.069 89.691 137.228 89.8455ZM137.059 88.506C137.873 88.506 137.732 89.2788 137.34 89.0212C137.171 88.9439 136.975 88.7636 137.059 88.506ZM136.779 91.1335C137.48 90.9017 136.807 91.726 136.779 91.1335ZM136.779 90.1031C137.62 90.0774 136.639 90.8244 136.779 90.1031ZM136.218 100.149C136.891 99.8918 136.218 100.716 136.218 100.149ZM136.218 92.3185C136.835 92.8852 136.021 93.2458 136.218 92.3185ZM136.078 96.1052C136.526 96.1052 135.741 96.4915 136.078 96.1052ZM135.937 89.2015C135.993 89.7682 137.256 89.3561 135.937 89.2015ZM135.657 87.9908C135.573 88.5318 136.106 87.8363 135.657 87.9908ZM136.498 87.862C138.181 88.4803 136.554 87.862 136.807 88.8409C136.807 89.6394 136.274 88.9182 136.246 88.5833C136.246 89.3561 135.124 88.4803 136.162 88.1196C135.797 87.9651 136.218 87.7332 136.498 87.862ZM135.376 89.5879C136.414 89.8713 135.825 88.9697 135.376 89.5879ZM135.517 89.0727C135.573 88.5318 135.04 89.1758 135.517 89.0727ZM135.236 89.2015C135.096 89.6394 135.797 88.9955 135.236 89.2015ZM135.517 103.266C136.639 103.112 134.591 103.447 135.517 103.266ZM135.096 94.6626C135.545 94.508 134.984 95.2293 135.096 94.6626ZM134.928 91.4169C135.629 91.2881 134.9 91.9063 134.928 91.4169ZM134.787 88.6348C135.825 89.2531 134.872 88.0166 134.787 88.6348ZM134.787 104.709C135.348 104.503 134.675 105.147 134.787 104.709ZM134.647 96.4658C135.376 96.6719 135.769 95.796 134.815 96.4658H134.647ZM134.507 90.3607C135.433 90.0258 134.787 91.082 134.507 90.3607ZM134.367 89.7167C134.507 90.3607 134.815 89.2788 134.367 89.7167ZM134.226 91.7775C134.956 91.3654 134.283 92.473 134.226 91.7775ZM134.367 92.9625C133.133 92.8337 135.657 93.0655 134.647 93.2201C135.32 93.8125 136.274 93.117 135.124 93.014C134.283 92.8079 135.04 92.6791 134.226 92.7049L134.367 92.9625ZM134.367 91.2623C135.264 90.8759 133.637 91.7775 134.367 91.2623ZM133.806 87.9908C133.722 88.5318 134.283 87.8363 133.806 87.9908ZM133.666 106.641C134.647 105.868 133.525 107.517 133.666 106.641ZM133.385 88.506C134.283 87.8363 134.787 88.8151 134.872 89.2788C134.423 89.9486 134.114 88.3772 134.226 89.3303C133.245 88.7636 133.946 90.0001 133.525 88.8924C133.413 88.7894 133.329 88.6863 133.385 88.506ZM131.702 88.2484C132.74 87.7847 133.974 88.0166 133.217 88.8151C133.497 89.3818 132.235 88.7121 133.385 89.4591C134.535 89.5879 132.936 90.0774 134.03 89.8713C134.591 89.8713 135.096 90.0774 135.517 89.8455C136.919 89.8455 136.779 89.5879 137.199 89.3818C138.153 88.7894 137.284 90.5668 137.76 90.541C138.013 91.9578 137.508 93.8898 137.76 94.9975C138.742 95.1005 138.966 93.9413 140.481 94.0186C144.071 93.4519 146.203 97.1098 146.231 99.7888C145.754 100.459 146.567 100.175 146.231 101.334C145.754 101.463 146.511 101.592 146.231 102.004C146.567 102.957 145.165 104.013 145.221 104.323C145.361 104.58 144.688 106.435 143.314 106.641C142.332 107.646 140.761 107.362 139.471 107.594C138.966 107.311 137.845 106.512 138.77 107.079C138.041 107.8 137.199 106.358 136.695 105.945C135.853 105.585 135.629 107.388 134.591 107.311C132.768 107.053 133.273 106.1 133.329 105.276C133.609 103.395 133.329 101.231 134.03 99.557C134.311 99.1448 133.75 99.2736 134.283 99.1448C132.628 97.7023 133.385 93.4777 134.507 93.4261C133.385 93.5807 133.946 91.9836 134.675 92.4988C132.992 92.4988 134.114 91.4169 133.525 90.6183C134.002 90.4638 132.123 88.9182 133.105 90.3607C131.422 90.0258 132.039 89.15 132.544 89.3303C133.217 89.0727 131.955 88.7121 132.151 89.2531C131.674 89.047 131.59 88.7379 131.674 88.2484M160.226 102.391C159.721 102.571 160.451 102.725 160.226 102.391ZM158.235 103.524C158.067 103.936 158.796 103.447 158.235 103.524ZM158.235 103.266C157.197 103.91 159.469 103.962 159.357 103.885C158.74 103.756 159.834 103.292 159.048 103.575C158.291 103.679 159.16 102.854 158.431 103.215C158.375 103.241 158.319 103.318 158.235 103.241V103.266ZM157.814 104.554C158.291 104.503 157.59 105.173 157.814 104.554ZM156.973 97.7795C157.534 97.4704 157.057 98.4235 156.973 97.7795ZM156.692 102.339C156.917 102.931 157.478 102.468 156.692 102.339ZM156.692 103.112C157.674 103.447 156.496 104.863 156.692 103.112ZM156.244 97.3931C157.001 97.1355 156.244 98.0629 156.244 97.3931ZM155.963 105.07C155.346 104.4 158.263 105.121 155.963 105.07ZM155.402 94.6368C155.991 96.5173 155.514 95.4096 156.131 95.152C156.748 95.2551 155.57 94.6368 155.402 94.6368ZM154.561 95.5642C155.094 95.3581 154.392 96.0021 154.561 95.5642ZM154.392 105.611C157.085 105.353 155.29 106.126 154.392 105.611ZM153.972 94.7914C153.214 95.8733 155.823 95.2808 154.617 95.049C154.421 94.946 154.196 94.8429 153.972 94.7914ZM153.972 106.512C152.85 107.13 154.505 106.564 154.925 106.795C155.57 106.512 154.084 106.692 153.972 106.512ZM153.271 95.1778C153.663 94.9717 153.383 95.6157 153.271 95.1778ZM153.411 105.868C153.972 106.306 152.289 107.491 153.944 105.997C154.112 105.817 154.14 105.121 153.383 105.868H153.411ZM152.401 94.2762C152.401 94.6626 152.822 93.9413 152.401 94.2762ZM152.121 97.2643C151.784 97.6507 152.569 97.2643 152.121 97.2643ZM151.98 94.9202C153.327 94.7399 151.98 95.2551 152.429 95.4354C153.214 95.7445 151.672 95.4354 151.98 94.9202ZM151.98 103.91C151.195 104.168 152.205 103.55 151.98 103.91ZM151.7 104.683C152.261 104.786 151.532 105.07 151.7 104.683ZM151.7 97.7795C151.532 98.2175 152.261 97.7023 151.7 97.7795ZM150.999 104.683C151.56 104.632 151.616 105.894 150.999 104.683ZM150.999 105.714C151.784 106.048 150.999 105.173 150.999 105.714ZM150.438 104.426C151.167 104.091 150.438 105.018 150.438 104.426ZM150.438 104.812C151.083 104.529 150.157 105.353 150.438 104.812ZM150.27 101.953C151.111 102.494 152.093 102.983 151.195 102.133C150.887 101.875 150.634 102.416 150.27 101.953ZM149.709 105.714C149.372 106.126 150.157 105.714 149.709 105.714ZM149.288 105.585C149.12 106.023 149.849 105.533 149.288 105.585ZM149.568 104.554C148.811 105.301 150.802 105.07 149.288 104.374C148.895 104.683 149.4 104.529 149.568 104.554ZM149.709 101.953C149.007 102.545 147.857 102.725 149.596 102.725C149.821 102.803 151.139 103.163 150.999 102.725C150.466 102.365 149.933 102.931 149.596 102.21C149.765 102.365 150.129 102.004 149.709 101.953ZM148.306 103.91C149.428 103.73 148.503 104.039 149.596 103.885C150.578 104.529 149.512 103.447 150.27 103.782C151.56 104.657 150.241 103.06 149.652 103.575C149.681 104.297 148.867 102.648 148.306 103.91ZM148.026 103.138C148.727 102.957 148.082 103.833 148.026 103.138ZM147.857 102.725C148.026 102.133 148.811 103.009 147.857 102.725ZM153.271 93.9928C155.486 93.4777 154.477 95.0232 155.094 94.508C155.346 93.8641 155.57 94.5338 156.945 94.6884C157.646 94.9975 157.225 95.1778 158.515 95.7703C159.132 96.337 159.693 96.7491 159.918 97.6507C160.899 98.4493 160.338 99.557 160.647 100.51C159.525 99.4024 161.657 102.313 159.918 101.283C160.338 102.236 160.367 101.437 160.647 102.056C160.086 102.674 160.647 102.597 159.918 102.854C159.245 102.725 159.076 102.442 158.796 101.953C159.637 101.695 158.796 102.828 159.918 102.339C159.806 101.36 158.936 100.793 159.525 101.695C158.235 101.592 158.684 102.571 159.301 102.983C160.367 103.447 160.423 102.597 160.058 103.756C159.217 104.606 159.834 104.374 159.076 105.327C158.964 105.507 157.73 106.667 156.664 107.027C156.187 106.667 154.813 107.826 153.719 107.414C153.439 106.564 153.046 107.929 152.149 107.233C151.7 106.538 151.307 106.048 151.7 107.156C150.354 106.641 151.476 106.203 150.354 106.564C149.512 105.842 150.915 105.095 149.624 105.533C149.849 104.967 148.783 105.173 149.007 105.25C149.007 105.327 147.998 103.704 147.633 102.571C148.895 101.978 147.998 102.571 147.268 101.824C147.437 101.18 146.904 100.33 147.605 98.4235C147.998 96.5173 149.484 95.1778 151.419 94.3792C150.802 94.7656 153.495 94.0186 152.906 94.7656C151.363 94.6368 152.373 94.7141 151.419 95.1778C151.083 94.5338 151.391 96.2082 152.093 95.693C151.952 95.6415 152.654 96.337 152.261 96.4658C150.943 95.693 152.121 97.2128 151.307 96.6461C149.765 96.9552 152.177 96.7749 151.672 97.6507C151.139 97.6507 150.69 97.5477 150.83 98.1659C150.354 98.3205 150.241 98.9902 150.55 98.2947C150.971 98.8872 149.709 99.4797 150.83 99.3251C151.391 99.1963 151.139 98.6038 151.84 98.4235C150.55 98.2175 152.401 98.1659 152.008 98.9387C151.504 100.227 151.728 101.515 151.84 102.854C151.111 102.777 153.158 104.863 151.391 104.323C151.952 104.735 154.561 104.941 152.682 105.714C152.934 105.25 151.812 106.306 151.419 105.585C150.746 104.297 149.737 106.28 151.419 105.842C151.868 105.121 152.906 108.006 152.682 105.791C153.018 105.92 154.645 105.404 154.14 105.198C154.645 104.863 154.421 105.971 154.589 105.044C154.869 103.756 156.636 103.292 156.075 102.931C155.879 102.313 157.365 102.983 157.814 102.803C156.692 103.782 158.656 103.06 157.814 102.107C157.702 100.974 157.337 103.601 157.113 102.184C157.87 102.107 156.075 101.927 156.44 102.262C155.234 102.931 156.72 99.9691 156.72 100.768C157.281 100.201 156.356 100.716 156.44 100.562C156.58 99.8146 156.244 100.278 156.047 99.016C156.131 98.3463 155.318 97.3674 155.963 96.8522C155.683 96.1309 151.812 97.1355 152.205 96.5946C152.99 96.5946 153.158 96.4143 153.13 95.9506C153.944 95.7188 152.205 94.946 153.551 94.7656C153.102 95.2551 154.505 94.3792 153.018 94.2504C152.597 94.0701 153.102 94.0444 153.271 93.9928ZM173.661 106.795C174.25 106.589 173.437 107.311 173.661 106.795ZM172.511 105.739C172.96 105.559 172.595 106.306 172.511 105.739ZM172.511 94.8172C173.633 96.0279 173.24 94.302 172.511 94.8172ZM172.371 105.585C172.82 105.585 172.006 105.997 172.371 105.585ZM171.922 107.182C171.922 107.62 172.371 106.873 171.922 107.182ZM172.062 105.868C171.838 106.151 172.399 107.542 172.343 106.641C171.445 106.461 173.661 106.048 172.062 105.868ZM171.782 105.07C172.623 104.915 171.754 105.842 171.782 105.07ZM171.782 104.812C172.483 104.554 171.782 105.404 171.782 104.812ZM171.642 95.2293C172.034 95.0748 171.473 95.59 171.642 95.2293ZM170.912 94.5596C170.688 95.0748 171.473 94.3535 170.912 94.5596ZM170.351 97.7538C170.968 98.1402 169.987 98.4751 170.351 97.7538ZM170.183 95.6157C170.548 96.234 170.772 95.1778 170.183 95.6157ZM169.903 98.1402C170.379 97.9856 169.818 98.7069 169.903 98.1402ZM169.622 96.6719C170.099 96.6203 169.398 97.3159 169.622 96.6719ZM169.454 106.538C170.015 106.435 169.37 106.847 169.454 106.538ZM169.173 97.625C169.594 97.8568 170.94 97.2643 170.099 97.4704C169.678 97.8568 169.818 96.9552 169.173 97.625ZM169.033 101.592C169.51 101.437 168.921 102.159 169.033 101.592ZM168.584 105.868C168.472 106.898 168.977 105.945 168.753 107.336C170.071 107.646 169.173 106.023 168.837 106.048C168.669 106.255 168.697 105.945 168.584 105.868ZM169.033 98.8099C170.015 98.3978 167.519 99.4282 169.033 98.8099ZM168.472 101.592C169.033 101.515 168.276 102.056 168.472 101.592ZM168.304 98.6811C168.669 98.5781 168.192 99.2478 168.304 98.6811ZM168.023 100.948C168.444 100.613 168.023 101.36 168.023 100.948ZM167.575 100.407C168.108 100.407 167.35 101.128 167.575 100.407ZM167.154 100.278C167.631 100.227 166.93 100.922 167.154 100.278ZM166.873 101.051C166.958 101.515 167.07 102.648 167.294 102.004C168.051 101.695 168.192 101.103 167.434 101.36C167.238 101.231 167.042 101.18 166.873 101.077V101.051ZM166.593 99.3509C167.547 98.8614 166.621 99.8661 167.322 99.4282C168.612 99.1706 166.817 98.913 166.565 99.3509H166.593ZM166.425 98.8099C166.817 98.3978 167.098 99.3251 166.425 98.8099ZM166.144 99.0675C166.256 98.372 166.537 99.9176 166.144 99.0675ZM166.565 96.8264C165.808 97.4189 167.322 97.5992 166.93 98.1659C166.649 98.269 165.808 98.6811 166.705 98.5523C167.911 98.2175 167.491 98.8099 168.669 98.4235C169.482 98.6811 169.117 97.5992 168.388 98.0371C167.547 98.7326 169.145 95.5127 166.565 96.8264ZM165.836 100.536C165.639 100.948 166.341 100.51 165.836 100.536ZM165.836 101.206C166.397 101.154 165.555 101.953 165.836 101.206ZM166.004 95.0748C166.004 95.693 167.631 96.5431 167.238 95.3324C166.958 95.4612 166.509 96.1824 166.425 95.4869C166.873 95.6672 166.817 95.2293 166.649 95.1263C165.892 95.7188 166.144 93.9156 166.004 95.0748ZM165.555 100.536C166.116 101.206 167.575 99.9434 165.836 100.356L165.555 100.536ZM165.415 103.885C164.265 104.529 166.256 106.048 166.144 105.301C167.967 105.482 166.986 103.292 165.752 103.704L165.471 103.833L165.415 103.885ZM164.854 106.538C164.321 106.048 166.088 105.868 164.854 106.538ZM164.686 95.7445C165.163 95.59 164.574 96.3112 164.686 95.7445ZM164.686 95.3581C164.686 95.7703 165.107 95.049 164.686 95.3581ZM164.826 96.8264C165.583 97.7023 163.872 97.5735 164.77 97.8311C165.359 97.4189 165.948 97.084 164.826 96.8007V96.8264ZM163.816 96.0279C164.658 95.9506 163.676 95.8733 164.265 95.3581C163.536 95.1778 163.34 94.9975 163.816 96.0279ZM163.255 98.4235C164.91 97.625 164.209 97.5477 163.255 98.4235ZM163.255 98.6811C162.582 98.6811 163.48 99.3251 163.255 98.6811ZM162.807 98.5523C162.47 98.913 163.283 98.7069 162.807 98.5523ZM162.807 95.2036C164.518 96.3885 161.601 95.4612 163.087 95.6157C163.087 95.4612 162.694 95.4354 162.807 95.2293V95.2036ZM163.087 97.084C161.236 97.8826 163.732 97.7795 163.283 96.981L163.087 97.084ZM162.246 96.8264C163.368 96.5946 162.134 97.5992 162.246 96.8264ZM162.077 95.6157C161.909 96.0536 162.638 95.5642 162.077 95.6157ZM162.077 96.0279C162.526 96.0279 161.741 96.4143 162.077 96.0279ZM161.516 94.6884C161.488 95.1005 161.797 94.4308 161.516 94.6884ZM160.787 105.327C161.685 106.358 162.105 105.044 161.264 105.07L160.787 105.327ZM159.918 94.8172C160.142 94.8172 161.292 94.3792 161.012 94.7399C160.31 95.2551 163.227 94.5853 161.685 95.2293C160.282 94.9717 162.162 96.1309 161.012 95.7703C159.441 95.6157 161.068 96.6719 161.797 95.7703C160.731 95.3324 163.676 95.7703 162.358 96.4915C162.077 96.5431 163.592 96.4915 163.676 95.7445C163.227 94.8687 162.947 95.4869 162.274 94.7399C162.302 94.5853 164.826 94.4823 163.957 94.6626C162.554 95.2293 165.359 94.946 164.237 95.2293C165.247 95.4096 165.359 96.7749 165.527 96.2597C165.667 95.8991 166.369 95.8991 165.948 95.5642C164.546 95.4612 164.546 93.7868 167.07 94.9717C166.873 95.9506 167.967 94.1989 167.855 94.7141C168.64 94.6368 169.734 94.5596 170.744 94.8429C170.968 94.5853 169.005 95.5384 170.099 95.1005C171.361 94.8687 170.379 95.4612 170.099 95.59C170.099 95.693 167.575 95.8991 167.939 95.4354C167.659 95.3066 167.042 95.1005 167.715 95.4869C167.098 96.2597 167.827 95.4612 168.612 96.0021C168.248 96.1824 170.856 95.6672 171.193 95.8733C170.744 96.6203 172.034 95.9248 172.651 96.3885C173.268 95.0748 173.184 96.44 172.174 96.0279C172.427 95.8733 172.371 95.1005 171.557 95.6415C171.193 95.6672 170.323 95.2293 171.613 94.7141C172.399 94.5596 172.539 96.1309 173.296 95.4869C173.38 95.796 174.11 96.5946 173.1 96.9037C171.642 97.1613 170.884 97.7795 170.772 98.5266C170.155 98.913 168.977 99.7888 169.37 101C169.875 102.107 170.688 102.339 171.557 103.807C172.146 104.426 172.679 105.147 173.38 105.07C175.821 107.98 171.698 107.182 169.622 107.336C168.893 107.259 167.575 107.594 166.621 107.182C165.808 106.795 164.125 107.671 162.947 107.439C161.488 107.259 159.02 107.955 159.974 105.714C159.778 104.426 162.134 105.121 162.442 103.833C163.003 102.906 164.461 102.004 164.574 101.025C163.788 100.356 164.714 100.252 163.648 100.304C163.171 99.4024 163.031 98.5523 163.929 99.5312C165.05 99.1706 166.228 99.7115 165.191 99.0675C164.237 98.7842 164.826 98.8099 163.76 99.1448C162.582 98.0114 164.854 99.0418 164.265 98.3978C165.611 99.1448 164.854 97.9083 166.144 98.8099C167.042 97.8311 165.078 98.7584 165.275 97.7538C164.658 98.5008 164.63 98.372 164.377 97.8568C164.293 97.4962 163.648 97.2386 163.957 97.5992C163.227 98.1659 162.919 98.7069 162.554 98.372C163.872 97.8568 162.442 97.4447 162.526 98.269C162.246 96.6719 161.124 97.8568 160.002 95.7445C159.946 95.2808 160.843 95.9506 160.815 94.9975C159.637 95.3324 161.208 94.4308 159.918 94.8172Z" fill="#101010"/>
</svg>
