<svg width="40" height="40" viewBox="0 0 40 40" fill="none" xmlns="http://www.w3.org/2000/svg">
<rect width="40" height="40" rx="12" fill="#9E499B"/>
<path d="M14.62 18.4234H21.6558C21.9772 18.3713 22.2204 18.1021 22.2204 17.772C22.2204 17.4158 21.9251 17.1205 21.569 17.1205H14.5331C14.2118 17.1726 13.9685 17.4419 13.9685 17.772C13.9685 18.1281 14.2639 18.4234 14.62 18.4234Z" fill="#F7CAF5"/>
<path d="M14.62 15.3833H17.3127C17.6341 15.3312 17.8773 15.0619 17.8773 14.7318C17.8773 14.3757 17.582 14.0803 17.2259 14.0803H14.5331C14.2118 14.1325 13.9685 14.4017 13.9685 14.7318C13.9685 15.0879 14.2639 15.3833 14.62 15.3833Z" fill="#F7CAF5"/>
<path d="M29.4561 29.8458L27.5711 25.3724C28.0749 24.6428 28.3703 23.7568 28.3703 22.8013C28.3703 20.9598 27.2671 19.3789 25.6949 18.6667V13.316C25.6949 12.456 25.3475 11.6222 24.7394 11.0141L22.6808 8.95548C22.0728 8.34745 21.2389 8 20.379 8H13.7514C11.9533 8 10.494 9.45928 10.494 11.2573V21.6808C10.494 23.4788 11.9533 24.9381 13.7514 24.9381H19.823C20.1965 25.6243 20.7264 26.215 21.3866 26.6319L21.152 31.0706C21.1433 31.3138 21.265 31.5483 21.4821 31.6699C21.6993 31.7915 21.9598 31.7829 22.1683 31.6439L23.2367 30.9316L24.114 31.8089C24.2356 31.9305 24.4007 32 24.5744 32C24.6526 32 24.7308 31.9826 24.8089 31.9566C25.0521 31.861 25.2085 31.6352 25.2259 31.3833L25.2432 30.9837L25.4778 31.5831C25.5646 31.8176 25.7818 31.9826 26.0337 32C26.0511 32 26.0684 32 26.0858 32C26.3203 32 26.5375 31.8784 26.6504 31.6699L27.4061 30.3496L28.6743 30.7144C28.9088 30.7839 29.1781 30.7144 29.3431 30.5234C29.5082 30.3323 29.5516 30.0717 29.4561 29.8371V29.8458ZM23.8187 11.9349C24.0532 12.1694 24.2183 12.4647 24.3051 12.7774H21.8904C21.3431 12.7166 20.9175 12.2562 20.9175 11.6916V9.38979C21.2302 9.47666 21.5255 9.64169 21.7601 9.87622L23.8187 11.9349ZM13.7514 23.6352C12.6743 23.6352 11.797 22.7579 11.797 21.6808V11.2573C11.797 10.1802 12.6743 9.30293 13.7514 9.30293H19.6146V11.8393C19.6927 13.0901 20.7351 14.0803 22.0033 14.0803H24.392V18.3018C24.2009 18.2758 24.0098 18.241 23.8187 18.241C22.2899 18.241 20.9436 19.0054 20.1184 20.1607H14.5331C14.2117 20.2128 13.9685 20.4821 13.9685 20.8122C13.9685 21.1683 14.2639 21.4636 14.62 21.4636H19.4843C19.354 21.8893 19.2584 22.3323 19.2584 22.7926C19.2584 23.0793 19.2932 23.3572 19.3453 23.6352H13.7514ZM20.5614 22.7926C20.5614 21.0033 22.0207 19.544 23.81 19.544C25.5994 19.544 27.0587 21.0033 27.0587 22.7926C27.0587 24.582 25.5994 26.0413 23.81 26.0413C22.0207 26.0413 20.5614 24.582 20.5614 22.7926ZM23.9924 29.8632L23.7666 29.6374C23.5494 29.4202 23.202 29.3855 22.9414 29.5592L22.5071 29.8458L22.6461 27.1878C23.0196 27.2834 23.4018 27.3529 23.8013 27.3529C23.9056 27.3529 24.0098 27.3268 24.114 27.3181L23.9837 29.8632H23.9924ZM27.2671 28.9685C26.9805 28.8817 26.6678 29.0119 26.5201 29.2725L26.19 29.8458L25.4256 27.8567H25.3996L25.443 27.0402C25.8513 26.8838 26.2335 26.658 26.5722 26.3974L27.7101 29.1075L27.2584 28.9772L27.2671 28.9685Z" fill="#F7CAF5"/>
</svg>
