<svg width="200" height="200" viewBox="0 0 200 200" fill="none" xmlns="http://www.w3.org/2000/svg">
<path d="M4 72.8879H13.8856V115.776H29.4125V125.489H4V72.8879Z" fill="black"/>
<path d="M48.6656 72C51.8273 72 54.5342 72.6172 56.7863 73.8515C59.0276 75.0859 60.8792 76.8616 62.3192 79.1896C63.7593 81.5067 64.8204 84.3543 65.4809 87.7217C66.1522 91.0891 66.4771 94.9005 66.4771 99.1449C66.4771 103.389 66.1414 107.19 65.4809 110.557C64.8096 113.914 63.7593 116.761 62.3301 119.089C60.9008 121.428 59.0493 123.215 56.7971 124.46C54.5342 125.705 51.8273 126.333 48.6656 126.333C45.5039 126.333 42.797 125.705 40.534 124.46C38.2711 123.215 36.4195 121.417 34.9794 119.089C33.5394 116.761 32.4674 113.914 31.7961 110.557C31.114 107.201 30.7783 103.4 30.7783 99.1449C30.7783 94.8896 31.114 91.1 31.7961 87.7326C32.4783 84.376 33.5394 81.5283 34.9794 79.2004C36.4195 76.8616 38.2711 75.0859 40.534 73.8515C42.797 72.6172 45.5147 72 48.6656 72ZM48.7739 116.632C50.1057 116.632 51.2534 116.22 52.2171 115.408C53.1807 114.596 53.9603 113.427 54.5667 111.911C55.173 110.395 55.6169 108.543 55.8985 106.378C56.18 104.201 56.3207 101.765 56.3207 99.0474C56.3207 96.3297 56.18 93.8502 55.8985 91.6738C55.6169 89.4975 55.173 87.6568 54.5667 86.1409C53.9603 84.625 53.1807 83.4665 52.2387 82.6544C51.2859 81.8532 50.1381 81.4525 48.7739 81.4525C47.4096 81.4525 46.2943 81.8532 45.3523 82.6544C44.3995 83.4556 43.6199 84.6142 43.0027 86.1409C42.3856 87.6568 41.9308 89.5083 41.6276 91.6738C41.3353 93.8502 41.1837 96.3081 41.1837 99.0474C41.1837 101.787 41.3244 104.212 41.5951 106.378C41.8658 108.554 42.3098 110.395 42.9269 111.911C43.5441 113.427 44.3237 114.596 45.2765 115.408C46.2294 116.22 47.3988 116.632 48.7739 116.632Z" fill="black"/>
<path d="M95.3743 125.489V119.49C94.3132 121.861 92.9164 123.594 91.1732 124.698C89.4299 125.792 87.3293 126.344 84.8606 126.344C79.8474 126.344 76.0469 124.135 73.47 119.717C70.893 115.3 69.6045 108.727 69.6045 100.011C69.6045 95.8858 69.8968 92.1069 70.4924 88.6746C71.0879 85.2422 72.0624 82.2971 73.4375 79.8176C74.8126 77.3489 76.6208 75.4324 78.8838 74.0573C81.1468 72.6821 83.9403 72 87.2752 72C90.0904 72 92.44 72.5306 94.3132 73.5917C96.1864 74.6528 97.6914 76.0712 98.8283 77.8469C99.9652 79.6227 100.788 81.6799 101.286 84.0187C101.795 86.3466 102.087 88.8045 102.152 91.3706H92.3317C92.3317 90.0605 92.2343 88.8045 92.0502 87.6135C91.8661 86.4116 91.5738 85.3613 91.1623 84.4518C90.7509 83.5423 90.2095 82.806 89.5165 82.2646C88.8236 81.7232 87.9682 81.4525 86.9612 81.4525C85.7485 81.4525 84.7091 81.8748 83.832 82.7085C82.955 83.5531 82.2295 84.7441 81.6665 86.2817C81.1035 87.83 80.6812 89.6815 80.4105 91.8579C80.1398 94.0343 79.999 96.438 79.999 99.0799C79.999 101.722 80.1398 104.201 80.4105 106.356C80.6812 108.522 81.1034 110.352 81.6881 111.878C82.2728 113.394 83.0199 114.574 83.9295 115.397C84.839 116.22 85.9542 116.642 87.2644 116.642C89.2134 116.642 90.7184 115.733 91.7795 113.925C92.8406 112.106 93.3712 109.193 93.3712 105.165V104.981H85.8135V96.0915H102.813V125.499H95.3635L95.3743 125.489Z" fill="black"/>
<path d="M128.149 114.672H117.516L115.145 125.489H104.848L118.999 72.8879H127.661L141.77 125.478H130.477L128.149 114.661V114.672ZM122.854 87.7109L121.782 93.6336L119.303 106.194H126.416L124.013 93.6012L123.016 87.7109H122.865H122.854Z" fill="black"/>
<path d="M156.27 72.8879L168.158 108.706H168.299L168.007 102.783L167.227 72.8879H177.08V125.489H165.56L153.01 87.1479H152.859L153.075 93.3305L154.158 125.489H144.262V72.8879H156.27Z" fill="black"/>
<path d="M195.779 121.861C195.779 125.337 193.051 128.076 189.488 128.076C185.926 128.076 183.165 125.348 183.165 121.861C183.165 118.375 185.969 115.722 189.488 115.722C193.007 115.722 195.779 118.451 195.779 121.861ZM184.746 121.861C184.746 124.59 186.771 126.766 189.532 126.766C192.293 126.766 194.209 124.601 194.209 121.905C194.209 119.209 192.228 116.967 189.499 116.967C186.771 116.967 184.746 119.176 184.746 121.872M188.525 125.088H187.106V118.949C187.669 118.84 188.449 118.765 189.467 118.765C190.625 118.765 191.145 118.949 191.6 119.209C191.935 119.468 192.195 119.956 192.195 120.551C192.195 121.222 191.676 121.753 190.928 121.97V122.045C191.524 122.273 191.86 122.717 192.055 123.54C192.239 124.471 192.358 124.85 192.498 125.077H190.961C190.777 124.85 190.658 124.287 190.474 123.583C190.365 122.912 189.986 122.608 189.207 122.608H188.536V125.077L188.525 125.088ZM188.557 121.612H189.229C190.019 121.612 190.647 121.352 190.647 120.714C190.647 120.151 190.235 119.782 189.337 119.782C188.958 119.782 188.698 119.815 188.546 119.858V121.612H188.557Z" fill="black"/>
</svg>
