<svg width="200" height="200" viewBox="0 0 200 200" fill="none" xmlns="http://www.w3.org/2000/svg">
<g clip-path="url(#clip0_2504_77800)">
<path d="M109.881 120.004C108.446 119.826 107.005 119.696 105.59 119.394C102.941 118.828 100.513 117.878 98.5904 116.037C96.7097 114.236 95.8298 112.004 95.3148 109.615C95.1416 108.812 95.1102 107.994 95.0114 107.184C94.9661 106.811 95.0742 106.62 95.5322 106.62C100.084 106.629 104.637 106.628 109.189 106.62C109.576 106.62 109.732 106.756 109.789 107.105C110.078 108.866 111.401 109.959 113.332 110.167C114.38 110.28 115.377 110.211 116.338 109.826C117.279 109.45 117.684 108.723 117.721 107.83C117.741 107.335 117.398 106.968 116.969 106.689C116.392 106.313 115.736 106.103 115.063 105.926C112.455 105.239 109.755 104.948 107.128 104.345C104.756 103.8 102.424 103.161 100.34 101.933C97.5094 100.267 95.9832 97.8905 95.6473 94.8212C95.4241 92.7864 95.617 90.8039 96.3935 88.895C97.5803 85.9773 99.8691 83.9798 102.865 82.6304C105.17 81.5916 107.637 81.1005 110.181 80.8913C110.313 80.8806 110.443 80.8454 110.576 80.8219C112.552 80.8219 114.528 80.8219 116.504 80.8219C116.616 80.8454 116.727 80.8806 116.841 80.8892C118.779 81.0258 120.675 81.3674 122.497 81.9845C127.835 83.7898 130.845 87.252 131.293 92.5109C131.359 93.2913 131.312 93.3415 130.48 93.3415C126.334 93.3415 122.191 93.3341 118.047 93.3511C117.503 93.3533 117.306 93.2059 117.281 92.6956C117.212 91.3537 116.353 90.4078 114.936 90.1345C113.927 89.9391 112.897 89.9583 111.884 90.1548C111.487 90.2316 111.109 90.3694 110.754 90.5626C109.98 90.9832 109.723 91.6569 109.733 92.417C109.744 93.1611 110.263 93.6138 110.966 93.8903C111.338 94.0365 111.728 94.1508 112.118 94.2479C114.118 94.7422 116.162 95.039 118.186 95.4287C121.029 95.9763 123.856 96.5923 126.427 97.9033C129.088 99.2602 130.811 101.3 131.529 104.022C131.957 105.643 131.981 107.291 131.774 108.946C131.572 110.57 131.122 112.126 130.241 113.551C128.394 116.54 125.508 118.259 121.979 119.175C120.338 119.601 118.656 119.81 116.97 120.004H109.88H109.881Z" fill="black"/>
<path d="M168 93.3137C166.102 93.3254 164.205 93.3393 162.307 93.3479C161.261 93.3521 160.214 93.3479 159.168 93.3479C158.572 93.3479 158.274 93.6144 158.273 94.1475C158.273 102.208 158.273 110.267 158.273 118.327C158.273 118.965 157.927 119.284 157.235 119.285C153.089 119.285 148.944 119.285 144.798 119.285C143.928 119.285 143.926 119.284 143.926 118.492C143.926 110.485 143.927 102.479 143.923 94.472C143.923 93.1674 144.076 93.3564 142.675 93.3511C140.06 93.3415 137.444 93.3383 134.829 93.3564C134.314 93.3596 134.119 93.2336 134.122 92.7287C134.143 89.2771 134.142 85.8256 134.122 82.373C134.12 81.8841 134.285 81.7368 134.816 81.7368C145.703 81.7485 156.591 81.7453 167.478 81.7474C167.651 81.7474 167.825 81.7709 167.999 81.7827V93.3126L168 93.3137Z" fill="black"/>
<path d="M32 81.7838C32.2116 81.771 32.4243 81.7486 32.6358 81.7486C37.0913 81.7465 41.5467 81.7465 46.0022 81.7475C46.7961 81.7475 46.7996 81.7497 46.7996 82.4863C46.7996 90.2082 46.7996 97.9301 46.7996 105.651C46.7996 106.155 47.0743 106.407 47.6237 106.408C52.2338 106.408 56.845 106.408 61.455 106.408C62.249 106.408 62.2524 106.411 62.2524 107.152C62.2524 110.959 62.2443 114.767 62.2629 118.574C62.2652 119.089 62.1304 119.296 61.5201 119.295C51.8339 119.28 42.1489 119.284 32.4626 119.283C32.308 119.283 32.1534 119.265 32 119.255C32 106.765 32 94.2746 32 81.7838Z" fill="black"/>
<path d="M69.2748 112.033C69.2748 109.862 69.2713 107.691 69.2782 105.52C69.2782 105.21 69.2108 104.931 69.062 104.65C66.6745 100.162 64.2904 95.672 61.9133 91.1785C60.3569 88.2362 58.8109 85.2896 57.2626 82.3442C56.9546 81.7591 56.9627 81.7463 57.6892 81.7463C61.854 81.7452 66.0189 81.7516 70.1837 81.7378C70.6464 81.7367 70.9149 81.8584 71.1381 82.2502C72.5853 84.7847 74.0615 87.3063 75.5273 89.8312C75.8737 90.4269 76.2142 91.0258 76.5653 91.6194C76.6269 91.7229 76.6443 91.8916 76.8036 91.897C76.9675 91.9034 76.9896 91.7347 77.05 91.6322C77.8614 90.2561 78.6692 88.8789 79.4748 87.5017C80.5012 85.7476 81.5357 83.9979 82.54 82.2331C82.7632 81.8413 83.0526 81.7367 83.5094 81.7378C87.6557 81.7506 91.8008 81.7452 95.947 81.7463C96.7165 81.7463 96.7293 81.7666 96.3771 82.4136C92.425 89.6668 88.4763 96.921 84.5091 104.168C84.2208 104.695 84.0953 105.214 84.0976 105.799C84.1127 110.033 84.1057 114.268 84.1057 118.503C84.1057 119.282 84.1034 119.284 83.2758 119.284C78.8785 119.284 74.4811 119.284 70.0826 119.284C69.2771 119.284 69.2748 119.281 69.2748 118.544C69.2736 116.374 69.2748 114.202 69.2748 112.032V112.033Z" fill="black"/>
</g>
<defs>
<clipPath id="clip0_2504_77800">
<rect width="136" height="39.1805" fill="white" transform="translate(32 80.8228)"/>
</clipPath>
</defs>
</svg>
