<svg width="200" height="200" viewBox="0 0 200 200" fill="none" xmlns="http://www.w3.org/2000/svg">
<path d="M86.115 70.6965H78.3259L76.9712 47.8371H76.8019L69.5208 70.8658H63.4249L56.1438 47.8371H55.9744L54.7891 70.6965H47L49.5399 37H59.5304L66.6422 59.1821H66.8115L73.5847 37H83.5751L86.115 70.6965Z" fill="black"/>
<path d="M112.192 70.6965H104.741L104.572 68.1565C103.556 69.1725 101.524 71.2045 97.6293 71.2045C93.3961 71.2045 88.8242 68.8339 88.8242 63.5847C88.8242 58.1661 93.7348 56.4728 98.1373 56.1342L104.233 55.9649V55.4569C104.233 52.9169 102.371 51.5623 99.3226 51.5623C96.2747 51.5623 93.2268 52.9169 91.8721 53.7636L89.8402 48.6837C91.8721 47.6677 95.5974 46.3131 100.169 46.3131C104.741 46.3131 107.281 47.3291 109.144 49.0224C111.006 50.7157 112.022 53.0863 112.022 57.1502V70.6965H112.192ZM104.402 60.1981L100.508 60.3674C98.1373 60.5367 96.6134 61.5527 96.6134 63.246C96.6134 65.1086 98.1373 66.2939 100.339 66.2939C102.371 66.2939 103.895 64.9393 104.402 64.0926V60.1981Z" fill="black"/>
<path d="M140.639 70.6965H132.85V58.1661C132.85 54.9489 132.342 52.5783 129.125 52.5783C125.738 52.5783 124.892 55.2875 124.892 58.8434V70.6965H117.103V46.6518H124.892V50.2077C126.246 48.0064 128.448 46.3131 131.834 46.3131C138.777 46.3131 140.639 50.885 140.639 56.6422V70.6965Z" fill="black"/>
<path d="M69.5208 109.981C67.3195 111.505 64.2716 112.182 60.885 112.182H47V78.4856H58.5144C61.5623 78.4856 64.6102 78.655 66.8115 79.8403C69.0128 81.0256 71.0447 83.2268 71.0447 86.9521C71.0447 90.6773 68.6741 93.5559 66.1342 94.4026V94.5719C70.3674 95.5879 73.0767 98.4665 73.0767 102.53C73.246 106.256 71.5527 108.457 69.5208 109.981ZM61.7316 84.9201C60.885 84.4121 59.869 84.2428 58.1757 84.2428H54.9585V92.0319H58.0064C59.6997 92.0319 60.7157 91.8626 61.7316 91.3546C62.7476 90.6773 63.4249 89.8307 63.4249 88.1374C63.2556 86.4441 62.5783 85.5974 61.7316 84.9201ZM63.4249 98.4665C62.2396 97.6198 60.885 97.6198 59.1917 97.6198H54.9585V106.256H59.361C61.0543 106.256 62.4089 106.086 63.5943 105.409C64.7796 104.562 65.2875 103.546 65.2875 102.022C65.1182 100.329 64.6102 99.3131 63.4249 98.4665Z" fill="black"/>
<path d="M81.0354 85.2588C78.3261 85.2588 76.6328 83.5655 76.6328 81.1949C76.6328 78.8243 78.4954 77.131 81.0354 77.131C83.7446 77.131 85.4379 78.8243 85.4379 81.1949C85.4379 83.7348 83.5753 85.2588 81.0354 85.2588ZM84.9299 112.182H77.1408V88.1374H84.9299V112.182Z" fill="black"/>
<path d="M104.572 94.0639H99.3226V102.7C99.3226 104.732 99.6612 105.24 99.9999 105.748C100.339 106.086 100.847 106.256 101.863 106.256C103.048 106.256 104.233 105.748 104.233 105.748L104.572 111.843C104.064 112.013 101.863 112.69 98.9839 112.69C96.2747 112.69 94.412 111.843 93.0574 110.489C91.8721 109.134 91.3641 107.102 91.3641 103.377V94.0639H87.9775V88.1374H91.3641V81.5335H99.3226V88.1374H104.572V94.0639Z" fill="black"/>
<path d="M130.817 102.022H113.545C113.884 105.578 116.593 107.102 119.641 107.102C122.689 107.102 125.568 105.748 126.922 104.732L129.97 108.796C129.124 109.304 126.076 112.69 118.456 112.69C111.005 112.69 105.587 108.118 105.587 100.16C105.587 92.2013 111.513 87.6294 118.625 87.6294C125.737 87.6294 130.648 92.3706 130.648 99.4824C130.817 100.668 130.817 102.022 130.817 102.022ZM123.536 97.6198C123.536 95.4185 121.843 92.7093 118.625 92.7093C115.408 92.7093 113.715 95.2492 113.715 97.6198H123.536Z" fill="black"/>
<path d="M150.121 110.658C148.428 112.013 145.888 112.69 142.67 112.69C139.115 112.69 135.22 111.505 132.511 108.965L135.389 104.393C137.421 106.086 140.639 107.272 142.501 107.272C144.533 107.272 145.888 106.764 145.888 105.24C145.888 103.716 142.332 102.869 141.485 102.53C140.639 102.361 139.115 101.853 138.099 101.345C136.913 100.837 134.035 99.3131 134.035 95.0799C134.035 90.3387 138.099 87.4601 143.178 87.4601C148.258 87.4601 151.137 89.3227 152.492 90.508L149.952 95.0799C148.597 94.0639 145.888 92.7093 143.856 92.7093C141.993 92.7093 140.977 93.2173 140.977 94.4026C140.977 95.7572 142.84 96.2652 144.533 96.7732C146.226 97.2812 146.904 97.4505 147.92 97.9585C148.936 98.2971 150.29 98.9744 150.968 99.8211C151.814 100.668 153 102.192 153 104.732C152.83 107.272 151.814 109.134 150.121 110.658Z" fill="black"/>
<path d="M71.3834 148.927C68.6741 151.297 64.2716 152.99 58.345 152.99H47V119.125H58.5144C64.4409 119.125 68.6741 120.818 71.5527 123.189C74.4313 125.559 76.9712 129.454 76.9712 136.058C76.9712 142.661 74.262 146.556 71.3834 148.927ZM65.9649 128.099C64.4409 126.914 62.2396 125.728 58.853 125.728H54.9585V146.217H58.853C62.0703 146.217 64.4409 145.201 65.9649 143.847C67.3195 142.492 69.0128 140.291 69.0128 136.058C68.8435 131.994 67.3195 129.454 65.9649 128.099Z" fill="black"/>
<path d="M92.8887 153.498C85.2689 153.498 79.5117 148.757 79.5117 140.968C79.5117 133.179 85.2689 128.438 92.8887 128.438C100.509 128.438 106.266 133.179 106.266 140.968C106.266 148.757 100.509 153.498 92.8887 153.498ZM92.8887 134.534C89.3328 134.534 87.4702 137.243 87.4702 140.799C87.4702 144.355 89.3328 147.064 92.8887 147.064C96.2753 147.064 98.3072 144.355 98.3072 140.799C98.3072 137.243 96.2753 134.534 92.8887 134.534Z" fill="black"/>
<path d="M135.56 148.08C135.56 153.329 134.205 156.377 131.835 158.578C129.464 160.61 126.247 162.304 120.659 162.304C115.071 162.304 110.669 159.933 108.975 158.748L112.193 153.498C113.547 154.514 117.273 156.208 120.49 156.208C123.707 156.208 125.4 155.192 126.247 154.345C127.094 153.498 127.771 151.636 127.771 149.604V148.757H127.602C126.078 150.62 123.707 152.144 119.982 152.144C114.055 152.144 108.637 148.08 108.637 140.291C108.637 132.502 114.055 128.438 119.982 128.438C124.046 128.438 126.416 130.3 127.602 131.994H127.771L127.602 128.946H135.391V148.08H135.56ZM122.352 134.534C118.796 134.534 116.595 137.073 116.595 140.291C116.595 143.677 118.796 146.217 122.352 146.217C125.908 146.217 127.94 143.677 127.94 140.291C127.94 137.073 125.739 134.534 122.352 134.534Z" fill="black"/>
<path d="M152.6 153.2C155.141 153.2 157.2 151.141 157.2 148.6C157.2 146.059 155.141 144 152.6 144C150.059 144 148 146.059 148 148.6C148 151.141 150.059 153.2 152.6 153.2Z" fill="black"/>
</svg>
