<svg width="40" height="42" viewBox="0 0 40 42" fill="none" xmlns="http://www.w3.org/2000/svg">
<path d="M37.1274 9.96279L34.2757 10.3668C31.0121 3.83981 24.1976 1.06841 18.2404 2.75715C18.0927 2.79859 17.9451 2.8478 17.7975 2.89443C17.7871 2.88925 17.7742 2.88148 17.7638 2.87371C15.2592 3.73362 13.3244 5.08565 11.8817 6.86763C10.97 7.91921 10.1567 9.1521 9.48327 10.5818L9.93913 10.1881C9.91582 10.2451 9.88992 10.2995 9.86661 10.3565C9.98057 10.2866 10.0919 10.2218 10.2059 10.1545C7.61322 11.8406 5.53597 14.2494 4.26423 17.0985C3.37065 19.1007 2.87335 21.3178 2.87335 23.6489C2.87335 30.4556 7.10039 36.2756 13.0731 38.6248C13.0939 38.6507 13.1146 38.674 13.1379 38.6999L13.529 38.7957C14.5599 39.1661 15.6373 39.4329 16.7537 39.5857L17.308 39.723C17.308 39.723 17.2769 39.6971 17.2225 39.6453C17.7949 39.7074 18.3751 39.7385 18.963 39.7385C23.418 39.7385 27.4482 37.9281 30.362 35.0064C33.2603 32.0977 35.0553 28.0805 35.0553 23.6489C35.0553 21.0225 34.4259 18.5464 33.3096 16.3551L37.1274 9.95761V9.96279Z" fill="#DDF8E6" stroke="#DDF8E6" stroke-width="2.59009" stroke-linecap="round" stroke-linejoin="round"/>
<path d="M9.86646 10.3589C13.6221 8.04337 17.5798 6.9892 21.8353 7.77399C20.706 5.55946 19.4084 3.77748 17.7637 2.87354C13.8163 4.22815 11.2781 6.8053 9.86646 10.3563V10.3589Z" fill="#101010"/>
<path d="M28.2563 10.5142C32.372 13.4306 35.0579 18.2275 35.0579 23.6537C35.0579 28.0854 33.263 32.1026 30.3647 35.0113L30.3258 34.975C33.8147 27.9688 34.1358 23.8661 28.865 24.8814L25.1767 22.5814C25.0006 22.4726 24.9177 22.2577 24.9747 22.0582L28.2071 10.5841L28.2563 10.5142Z" fill="#07503E"/>
<path d="M18.7013 27.6868C18.9318 27.7152 19.1054 27.9121 19.1002 28.1452C19.0691 29.3081 18.8101 32.6727 16.8701 34.7914C14.7463 37.1121 16.7691 39.2282 17.225 39.6504C15.7745 39.495 14.3836 39.1453 13.0756 38.6299C10.83 36.0761 9.5298 33.8512 9.04545 31.9034L7.76595 31.6107L5.49961 27.2594L6.08239 24.0787L5.15254 23.6747C5.07743 23.641 5.06189 23.54 5.12664 23.4882L6.74286 22.1414L10.2887 22.763L13.1767 24.0787C13.4745 26.5756 15.8496 27.3293 18.7013 27.6868Z" fill="#07503E"/>
<path d="M16.8523 10.561C16.8886 10.6231 16.8937 10.6956 16.873 10.7656L16.1763 12.9205C16.1426 13.0215 16.0468 13.0863 15.9432 13.0811C11.9648 12.905 9.0587 14.5419 7.0721 17.7277L6.55926 16.2902L4.3525 17.1424L4.26703 17.1035C5.84958 13.5525 8.68573 10.6801 12.2109 9.04834L12.2808 9.19598L13.3427 9.37987L13.7649 10.4444C13.8012 10.5351 13.9125 10.5713 13.998 10.5195L15.9354 9.27368C16.0157 9.22188 16.1245 9.24778 16.1711 9.33066L16.8523 10.561Z" fill="#07503E"/>
<path d="M30.326 34.9752L30.3649 35.0114C27.451 37.9331 23.4209 39.7435 18.9659 39.7435C18.3779 39.7435 17.7978 39.7125 17.2253 39.6503C16.7695 39.2281 14.7466 37.112 16.8705 34.7913C18.8105 32.6726 19.0695 29.3081 19.1006 28.1451C19.1058 27.912 18.9322 27.7151 18.7017 27.6867C15.85 27.3292 13.4749 26.5755 13.177 24.0787L10.2891 22.7629L6.74323 22.1413L5.12701 23.4881C5.06226 23.5399 5.0778 23.6409 5.15291 23.6746L6.08276 24.0787L5.49999 27.2593L7.76632 31.6106L9.04583 31.9033C9.53018 33.8511 10.8304 36.076 13.076 38.6298C7.10326 36.2806 2.87622 30.4606 2.87622 23.6539C2.87622 21.3228 3.37352 19.1057 4.2671 17.1035L4.35258 17.1424L6.55934 16.2902L7.07218 17.7277C9.05878 14.5419 11.9649 12.905 15.9433 13.0811C16.0469 13.0863 16.1427 13.0215 16.1764 12.9205L16.8731 10.7656C16.8938 10.6956 16.8886 10.6231 16.8524 10.5609L16.1712 9.33065C16.1246 9.24777 16.0158 9.22187 15.9355 9.27367L13.9981 10.5195C13.9126 10.5713 13.8012 10.535 13.765 10.4444L13.3428 9.37987L12.2809 9.19597L12.2109 9.04833C14.2649 8.09518 16.5545 7.56421 18.9659 7.56421C22.4263 7.56421 25.6328 8.65723 28.2566 10.5143L28.2074 10.5843L24.9749 22.0584C24.9179 22.2578 25.0008 22.4728 25.1769 22.5816L28.8652 24.8816C34.1361 23.8663 33.8149 27.969 30.326 34.9752Z" fill="#75CBF0"/>
<path d="M18.9656 40C18.3725 40 17.7768 39.969 17.1966 39.9042C15.7539 39.7488 14.3345 39.4017 12.9799 38.8682C6.68598 36.392 2.61694 30.4219 2.61694 23.654C2.61694 21.3384 3.09352 19.1006 4.03114 17C5.61886 13.436 8.42912 10.561 11.9516 8.88523L12.0993 8.81271C14.2568 7.81293 16.5672 7.30786 18.963 7.30786C22.3664 7.30786 25.6325 8.3439 28.4013 10.3046C32.7268 13.3713 35.3117 18.3598 35.3117 23.654C35.3117 28.0079 33.6178 32.1054 30.5433 35.1928C27.4508 38.2932 23.3377 40 18.963 40H18.9656ZM12.4334 9.22453L12.3194 9.27892C8.83835 10.89 6.06177 13.7054 4.50253 17.2072C3.59341 19.243 3.13496 21.4109 3.13496 23.654C3.13496 30.2095 7.0745 35.9932 13.1716 38.3916C14.4822 38.9096 15.8575 39.2463 17.2536 39.3965C17.8156 39.4587 18.3906 39.4872 18.9656 39.4872C23.2056 39.4872 27.1892 37.8347 30.1833 34.8302C33.1619 31.8412 34.8015 27.8732 34.8015 23.654C34.8015 18.5282 32.2994 13.6924 28.1087 10.7242C25.4253 8.82566 22.2628 7.8207 18.9656 7.8207C16.6863 7.8207 14.4899 8.2921 12.4334 9.22453Z" fill="#101010"/>
<path d="M7.07234 17.9841H7.04384C6.94542 17.9737 6.86254 17.909 6.82887 17.8157L6.40409 16.6269L4.44339 17.3832C4.31389 17.435 4.16366 17.3676 4.11186 17.2355C4.06006 17.1034 4.1274 16.9558 4.25949 16.904L6.46625 16.0519C6.53101 16.0285 6.60353 16.0285 6.66569 16.057C6.72785 16.0855 6.77706 16.1399 6.80037 16.2047L7.13968 17.1552C9.20916 14.1196 12.1645 12.6588 15.9382 12.8246L16.6298 10.6878L15.9952 9.54036L14.1381 10.7344C14.0267 10.8017 13.8998 10.8173 13.7807 10.7784C13.6641 10.7396 13.5735 10.6515 13.5269 10.5401L13.1565 9.6077L12.237 9.44712C12.0971 9.4238 12.0039 9.28912 12.0272 9.15184C12.0505 9.01198 12.1826 8.91874 12.3225 8.94205L13.3844 9.12594C13.4725 9.14148 13.545 9.20106 13.5787 9.28394L13.9568 10.2397L15.7932 9.0586C15.8916 8.99644 16.0133 8.97572 16.1247 9.00421C16.2361 9.0327 16.3345 9.10522 16.3889 9.20624L17.0701 10.4391C17.1374 10.5557 17.153 10.6981 17.1115 10.8406L16.4122 13.0007C16.3423 13.2105 16.1403 13.3478 15.9227 13.3374C12.1178 13.1691 9.28687 14.6506 7.28213 17.8649C7.23551 17.94 7.15263 17.9867 7.06457 17.9867H7.07234V17.9841Z" fill="#101010"/>
<path d="M30.3234 35.2315C30.2846 35.2315 30.2457 35.2238 30.2095 35.2056C30.0826 35.1435 30.0308 34.9881 30.0955 34.8611C32.4784 30.0772 33.1907 27.0028 32.2142 25.7181C31.6781 25.011 30.5669 24.8142 28.9118 25.1327C28.8471 25.1431 28.7823 25.1327 28.7279 25.0991L25.0396 22.7991C24.7677 22.6307 24.6382 22.2966 24.7262 21.9884L27.9587 10.5142C27.9975 10.377 28.1374 10.2993 28.2747 10.3381C28.4119 10.377 28.4896 10.5168 28.4508 10.6541L25.2184 22.1282C25.1925 22.2189 25.2287 22.3147 25.309 22.3639L28.9144 24.6121C30.7223 24.2806 31.9707 24.55 32.6234 25.4099C33.7424 26.8836 33.0663 30.0487 30.554 35.0917C30.5099 35.1823 30.4193 35.2341 30.3234 35.2341V35.2315Z" fill="#101010"/>
<path d="M17.3079 39.9848C17.2509 39.9848 17.1939 39.9667 17.1447 39.9252C17.1447 39.9252 17.1084 39.8967 17.0463 39.8372C16.7898 39.5989 16.1501 38.9384 15.8367 38.0163C15.557 37.1927 15.4741 35.9365 16.6811 34.6181C18.5304 32.5978 18.8101 29.4146 18.8438 28.1377C18.8438 28.0393 18.7713 27.9538 18.6702 27.9408C16.062 27.6145 13.3502 26.9178 12.9435 24.2525L10.2136 23.0093L6.81798 22.4136L5.47372 23.5325L6.18599 23.8433C6.29478 23.8899 6.35694 24.0065 6.33622 24.123L5.76899 27.2182L7.93949 31.3857L9.10244 31.6524C9.19568 31.6732 9.27079 31.7457 9.29411 31.8415C9.77845 33.7841 11.1149 36.0116 13.2673 38.4592C13.2932 38.4903 13.3113 38.511 13.3295 38.5317C13.4253 38.6379 13.4149 38.7985 13.3113 38.8944C13.2051 38.9902 13.0446 38.9798 12.9487 38.8762C12.9228 38.8451 12.8969 38.8192 12.8736 38.7882C10.729 36.3483 9.36663 34.1027 8.83566 32.1161L7.70897 31.8571C7.63644 31.8415 7.57428 31.7923 7.53802 31.725L5.27169 27.3736C5.24579 27.3218 5.23543 27.2648 5.24579 27.2104L5.7923 24.2292L5.04894 23.9055C4.92721 23.8511 4.84691 23.7423 4.83137 23.6154C4.81583 23.4885 4.86504 23.3641 4.96606 23.2839L6.57969 21.9396C6.63667 21.8904 6.71178 21.8697 6.78689 21.8852L10.3327 22.5068C10.3535 22.5094 10.3742 22.5172 10.3949 22.525L13.2829 23.8407C13.3631 23.877 13.4201 23.9547 13.4305 24.0428C13.7206 26.4697 16.1501 27.1042 18.7324 27.428C19.095 27.472 19.3644 27.7828 19.3566 28.1455C19.3204 29.4794 19.0251 32.8102 17.0592 34.96C15.0881 37.115 16.997 39.086 17.3985 39.459C17.4451 39.503 17.471 39.5237 17.4736 39.5289C17.5824 39.6196 17.5954 39.7802 17.5073 39.889C17.4555 39.9511 17.383 39.9822 17.3104 39.9822L17.3079 39.9848Z" fill="#101010"/>
<path d="M29.1007 19.1341L31.6105 18.844L22.2499 12.822L20.0561 13.5783L29.1007 19.1341Z" fill="#8BC53F"/>
<path d="M18.2405 2.75715C24.1978 1.06841 31.0123 3.83981 34.2758 10.3668L37.1275 9.96279L31.8256 18.8494L22.465 12.8896L23.6331 12.5555L25.7907 11.939C24.9411 8.27405 22.1775 5.40164 18.4296 2.84521L18.3338 2.93587C18.3105 2.91256 18.2898 2.89184 18.269 2.86853L18.2405 2.75715Z" fill="white"/>
<path d="M23.6331 12.5555C23.1255 8.90086 21.0586 5.80051 18.3338 2.93587L18.4296 2.84521C22.1775 5.40164 24.9411 8.27405 25.7907 11.939L23.6331 12.5555Z" fill="#8BC53F"/>
<path d="M23.6333 12.8143C23.4986 12.8143 23.3873 12.7107 23.3769 12.576C22.9314 9.4031 21.2712 6.39341 18.1475 3.11176C18.1242 3.08845 18.1009 3.06514 18.0776 3.03924C17.9843 2.93305 17.9921 2.77246 18.0983 2.67663C18.2045 2.58338 18.3651 2.59115 18.4609 2.69735C18.479 2.71807 18.4972 2.73361 18.5153 2.75433C21.7244 6.12922 23.4313 9.22957 23.8871 12.519V12.5552C23.8871 12.6977 23.7732 12.8143 23.6307 12.8143H23.6333Z" fill="#101010"/>
<path d="M31.8256 19.1058C31.7763 19.1058 31.7297 19.0928 31.6883 19.0643L22.3277 13.1045C22.2422 13.0501 22.1982 12.9517 22.2111 12.8507C22.2267 12.7497 22.2966 12.6694 22.395 12.6409L25.485 11.7577C24.6795 8.62106 22.3847 5.84966 18.2871 3.05494C18.2716 3.04458 18.2586 3.03422 18.2457 3.02127C14.5755 4.08321 11.5503 6.8054 9.7165 10.6931C9.65693 10.82 9.50412 10.877 9.37461 10.8149C9.2477 10.7553 9.19072 10.6025 9.25288 10.473C11.1618 6.42725 14.3295 3.59886 18.1706 2.50843C24.5422 0.703138 31.1988 3.81643 34.4208 10.0845L37.0912 9.70631C37.1896 9.69336 37.2855 9.73739 37.3399 9.81768C37.3943 9.90056 37.3968 10.0068 37.3476 10.0896L32.0457 18.9763C32.0095 19.0358 31.9525 19.0773 31.8851 19.0954C31.8644 19.1006 31.8463 19.1032 31.8256 19.1032V19.1058ZM23.084 12.9854L31.7427 18.4971L36.6354 10.2968L34.3146 10.6258C34.2059 10.6387 34.0997 10.5843 34.0504 10.4859C31.0641 4.51835 24.8996 1.4439 18.8932 2.85292C23.0063 5.72274 25.2804 8.59775 26.0419 11.882C26.073 12.0141 25.9927 12.1488 25.8632 12.185L23.084 12.9802V12.9854Z" fill="#101010"/>
<path d="M28.9067 19.3907C28.8601 19.3907 28.8134 19.3778 28.772 19.3519L19.6316 13.7573C19.5435 13.7029 19.4969 13.6019 19.5124 13.4983C19.528 13.3947 19.6057 13.3144 19.7041 13.2885L22.403 12.6358C22.5376 12.6021 22.6775 12.6876 22.7112 12.8248C22.7449 12.9621 22.6594 13.102 22.5221 13.1331L20.4215 13.6407L28.9637 18.8675L31.7972 18.5904C31.9397 18.5774 32.064 18.6784 32.077 18.8209C32.0899 18.9608 31.9889 19.0877 31.8464 19.1006L28.9274 19.3881H28.9015H28.9067V19.3907Z" fill="#101010"/>
</svg>
