<svg width="41" height="40" viewBox="0 0 41 40" fill="none" xmlns="http://www.w3.org/2000/svg">
<rect x="0.0078125" width="40" height="40" rx="12" fill="#3A559D"/>
<g clip-path="url(#clip0_68_46196)">
<path d="M28.8003 17.5234C29.5904 18.3135 29.5904 19.5944 28.8003 20.3844C28.0103 21.1744 26.7294 21.1744 25.9394 20.3844C25.1494 19.5944 25.1494 18.3135 25.9394 17.5234C26.7294 16.7334 28.0103 16.7334 28.8003 17.5234Z" stroke="#BBCAF2" stroke-width="1.4" stroke-linecap="round" stroke-linejoin="round"/>
<path d="M22.2104 13.9124C23.4269 15.1288 23.4269 17.1012 22.2104 18.3176C20.9939 19.5341 19.0216 19.5341 17.8051 18.3176C16.5886 17.1012 16.5886 15.1289 17.8051 13.9124C19.0216 12.6959 20.9939 12.6959 22.2104 13.9124" stroke="#BBCAF2" stroke-width="1.4" stroke-linecap="round" stroke-linejoin="round"/>
<path d="M14.0763 17.5234C14.8663 18.3135 14.8663 19.5944 14.0763 20.3844C13.2862 21.1744 12.0054 21.1744 11.2153 20.3844C10.4253 19.5944 10.4253 18.3135 11.2153 17.5234C12.0054 16.7334 13.2862 16.7334 14.0763 17.5234Z" stroke="#BBCAF2" stroke-width="1.4" stroke-linecap="round" stroke-linejoin="round"/>
<path d="M31.0078 27.0001V25.9041C31.0078 24.5231 29.8888 23.4041 28.5078 23.4041H27.7068" stroke="#BBCAF2" stroke-width="1.4" stroke-linecap="round" stroke-linejoin="round"/>
<path d="M9.00781 27.0001V25.9041C9.00781 24.5231 10.1268 23.4041 11.5078 23.4041H12.3088" stroke="#BBCAF2" stroke-width="1.4" stroke-linecap="round" stroke-linejoin="round"/>
<path d="M25.3468 26.9999V25.3989C25.3468 23.4659 23.7798 21.8989 21.8468 21.8989H18.1678C16.2348 21.8989 14.6678 23.4659 14.6678 25.3989V26.9999" stroke="#BBCAF2" stroke-width="1.4" stroke-linecap="round" stroke-linejoin="round"/>
</g>
<defs>
<clipPath id="clip0_68_46196">
<rect width="24" height="24" fill="white" transform="translate(8.00781 8)"/>
</clipPath>
</defs>
</svg>
