<svg width="41" height="40" viewBox="0 0 41 40" fill="none" xmlns="http://www.w3.org/2000/svg">
<rect x="0.0078125" width="40" height="40" rx="12" fill="#D69E3C"/>
<g clip-path="url(#clip0_68_46157)">
<path d="M22.2058 18.791C22.2058 17.577 21.2218 16.593 20.0078 16.593C18.7938 16.593 17.8098 17.577 17.8098 18.791C17.8098 20.005 18.7938 20.989 20.0078 20.989C21.2218 20.989 22.2058 20.005 22.2058 18.791Z" stroke="#FCEBCC" stroke-width="1.4" stroke-linecap="round" stroke-linejoin="round"/>
<path d="M20.0078 30C19.0408 30 18.2578 29.216 18.2578 28.25V25.552C18.2578 24.586 19.0418 23.802 20.0078 23.802C20.9738 23.802 21.7578 24.586 21.7578 25.552V28.25C21.7578 29.216 20.9738 30 20.0078 30Z" stroke="#FCEBCC" stroke-width="1.4" stroke-linecap="round" stroke-linejoin="round"/>
<path d="M25.0078 26.011C27.2968 24.425 28.7988 21.786 28.7988 18.791C28.7988 13.936 24.8628 10 20.0078 10C15.1528 10 11.2168 13.936 11.2168 18.791C11.2168 21.786 12.7188 24.425 15.0078 26.011" stroke="#FCEBCC" stroke-width="1.4" stroke-linecap="round" stroke-linejoin="round"/>
<path d="M16.0078 22.5491C15.0838 21.5661 14.5138 20.2461 14.5138 18.7911C14.5138 15.7571 16.9738 13.2971 20.0078 13.2971C23.0418 13.2971 25.5018 15.7571 25.5018 18.7911C25.5018 20.2471 24.9318 21.5661 24.0078 22.5491" stroke="#FCEBCC" stroke-width="1.4" stroke-linecap="round" stroke-linejoin="round"/>
</g>
<defs>
<clipPath id="clip0_68_46157">
<rect width="24" height="24" fill="white" transform="translate(8.00781 8)"/>
</clipPath>
</defs>
</svg>
