<svg width="200" height="200" viewBox="0 0 200 200" fill="none" xmlns="http://www.w3.org/2000/svg">
<g clip-path="url(#clip0_2504_78203)">
<path d="M48.9125 77C49.9637 77.1835 51.0226 77.3306 52.0642 77.5581C60.1928 79.3279 66.3261 86.0575 67.3945 94.3008C68.2411 100.835 66.7389 106.661 62.3143 111.64C62.2532 111.707 62.213 111.793 62.0773 112.003C63.8491 112.368 65.5386 112.716 67.318 113.083C67.1059 115.03 66.888 117.014 66.6701 119H66.0967C66.0126 118.962 65.9323 118.899 65.8444 118.887C62.6545 118.474 59.5869 117.649 56.678 116.252C56.4639 116.148 56.1161 116.179 55.8886 116.278C52.6108 117.706 49.1954 118.264 45.6309 118.029C36.8123 117.444 29.4559 111.126 27.5561 102.452C27.3229 101.386 27.1815 100.298 26.9961 99.2203C26.9961 98.1691 26.9961 97.118 26.9961 96.0668C27.1394 95.1513 27.2637 94.2319 27.428 93.3203C28.8596 85.421 34.7042 79.305 42.5308 77.5371C43.5495 77.3077 44.5893 77.1758 45.6194 77C46.7184 77 47.8155 77 48.9145 77H48.9125ZM56.3626 108.91C57.0335 108.161 57.7617 107.494 58.3198 106.705C61.6492 101.986 62.0295 96.8485 60.0361 91.5753C58.2357 86.8143 54.6865 83.8805 49.6388 83.0606C44.5013 82.2273 40.0634 83.6913 36.7378 87.8216C33.9875 91.2351 33.1848 95.2373 33.5708 99.5433C34.2207 106.804 39.9659 112.089 47.2306 112.041C48.2646 112.033 49.2967 111.884 50.5295 111.783C47.5555 108.593 45.6538 105.055 44.3465 101.103C46.2559 100.461 48.1232 99.8358 49.8911 99.2414C50.7798 101.038 51.5692 102.798 52.5038 104.478C53.4499 106.177 54.74 107.617 56.3626 108.909V108.91Z" fill="black"/>
<path d="M84.52 118.098C76.3226 118.11 70.1453 111.948 70.1377 103.751C70.1301 95.5397 76.4124 89.1504 84.5008 89.1427C92.7422 89.1351 99.0551 95.4442 99.0666 103.697C99.078 111.99 92.92 118.089 84.52 118.098ZM93.0404 103.714C93.0442 98.7736 89.3554 94.9664 84.5505 94.9473C79.8699 94.93 76.1983 98.7468 76.1697 103.661C76.1429 108.414 79.8603 112.254 84.497 112.261C89.2714 112.267 93.0365 108.5 93.0404 103.714V103.714Z" fill="black"/>
<path d="M159.106 118.098C150.849 118.1 144.718 111.961 144.722 103.695C144.726 95.5168 150.993 89.1542 159.056 89.1428C167.32 89.1313 173.656 95.4748 173.652 103.752C173.647 111.982 167.449 118.096 159.108 118.098H159.106ZM150.746 103.684C150.742 108.408 154.444 112.244 159.027 112.261C163.852 112.281 167.632 108.511 167.624 103.693C167.617 98.7526 163.92 94.9587 159.108 94.9492C154.44 94.9396 150.75 98.7965 150.744 103.686L150.746 103.684Z" fill="black"/>
<path d="M102.258 89.7806H107.795V92.5348C107.967 92.4449 108.037 92.4277 108.076 92.3838C110.683 89.213 114.06 88.5593 117.837 89.5341C122.523 90.7439 126.3 95.092 126.477 99.9237C126.689 105.719 126.527 111.529 126.527 117.391H120.547C120.547 117.106 120.547 116.829 120.547 116.55C120.547 111.58 120.564 106.611 120.539 101.642C120.524 98.7846 119.281 96.5943 116.669 95.3768C112.775 93.563 108.456 96.0935 107.921 100.43C107.856 100.95 107.827 101.478 107.827 102.001C107.82 106.827 107.823 111.653 107.823 116.479V117.391H102.258V89.7806Z" fill="black"/>
<path d="M129.72 82.6404H135.509V89.7216H142.976V95.356H135.597C135.58 95.6657 135.557 95.8969 135.557 96.1282C135.555 99.8552 135.553 103.58 135.557 107.307C135.557 107.688 135.562 108.075 135.622 108.45C136.115 111.556 138.555 113.114 141.732 112.34C142.351 112.189 142.949 111.948 143.68 111.711C143.68 112.328 143.68 112.911 143.68 113.494C143.68 114.641 143.699 115.787 143.66 116.932C143.653 117.148 143.452 117.5 143.276 117.544C140.352 118.299 137.456 118.366 134.725 116.856C131.864 115.273 130.528 112.645 129.999 109.549C129.815 108.471 129.735 107.365 129.733 106.271C129.71 98.6759 129.722 91.0786 129.722 83.4833C129.722 83.2272 129.722 82.9711 129.722 82.6404H129.72Z" fill="black"/>
</g>
<defs>
<clipPath id="clip0_2504_78203">
<rect width="146.785" height="42" fill="white" transform="translate(27 77)"/>
</clipPath>
</defs>
</svg>
