<svg width="200" height="200" viewBox="0 0 200 200" fill="none" xmlns="http://www.w3.org/2000/svg">
<g clip-path="url(#clip0_2515_72515)">
<path d="M21.2897 87.4632C21.3122 86.7031 21.28 85.9303 21.4989 85.1925C22.0364 83.4168 22.7992 81.7401 23.8388 80.1911C24.5984 79.0574 25.5061 78.0482 26.5296 77.1507C28.6153 75.3239 31.0324 74.1071 33.7297 73.4428C35.3712 73.0404 37.0448 72.9095 38.725 73.0404C40.3665 73.1682 41.9629 73.5035 43.5143 74.0943C44.5217 74.4808 45.468 74.9598 46.3982 75.49C47.8465 76.314 49.0857 77.4062 50.1672 78.6422C51.181 79.8015 52.0468 81.079 52.7034 82.4874C53.4244 84.03 53.8332 85.6588 54.1615 87.3131C54.2806 87.9104 54.2226 88.514 54.2516 89.1112C54.2645 89.4018 54.1647 89.4689 53.8911 89.4657C51.3902 89.4497 48.8862 89.4465 46.3853 89.4401C45.8092 89.4401 45.2362 89.4433 44.6601 89.4561C44.3994 89.4625 44.29 89.3954 44.2803 89.0984C44.2127 86.5562 42.5165 84.2344 40.1283 83.3401C38.8183 82.8483 37.4729 82.7812 36.1018 83.0399C34.6985 83.305 33.5687 84.03 32.6224 85.0584C31.6987 86.0612 31.2191 87.2493 31.0357 88.5842C30.7235 90.8422 31.3929 92.7552 33.0827 94.2914C33.8069 94.9493 34.6341 95.4284 35.6222 95.703C36.8002 96.032 37.9911 96.1054 39.1884 96.2076C39.9384 96.2715 40.7076 96.313 41.4254 96.4823C42.1753 96.6611 42.9285 96.8943 43.6688 97.137C44.3157 97.3478 44.8725 97.7278 45.4776 97.9897C46.3434 98.3634 47.0998 98.8744 47.8369 99.4173C49.3529 100.538 50.6403 101.876 51.6896 103.454C52.6133 104.843 53.3182 106.319 53.7817 107.906C54.0456 108.807 54.2773 109.714 54.3385 110.662C54.3707 111.18 54.4866 111.694 54.4898 112.221C54.4898 112.512 54.39 112.566 54.1196 112.566C51.0169 112.556 47.9109 112.556 44.8082 112.566C44.5474 112.566 44.4348 112.528 44.4412 112.231C44.5056 109.311 42.3813 107.277 40.154 106.364C39.5167 106.102 38.8247 106.038 38.1456 105.971C36.3142 105.789 34.4635 105.712 32.69 105.166C32.0463 104.968 31.4219 104.722 30.8071 104.422C30.3115 104.179 29.7547 104.016 29.2783 103.732C27.6465 102.755 26.1595 101.595 24.9364 100.133C23.7584 98.7211 22.8121 97.1753 22.1201 95.4699C21.7918 94.6619 21.5504 93.8283 21.3476 92.9884C21.2607 92.6243 21.3154 92.2251 21.309 91.8418C21.309 91.564 21.309 91.2861 21.309 90.9731C21.1802 91.1679 21.0901 91.3053 21 91.4426C21 90.0917 21 88.7439 21 87.393C21.1191 87.2812 21.1191 87.4313 21.1706 87.4664C21.1545 87.5878 21.1481 87.7092 21.2382 87.8305C21.3315 87.6868 21.309 87.5718 21.2832 87.4568L21.2897 87.4632Z" fill="#3D3D3D"/>
<path d="M21.0068 114.156C24.1643 114.156 27.3218 114.15 30.4792 114.15C31.0103 114.15 31.0135 114.169 31.0457 114.671C31.1391 116.146 31.683 117.414 32.7194 118.513C33.4693 119.311 34.2933 119.953 35.3233 120.33C36.9229 120.911 38.5258 120.914 40.1255 120.311C41.1586 119.921 42.0341 119.295 42.7615 118.487C43.7786 117.36 44.4159 116.05 44.4449 114.511C44.4513 114.195 44.5704 114.144 44.8472 114.147C47.9242 114.156 51.0012 114.16 54.0782 114.15C54.4097 114.15 54.5191 114.236 54.4998 114.572C54.3196 118.088 53.2542 121.294 51.0623 124.089C49.0185 126.695 46.4372 128.611 43.2733 129.684C41.87 130.16 40.4216 130.511 38.9217 130.607C35.1688 130.847 31.712 129.93 28.5835 127.921C24.8724 125.539 22.5067 122.166 21.4349 117.915C21.3319 117.507 21.2965 117.082 21.319 116.657C21.3319 116.43 21.2482 116.271 21.0068 116.223V114.16V114.156Z" fill="#C3C3C3"/>
<path d="M21.0068 97.8013C21.4285 98.2325 21.628 98.8009 21.9241 99.3055C22.349 100.024 22.8189 100.704 23.3017 101.385C23.8875 102.209 24.6439 102.879 25.3681 103.576C26.4495 104.613 27.7981 105.236 29.1339 105.872C29.6521 106.118 30.1735 106.357 30.7303 106.498C30.9299 106.549 30.9846 106.645 30.9846 106.83C30.9781 108.654 30.9749 110.477 30.9846 112.304C30.9846 112.54 30.8848 112.591 30.6724 112.588C27.4505 112.579 24.2287 112.579 21.0101 112.572V97.8013H21.0068Z" fill="#C3C3C3"/>
<path d="M21.0068 91.449C21.097 91.3117 21.1903 91.1743 21.3158 90.9795C21.3158 91.2925 21.3158 91.5704 21.3158 91.8482C21.2128 91.7843 21.1066 91.9344 21.0068 91.845C21.0068 91.7141 21.0068 91.5799 21.0068 91.449Z" fill="#C3C3C3"/>
<path d="M21.0068 86.7638C21.0326 86.783 21.0551 86.8021 21.0809 86.8181C21.0551 86.8245 21.0326 86.8341 21.0068 86.8405C21.0068 86.8149 21.0068 86.7862 21.0068 86.7606V86.7638Z" fill="#3D3D3D"/>
<path d="M21.0068 87.0002C21.0648 86.9746 21.0937 86.9938 21.0841 87.0545C21.0744 87.1087 21.0358 87.0832 21.0068 87.0768V86.997V87.0002Z" fill="#3D3D3D"/>
<path d="M152.377 105.086C151.888 105.399 151.515 105.731 151.103 106.012C149.999 106.769 148.789 107.188 147.472 107.325C144.942 107.59 142.651 106.977 140.652 105.402C139.583 104.559 138.779 103.505 138.222 102.266C137.565 100.8 137.24 99.2672 137.34 97.6576C137.52 94.7705 138.592 92.3113 140.942 90.5069C142.19 89.5456 143.626 88.9994 145.21 88.8238C147.794 88.5363 150.054 89.2869 152.056 90.8805C152.123 90.9348 152.178 91.0594 152.274 91.0179C152.397 90.9668 152.336 90.839 152.332 90.7336C152.316 90.2578 152.316 89.7819 152.291 89.306C152.278 89.0537 152.384 88.9898 152.619 88.9898C153.864 88.9962 155.107 88.9994 156.352 88.9898C156.597 88.9898 156.642 89.092 156.636 89.2996C156.626 89.8426 156.632 90.3855 156.632 90.9252C156.632 95.8468 156.655 100.768 156.623 105.69C156.607 107.794 156.288 109.851 155.155 111.704C154.244 113.192 152.937 114.204 151.315 114.824C149.738 115.427 148.09 115.606 146.41 115.571C145.313 115.549 144.244 115.364 143.191 115.098C141.965 114.789 140.758 114.409 139.638 113.805C139.377 113.665 139.31 113.524 139.39 113.24C139.67 112.253 139.931 111.26 140.185 110.266C140.266 109.953 140.369 109.896 140.674 110.065C141.669 110.627 142.712 111.094 143.838 111.327C144.817 111.528 145.795 111.844 146.8 111.758C148.312 111.633 149.822 111.391 150.984 110.286C151.792 109.519 152.233 108.586 152.31 107.45C152.361 106.683 152.332 105.926 152.374 105.086H152.377ZM152.445 98.0377C152.445 97.6225 152.468 97.2041 152.377 96.7857C152.126 95.6072 151.637 94.5948 150.604 93.8667C149.185 92.8638 147.636 92.4582 145.918 92.7265C144.038 93.0171 142.403 94.5693 142.007 96.1981C141.769 97.1785 141.724 98.1558 141.84 99.1555C141.956 100.123 142.31 100.957 142.944 101.71C143.71 102.617 144.746 103.033 145.831 103.342C146.481 103.528 147.163 103.556 147.862 103.448C149.259 103.231 150.392 102.557 151.28 101.532C152.136 100.548 152.574 99.3694 152.442 98.0345L152.445 98.0377Z" fill="#3D3D3D"/>
<path d="M74.6482 107.721C74.6482 106.98 74.6482 106.239 74.6418 105.498C74.6418 105.425 74.6836 105.326 74.5967 105.284C74.4777 105.23 74.4422 105.345 74.3843 105.412C73.1838 106.843 71.6356 107.609 69.7849 107.897C68.3655 108.117 66.9943 108.008 65.6522 107.561C63.1771 106.737 61.3714 105.163 60.2964 102.787C59.7878 101.666 59.5851 100.484 59.4499 99.2704C59.3244 98.1335 59.5046 97.0444 59.6945 95.9426C59.9488 94.4671 60.6472 93.2087 61.5677 92.0398C62.4529 90.9157 63.5504 90.0821 64.854 89.4976C65.6651 89.1336 66.5309 88.9771 67.4031 88.8206C68.4685 88.629 69.5081 88.7791 70.5316 89.0058C71.2107 89.1559 71.8673 89.4146 72.4853 89.7595C73.1226 90.1172 73.6633 90.5803 74.1751 91.0945C74.2266 91.1456 74.2781 91.3053 74.4133 91.2318C74.5131 91.1775 74.4809 91.069 74.4873 90.9827C74.5227 90.443 74.3682 89.9128 74.3875 89.3699C74.3972 89.108 74.4519 88.9898 74.7384 88.9898C75.9679 89.0026 77.2006 89.0026 78.4301 89.0026C78.6973 89.0026 78.8228 89.0665 78.8228 89.3827C78.8099 95.3485 78.8099 101.318 78.8228 107.283C78.8228 107.753 78.5267 107.839 78.1855 107.798C77.03 107.657 75.8713 107.724 74.7158 107.782C74.6901 107.759 74.6643 107.74 74.6386 107.718L74.6482 107.721ZM69.257 104.115C69.5306 104.08 69.9394 104.093 70.3514 104.01C71.082 103.86 71.7 103.48 72.318 103.119C73.393 102.486 74.0399 101.496 74.3972 100.337C74.6772 99.4333 74.6804 98.5039 74.5806 97.5554C74.4326 96.1054 73.8275 94.9238 72.7364 93.9688C72.3212 93.6048 71.8995 93.1992 71.3942 93.0075C70.6861 92.7393 69.9265 92.6147 69.1412 92.6275C67.4611 92.6562 66.0931 93.2822 65.0374 94.5661C64.9441 94.6779 64.8025 94.7321 64.7445 94.8918C64.5224 95.505 64.2875 96.1118 64.0815 96.7314C63.7339 97.7853 63.7146 98.8584 63.9206 99.89C64.3583 102.1 66.4858 104.202 69.2538 104.118L69.257 104.115Z" fill="#3D3D3D"/>
<path d="M128.863 107.488C128.872 107.117 128.892 106.75 128.892 106.38C128.895 103.416 128.898 100.452 128.892 97.4883C128.892 96.61 128.792 95.735 128.483 94.9078C128.219 94.1956 127.768 93.592 127.089 93.2055C125.918 92.5381 124.643 92.471 123.372 92.7616C121.775 93.1257 120.784 94.1956 120.256 95.6998C120.018 96.3801 119.921 97.0859 119.925 97.8109C119.931 100.854 119.928 103.898 119.928 106.942C119.928 107.089 119.941 107.236 119.921 107.379C119.886 107.606 119.812 107.756 119.5 107.75C118.296 107.724 117.092 107.734 115.889 107.74C115.644 107.74 115.531 107.699 115.531 107.418C115.544 101.966 115.544 96.5142 115.547 91.0626C115.547 90.4813 115.554 89.8968 115.534 89.3156C115.528 89.092 115.596 88.9994 115.818 88.9994C117.089 88.9994 118.36 89.0026 119.632 88.9994C119.886 88.9994 119.938 89.1144 119.931 89.3443C119.918 90.0565 119.925 90.7719 119.925 91.4873C120.034 91.5576 120.111 91.4682 120.163 91.4139C121.431 89.9959 123.06 89.2294 124.907 88.8876C126.581 88.5778 128.216 88.7439 129.738 89.5296C131.183 90.2737 132.139 91.4682 132.632 92.9852C132.825 93.5824 133.053 94.1924 133.095 94.8343C133.137 95.5018 133.205 96.1693 133.205 96.84C133.218 100.267 133.211 103.694 133.211 107.121C133.211 107.534 133 107.739 132.577 107.737C131.454 107.737 130.33 107.737 129.204 107.734C129.062 107.734 128.898 107.785 128.853 107.574C128.853 107.549 128.853 107.52 128.853 107.494L128.863 107.488Z" fill="#3D3D3D"/>
<path d="M168.036 108.037C165.274 107.973 162.864 107.152 160.743 105.505C160.543 105.348 160.514 105.243 160.665 105.029C161.299 104.144 161.93 103.259 162.481 102.32C162.603 102.113 162.703 102.148 162.851 102.279C163.585 102.924 164.389 103.461 165.303 103.821C165.902 104.058 166.53 104.154 167.17 104.233C167.955 104.332 168.715 104.304 169.465 104.064C170.35 103.783 170.646 103.355 170.685 102.439C170.704 101.975 170.434 101.733 170.109 101.516C169.339 101.001 168.496 100.641 167.624 100.34C166.52 99.9571 165.429 99.5387 164.399 98.9862C163.082 98.2804 162.046 97.3127 161.567 95.8627C160.842 93.6814 161.422 91.4618 163.43 90.0885C164.994 89.0186 166.732 88.6034 168.606 88.7567C169.758 88.8525 170.897 89.0856 171.966 89.5487C172.828 89.9224 173.643 90.3855 174.402 90.9412C174.65 91.1232 174.447 91.2446 174.373 91.3596C173.865 92.1676 173.34 92.9628 172.825 93.7676C172.41 94.4128 172.407 94.4223 171.786 93.9369C170.521 92.9468 169.095 92.4295 167.473 92.4678C166.948 92.4806 166.481 92.6594 166.089 93.0043C165.432 93.5792 165.451 94.368 166.118 94.9493C166.832 95.5721 167.698 95.9202 168.551 96.3002C169.832 96.8719 171.174 97.3031 172.413 97.9706C173.263 98.4273 174.039 98.967 174.554 99.8165C174.84 100.289 174.998 100.797 175.091 101.327C175.297 102.534 175.101 103.697 174.576 104.789C173.778 106.443 172.326 107.264 170.611 107.718C169.745 107.948 168.853 107.992 168.039 108.031L168.036 108.037Z" fill="#3D3D3D"/>
<path d="M84.5617 88.9898C85.1893 88.9898 85.8202 89.0026 86.4478 88.9834C86.7182 88.9771 86.8276 89.0697 86.9177 89.3252C87.3844 90.6378 87.8801 91.9408 88.3661 93.2439C88.7041 94.1445 89.0517 95.0387 89.3832 95.9394C89.6182 96.5717 89.7984 97.2232 90.0752 97.8332C90.2554 98.2325 90.4486 98.6508 90.5644 99.0469C90.7479 99.6728 91.0311 100.257 91.2082 100.883C91.324 101.292 91.5139 101.678 91.6716 102.078C91.7006 102.151 91.7296 102.234 91.8229 102.244C91.9323 102.253 91.9323 102.132 91.9549 102.078C92.1866 101.484 92.4119 100.89 92.6244 100.289C92.7724 99.8676 92.8625 99.4205 93.0428 99.0149C93.3131 98.4017 93.5063 97.763 93.7444 97.1402C94.1757 96 94.6102 94.8631 95.0061 93.7133C95.3891 92.5987 95.843 91.5129 96.2035 90.3887C96.3386 89.9639 96.5607 89.5615 96.6734 89.1208C96.7023 89.0026 96.8247 88.8749 96.992 88.9068C97.9962 89.0984 99.0101 88.9483 100.018 88.9994C100.349 89.0154 100.681 89.0314 101.006 89.0761C101.183 89.1016 101.311 89.1304 101.179 89.4178C100.735 90.4047 100.362 91.4234 99.9564 92.4295C99.4671 93.6495 98.994 94.8759 98.4726 96.0863C98.1572 96.8208 97.9061 97.5905 97.61 98.3378C96.4674 101.215 95.3119 104.09 94.1629 106.964C94.1146 107.085 94.0373 107.204 94.0148 107.331C93.9343 107.772 93.532 107.807 93.2584 107.778C92.2735 107.679 91.2886 107.756 90.3069 107.74C89.8563 107.734 89.6857 107.574 89.5345 107.149C89.145 106.041 88.6654 104.965 88.2277 103.876C87.6999 102.566 87.2106 101.241 86.6474 99.9443C86.1388 98.7818 85.7429 97.5777 85.2408 96.412C85.0123 95.8819 84.8031 95.3453 84.5939 94.8088C83.8794 92.966 83.1262 91.1392 82.3344 89.3316C82.225 89.0793 82.2829 88.9962 82.5533 88.9994C83.2228 89.0058 83.8922 88.9994 84.5585 88.9994L84.5617 88.9898Z" fill="#3D3D3D"/>
<path d="M109.587 98.3921C109.587 101.381 109.587 104.371 109.593 107.36C109.593 107.619 109.551 107.74 109.249 107.734C108.032 107.718 106.815 107.718 105.599 107.734C105.316 107.734 105.238 107.654 105.238 107.37C105.248 101.391 105.248 95.4124 105.238 89.4369C105.238 89.0761 105.354 88.9866 105.689 88.9898C106.867 89.0058 108.042 89.0058 109.22 88.9962C109.519 88.9962 109.596 89.0952 109.596 89.389C109.587 92.3911 109.59 95.3932 109.59 98.3953H109.593L109.587 98.3921Z" fill="#3D3D3D"/>
<path d="M110.297 83.4104C110.304 85.0935 108.936 86.2656 107.297 86.2464C105.929 86.2305 104.545 85.0999 104.529 83.3114C104.517 81.8072 105.843 80.5041 107.516 80.5137C108.839 80.5201 110.374 81.772 110.297 83.4104Z" fill="#3D3D3D"/>
<path d="M132.448 119.123C132.329 118.279 132.394 117.554 132.384 116.829C132.371 115.929 132.4 115.031 132.374 114.131C132.365 113.779 132.535 113.703 132.828 113.687C133.131 113.671 133.259 113.786 133.256 114.102C133.25 117.622 133.25 121.141 133.253 124.657C133.253 124.846 133.237 125.041 133.121 125.187C132.986 125.357 132.77 125.283 132.593 125.264C132.397 125.245 132.458 125.063 132.455 124.945C132.445 124.603 132.455 124.264 132.455 123.923C132.413 123.891 132.371 123.856 132.332 123.824C132.242 123.948 132.162 124.079 132.065 124.201C131.125 125.401 129.03 125.58 127.733 124.916C126.764 124.418 126.149 123.661 125.873 122.623C125.438 120.997 125.795 119.573 127.018 118.394C127.579 117.855 128.28 117.574 129.072 117.574C129.51 117.574 129.951 117.516 130.388 117.634C131.022 117.807 131.537 118.152 131.991 118.605C132.13 118.743 132.255 118.896 132.458 119.119L132.448 119.123ZM126.59 121.47C126.613 121.77 126.581 122.07 126.648 122.374C126.928 123.661 128.019 124.472 129.439 124.549C130.733 124.619 131.859 123.769 132.255 122.524C132.413 122.029 132.419 121.527 132.365 121.036C132.175 119.273 130.849 118.075 128.914 118.43C127.636 118.663 126.462 119.969 126.59 121.467V121.47Z" fill="#C3C3C3"/>
<path d="M60.2796 117.944C60.2796 119.056 60.2603 120.167 60.2829 121.278C60.3151 122.834 61.2903 124.095 62.7805 124.347C64.7825 124.689 66.5914 123.773 66.8682 121.55C66.9132 121.179 66.9325 120.815 66.9325 120.445C66.9325 118.474 66.9422 116.504 66.9261 114.533C66.9261 114.188 67.0227 114.054 67.3799 114.07C67.6954 114.086 67.9046 114.108 67.9013 114.52C67.882 116.651 67.9367 118.781 67.8788 120.908C67.8402 122.447 67.3027 123.801 65.9122 124.676C64.9788 125.267 63.9392 125.392 62.8706 125.242C60.7174 124.935 59.7969 123.463 59.4106 121.882C59.3237 121.518 59.3205 121.131 59.3173 120.755C59.3076 118.691 59.3269 116.628 59.298 114.565C59.2915 114.083 59.5587 114.172 59.8516 114.147C60.2024 114.118 60.2796 114.252 60.2764 114.572C60.2603 115.696 60.27 116.82 60.27 117.944H60.2764H60.2796Z" fill="#C3C3C3"/>
<path d="M115.135 121.694C114.291 121.694 113.448 121.694 112.605 121.694C112.328 121.694 112.032 121.543 112.177 122.125C112.302 122.632 112.412 123.105 112.73 123.52C113.49 124.514 115.119 124.858 116.239 124.271C116.557 124.105 116.86 123.926 117.105 123.661C117.314 123.434 117.526 123.495 117.729 123.69C117.951 123.9 117.832 124.06 117.665 124.226C116.734 125.162 115.589 125.417 114.317 125.245C112.492 124.996 111.208 123.335 111.234 121.601C111.247 120.703 111.324 119.86 111.884 119.094C113.136 117.382 115.109 117.168 116.693 118.049C117.185 118.324 117.639 118.755 117.851 119.222C118.157 119.892 118.353 120.646 118.324 121.419C118.315 121.687 118.144 121.703 117.941 121.703C117.005 121.703 116.068 121.703 115.132 121.703L115.135 121.694ZM114.823 120.895V120.901C115.572 120.901 116.322 120.898 117.069 120.901C117.304 120.901 117.497 120.847 117.43 120.573C117.265 119.908 117.011 119.279 116.425 118.861C114.971 117.816 112.843 118.391 112.244 120.435C112.145 120.777 112.244 120.889 112.615 120.892C113.352 120.898 114.085 120.892 114.823 120.892V120.895Z" fill="#C3C3C3"/>
<path d="M77.2451 118.912C77.5316 118.653 77.7183 118.295 78.0755 118.097C79.0025 117.586 79.9777 117.417 81.0045 117.657C81.9121 117.867 82.5559 118.739 82.6782 119.851C82.8616 121.55 82.72 123.255 82.7586 124.957C82.7683 125.341 82.4818 125.261 82.2501 125.277C81.9701 125.296 81.8735 125.175 81.8767 124.903C81.8832 123.476 81.8767 122.048 81.8767 120.617C81.8767 120.234 81.851 119.844 81.7061 119.496C81.2652 118.442 80.4155 118.212 79.3244 118.404C78.1882 118.605 77.3674 119.589 77.2194 120.812C77.0617 122.115 77.1808 123.424 77.1454 124.734C77.1325 125.251 76.9072 125.414 76.3986 125.27C76.2023 125.216 76.2538 125.069 76.2538 124.951C76.2538 124.277 76.2602 123.603 76.257 122.926C76.257 121.301 76.257 119.672 76.2441 118.046C76.2441 117.749 76.2956 117.558 76.6465 117.567C76.9619 117.577 77.1969 117.631 77.1486 118.037C77.1164 118.308 77.1421 118.586 77.1421 118.861C77.1775 118.877 77.2097 118.893 77.2451 118.909V118.912Z" fill="#C3C3C3"/>
<path d="M102.76 118.378C102.425 118.378 102.09 118.378 101.756 118.378C101.559 118.378 101.447 118.452 101.472 118.663C101.649 120.161 101.479 121.662 101.537 123.159C101.543 123.319 101.537 123.479 101.546 123.635C101.598 124.277 102.081 124.635 102.744 124.523C103.098 124.462 103.452 124.383 103.774 124.229C104.018 124.114 104.108 124.239 104.15 124.415C104.192 124.6 104.327 124.833 104.038 124.954C103.426 125.213 102.786 125.331 102.123 125.27C101.273 125.191 100.668 124.44 100.658 123.421C100.642 121.927 100.636 120.432 100.658 118.937C100.664 118.535 100.568 118.404 100.153 118.439C99.6796 118.477 99.5637 118.318 99.6056 117.871C99.6217 117.698 99.6989 117.641 99.8598 117.647C99.9661 117.65 100.075 117.641 100.182 117.647C100.52 117.673 100.664 117.545 100.652 117.19C100.629 116.555 100.661 115.919 100.639 115.287C100.629 114.987 100.767 114.932 101.025 114.939C101.273 114.942 101.479 114.948 101.472 115.287C101.459 115.91 101.485 116.532 101.466 117.152C101.456 117.475 101.55 117.599 101.894 117.586C102.518 117.561 103.146 117.58 103.77 117.586C104.005 117.586 104.285 117.65 104.256 117.922C104.228 118.164 104.057 118.404 103.716 118.385C103.394 118.369 103.075 118.382 102.753 118.382L102.76 118.378Z" fill="#C3C3C3"/>
<path d="M91.9934 121.47C91.9934 122.62 91.9934 123.773 91.9934 124.922C91.9934 125.088 92.0353 125.293 91.7552 125.277C91.5138 125.264 91.1759 125.366 91.1566 124.999C91.134 124.558 90.9828 124.121 91.1019 123.674C91.1308 123.562 91.1147 123.437 91.1147 123.319C91.1147 121.585 91.1147 119.854 91.1147 118.12C91.1147 117.701 91.5331 117.462 91.8969 117.663C92.0513 117.749 91.9902 117.896 91.9934 118.018C91.9966 119.167 91.9934 120.32 91.9934 121.47Z" fill="#C3C3C3"/>
<path d="M91.6041 114.639C91.9259 114.632 92.2446 114.974 92.2446 115.319C92.2446 115.654 91.8937 115.986 91.5461 115.986C91.2211 115.986 90.8799 115.635 90.8799 115.309C90.8799 114.99 91.2565 114.645 91.6041 114.639Z" fill="#C3C3C3"/>
<path d="M21.29 87.4633C21.319 87.5782 21.3415 87.6932 21.245 87.8369C21.1516 87.7124 21.1613 87.5942 21.1774 87.4728C21.216 87.4728 21.2514 87.4665 21.29 87.4633Z" fill="#C3C3C3"/>
<path d="M74.6481 107.721C74.6738 107.743 74.6996 107.763 74.7253 107.785C74.6545 107.817 74.6384 107.785 74.6481 107.721Z" fill="#C3C3C3"/>
<path d="M128.862 107.488C128.862 107.513 128.862 107.542 128.862 107.568C128.856 107.549 128.846 107.529 128.843 107.51C128.843 107.504 128.856 107.494 128.862 107.488Z" fill="#C3C3C3"/>
</g>
<defs>
<clipPath id="clip0_2515_72515">
<rect width="159" height="61" fill="white" transform="translate(21 70)"/>
</clipPath>
</defs>
</svg>
