<svg width="40" height="40" viewBox="0 0 40 40" fill="none" xmlns="http://www.w3.org/2000/svg">
<g clip-path="url(#clip0_2873_15736)">
<path d="M2.50001 19.9871C2.4926 29.6519 10.321 37.4926 19.9858 37.5C24.5444 37.5037 28.6985 35.7646 31.8153 32.9106H31.2899H31.0494H28.8663C24.4371 32.9056 21.5177 27.3566 19.5332 23.3234C22.0875 27.1321 24.7233 31.4811 29.9467 31.4848H30.408H30.7077L33.2041 31.4872C35.8781 28.4161 37.4988 24.4051 37.5012 20.0142C37.5086 10.3506 29.6791 2.50864 20.0142 2.50124C10.3481 2.49384 2.50741 10.3222 2.50001 19.9871ZM3.00816 19.9871C3.01556 10.6022 10.6293 3.00077 20.0142 3.00817C29.3978 3.01557 36.9992 10.6293 36.9918 20.0142C36.9881 24.1954 35.476 28.0214 32.9698 30.9791H30.7065C27.4614 30.9741 24.6234 26.6893 21.9531 22.1554C20.6309 19.9118 19.3778 17.6695 18.1653 15.9872C16.9689 14.3258 15.7306 13.0875 14.4257 13.0862C11.838 13.0838 10.6355 15.8145 9.27627 18.3257C9.12456 18.6069 8.96792 18.8856 8.80635 19.1607C8.44743 19.659 8.13291 20.1844 7.77276 20.6556C7.01792 21.5436 6.11508 22.143 4.90636 22.1443H3.14137C3.05133 21.4277 3.00693 20.7074 3.00816 19.9871ZM14.4257 13.5919C15.4358 13.5919 16.5348 14.591 17.7534 16.2832C18.9584 17.9544 20.2029 20.1844 21.5152 22.4131C23.5244 25.821 25.7655 29.3769 28.3433 30.8187C23.3542 29.8086 21.0872 24.1572 18.0963 20.4595C16.0784 16.6236 13.9471 13.7079 10.8155 16.5496C11.7505 14.9141 12.7865 13.5907 14.4257 13.5919ZM16.7001 18.9596C15.5222 17.8952 14.1852 17.2082 12.5213 17.2033C11.6654 17.2033 11.0018 17.3698 10.4616 17.6411C13.0973 14.6637 14.9314 16.0402 16.7013 18.9596M3.21291 22.65H4.90759H4.95939C6.59487 22.6364 7.45701 21.9038 8.13908 21.0071C8.54363 20.5335 8.90625 19.9883 9.24543 19.4135C9.9423 18.4799 10.8131 17.709 12.525 17.7102C13.529 17.7151 14.4343 18.5773 15.352 20.0561C16.2647 21.5288 17.1207 23.4911 18.0445 25.4535C19.8773 29.3386 22.0777 33.4841 25.694 33.4878L30.3303 33.4915C27.4639 35.6894 23.8759 36.9956 19.9846 36.9919C11.5062 36.9845 4.48207 30.7706 3.21044 22.65M18.5021 25.2376C17.5684 23.2568 16.7025 21.276 15.7812 19.7909C15.3729 19.1336 14.9412 18.5489 14.4713 18.1024C15.7059 18.6168 16.7482 19.5998 17.7238 20.8085C20.0191 25.2253 22.4477 31.317 26.6104 32.9821H25.6927C22.4612 32.9784 20.3879 29.2387 18.5021 25.2376Z" fill="url(#paint0_linear_2873_15736)"/>
</g>
<defs>
<linearGradient id="paint0_linear_2873_15736" x1="37.6327" y1="20.3901" x2="2.63273" y2="20.3901" gradientUnits="userSpaceOnUse">
<stop stop-color="#FFB235"/>
<stop offset="0.33" stop-color="#C63F44"/>
<stop offset="0.67" stop-color="#20708B"/>
<stop offset="1" stop-color="#102733"/>
</linearGradient>
<clipPath id="clip0_2873_15736">
<rect width="35" height="34.9975" fill="white" transform="translate(2.5 2.50124)"/>
</clipPath>
</defs>
</svg>
