<svg width="41" height="40" viewBox="0 0 41 40" fill="none" xmlns="http://www.w3.org/2000/svg">
<rect x="0.0078125" width="40" height="40" rx="12" fill="#3A559D"/>
<path d="M21.9086 21.9008C19.2075 24.6019 16.1062 26.0025 15.0057 24.902C14.2054 24.1017 14.8056 22.0008 16.4063 19.9" stroke="#BBCAF2" stroke-width="1.5" stroke-linecap="round" stroke-linejoin="round"/>
<path d="M18.107 17.9992C20.9082 15.198 24.0095 13.8975 25.0099 14.8979C25.8102 15.6982 25.21 17.7991 23.6093 19.9" stroke="#BBCAF2" stroke-width="1.5" stroke-linecap="round" stroke-linejoin="round"/>
<path d="M21.9086 17.9992C24.7098 20.8003 26.0103 23.9016 25.0099 24.902C24.2096 25.7024 22.1087 25.1021 20.0078 23.5015" stroke="#BBCAF2" stroke-width="1.5" stroke-linecap="round" stroke-linejoin="round"/>
<path d="M18.107 21.9008C15.3059 19.0996 13.9053 15.9983 15.0057 14.8979C15.8061 14.0975 17.9069 14.6978 20.0078 16.2985" stroke="#BBCAF2" stroke-width="1.5" stroke-linecap="round" stroke-linejoin="round"/>
<path fill-rule="evenodd" clip-rule="evenodd" d="M16.0061 10.9963H24.0095C26.8106 10.9963 29.0116 13.1972 29.0116 15.9983V24.0017C29.0116 26.8028 26.8106 29.0038 24.0095 29.0038H16.0061C13.205 29.0038 11.0041 26.8028 11.0041 24.0017V15.9983C11.0041 13.1972 13.205 10.9963 16.0061 10.9963Z" stroke="#BBCAF2" stroke-width="1.5" stroke-linecap="round" stroke-linejoin="round"/>
<path d="M20.0078 20.1C20.1079 20.1 20.1079 20 20.0078 20.1V20V20.1C19.9078 20 19.9078 20.1 20.0078 20.1" stroke="#BBCAF2" stroke-width="1.5" stroke-linecap="round" stroke-linejoin="round"/>
</svg>
