<svg width="200" height="200" viewBox="0 0 200 200" fill="none" xmlns="http://www.w3.org/2000/svg">
<g clip-path="url(#clip0_2515_72994)">
<path d="M23.0852 116.985C22.7782 116.377 22.2 116.614 21.76 116.65C20.6598 116.748 20.4551 116.593 20.3988 115.444C20.3784 115.012 20.4858 114.579 20.2965 114.141C20.056 113.579 19.5392 113.533 19.0787 113.451C18.6284 113.368 18.1474 113.435 17.6817 113.43C17.344 113.43 17.3849 113.662 17.3849 113.868C17.3849 114.605 17.3645 115.346 17.3952 116.083C17.4208 116.645 17.1445 116.742 16.6686 116.67C16.208 116.598 15.7526 116.583 15.2921 116.701C14.586 116.882 14.3711 116.732 14.4222 116.021C14.5809 113.615 14.4785 111.21 14.4939 108.809C14.4939 108.706 14.4939 108.598 14.4939 108.495C14.4529 107.585 14.9015 107.128 15.8396 107.125C17.2621 107.125 18.6898 107.058 20.1072 107.13C21.7855 107.217 22.9266 107.794 23.2848 109.499C23.469 110.391 23.1569 111.122 22.548 111.751C21.9595 112.358 21.9595 112.348 22.548 112.951C22.9829 113.399 23.2285 113.94 23.2234 114.568C23.2132 115.372 23.556 116.176 23.2234 116.979H23.0955L23.0852 116.985ZM18.6898 109.505C18.393 109.505 18.0962 109.515 17.7994 109.505C17.5385 109.489 17.344 109.592 17.4157 109.85C17.5538 110.365 17.0626 111.143 17.6869 111.354C18.2958 111.56 19.0531 111.488 19.7388 111.287C20.317 111.117 20.5012 110.736 20.404 110.2C20.3119 109.695 19.9537 109.494 19.4522 109.51C19.1964 109.52 18.9456 109.51 18.6898 109.51V109.505Z" fill="#221E1F"/>
<path d="M111.506 116.918C110.805 116.212 110.887 115.228 110.596 114.378C110.437 113.914 110.329 113.43 110.202 112.956C110.166 112.832 110.104 112.704 109.966 112.724C109.869 112.74 109.843 112.863 109.813 112.971C109.521 114.058 109.28 115.156 108.948 116.232C108.784 116.758 108.441 116.778 108.119 116.717C107.735 116.645 107.403 116.619 107.019 116.722C106.589 116.84 106.256 116.65 106.108 116.191C105.688 114.908 105.259 113.631 104.839 112.348C104.604 111.622 104.409 110.88 104.138 110.164C104.01 109.824 104.102 109.747 104.409 109.747C105.044 109.747 105.683 109.747 106.318 109.736C106.748 109.736 106.809 110.066 106.876 110.36C107.101 111.318 107.31 112.276 107.525 113.234C107.582 113.492 107.694 113.729 107.894 113.976C108.354 113.415 108.216 112.735 108.375 112.142C108.533 111.545 108.733 110.947 108.666 110.303C108.631 109.948 108.82 109.716 109.224 109.731C109.414 109.736 109.608 109.731 109.797 109.731C111.465 109.731 111.148 109.484 111.588 111.333C111.788 112.168 111.798 113.049 112.233 113.821C112.259 113.868 112.31 113.904 112.392 113.991C112.801 112.982 112.832 111.931 113.108 110.942C113.446 109.726 113.4 109.711 114.658 109.716C114.894 109.716 115.124 109.716 115.359 109.716C116.137 109.705 116.127 109.705 115.886 110.458C115.267 112.374 114.5 114.244 114.014 116.201C113.937 116.505 113.655 116.624 113.415 116.696C113.231 116.748 113.149 116.804 113.123 116.974H112.233C112.008 116.804 111.757 116.881 111.506 116.907V116.918Z" fill="#221E1F"/>
<path d="M182.504 116.985C182.489 116.907 182.489 116.778 182.448 116.763C181.041 116.289 180.616 115.14 180.335 113.847C180.022 112.42 180.672 110.689 181.89 109.917C182.427 109.577 184.259 109.726 184.74 110.133C184.894 110.262 185.098 110.339 185.278 110.442C185.324 110.504 185.359 110.488 185.395 110.427C185.365 109.546 185.365 108.66 185.298 107.779C185.257 107.284 185.436 107.181 185.892 107.207C186.587 107.248 187.289 107.217 187.99 107.217V116.598C187.739 116.603 187.483 116.639 187.232 116.608C186.587 116.536 185.938 116.778 185.272 116.402C184.996 116.248 184.346 116.418 184.162 116.974H182.504V116.985ZM182.893 113.353C182.786 113.657 182.975 113.961 183.031 114.285C183.098 114.671 183.886 115.254 184.183 115.202C184.781 115.099 185.308 114.46 185.308 113.852C185.308 113.471 185.298 113.095 185.308 112.714C185.324 112.291 185.242 111.9 184.848 111.694C184.356 111.436 183.819 111.426 183.389 111.797C182.949 112.183 182.862 112.74 182.888 113.353H182.893Z" fill="#221E1F"/>
<path d="M35.0898 116.907C34.4757 116.583 33.9129 116.186 33.5393 115.599C32.7871 114.404 32.5774 113.126 33.0942 111.782C33.2528 111.364 33.3551 110.921 33.657 110.555C34.0562 110.066 34.5013 109.731 35.1717 109.757C36.0518 109.793 36.9933 109.561 37.6534 110.561C37.8478 109.577 37.8836 108.768 37.8171 107.964C37.7711 107.423 37.8939 107.14 38.5284 107.217C39.0503 107.279 39.5876 107.248 40.1198 107.228C40.437 107.217 40.5649 107.295 40.5598 107.645C40.5445 110.494 40.5445 113.348 40.5598 116.196C40.5598 116.768 40.1658 116.804 39.8127 116.712C39.429 116.614 39.0554 116.634 38.6819 116.65C38.4005 116.665 38.1753 116.681 37.986 116.423C37.8222 116.196 37.6124 116.191 37.3924 116.392C37.1212 116.645 36.6146 116.542 36.4714 116.99H35.4531C35.3968 116.675 35.2433 116.789 35.0898 116.912V116.907ZM37.8785 113.399C37.8785 113.188 37.8785 112.977 37.8785 112.765C37.8785 112.039 37.4641 111.519 36.804 111.534C35.9545 111.55 35.5912 111.854 35.4684 112.616C35.3968 113.049 35.4224 113.502 35.4633 113.945C35.5503 114.883 36.456 115.346 37.2901 114.965C38.0372 114.62 37.8581 113.986 37.8785 113.399Z" fill="#221E1F"/>
<path d="M81.1115 116.985C81.045 116.768 80.9631 116.588 80.6663 116.619C80.1495 116.681 79.6225 116.541 79.1006 116.727C78.6656 116.881 78.3893 116.562 78.1795 116.243C77.8674 115.758 77.5603 115.264 77.3045 114.749C77.1561 114.45 76.9514 114.419 76.6853 114.455C76.3783 114.491 76.4193 114.749 76.4142 114.945C76.3988 115.305 76.4142 115.661 76.4193 116.021C76.4244 116.557 76.1532 116.815 75.6261 116.706C75.2219 116.624 74.8432 116.608 74.4441 116.727C73.9324 116.881 73.6919 116.629 73.7124 116.124C73.8454 113.306 73.651 110.483 73.7022 107.665C73.7073 107.279 73.825 107.13 74.2087 107.14C74.7818 107.15 75.3601 107.155 75.928 107.119C76.3374 107.094 76.4244 107.253 76.4193 107.624C76.3937 108.83 76.3937 110.03 76.3988 111.235C76.3988 111.38 76.2913 111.601 76.5421 111.653C76.7365 111.694 76.8542 111.545 76.9565 111.411C77.2891 110.962 77.6218 110.519 77.9441 110.061C78.1334 109.788 78.4046 109.716 78.7117 109.711C79.3462 109.7 79.9858 109.7 80.6203 109.685C80.7533 109.685 80.871 109.68 80.9375 109.829C81.0041 109.994 80.8659 110.056 80.7891 110.138C80.1905 110.787 79.6071 111.457 78.9675 112.07C78.6554 112.369 78.6605 112.544 78.9061 112.894C79.689 114.022 80.4105 115.192 81.1729 116.335C81.3111 116.541 81.4339 116.732 81.3623 116.985H81.1064H81.1115Z" fill="#221E1F"/>
<path d="M137.168 116.82C137.265 116.851 137.28 116.907 137.224 116.985H136.968C136.769 116.918 136.569 116.856 136.375 116.789C136.001 116.65 136.073 116.33 136.073 116.047C136.068 113.641 136.062 111.235 136.057 108.83C136.057 108.536 136.073 108.237 136.037 107.944C135.94 107.125 135.929 107.119 136.774 107.114C137.388 107.114 138.007 107.13 138.621 107.119C138.918 107.119 139.01 107.212 139.02 107.521C139.092 109.638 139.087 111.756 139.041 113.873C139.03 114.275 139.168 114.332 139.501 114.326C140.606 114.321 141.712 114.337 142.812 114.326C143.226 114.326 143.451 114.429 143.405 114.903C143.364 115.321 143.375 115.748 143.4 116.165C143.431 116.66 143.068 116.742 142.75 116.701C140.913 116.459 139.071 116.665 137.234 116.614C136.968 116.608 137.111 116.722 137.168 116.815V116.804V116.82Z" fill="#221E1F"/>
<path d="M98.6012 116.665C97.148 116.526 96.4675 115.516 96.0888 114.301C95.6488 112.879 96.0837 111.596 97.1071 110.545C97.6086 110.035 98.2686 109.742 99.0055 109.767C99.9777 109.798 100.965 109.597 101.897 110.133C102.905 110.715 103.411 111.617 103.544 112.678C103.693 113.873 103.514 115.032 102.546 115.939C102.173 116.289 101.743 116.495 101.283 116.675C101.124 116.737 100.883 116.717 100.873 116.985H99.3432C99.2409 116.727 99.4302 116.706 99.5939 116.701C99.9265 116.691 100.264 116.701 100.597 116.701C99.9317 116.542 99.2613 116.639 98.5961 116.665H98.6012ZM101.006 113.327C101.006 113.049 101.011 112.817 101.006 112.585C100.991 112.075 100.505 111.612 99.8805 111.539C99.3381 111.483 98.9185 111.642 98.7087 112.209C98.4836 112.822 98.5091 113.471 98.6115 114.064C98.7803 115.027 99.7935 115.357 100.495 114.831C101.109 114.373 100.965 113.832 101.006 113.327Z" fill="#221E1F"/>
<path d="M67.8485 116.985C68.0429 116.84 67.9969 116.753 67.782 116.717C65.9501 116.428 65.1263 114.872 65.0751 113.399C65.029 112.008 65.5407 110.798 66.9121 110.087C67.3982 109.834 67.8536 109.711 68.396 109.747C68.9128 109.783 69.4808 109.597 69.9464 109.675C70.7396 109.814 71.4457 110.303 71.9165 111.009C72.1928 111.416 72.4589 111.946 72.3207 112.358C72.2491 112.57 71.5327 112.559 71.0875 112.549C70.5349 112.539 70.0488 112.59 69.7366 111.931C69.5269 111.488 68.9435 111.421 68.4574 111.55C68.0122 111.663 67.7615 111.998 67.7564 112.472C67.7462 112.997 67.7462 113.528 67.7462 114.053C67.7462 114.558 68.0736 114.893 68.4779 115.032C68.8565 115.161 69.3733 115.207 69.6241 114.764C70.2637 113.641 71.3229 114.167 72.2184 114.064C72.4845 114.033 72.4538 114.223 72.3975 114.404C72.0393 115.547 71.3843 116.397 70.146 116.66C69.9413 116.701 69.8185 116.737 69.8902 116.969H67.8485V116.985Z" fill="#221E1F"/>
<path d="M168.73 116.985C168.643 116.902 168.566 116.778 168.464 116.742C167.481 116.413 167.087 115.959 167.062 114.965C167.036 113.888 167.052 112.817 167.077 111.74C167.087 111.359 166.862 111.416 166.627 111.405C165.665 111.369 165.68 111.359 165.66 110.38C165.649 109.922 165.783 109.731 166.264 109.747C166.729 109.762 166.98 109.577 166.959 109.015C166.913 107.629 166.944 107.624 168.315 107.635C168.612 107.635 168.914 107.676 169.206 107.635C169.815 107.547 169.804 107.887 169.712 108.304C169.697 108.366 169.63 108.418 169.63 108.474C169.62 108.809 169.564 109.159 169.636 109.484C169.743 109.989 170.198 109.695 170.495 109.757C170.976 109.855 171.258 110.03 171.16 110.597C171.073 111.101 170.925 111.498 170.316 111.4C169.712 111.308 169.564 111.56 169.615 112.116C169.661 112.662 169.615 113.214 169.625 113.76C169.636 114.594 169.948 114.934 170.772 114.95C171.079 114.95 171.227 115.042 171.15 115.336C171.038 115.784 171.467 116.371 170.802 116.67C170.408 116.655 170.014 116.66 169.62 116.619C169.323 116.588 169.277 116.768 169.247 116.979C169.078 116.979 168.909 116.979 168.735 116.979L168.73 116.985Z" fill="#221E1F"/>
<path d="M184.162 116.985C184.346 116.428 184.996 116.253 185.272 116.413C185.938 116.789 186.588 116.547 187.232 116.619C187.483 116.645 187.734 116.614 187.99 116.608V116.861C187.826 116.923 187.606 116.768 187.478 116.99H184.162V116.985Z" fill="white"/>
<path d="M119.371 116.985C119.228 116.861 119.473 116.758 119.386 116.639C120.072 116.639 120.763 116.65 121.454 116.65L121.479 116.675C121.433 116.773 121.244 116.835 121.413 116.979H119.371V116.985Z" fill="black"/>
<path d="M59.1757 116.985C59.1757 116.882 59.0529 116.778 59.1757 116.67C59.8562 116.614 60.5419 116.614 61.2276 116.67C61.248 116.717 61.2685 116.758 61.289 116.804C61.2378 116.856 61.1406 116.892 61.2225 116.99H60.5828C60.6954 116.773 60.5368 116.722 60.3884 116.717C60.2298 116.717 60.0814 116.773 60.2042 116.99H59.1859L59.1757 116.985Z" fill="black"/>
<path d="M169.241 116.985C169.277 116.773 169.318 116.593 169.615 116.624C170.009 116.66 170.403 116.66 170.797 116.675C170.817 116.701 170.843 116.722 170.858 116.753C170.858 116.758 170.838 116.784 170.828 116.804C170.766 116.866 170.633 116.861 170.638 116.99H170.383C170.393 116.912 170.352 116.882 170.28 116.897C170.265 116.897 170.26 116.959 170.255 116.99H169.236L169.241 116.985Z" fill="black"/>
<path d="M98.6015 116.665C99.2667 116.639 99.937 116.542 100.602 116.701C100.27 116.701 99.9319 116.691 99.5993 116.701C99.4356 116.706 99.2463 116.732 99.3486 116.985H99.0927C99.1234 116.923 99.1081 116.866 99.0365 116.866C99.0109 116.866 98.9904 116.943 98.9648 116.985H98.4531C98.4634 116.861 98.4941 116.742 98.6015 116.66V116.665Z" fill="black"/>
<path d="M175.361 116.985C175.218 116.444 175.709 116.701 175.883 116.624C176.026 116.557 176.379 116.614 176.251 116.985H175.361Z" fill="#221E1F"/>
<path d="M136.38 116.794C136.58 116.861 136.779 116.923 136.974 116.99H136.206C136.221 116.892 136.262 116.809 136.375 116.794H136.38Z" fill="black"/>
<path d="M111.507 116.918C111.752 116.892 112.003 116.82 112.233 116.985H111.343C111.399 116.964 111.455 116.938 111.512 116.918H111.507Z" fill="black"/>
<path d="M60.1987 116.985C60.081 116.773 60.2294 116.712 60.3829 116.712C60.5313 116.712 60.6951 116.763 60.5774 116.985H60.1936H60.1987Z" fill="#221E1F"/>
<path d="M55.0969 116.985C55.1327 116.912 55.1737 116.84 55.2095 116.768C55.2811 116.778 55.3528 116.789 55.4244 116.804C55.4602 116.861 55.5472 116.897 55.4756 116.985H55.0918H55.0969Z" fill="black"/>
<path d="M35.0898 116.907C35.2433 116.784 35.3968 116.67 35.4531 116.985H34.9414C34.9926 116.959 35.0386 116.933 35.0898 116.907Z" fill="black"/>
<path d="M28.0593 116.985C27.8341 116.701 28.09 116.681 28.2537 116.681C28.4175 116.681 28.6835 116.696 28.4431 116.985H28.0593Z" fill="#221E1F"/>
<path d="M187.479 116.985C187.606 116.763 187.821 116.918 187.99 116.856C187.878 117.119 187.647 116.923 187.479 116.985Z" fill="#221E1F"/>
<path d="M121.413 116.985C121.244 116.84 121.433 116.778 121.479 116.681C121.5 116.784 121.52 116.882 121.54 116.985H121.413Z" fill="#221E1F"/>
<path d="M137.485 116.985C137.439 116.943 137.388 116.882 137.455 116.845C137.511 116.815 137.598 116.84 137.675 116.84C137.654 116.887 137.634 116.938 137.613 116.985H137.485Z" fill="black"/>
<path d="M137.992 116.985C137.946 116.943 137.885 116.882 137.951 116.845C138.007 116.815 138.1 116.84 138.171 116.84C138.151 116.892 138.135 116.938 138.115 116.99H137.987L137.992 116.985Z" fill="black"/>
<path d="M138.504 116.985C138.458 116.948 138.391 116.887 138.458 116.845C138.509 116.809 138.622 116.809 138.673 116.845C138.739 116.887 138.678 116.948 138.632 116.985H138.504Z" fill="black"/>
<path d="M139.015 116.985C138.995 116.938 138.979 116.887 138.959 116.84C139.031 116.84 139.123 116.815 139.179 116.845C139.246 116.882 139.189 116.943 139.143 116.985H139.015Z" fill="black"/>
<path d="M170.643 116.985C170.633 116.851 170.766 116.861 170.832 116.799C170.853 116.861 170.879 116.923 170.899 116.985H170.643Z" fill="#221E1F"/>
<path d="M26.7803 116.985C26.811 116.943 26.8417 116.907 26.8724 116.866C26.8826 116.907 26.898 116.943 26.9082 116.985H26.7803Z" fill="#221E1F"/>
<path d="M29.0771 116.985C29.0413 116.897 29.0413 116.82 29.1692 116.84C29.2614 116.856 29.2204 116.928 29.2051 116.985H29.0771Z" fill="#221E1F"/>
<path d="M61.2171 116.985C61.1353 116.887 61.2325 116.851 61.2837 116.799C61.3041 116.861 61.3246 116.923 61.3451 116.985H61.2171Z" fill="#221E1F"/>
<path d="M98.9648 116.985C98.9904 116.943 99.0109 116.866 99.0365 116.866C99.1081 116.866 99.1235 116.918 99.0928 116.985H98.9648Z" fill="#221E1F"/>
<path d="M170.26 116.985C170.27 116.954 170.27 116.897 170.285 116.892C170.357 116.876 170.398 116.902 170.388 116.985H170.26Z" fill="#221E1F"/>
<path d="M176.763 116.985C176.763 116.938 176.763 116.861 176.778 116.856C176.88 116.83 176.875 116.918 176.891 116.985H176.763Z" fill="#221E1F"/>
<path d="M91.7091 92.927C91.7193 93.0352 91.6067 93.0918 91.4993 93.2C90.3531 94.3024 89.2581 95.4512 88.0914 96.533C86.7763 97.7539 85.5483 99.0624 84.2895 100.335C83.8443 100.783 83.3326 101.18 82.954 101.685C82.7135 102.004 82.5907 101.968 82.345 101.715C81.4035 100.742 80.4415 99.7888 79.4898 98.8255C79.1521 98.4855 78.8553 98.5215 78.5227 98.8564C77.5965 99.7888 76.655 100.706 75.7237 101.633C75.519 101.834 75.3502 102.061 75.079 101.69C74.8999 101.437 74.6338 101.272 75.0022 100.938C75.9591 100.062 76.8853 99.15 77.8114 98.2433C78.0263 98.0321 78.3692 97.7642 78.0724 97.4603C77.7756 97.1512 77.4276 97.4242 77.1974 97.6458C76.2814 98.5267 75.3962 99.4385 74.4905 100.33C74.3165 100.5 74.1784 100.814 73.8407 100.464C73.5439 100.16 73.6155 99.8764 73.8662 99.6806C74.6287 99.0779 75.1506 98.2433 75.9437 97.6664C76.2917 97.4088 76.5475 97.0276 76.8494 96.703C76.9876 96.5588 77.1513 96.3939 76.9518 96.2342C76.8085 96.1209 76.5987 95.9767 76.3787 96.1621C76.1382 96.363 75.8516 96.5073 75.6674 96.7752C75.0176 97.7179 74.0607 98.367 73.3034 99.2118C73.0526 99.49 72.7917 99.4076 72.5409 99.1603C72.2953 98.9182 72.2953 98.7791 72.5717 98.5164C73.5132 97.6458 74.4086 96.7236 75.3195 95.8221C75.3962 95.75 75.4832 95.683 75.5395 95.5955C75.6879 95.3894 75.7288 95.1112 75.5497 94.967C75.3962 94.8382 75.1557 94.9515 74.992 95.1267C74.7003 95.4358 74.3728 95.7088 74.0965 96.0282C72.72 97.6045 70.9086 98.7121 69.5066 100.258C69.1586 100.639 68.8056 101.01 68.4525 101.386C68.2376 101.612 67.9766 101.988 67.685 101.731C67.3728 101.453 67.7464 101.185 67.9664 100.968C68.2939 100.639 68.606 100.288 68.9591 99.9845C70.5505 98.6194 71.6301 96.7906 73.1959 95.4049C73.5439 95.1009 73.8816 94.7867 74.2347 94.4879C74.4956 94.2664 74.6338 93.9573 74.3984 93.7306C74.1886 93.5297 73.8765 93.7306 73.682 93.9264C73.1396 94.4827 72.6382 95.0752 72.0907 95.6315C71.098 96.6361 69.9569 97.4655 68.9233 98.4133C68.2581 99.0212 67.6338 99.6806 66.9891 100.309C66.8355 100.458 66.6616 100.721 66.4364 100.525C66.1959 100.319 66.3392 100.098 66.5592 99.9073C68.2325 98.4906 69.5578 96.7442 71.1031 95.2091C74.7412 91.5979 78.3641 87.9764 81.992 84.3549C82.606 83.7418 82.7237 83.7212 83.3122 84.3703C84.4276 85.6067 85.712 86.6782 86.8428 87.8939C88.1119 89.2591 89.5804 90.4233 90.7778 91.8555C90.9774 92.0924 91.2639 92.2933 91.5095 92.5097C91.6272 92.6127 91.7244 92.7106 91.7244 92.927H91.7091Z" fill="black"/>
<path d="M20.8852 86.5649C22.098 86.5649 23.3107 86.5855 24.5183 86.5546C25.0044 86.5443 25.1528 86.7246 25.1374 87.1831C25.1119 87.9867 25.0965 88.7903 25.1477 89.5888C25.1886 90.2379 24.8662 90.377 24.3238 90.3718C22.8604 90.3512 21.3918 90.3409 19.9284 90.3358C19.2734 90.3358 18.6133 90.3976 17.9583 90.3564C17.4825 90.3255 17.2778 90.5573 17.2369 90.9437C17.1908 91.3352 17.4825 91.5618 17.8304 91.634C18.1579 91.7061 18.5059 91.7061 18.8436 91.7164C20 91.7628 21.1616 91.5876 22.318 91.8761C23.7661 92.2315 24.7434 93.1382 25.2295 94.4467C25.9357 96.3579 25.5059 98.094 23.935 99.4694C23.2851 100.036 22.5431 100.397 21.6221 100.381C19.606 100.35 17.5848 100.381 15.5636 100.381C15.4152 100.381 15.2617 100.371 15.1184 100.397C14.31 100.52 14.2076 100.453 14.2025 99.66C14.1923 98.8358 14.2332 98.0115 14.2281 97.1873C14.2281 96.8009 14.3714 96.6928 14.7551 96.6979C16.6893 96.7134 18.6235 96.6979 20.5578 96.6979C20.6447 96.6979 20.7266 96.7082 20.8136 96.7031C21.4174 96.6825 21.9189 96.3579 21.8831 95.9715C21.8268 95.3379 21.3048 95.3431 20.8545 95.3328C19.9181 95.307 18.9817 95.3431 18.0505 95.3121C15.4613 95.2297 13.481 93.1331 13.5475 90.6809C13.5731 89.6918 14.0388 88.8161 14.6681 88.0382C15.5483 86.9409 16.674 86.4515 18.0914 86.5443C19.0227 86.6061 19.9591 86.5546 20.8955 86.5546C20.8955 86.5546 20.8955 86.5546 20.8955 86.5597L20.8852 86.5649Z" fill="black"/>
<path d="M26.5449 96.0643C26.5449 94.7352 26.5602 93.4061 26.5347 92.077C26.5244 91.6906 26.6779 91.5258 27.0208 91.5206C28.0646 91.5052 29.1085 91.4743 30.1472 91.5361C30.5617 91.5618 30.6231 91.9843 30.618 92.3603C30.6078 93.607 30.6231 94.8536 30.5924 96.0952C30.5771 96.5949 30.7357 96.7236 31.2371 96.7236C32.4908 96.7288 33.4835 96.2549 34.1589 95.2349C34.819 94.2355 34.8088 93.0609 34.3431 92.0512C33.8468 90.9694 32.8388 90.2843 31.58 90.2946C30.0961 90.31 28.6121 90.1967 27.1333 90.3306C26.8161 90.3615 26.5295 90.2173 26.5347 89.7897C26.5551 88.8418 26.55 87.8888 26.5449 86.9409C26.5449 86.6833 26.6114 86.5494 26.898 86.5597C28.8219 86.6267 30.7613 86.3588 32.6699 86.6885C35.0851 87.1006 36.8607 88.44 37.8994 90.6861C38.2627 91.4743 38.273 92.3552 38.6209 93.1588C38.8102 93.6018 38.5697 94.1221 38.406 94.6012C38.0683 95.5903 37.8994 96.6464 37.2291 97.5015C36.4718 98.4649 35.5559 99.2376 34.4301 99.7527C33.0997 100.361 31.6926 100.525 30.2445 100.5C29.1852 100.479 28.1209 100.495 27.0566 100.51C26.6728 100.515 26.5449 100.381 26.5551 99.9897C26.5807 98.6812 26.5654 97.3727 26.5654 96.0643C26.5654 96.0643 26.5551 96.0643 26.55 96.0643H26.5449Z" fill="black"/>
<path d="M52.8763 100.252C51.0905 100.474 49.4121 100.165 47.9231 99.1294C45.8712 97.7024 44.8632 95.7603 44.945 93.2309C45.0423 90.2945 46.475 88.2906 49.1 87.0903C49.8676 86.74 50.7067 86.5288 51.592 86.5545C52.6972 86.5906 53.8025 86.5648 54.9026 86.5648C55.5627 86.5648 55.8237 86.7606 55.6958 87.3633C55.532 88.1412 55.6139 88.9088 55.6241 89.6815C55.6293 90.207 55.445 90.3152 54.9641 90.2997C53.9662 90.2636 52.9684 90.2997 51.9706 90.2739C50.5635 90.243 49.5912 90.9848 49.013 92.1336C48.445 93.2618 48.6395 94.4158 49.4326 95.4461C50.0671 96.2755 50.8398 96.7442 51.9195 96.7082C52.9991 96.6773 54.0839 96.7082 55.1687 96.6979C55.4809 96.6979 55.619 96.7545 55.619 97.11C55.6088 97.9394 55.619 98.7739 55.6753 99.6085C55.7111 100.155 55.5013 100.299 54.9845 100.268C54.2886 100.227 53.5825 100.258 52.8814 100.258L52.8763 100.252Z" fill="black"/>
<path d="M55.425 116.804C55.3534 116.794 55.2818 116.784 55.2101 116.768C54.7496 116.578 54.2584 116.572 53.7825 116.655C53.0661 116.778 52.7489 116.614 52.6875 115.908C52.6568 115.537 52.5595 115.166 52.5595 114.8C52.5698 113.682 52.3139 113.554 51.0859 113.451C49.6019 113.327 49.5917 113.389 49.5815 114.883C49.5815 115.326 49.5968 115.769 49.5815 116.212C49.561 116.634 49.2898 116.83 48.9009 116.717C48.4148 116.578 47.9645 116.614 47.4835 116.732C46.8644 116.892 46.6853 116.732 46.6802 116.073C46.6802 113.265 46.6904 110.463 46.6699 107.655C46.6699 107.233 46.7927 107.119 47.2021 107.119C48.9623 107.13 50.7277 107.073 52.4879 107.119C53.7978 107.155 54.7905 107.835 55.4455 108.953C55.8037 109.572 55.425 110.968 54.7547 111.678C54.6114 111.833 54.4579 111.977 54.3044 112.127C54.1253 112.302 54.1663 112.462 54.3402 112.606C55.1999 113.296 55.4916 114.228 55.4762 115.285C55.466 115.789 55.5325 116.294 55.425 116.794V116.804ZM50.4923 111.411C51.0142 111.411 51.5208 111.421 52.0325 111.225C52.667 110.983 52.5493 110.488 52.5442 110.02C52.534 109.535 52.0837 109.572 51.7971 109.53C51.3212 109.463 50.8249 109.51 50.3388 109.51C49.7691 109.51 49.4842 109.8 49.4842 110.38C49.4842 111.064 49.8203 111.409 50.4923 111.416V111.411Z" fill="#221E1F"/>
<path d="M151.527 110.55C151.701 110.483 151.849 110.473 151.916 110.391C152.637 109.51 153.635 109.772 154.556 109.772C154.97 109.772 155.298 110.076 155.508 110.401C155.707 110.715 155.881 110.695 156.091 110.473C156.337 110.215 156.628 110.035 156.92 109.834C157.094 109.716 157.145 109.685 157.345 109.726C157.693 109.793 158.061 109.757 158.424 109.757C159.729 109.757 160.66 110.633 160.666 111.952C160.666 113.445 160.589 114.934 160.568 116.428C160.568 116.804 160.353 116.804 160.123 116.727C159.622 116.562 159.125 116.583 158.634 116.712C158.194 116.83 158.005 116.686 158.01 116.222C158.025 115.063 158.02 113.899 158.02 112.74C158.02 112.085 157.79 111.802 157.222 111.782C156.378 111.751 156.142 111.926 156.127 112.683C156.101 113.801 156.106 114.919 156.106 116.037C156.106 116.583 155.927 116.794 155.334 116.65C154.981 116.562 154.571 116.608 154.203 116.675C153.553 116.794 153.415 116.722 153.42 116.042C153.42 114.986 153.445 113.935 153.456 112.879C153.466 111.91 153.323 111.797 152.391 111.766C151.782 111.745 151.562 112.044 151.557 112.58C151.552 113.718 151.552 114.857 151.562 116.001C151.568 116.614 151.399 116.753 150.79 116.655C150.355 116.588 149.899 116.557 149.475 116.681C149.086 116.794 148.978 116.675 148.978 116.31C148.978 114.306 148.994 112.302 148.963 110.298C148.958 109.845 149.096 109.721 149.531 109.736C149.92 109.747 150.309 109.736 150.713 109.664C151.235 109.566 151.624 109.87 151.522 110.54L151.527 110.55Z" fill="#221E1F"/>
<path d="M39.6596 93.3906C39.6596 91.3197 39.6699 89.254 39.6494 87.1831C39.6494 86.7194 39.7825 86.5443 40.2634 86.5546C41.2408 86.5803 42.2181 86.5752 43.1955 86.5546C43.5178 86.5494 43.6151 86.637 43.6304 86.9718C43.8146 90.8664 43.6969 94.7661 43.7072 98.6658C43.7072 99.114 43.5639 99.5467 43.7276 100.01C43.8351 100.314 43.6611 100.505 43.2773 100.495C42.3409 100.474 41.4096 100.474 40.4732 100.495C39.8643 100.51 39.6596 100.206 39.6596 99.6497C39.6648 97.5582 39.6596 95.4667 39.6596 93.3803V93.3906Z" fill="black"/>
<path d="M86.7512 111.885C86.7512 110.514 86.7614 109.139 86.7461 107.768C86.7461 107.398 86.7922 107.233 87.2476 107.207C88.9617 107.094 90.6657 107.068 92.3747 107.228C93.8791 107.372 94.9588 108.696 95.1481 109.86C95.5524 112.343 93.8433 113.626 91.9705 113.832C91.3002 113.904 90.6299 113.955 89.9647 113.935C89.5809 113.919 89.5093 114.064 89.5246 114.404C89.5502 114.996 89.5144 115.588 89.54 116.176C89.5553 116.511 89.5041 116.66 89.0999 116.65C88.4347 116.634 87.7644 116.567 87.0889 116.732C86.6949 116.83 86.7717 116.413 86.7666 116.196C86.7461 115.48 86.7563 114.759 86.7563 114.043C86.7563 113.327 86.7563 112.606 86.7563 111.89H86.7512V111.885ZM90.6759 111.663C91.0495 111.699 91.4742 111.586 91.9142 111.431C92.4669 111.241 92.5334 110.849 92.4515 110.406C92.3645 109.932 92.1138 109.587 91.5305 109.623C91.0955 109.649 90.6657 109.649 90.2256 109.53C89.7242 109.396 89.4171 109.716 89.5451 110.221C89.6167 110.514 89.6423 110.751 89.5451 111.05C89.4274 111.426 89.586 111.715 90.067 111.663C90.2359 111.648 90.4047 111.663 90.6708 111.663H90.6759Z" fill="#221E1F"/>
<path d="M61.2226 116.67C60.5369 116.619 59.8563 116.619 59.1707 116.67C58.178 116.737 57.4718 116.202 57.0318 115.439C55.9828 113.641 56.2335 111.833 57.6919 110.432C58.178 109.963 58.7818 109.669 59.5391 109.736C60.0917 109.783 60.6648 109.865 61.2226 109.644C61.55 109.51 61.7394 109.855 62.0003 109.968C64.4514 111.024 64.7328 114.12 63.1414 115.846C62.6655 116.361 62.0464 116.815 61.2226 116.665V116.67ZM59.053 113.322C59.053 113.492 59.053 113.657 59.053 113.827C59.0786 114.532 59.4879 115.037 60.0815 115.089C60.7979 115.156 61.3761 114.759 61.4426 114.028C61.4886 113.523 61.5449 113.002 61.3658 112.482C61.1305 111.812 60.7262 111.467 60.0712 111.534C59.5288 111.591 59.0888 112.08 59.053 112.688C59.0376 112.899 59.053 113.111 59.053 113.322Z" fill="#221E1F"/>
<path d="M29.804 113.816C29.0314 113.698 28.0745 113.981 27.1074 113.935C26.7236 113.914 26.7441 114.115 26.8055 114.362C27.1228 115.542 28.3866 115.516 29.1337 115.078C29.8603 114.656 30.6586 114.867 31.4261 114.898C31.7024 114.908 31.6257 115.145 31.5029 115.315C31.0014 116.021 30.3516 116.516 29.4817 116.645C28.5862 116.778 27.6549 116.722 26.7748 116.67C25.8179 116.608 25.0453 115.934 24.6461 114.991C24.4415 114.502 24.2777 113.997 24.1293 113.487C23.9861 112.992 24.288 112.565 24.4466 112.132C25.0862 110.401 26.0175 109.7 27.6191 109.675C28.6067 109.659 29.7068 109.638 30.5716 110.385C31.5489 111.241 31.8969 112.338 31.8866 113.585C31.8866 113.863 31.6973 113.806 31.5387 113.811C31.027 113.811 30.5204 113.811 29.804 113.811V113.816ZM28.1001 112.549C28.4173 112.549 28.7397 112.549 29.057 112.549C29.4407 112.539 29.538 112.353 29.3742 112.018C29.1542 111.57 28.8062 111.328 28.2945 111.287C27.7266 111.241 27.2404 111.359 26.9437 111.879C26.6571 112.384 26.7595 112.549 27.3326 112.559C27.5884 112.559 27.8442 112.559 28.095 112.559L28.1001 112.549Z" fill="#221E1F"/>
<path d="M177.254 113.837C176.394 113.703 175.458 113.935 174.511 113.95C173.943 113.961 174.194 114.357 174.296 114.574C174.634 115.305 175.468 115.578 176.323 115.176C177.167 114.775 178.027 115.037 178.876 114.97C179.204 114.945 179.117 115.202 178.984 115.352C178.349 116.032 177.684 116.639 176.655 116.66C175.724 116.675 174.721 116.887 173.887 116.572C171.733 115.764 170.97 113.172 172.357 111.163C173.022 110.195 173.979 109.716 175.069 109.669C176.507 109.608 177.94 109.881 178.799 111.199C179.234 111.864 179.306 112.714 179.434 113.502C179.485 113.801 179.204 113.847 178.948 113.842C178.416 113.837 177.883 113.842 177.259 113.842L177.254 113.837ZM175.514 112.539C175.832 112.544 176.149 112.559 176.466 112.539C176.834 112.518 177.019 112.395 176.799 111.988C176.517 111.472 176.118 111.272 175.53 111.272C174.962 111.272 174.583 111.483 174.317 111.972C174.117 112.348 174.204 112.523 174.624 112.534C174.921 112.539 175.218 112.534 175.514 112.534V112.539Z" fill="#221E1F"/>
<path d="M121.454 116.655C120.764 116.655 120.078 116.645 119.387 116.645C118.748 116.887 118.277 116.433 117.862 116.145C116.829 115.429 116.363 114.285 116.481 113.111C116.624 111.622 117.397 110.282 118.901 109.855C119.878 109.577 121.019 109.571 122.068 109.978C122.949 110.318 123.476 110.973 123.834 111.802C124.049 112.297 124.095 112.832 124.207 113.353C124.274 113.651 124.12 113.837 123.783 113.821C123.547 113.811 123.317 113.832 123.082 113.821C121.685 113.749 120.298 113.93 118.906 113.976C119.172 115.382 120.4 115.64 121.434 115.032C122.125 114.625 122.974 114.826 123.747 114.903C124.151 114.939 123.844 115.254 123.757 115.346C123.123 116.006 122.508 116.727 121.449 116.66L121.454 116.655ZM120.375 112.539C120.733 112.539 121.091 112.554 121.449 112.539C121.649 112.528 121.823 112.467 121.756 112.199C121.644 111.735 121.05 111.308 120.487 111.287C119.745 111.261 119.193 111.565 119.029 112.096C118.937 112.395 119.07 112.534 119.362 112.539C119.699 112.544 120.037 112.539 120.375 112.539Z" fill="#221E1F"/>
<path d="M125.481 113.183C125.481 112.194 125.496 111.199 125.47 110.21C125.46 109.85 125.573 109.736 125.931 109.752C126.417 109.778 126.908 109.778 127.394 109.752C127.778 109.731 127.942 109.875 127.926 110.262C127.921 110.391 127.84 110.571 128.034 110.638C128.198 110.695 128.346 110.602 128.413 110.473C128.837 109.675 129.574 109.721 130.311 109.757C130.352 109.757 130.408 109.742 130.439 109.757C131.079 110.236 130.756 110.932 130.853 111.539C130.915 111.931 130.669 111.9 130.393 111.915C129.917 111.941 129.441 111.818 128.965 112.024C128.326 112.302 128.06 112.771 128.06 113.435C128.06 114.301 128.054 115.166 128.049 116.032C128.049 116.712 127.952 116.773 127.302 116.665C126.908 116.598 126.484 116.552 126.105 116.686C125.603 116.861 125.501 116.634 125.501 116.217C125.501 115.202 125.501 114.192 125.501 113.178C125.496 113.178 125.491 113.178 125.486 113.178L125.481 113.183Z" fill="#221E1F"/>
<path d="M162.226 113.219C162.226 112.23 162.246 111.235 162.215 110.246C162.205 109.855 162.323 109.731 162.712 109.752C163.239 109.778 163.771 109.767 164.303 109.752C164.656 109.741 164.759 109.891 164.789 110.241C164.948 112.219 164.805 114.192 164.871 116.171C164.887 116.67 164.493 116.773 164.226 116.717C163.694 116.608 163.198 116.614 162.676 116.737C162.272 116.83 162.236 116.572 162.241 116.253C162.256 115.243 162.241 114.228 162.241 113.219C162.236 113.219 162.226 113.219 162.221 113.219H162.226Z" fill="#221E1F"/>
<path d="M75.816 84.2724C75.8057 84.6536 75.642 84.8391 75.4578 85.0194C73.8459 86.57 72.2904 88.1824 70.6478 89.7073C69.6449 90.6345 68.7955 91.7318 67.7567 92.6076C66.3752 93.7666 65.0499 94.9721 63.7809 96.2497C63.5506 96.4815 63.4687 96.9245 62.9826 96.8576C62.8803 96.8421 62.7626 96.9451 62.6705 96.806C62.5988 96.6927 62.6603 96.6206 62.7063 96.5227C62.824 96.2651 63.0491 96.1003 63.2333 95.8994C64.1646 94.8948 65.2494 94.0448 66.0835 92.9476C67.7005 90.82 69.7933 89.1457 71.62 87.2191C72.623 86.163 73.7026 85.1688 74.7158 84.123C74.9921 83.8397 75.2838 83.8654 75.5806 83.9376C75.7597 83.9788 75.8006 84.2054 75.8211 84.2724H75.816Z" fill="black"/>
<path d="M147.3 113.142C147.3 114.089 147.28 115.037 147.31 115.985C147.326 116.475 147.172 116.675 146.66 116.645C146.164 116.609 145.663 116.583 145.166 116.742C144.665 116.902 144.772 116.475 144.767 116.232C144.742 114.924 144.752 113.621 144.726 112.312C144.711 111.622 144.798 110.932 144.639 110.241C144.547 109.839 144.864 109.778 145.177 109.752C145.77 109.705 146.343 109.994 146.967 109.772C147.285 109.659 147.31 110.04 147.31 110.298C147.31 111.246 147.31 112.194 147.31 113.142C147.31 113.142 147.305 113.142 147.3 113.142Z" fill="#221E1F"/>
<path d="M63.9544 98.2124C63.8163 97.9343 63.9032 97.7385 64.1182 97.5427C66.1189 95.7036 67.787 93.5452 69.7263 91.6546C71.9113 89.527 74.0553 87.3479 76.2556 85.2358C76.4603 85.04 76.6701 84.9112 76.8952 85.1688C77.0948 85.4006 77.3097 85.6221 76.9515 85.9621C76.0049 86.843 75.1145 87.7909 74.1679 88.6718C72.2183 90.48 70.3915 92.4118 68.4778 94.2509C67.173 95.5027 65.8272 96.7185 64.5019 97.9549C64.3484 98.0991 64.1693 98.197 63.9595 98.2176L63.9544 98.2124Z" fill="black"/>
<path d="M65.3878 99.3818C65.1319 99.3251 64.9887 99.2427 65.1678 99.0057C65.4083 98.6915 65.6283 98.3567 65.9046 98.0733C69.6144 94.2148 73.4163 90.4542 77.2131 86.6833C77.2898 86.6112 77.3615 86.5288 77.4382 86.4567C77.7145 86.2042 77.9653 86.2557 78.2058 86.5082C78.4565 86.7709 78.2672 87.0079 78.0983 87.1624C75.2124 89.867 72.5055 92.7621 69.6349 95.477C68.3454 96.6979 66.9689 97.8261 65.7818 99.15C65.6795 99.2633 65.5055 99.3097 65.3827 99.3715L65.3878 99.3818Z" fill="black"/>
<path d="M70.8009 86.6215C70.8623 86.8688 70.6729 86.9924 70.5245 87.1366C68.9281 88.6769 67.3418 90.2327 65.7862 91.8091C64.6298 92.9836 63.2687 93.9727 62.2965 95.3276C62.2453 95.3945 62.1788 95.4512 62.1225 95.513C61.9076 95.75 61.5801 95.8169 61.3959 95.616C61.2014 95.41 61.4266 95.1679 61.621 94.9824C62.0713 94.5445 62.5063 94.0912 62.9566 93.6533C64.374 92.2727 65.8118 90.9076 67.219 89.5166C68.2168 88.5327 69.1737 87.5076 70.1612 86.5133C70.2892 86.3845 70.4734 86.2609 70.6371 86.2506C70.7702 86.2454 70.8162 86.4566 70.806 86.6163L70.8009 86.6215Z" fill="black"/>
<path d="M60.5005 94.5497C60.3009 94.5291 60.214 94.3951 60.1321 94.2818C59.9735 94.0758 60.1986 93.983 60.3009 93.88C61.4216 92.757 62.5422 91.6391 63.6679 90.5212C65.4128 88.7954 67.1628 87.0748 68.8974 85.3439C69.1072 85.1379 69.3375 84.8854 69.5678 85.1276C69.798 85.3748 69.5064 85.617 69.317 85.8076C67.5773 87.5385 65.8324 89.2694 64.0926 91.0003C63.0129 92.077 61.9333 93.1536 60.8536 94.2251C60.7359 94.3436 60.608 94.4467 60.5005 94.5445V94.5497Z" fill="black"/>
<path d="M68.4931 84.123C65.3359 87.2448 62.23 90.3151 59.0677 93.4421C58.8221 92.9218 58.95 92.6539 59.2161 92.4066C60.4134 91.2836 61.5596 90.1039 62.7416 88.9654C63.5911 88.1515 64.374 87.2551 65.2387 86.4463C65.9449 85.7869 66.5947 85.0863 67.265 84.396C67.5772 84.0766 67.8944 83.9272 68.488 84.1179L68.4931 84.123Z" fill="black"/>
<path d="M145.954 108.922C145.913 108.922 145.867 108.922 145.826 108.922C144.598 108.928 144.613 108.928 144.613 107.686C144.613 107.336 144.731 107.197 145.048 107.181C145.703 107.155 146.358 107.14 147.008 107.125C147.029 107.125 147.059 107.125 147.069 107.13C147.566 107.547 147.218 108.098 147.289 108.582C147.341 108.902 147.105 108.953 146.834 108.938C146.537 108.922 146.24 108.938 145.944 108.938C145.944 108.938 145.944 108.933 145.944 108.928L145.954 108.922Z" fill="#221E1F"/>
<path d="M163.428 107.15C165.101 107.197 164.718 106.97 164.784 108.459C164.805 108.85 164.61 108.989 164.283 109C163.735 109.015 163.182 109 162.635 109.005C162.441 109.005 162.267 108.948 162.251 108.763C162.22 108.304 162.22 107.841 162.231 107.377C162.236 107.14 162.461 107.161 162.615 107.15C162.911 107.135 163.208 107.145 163.433 107.145L163.428 107.15Z" fill="#221E1F"/>
<path d="M185.395 110.427C185.364 110.488 185.329 110.504 185.277 110.442C185.298 110.303 185.344 110.365 185.395 110.427Z" fill="black"/>
<path d="M139.456 116.799C139.456 116.799 139.481 116.82 139.497 116.83C139.486 116.84 139.471 116.861 139.461 116.861C139.451 116.861 139.435 116.845 139.42 116.835C139.43 116.825 139.446 116.815 139.456 116.804V116.799Z" fill="black"/>
</g>
<defs>
<clipPath id="clip0_2515_72994">
<rect width="175" height="34" fill="white" transform="translate(13 83)"/>
</clipPath>
</defs>
</svg>
