<svg width="200" height="200" viewBox="0 0 200 200" fill="none" xmlns="http://www.w3.org/2000/svg">
<g clip-path="url(#clip0_2504_77806)">
<path fill-rule="evenodd" clip-rule="evenodd" d="M74.1288 84.1309V88.6352H78.976V91.2848H74.1288V99.1556C74.1288 100.854 74.7834 101.384 75.89 101.384C76.6382 101.384 77.4019 101.135 78.3682 100.667L79.2566 103.379C77.9629 104.159 76.607 104.579 75.2043 104.579C72.7261 104.579 70.6065 103.161 70.6065 99.7946V91.2692H68.2842V88.6196H70.6065V84.1309H74.1288ZM108.823 87.9027C114.605 87.9027 116.943 91.6744 116.522 97.597H104.085C104.646 100.138 106.594 101.712 109.181 101.712C110.974 101.712 112.61 101.026 113.81 99.7946L115.696 101.805C114.091 103.566 111.737 104.579 108.901 104.579C103.835 104.579 100.5 101.213 100.5 96.2722C100.5 91.3004 103.929 87.9339 108.823 87.9027ZM85.9429 81.5281V91.2225C87.1118 88.9002 89.2159 87.8871 92.0369 87.8871C95.871 87.8871 98.1621 90.3029 98.1621 94.2149V104.455H94.6086V95.2124C94.6086 92.7343 93.1279 91.2225 90.6498 91.2225C87.7196 91.2536 85.9584 93.4512 85.9584 96.3502V104.455H82.4049V81.5281H85.9429ZM108.854 90.7393C106.251 90.7393 104.443 92.3758 104.038 95.0098H113.436C113.296 92.3446 111.535 90.7393 108.854 90.7393Z" fill="black"/>
<path fill-rule="evenodd" clip-rule="evenodd" d="M136.83 87.9029C141.895 87.9029 145.386 91.2694 145.386 96.2413C145.386 101.182 141.895 104.58 136.83 104.58C131.733 104.58 128.242 101.182 128.242 96.2413C128.242 91.2694 131.733 87.9029 136.83 87.9029ZM125.826 81.3724C127.151 81.3724 128.476 81.7465 129.535 82.5102L128.179 85.2221C127.494 84.7234 126.668 84.4428 125.92 84.4428C124.719 84.4428 123.691 85.1286 123.691 86.6716V88.6198H127.992V91.2694H123.691V104.455H120.168V91.3006H118.002V88.651H120.168V87.0301C120.168 83.196 122.989 81.3724 125.826 81.3724ZM157.185 87.9029V91.3006C153.88 91.1135 151.776 93.0618 151.496 95.8672V104.455H147.942V88.0276H151.496V91.3006C152.618 89.0718 154.597 87.9029 157.185 87.9029ZM162.967 81.5283V95.3685L170.23 88.012H174.313L168.219 94.371L174.765 104.439H170.557L165.741 96.8959L162.967 99.826V104.455H159.413V81.5283H162.967ZM136.83 90.9577C133.868 90.9577 131.795 93.1241 131.795 96.2724C131.795 99.4519 133.868 101.618 136.83 101.618C139.76 101.618 141.833 99.4519 141.833 96.2724C141.833 93.1241 139.76 90.9577 136.83 90.9577Z" fill="black"/>
<path fill-rule="evenodd" clip-rule="evenodd" d="M170.823 109.692L172.413 113.884L173.831 109.692H174.86L172.522 116.035C172.413 116.331 172.241 116.581 171.976 116.783C171.712 116.986 171.384 117.08 170.979 117.08C170.901 117.08 170.823 117.08 170.73 117.064C170.652 117.048 170.543 117.033 170.449 117.002V116.051C170.543 116.066 170.652 116.082 170.745 116.098C170.839 116.113 170.917 116.113 170.979 116.113C171.057 116.113 171.135 116.098 171.197 116.066C171.26 116.035 171.322 115.973 171.384 115.879C171.447 115.786 171.524 115.661 171.587 115.49C171.649 115.318 171.743 115.1 171.821 114.851L169.701 109.692H170.823ZM92.5981 109.598C92.9566 109.598 93.2839 109.676 93.58 109.817C93.8762 109.957 94.1255 110.159 94.3437 110.393C94.5619 110.643 94.7334 110.923 94.8581 111.235C94.9828 111.562 95.0451 111.89 95.0451 112.248C95.0451 112.622 94.9828 112.965 94.8737 113.292C94.7646 113.62 94.6087 113.9 94.4061 114.134C94.2035 114.368 93.9541 114.57 93.6891 114.711C93.4086 114.851 93.0969 114.929 92.7696 114.929C92.3488 114.929 91.9903 114.835 91.6786 114.633C91.3669 114.43 91.1175 114.181 90.9305 113.869V116.939H89.8394V109.692H90.7902V110.611C90.9928 110.3 91.2422 110.05 91.5539 109.879C91.85 109.692 92.2085 109.598 92.5981 109.598ZM155.549 109.598C155.908 109.598 156.235 109.676 156.531 109.817C156.827 109.957 157.076 110.159 157.295 110.393C157.513 110.643 157.684 110.923 157.809 111.235C157.934 111.562 157.996 111.89 157.996 112.248C157.996 112.622 157.934 112.965 157.825 113.292C157.715 113.62 157.56 113.9 157.357 114.134C157.154 114.368 156.905 114.57 156.64 114.711C156.36 114.851 156.048 114.929 155.721 114.929C155.3 114.929 154.941 114.835 154.63 114.633C154.318 114.43 154.068 114.181 153.881 113.869V116.939H152.79V109.692H153.741V110.611C153.944 110.3 154.193 110.05 154.505 109.879C154.801 109.692 155.159 109.598 155.549 109.598ZM106.454 107.65V113.557C106.454 113.682 106.469 113.775 106.516 113.822C106.563 113.869 106.641 113.9 106.75 113.916V114.835C106.641 114.851 106.547 114.866 106.485 114.882C106.423 114.882 106.36 114.898 106.314 114.898C106.095 114.898 105.924 114.835 105.784 114.726C105.643 114.617 105.565 114.477 105.55 114.29L105.534 113.9C105.347 114.227 105.082 114.477 104.755 114.664C104.428 114.851 104.069 114.944 103.664 114.944C103.321 114.944 102.994 114.866 102.698 114.726C102.402 114.586 102.152 114.399 101.934 114.149C101.716 113.9 101.544 113.62 101.42 113.292C101.295 112.965 101.233 112.622 101.233 112.248C101.233 111.89 101.295 111.547 101.404 111.235C101.513 110.923 101.685 110.643 101.887 110.393C102.09 110.144 102.339 109.957 102.62 109.817C102.9 109.676 103.212 109.598 103.539 109.598C103.96 109.598 104.319 109.692 104.63 109.895C104.942 110.097 105.191 110.347 105.363 110.658V107.65H106.454ZM117.364 109.598C117.754 109.598 118.112 109.661 118.455 109.77C118.782 109.895 119.094 110.066 119.359 110.284L118.891 110.939C118.408 110.565 117.909 110.362 117.364 110.362C117.083 110.362 116.85 110.424 116.663 110.534C116.476 110.643 116.382 110.83 116.382 111.079C116.382 111.188 116.398 111.266 116.444 111.344C116.491 111.422 116.553 111.484 116.631 111.531C116.725 111.578 116.834 111.625 116.974 111.671C117.115 111.718 117.286 111.765 117.504 111.812C117.847 111.89 118.159 111.983 118.408 112.061C118.658 112.139 118.876 112.248 119.032 112.357C119.203 112.466 119.312 112.606 119.39 112.762C119.468 112.918 119.515 113.105 119.515 113.323C119.515 113.822 119.328 114.212 118.954 114.492C118.58 114.773 118.081 114.913 117.442 114.913C117.021 114.913 116.616 114.851 116.211 114.711C115.805 114.57 115.447 114.383 115.151 114.134L115.587 113.448C115.899 113.666 116.195 113.838 116.507 113.962C116.803 114.072 117.115 114.134 117.426 114.134C117.754 114.134 118.003 114.072 118.19 113.947C118.377 113.822 118.471 113.651 118.471 113.417C118.471 113.199 118.361 113.043 118.159 112.949C117.956 112.856 117.613 112.747 117.177 112.622C116.85 112.544 116.585 112.451 116.351 112.373C116.117 112.295 115.93 112.201 115.79 112.092C115.649 111.983 115.54 111.858 115.478 111.734C115.416 111.593 115.385 111.422 115.385 111.235C115.385 110.97 115.431 110.736 115.54 110.534C115.649 110.331 115.79 110.159 115.961 110.019C116.148 109.879 116.351 109.77 116.6 109.692C116.818 109.645 117.068 109.598 117.364 109.598ZM140.026 109.598C140.431 109.598 140.789 109.676 141.117 109.817C141.444 109.957 141.724 110.159 141.958 110.393C142.192 110.643 142.364 110.923 142.488 111.25C142.613 111.578 142.675 111.921 142.675 112.264C142.675 112.622 142.613 112.965 142.488 113.277C142.364 113.604 142.192 113.884 141.958 114.134C141.724 114.383 141.444 114.57 141.117 114.711C140.789 114.851 140.431 114.929 140.026 114.929C139.62 114.929 139.246 114.851 138.935 114.711C138.607 114.57 138.327 114.368 138.109 114.134C137.875 113.884 137.703 113.604 137.579 113.277C137.454 112.949 137.392 112.606 137.392 112.264C137.392 111.905 137.454 111.562 137.579 111.25C137.703 110.923 137.875 110.643 138.109 110.393C138.342 110.144 138.623 109.957 138.95 109.817C139.262 109.676 139.636 109.598 140.026 109.598ZM160.957 109.598C161.659 109.598 162.22 109.785 162.609 110.144C162.999 110.502 163.202 111.017 163.202 111.702V113.557C163.202 113.791 163.295 113.9 163.482 113.916V114.835C163.373 114.851 163.28 114.866 163.217 114.882C163.139 114.882 163.061 114.898 162.999 114.898C162.796 114.898 162.625 114.851 162.516 114.742C162.407 114.633 162.329 114.508 162.298 114.336L162.267 114.009C162.033 114.305 161.752 114.539 161.409 114.711C161.066 114.866 160.708 114.944 160.318 114.944C160.069 114.944 159.835 114.898 159.617 114.82C159.399 114.742 159.227 114.617 159.071 114.477C158.916 114.336 158.791 114.165 158.713 113.962C158.619 113.76 158.573 113.557 158.573 113.323C158.573 113.074 158.619 112.856 158.729 112.669C158.838 112.466 158.978 112.295 159.181 112.154C159.368 112.014 159.601 111.905 159.866 111.827C160.131 111.749 160.427 111.702 160.755 111.702C161.004 111.702 161.238 111.718 161.472 111.765C161.705 111.812 161.924 111.858 162.111 111.936V111.578C162.111 111.204 162.002 110.892 161.783 110.689C161.565 110.471 161.253 110.362 160.848 110.362C160.568 110.362 160.303 110.409 160.038 110.518C159.773 110.627 159.492 110.767 159.212 110.954L158.884 110.269C159.555 109.832 160.24 109.598 160.957 109.598ZM134.586 109.598C135.116 109.598 135.584 109.707 135.958 109.941C136.347 110.175 136.628 110.487 136.815 110.876L135.755 111.204C135.63 110.986 135.459 110.814 135.256 110.689C135.054 110.565 134.82 110.502 134.555 110.502C134.337 110.502 134.134 110.549 133.947 110.627C133.76 110.705 133.604 110.83 133.464 110.986C133.324 111.141 133.215 111.328 133.137 111.531C133.059 111.734 133.012 111.967 133.012 112.232C133.012 112.482 133.059 112.716 133.137 112.934C133.215 113.152 133.324 113.339 133.464 113.495C133.604 113.651 133.776 113.775 133.963 113.869C134.15 113.962 134.352 114.009 134.555 114.009C134.68 114.009 134.82 113.994 134.945 113.962C135.069 113.931 135.194 113.869 135.303 113.807C135.412 113.744 135.506 113.666 135.584 113.573C135.662 113.495 135.724 113.401 135.771 113.292L136.831 113.604C136.659 113.994 136.379 114.305 135.973 114.555C135.568 114.804 135.101 114.929 134.555 114.929C134.15 114.929 133.791 114.851 133.464 114.711C133.137 114.57 132.856 114.368 132.622 114.118C132.389 113.869 132.202 113.588 132.077 113.261C131.952 112.934 131.89 112.591 131.89 112.232C131.89 111.874 131.952 111.531 132.077 111.204C132.202 110.876 132.373 110.596 132.607 110.362C132.841 110.113 133.121 109.926 133.448 109.785C133.823 109.676 134.181 109.598 134.586 109.598ZM98.0064 109.598C98.7078 109.598 99.2688 109.785 99.6585 110.144C100.048 110.502 100.251 111.017 100.251 111.702V113.557C100.251 113.791 100.344 113.9 100.531 113.916V114.835C100.422 114.851 100.329 114.866 100.266 114.882C100.188 114.882 100.11 114.898 100.048 114.898C99.8455 114.898 99.6741 114.851 99.565 114.742C99.4559 114.633 99.3779 114.508 99.3468 114.336L99.3156 114.009C99.0818 114.305 98.8013 114.539 98.4584 114.711C98.1155 114.866 97.757 114.944 97.3674 114.944C97.118 114.944 96.8842 114.898 96.666 114.82C96.4478 114.742 96.2608 114.617 96.1205 114.477C95.9647 114.336 95.84 114.165 95.762 113.962C95.6685 113.76 95.6218 113.557 95.6218 113.323C95.6218 113.074 95.6685 112.856 95.7776 112.669C95.8867 112.466 96.027 112.295 96.2296 112.154C96.4166 112.014 96.6504 111.905 96.9154 111.827C97.1803 111.749 97.4765 111.702 97.8038 111.702C98.0532 111.702 98.2869 111.718 98.5207 111.765C98.7545 111.812 98.9727 111.858 99.1597 111.936V111.578C99.1597 111.204 99.0506 110.892 98.8324 110.689C98.6142 110.471 98.3025 110.362 97.8973 110.362C97.6167 110.362 97.3518 110.409 97.0868 110.518C96.8219 110.627 96.5413 110.767 96.2608 110.954L95.9335 110.269C96.6037 109.832 97.2894 109.598 98.0064 109.598ZM122.757 109.598C123.162 109.598 123.52 109.676 123.848 109.817C124.175 109.957 124.455 110.159 124.689 110.393C124.923 110.643 125.094 110.923 125.219 111.25C125.344 111.578 125.406 111.921 125.406 112.264C125.406 112.622 125.344 112.965 125.219 113.277C125.094 113.604 124.923 113.884 124.689 114.134C124.455 114.383 124.175 114.57 123.848 114.711C123.52 114.851 123.162 114.929 122.757 114.929C122.351 114.929 121.977 114.851 121.666 114.711C121.338 114.57 121.058 114.368 120.84 114.134C120.606 113.884 120.434 113.604 120.31 113.277C120.185 112.949 120.123 112.606 120.123 112.264C120.123 111.905 120.185 111.562 120.31 111.25C120.434 110.923 120.606 110.643 120.84 110.393C121.073 110.144 121.354 109.957 121.681 109.817C122.008 109.676 122.367 109.598 122.757 109.598ZM73.0536 109.598C73.7705 109.598 74.316 109.785 74.7057 110.144C75.0953 110.502 75.2979 111.017 75.2979 111.702V113.557C75.2979 113.791 75.3914 113.9 75.5785 113.916V114.835C75.4694 114.851 75.3758 114.866 75.3135 114.882C75.2356 114.882 75.1576 114.898 75.0953 114.898C74.8927 114.898 74.7212 114.851 74.6121 114.742C74.503 114.633 74.4251 114.508 74.3939 114.336L74.3628 114.009C74.129 114.305 73.8484 114.539 73.5056 114.711C73.1627 114.866 72.8042 114.944 72.4145 114.944C72.1652 114.944 71.9314 114.898 71.7132 114.82C71.495 114.742 71.3235 114.617 71.1677 114.477C71.0118 114.336 70.8871 114.165 70.8092 113.962C70.7157 113.76 70.6689 113.557 70.6689 113.323C70.6689 113.074 70.7157 112.856 70.8248 112.669C70.9339 112.466 71.0742 112.295 71.2768 112.154C71.4638 112.014 71.6976 111.905 71.9626 111.827C72.2275 111.749 72.5237 111.702 72.851 111.702C73.1003 111.702 73.3341 111.718 73.5679 111.765C73.8017 111.812 74.0199 111.858 74.2069 111.936V111.578C74.2069 111.204 74.0978 110.892 73.8796 110.689C73.6614 110.471 73.3497 110.362 72.9445 110.362C72.6639 110.362 72.399 110.409 72.134 110.518C71.869 110.627 71.5885 110.767 71.308 110.954L70.9807 110.269C71.6508 109.832 72.3366 109.598 73.0536 109.598ZM149.985 109.598C150.281 109.598 150.53 109.661 150.733 109.77C150.936 109.879 151.092 110.035 151.216 110.222C151.341 110.409 151.419 110.627 151.466 110.892C151.512 111.141 151.528 111.406 151.528 111.702V114.851H150.437V111.967C150.437 111.484 150.359 111.141 150.203 110.908C150.047 110.689 149.814 110.58 149.517 110.58C149.206 110.58 148.925 110.689 148.676 110.923C148.426 111.157 148.239 111.438 148.13 111.812V114.866H147.039V111.983C147.039 111.5 146.961 111.141 146.805 110.923C146.65 110.705 146.416 110.596 146.12 110.596C145.808 110.596 145.527 110.705 145.278 110.923C145.029 111.141 144.842 111.438 144.733 111.796V114.866H143.642V109.707H144.623V110.736C144.826 110.378 145.091 110.097 145.418 109.91C145.746 109.723 146.135 109.614 146.556 109.614C146.977 109.614 147.32 109.723 147.569 109.941C147.819 110.159 147.974 110.44 148.021 110.783C148.239 110.409 148.504 110.113 148.832 109.91C149.19 109.707 149.564 109.598 149.985 109.598ZM108.418 109.692L109.898 113.931L111.379 109.692H112.408L110.444 114.851H109.275L107.311 109.692H108.418V109.692ZM88.5147 109.692V114.851H87.4237V109.692H88.5147ZM114.262 109.692V114.851H113.171V109.692H114.262ZM167.597 109.598C167.909 109.598 168.158 109.661 168.361 109.77C168.563 109.879 168.719 110.035 168.828 110.222C168.937 110.409 169.031 110.643 169.062 110.892C169.109 111.141 169.124 111.406 169.124 111.702V114.851H168.033V111.967C168.033 111.484 167.955 111.126 167.799 110.908C167.644 110.689 167.41 110.58 167.114 110.58C166.958 110.58 166.802 110.611 166.646 110.674C166.49 110.736 166.334 110.814 166.21 110.923C166.069 111.032 165.945 111.157 165.836 111.313C165.727 111.453 165.649 111.625 165.586 111.796V114.866H164.495V109.707H165.477V110.736C165.68 110.393 165.96 110.113 166.334 109.91C166.724 109.707 167.145 109.598 167.597 109.598ZM129.162 109.645C129.209 109.645 129.24 109.645 129.271 109.661V110.643C128.851 110.658 128.477 110.752 128.149 110.939C127.822 111.126 127.588 111.375 127.448 111.718V114.866H126.357V109.707H127.354V110.861C127.526 110.502 127.76 110.222 128.056 110.004C128.336 109.785 128.648 109.676 128.975 109.661H129.162V109.645ZM86.5353 109.645C86.582 109.645 86.6132 109.645 86.6444 109.661V110.643C86.2235 110.658 85.8495 110.752 85.5222 110.939C85.1949 111.126 84.9611 111.375 84.8208 111.718V114.866H83.7298V109.707H84.7273V110.861C84.8988 110.502 85.1325 110.222 85.4287 110.004C85.7092 109.785 86.0209 109.676 86.3482 109.661H86.5353V109.645ZM84.0415 107.853V108.835H81.7193V114.851H80.6127V108.819H78.2748V107.837H84.0415V107.853ZM160.926 112.326C160.537 112.326 160.225 112.404 159.975 112.575C159.726 112.747 159.601 112.965 159.601 113.245C159.601 113.495 159.695 113.713 159.882 113.884C160.069 114.056 160.318 114.149 160.614 114.149C160.879 114.149 161.129 114.103 161.363 114.009C161.596 113.916 161.783 113.775 161.908 113.604C162.048 113.479 162.111 113.355 162.111 113.23V112.544C161.924 112.466 161.737 112.419 161.518 112.373C161.331 112.341 161.129 112.326 160.926 112.326ZM97.9752 112.326C97.5856 112.326 97.2739 112.404 97.0245 112.575C96.7751 112.747 96.6504 112.965 96.6504 113.245C96.6504 113.495 96.7439 113.713 96.931 113.884C97.118 114.056 97.3674 114.149 97.6635 114.149C97.9285 114.149 98.1778 114.103 98.4116 114.009C98.6454 113.916 98.8324 113.775 98.9571 113.604C99.0974 113.479 99.1597 113.355 99.1597 113.23V112.544C98.9727 112.466 98.7857 112.419 98.5675 112.373C98.3805 112.341 98.1778 112.326 97.9752 112.326ZM73.0224 112.326C72.6328 112.326 72.321 112.404 72.0717 112.575C71.8223 112.747 71.6976 112.965 71.6976 113.245C71.6976 113.495 71.7911 113.713 71.9781 113.884C72.1652 114.056 72.4146 114.149 72.7107 114.149C72.9756 114.149 73.225 114.103 73.4588 114.009C73.6926 113.916 73.8796 113.775 74.0043 113.604C74.1446 113.479 74.2069 113.355 74.2069 113.23V112.544C74.0199 112.466 73.8329 112.419 73.6147 112.373C73.4276 112.341 73.225 112.326 73.0224 112.326ZM92.3176 110.534C92.1773 110.534 92.037 110.565 91.8812 110.611C91.7253 110.658 91.5851 110.736 91.4604 110.83C91.3357 110.923 91.211 111.032 91.1175 111.157C91.024 111.282 90.946 111.406 90.9149 111.562V112.918C90.9772 113.074 91.0707 113.23 91.1642 113.355C91.2733 113.495 91.3824 113.604 91.5071 113.713C91.6318 113.807 91.7721 113.884 91.9279 113.947C92.0838 114.009 92.2397 114.04 92.3955 114.04C92.6293 114.04 92.8319 113.994 93.0189 113.9C93.206 113.807 93.3618 113.666 93.5021 113.51C93.6424 113.339 93.7359 113.152 93.8138 112.949C93.8918 112.747 93.9229 112.529 93.9229 112.295C93.9229 112.061 93.8762 111.843 93.7982 111.625C93.7203 111.422 93.6112 111.235 93.4709 111.079C93.3307 110.923 93.1592 110.799 92.9566 110.705C92.754 110.58 92.5358 110.534 92.3176 110.534ZM122.757 110.534C122.554 110.534 122.351 110.58 122.164 110.674C121.977 110.767 121.821 110.892 121.681 111.048C121.541 111.204 121.432 111.391 121.354 111.609C121.276 111.827 121.229 112.045 121.229 112.295C121.229 112.544 121.276 112.778 121.354 112.981C121.432 113.183 121.541 113.37 121.681 113.526C121.821 113.682 121.977 113.807 122.164 113.884C122.351 113.978 122.554 114.025 122.772 114.025C122.99 114.025 123.193 113.978 123.38 113.884C123.567 113.791 123.723 113.666 123.863 113.51C124.003 113.355 124.113 113.168 124.19 112.965C124.268 112.762 124.315 112.529 124.315 112.279C124.315 112.03 124.268 111.812 124.19 111.593C124.113 111.375 124.003 111.188 123.863 111.032C123.723 110.876 123.567 110.752 123.38 110.658C123.177 110.58 122.975 110.534 122.757 110.534ZM155.269 110.534C155.128 110.534 154.988 110.565 154.832 110.611C154.676 110.658 154.536 110.736 154.411 110.83C154.287 110.923 154.162 111.032 154.068 111.157C153.975 111.282 153.897 111.406 153.866 111.562V112.918C153.928 113.074 154.022 113.23 154.115 113.355C154.224 113.495 154.333 113.604 154.458 113.713C154.583 113.807 154.723 113.884 154.879 113.947C155.035 114.009 155.191 114.04 155.346 114.04C155.58 114.04 155.783 113.994 155.97 113.9C156.157 113.807 156.313 113.666 156.453 113.51C156.593 113.339 156.687 113.152 156.765 112.949C156.843 112.747 156.874 112.529 156.874 112.295C156.874 112.061 156.827 111.843 156.749 111.625C156.671 111.422 156.562 111.235 156.422 111.079C156.282 110.923 156.11 110.799 155.908 110.705C155.705 110.58 155.502 110.534 155.269 110.534ZM140.026 110.534C139.823 110.534 139.62 110.58 139.433 110.674C139.246 110.767 139.091 110.892 138.95 111.048C138.81 111.204 138.701 111.391 138.623 111.609C138.545 111.827 138.498 112.045 138.498 112.295C138.498 112.544 138.545 112.778 138.623 112.981C138.701 113.183 138.81 113.37 138.95 113.526C139.091 113.682 139.246 113.807 139.433 113.884C139.62 113.978 139.823 114.025 140.041 114.025C140.259 114.025 140.462 113.978 140.649 113.884C140.836 113.791 140.992 113.666 141.132 113.51C141.273 113.355 141.382 113.168 141.46 112.965C141.537 112.762 141.584 112.529 141.584 112.279C141.584 112.03 141.537 111.812 141.46 111.593C141.382 111.375 141.273 111.188 141.132 111.032C140.992 110.876 140.836 110.752 140.649 110.658C140.446 110.58 140.244 110.534 140.026 110.534ZM103.851 110.534C103.633 110.534 103.43 110.58 103.259 110.674C103.072 110.767 102.916 110.908 102.791 111.063C102.667 111.235 102.557 111.422 102.48 111.625C102.402 111.827 102.37 112.045 102.37 112.279C102.37 112.513 102.417 112.731 102.495 112.949C102.573 113.152 102.698 113.339 102.838 113.495C102.978 113.651 103.15 113.775 103.337 113.869C103.524 113.962 103.726 114.009 103.945 114.009C104.1 114.009 104.256 113.978 104.412 113.931C104.568 113.884 104.708 113.807 104.849 113.713C104.973 113.62 105.098 113.51 105.191 113.386C105.285 113.261 105.347 113.121 105.394 112.981V111.625C105.332 111.453 105.254 111.313 105.145 111.173C105.036 111.032 104.911 110.923 104.771 110.814C104.63 110.721 104.49 110.643 104.334 110.58C104.163 110.549 104.007 110.534 103.851 110.534ZM88.5147 107.65V108.835H87.4237V107.65H88.5147ZM114.262 107.65V108.835H113.171V107.65H114.262Z" fill="black"/>
<path fill-rule="evenodd" clip-rule="evenodd" d="M44.2821 89.4146V72.1924H45.903V89.4146H44.2821ZM49.893 72.6288V88.838L48.2721 89.1653V72.4106L49.893 72.6288ZM41.8975 72.4106V89.1653L40.2766 88.838V72.6288L41.8975 72.4106ZM43.2067 113.775C43.1444 114.819 43.082 115.661 43.082 115.661C33.4812 114.695 26 107.058 26 97.7686C26 90.303 30.7225 83.9752 37.627 81.2477C37.4867 82.7595 37.2997 85.6896 37.2373 86.8274C37.1906 87.9652 37.1438 90.0225 37.4555 91.7837C37.7205 93.3267 38.4063 94.9164 39.1232 96.2412C39.8713 97.5972 40.6506 98.9843 41.1026 99.9662C41.539 100.948 41.804 101.494 42.1157 102.538C42.443 103.582 42.6456 104.361 42.7547 105.047C42.8638 105.749 43.082 106.372 43.2067 108.086C43.347 109.801 43.3158 109.848 43.3158 110.393C43.3314 110.985 43.269 112.731 43.2067 113.775ZM46.9785 113.775C46.9161 112.731 46.8538 110.985 46.8538 110.424C46.8538 109.863 46.8226 109.832 46.9629 108.118C47.1031 106.403 47.3058 105.78 47.4149 105.078C47.524 104.393 47.7422 103.598 48.0539 102.569C48.3812 101.54 48.6305 100.995 49.0825 99.9974C49.5189 99.0155 50.3138 97.6283 51.0619 96.2724C51.7945 94.9476 52.4646 93.3578 52.7296 91.8148C53.0413 90.0381 52.9946 87.9807 52.9478 86.8586C52.901 85.7208 52.6984 82.7907 52.5582 81.2789C59.4471 83.9908 64.1851 90.3186 64.1851 97.7998C64.1851 107.089 56.704 114.726 47.1031 115.677C47.1031 115.645 47.0408 114.819 46.9785 113.775Z" fill="black"/>
</g>
<defs>
<clipPath id="clip0_2504_77806">
<rect width="149" height="44.887" fill="white" transform="translate(26 72.1924)"/>
</clipPath>
</defs>
</svg>
