<svg width="200" height="200" viewBox="0 0 200 200" fill="none" xmlns="http://www.w3.org/2000/svg">
<g clip-path="url(#clip0_2504_78162)">
<path d="M123.934 87C124.476 87.2003 124.67 87.5948 124.655 88.1619C124.63 89.1174 124.649 90.0759 124.649 91.0345C124.649 91.9252 124.362 92.215 123.481 92.215C116.234 92.215 108.988 92.215 101.742 92.215C99.5107 92.215 97.2793 92.215 95.0478 92.215H94.6749V97.6488H95.0663C103.299 97.6488 111.531 97.6488 119.767 97.6488C119.896 97.6488 120.026 97.6488 120.155 97.6549C120.59 97.6888 120.941 97.994 120.953 98.4286C120.978 99.4395 120.978 100.454 120.953 101.464C120.944 101.924 120.58 102.229 120.115 102.257C120.004 102.263 119.893 102.26 119.782 102.26C111.55 102.26 103.317 102.26 95.0817 102.26C94.9553 102.26 94.8259 102.26 94.6779 102.26V107.693H95.0848C104.516 107.693 113.948 107.693 123.379 107.693C123.518 107.693 123.656 107.693 123.795 107.703C124.279 107.74 124.633 108.076 124.639 108.556C124.655 109.715 124.655 110.877 124.639 112.036C124.633 112.526 124.257 112.871 123.764 112.896C123.709 112.896 123.653 112.896 123.598 112.896C112.369 112.896 101.138 112.896 89.9099 112.896C89.3428 112.896 88.9914 112.662 88.8866 112.203C88.8558 112.061 88.8589 111.91 88.8589 111.765C88.8589 103.896 88.8589 96.0245 88.8496 88.1558C88.8496 87.5887 89.0253 87.1941 89.5739 87H123.927H123.934Z" fill="black"/>
<path d="M170.679 112.184C170.457 112.736 170.047 112.918 169.459 112.905C167.93 112.878 166.398 112.905 164.866 112.884C164.589 112.881 164.274 112.798 164.04 112.65C159.648 109.86 155.265 107.055 150.876 104.263C150.71 104.158 150.488 104.087 150.291 104.087C146.124 104.078 141.957 104.081 137.79 104.081H137.42V104.423C137.42 106.88 137.42 109.339 137.42 111.796C137.42 112.563 137.09 112.893 136.332 112.893C135.105 112.893 133.878 112.893 132.652 112.893C131.977 112.893 131.625 112.545 131.625 111.876C131.625 103.933 131.625 95.9875 131.619 88.0448C131.619 87.5085 131.853 87.1787 132.34 87C141.285 87 150.226 87 159.17 87C159.278 87.0185 159.386 87.0431 159.494 87.0524C160.647 87.1233 161.781 87.3113 162.881 87.6719C164.885 88.3284 166.524 89.4688 167.585 91.3304C168.552 93.0286 168.867 94.881 168.744 96.8073C168.562 99.646 167.178 101.689 164.607 102.916C163.217 103.579 161.735 103.875 160.212 104.007C159.796 104.044 159.38 104.063 158.887 104.097C159.047 104.201 159.143 104.266 159.241 104.328C162.838 106.581 166.432 108.834 170.032 111.081C170.322 111.263 170.562 111.469 170.679 111.799V112.184V112.184ZM137.441 92.2119V98.9803C137.525 98.9833 137.586 98.9895 137.651 98.9895C144.527 98.9895 151.406 98.9988 158.283 98.9741C159.029 98.9741 159.787 98.8262 160.514 98.6443C161.408 98.4193 162.148 97.9169 162.548 97.0385C163.288 95.4204 162.548 93.4632 160.927 92.7358C159.938 92.2889 158.881 92.215 157.817 92.215C151.135 92.2119 144.45 92.215 137.768 92.215C137.669 92.215 137.568 92.215 137.444 92.215L137.441 92.2119Z" fill="black"/>
<path d="M68.7757 87C69.3244 87.1972 69.5124 87.5917 69.497 88.1589C69.4723 89.1421 69.4908 90.1283 69.4908 91.1146C69.4908 91.8975 69.1733 92.215 68.3812 92.215C64.3436 92.215 60.306 92.215 56.2684 92.215C55.0602 92.215 53.852 92.215 52.6438 92.215C52.5359 92.215 52.425 92.215 52.2739 92.215V92.6156C52.2739 98.9833 52.2739 105.354 52.2739 111.722C52.2739 111.842 52.277 111.962 52.2616 112.079C52.2 112.563 51.8609 112.89 51.3709 112.893C50.0332 112.902 48.6986 112.905 47.361 112.893C46.8278 112.887 46.4826 112.495 46.4826 111.928C46.4826 108.8 46.4826 105.669 46.4826 102.54C46.4826 99.2176 46.4826 95.895 46.4826 92.5725C46.4826 92.4646 46.4826 92.3536 46.4826 92.2057C46.3316 92.2057 46.2052 92.2057 46.0788 92.2057C40.8145 92.2057 35.5502 92.2057 30.2859 92.2057C30.1657 92.2057 30.0455 92.2057 29.9253 92.1995C29.4198 92.1687 29.0654 91.8143 29.0623 91.3057C29.0561 90.1838 29.0623 89.0588 29.0623 87.9369C29.0623 87.4469 29.3459 87.1664 29.7743 87H68.7757Z" fill="black"/>
<path d="M81.3914 87C81.9216 87.2219 82.0788 87.6256 82.0788 88.1835C82.0664 96.0245 82.0695 103.869 82.0695 111.71C82.0695 111.811 82.0695 111.913 82.0664 112.015C82.0387 112.523 81.6904 112.887 81.1819 112.89C79.8442 112.899 78.5066 112.899 77.172 112.89C76.6696 112.887 76.3152 112.517 76.2905 112.015C76.2843 111.913 76.2905 111.811 76.2905 111.71C76.2905 103.869 76.2936 96.0245 76.2812 88.1835C76.2812 87.6256 76.4354 87.2188 76.9655 87H81.3914V87Z" fill="black"/>
</g>
<defs>
<clipPath id="clip0_2504_78162">
<rect width="141.68" height="25.9547" fill="white" transform="translate(29 87)"/>
</clipPath>
</defs>
</svg>
