<svg width="200" height="200" viewBox="0 0 200 200" fill="none" xmlns="http://www.w3.org/2000/svg">
<g clip-path="url(#clip0_2515_72485)">
<mask id="mask0_2515_72485" style="mask-type:luminance" maskUnits="userSpaceOnUse" x="32" y="85" width="137" height="30">
<path d="M32 85H168.364V115H32V85Z" fill="white"/>
</mask>
<g mask="url(#mask0_2515_72485)">
<path d="M46.409 104.65L40.256 85.483H32L42.821 114.313H49.897L60.718 85.483H52.615L46.409 104.65ZM117.209 103.207L102.894 85.606H96.695V114.191H103.331V96.02L118.126 114.191H123.844V85.606H117.21V103.206L117.209 103.207ZM168.364 108.07H161.891V114.432H168.364V108.07ZM78.214 85C69.32 85 62.857 91.682 62.857 99.84V99.929C62.857 108.087 69.245 114.689 78.132 114.689C87.019 114.689 93.489 108.006 93.489 99.848V99.767C93.489 91.6 87.105 85 78.214 85ZM86.858 99.929C86.858 104.849 83.318 108.865 78.214 108.865C73.108 108.865 69.484 104.765 69.484 99.848V99.767C69.484 94.847 73.026 90.828 78.132 90.828C83.237 90.828 86.858 94.93 86.858 99.848V99.929ZM158.424 99.93V99.848C158.424 91.764 152.097 85.221 143.284 85.221C134.471 85.221 128.063 91.845 128.063 99.924V100.008C128.063 108.092 134.387 114.633 143.203 114.633C146.21 114.653 149.159 113.807 151.691 112.196L154.831 115L158.833 110.576L155.894 108.097C157.537 105.689 158.418 102.844 158.424 99.929V99.93ZM151.855 100.013C151.865 101.351 151.604 102.677 151.088 103.912L146.394 99.686L142.385 104.163L147.038 108.105C145.859 108.636 144.576 108.896 143.284 108.865C138.225 108.865 134.632 104.809 134.632 99.927V99.845C134.632 94.971 138.143 90.988 143.203 90.988C148.262 90.988 151.865 95.062 151.865 99.929L151.855 100.013Z" fill="black"/>
</g>
</g>
<defs>
<clipPath id="clip0_2515_72485">
<rect width="137" height="30" fill="white" transform="translate(32 85)"/>
</clipPath>
</defs>
</svg>
