<svg width="200" height="200" viewBox="0 0 200 200" fill="none" xmlns="http://www.w3.org/2000/svg">
<g clip-path="url(#clip0_2504_78195)">
<path d="M133.283 124.704C133.228 122.386 133.147 120.071 133.122 117.754C133.081 113.976 133.067 110.2 133.062 106.423C133.053 100.615 137.009 95.788 142.559 94.8008C147.517 93.9207 152.532 96.8128 154.25 101.542C154.311 101.708 154.377 101.874 154.513 102.231C155.259 99.5549 156.682 97.5519 158.936 96.1933C161.164 94.849 163.588 94.3331 166.147 94.7954C170.438 95.5702 173.376 99.105 174.166 104.413C169.686 105.7 165.186 106.994 160.659 108.294C163 111.732 168.491 111.266 171.028 107.073C172.358 107.883 173.687 108.694 175 109.493C173.907 112.644 169.199 115.426 164.887 115.538C160.053 115.665 156.995 113.294 154.61 107.499C153.731 110.807 151.996 113.382 148.87 114.794C145.78 116.188 142.745 116.052 139.725 114.039V124.704H133.283V124.704ZM149.444 105.23C149.439 102.147 147.377 100.001 144.432 100.012C141.564 100.023 139.222 102.438 139.236 105.369C139.252 108.376 141.408 110.639 144.257 110.636C147.245 110.632 149.449 108.335 149.444 105.23V105.23ZM168.525 101.651C167.392 99.3799 165.168 98.5748 162.822 99.5049C160.767 100.321 159.384 102.467 159.89 104.129C162.762 103.304 165.633 102.481 168.525 101.651Z" fill="black"/>
<path d="M95.7089 84.0001C95.7483 84.3821 95.8234 84.7624 95.8234 85.1444C95.8324 88.5649 95.8288 91.9872 95.8288 95.4078V96.5021C96.5248 96.1397 97.0437 95.8666 97.568 95.6006C100.894 93.9064 105.126 94.583 107.518 97.2287C109.175 99.0621 109.615 101.335 109.637 103.697C109.669 107.296 109.622 110.895 109.604 114.494C109.604 114.844 109.574 115.194 109.552 115.638C107.727 115.638 105.974 115.661 104.224 115.601C104.063 115.595 103.795 115.053 103.791 114.756C103.752 111.336 103.764 107.915 103.737 104.493C103.732 103.873 103.668 103.241 103.528 102.64C103.17 101.083 102.34 100.381 100.749 100.189C97.9509 99.8512 95.8717 101.604 95.8395 104.409C95.8002 107.74 95.8288 111.073 95.8288 114.405C95.8288 114.783 95.8288 115.163 95.8288 115.638C93.95 115.638 92.1983 115.649 90.4466 115.618C90.2964 115.617 90.0745 115.37 90.0226 115.195C89.9474 114.949 89.9958 114.665 89.9958 114.397C89.9958 104.67 89.994 94.9418 90.0029 85.214C90.0029 84.8088 90.1067 84.4053 90.1639 84.0001C92.0123 84.0001 93.8624 84.0001 95.7107 84.0001H95.7089Z" fill="black"/>
<path d="M44.1184 108.379C44.6015 106.414 45.0327 104.668 45.4567 102.92C46.0257 100.581 46.609 98.2445 47.1458 95.8987C47.2836 95.2935 47.5448 95.0739 48.1746 95.0971C49.4772 95.1436 50.7834 95.1114 52.2882 95.1114C51.9053 96.8663 51.5635 98.432 51.2021 100.098C51.9965 99.1229 52.6049 98.1481 53.4279 97.4126C56.5055 94.6598 60.093 94.051 63.9184 95.4542C67.5614 96.7913 69.3381 99.6602 69.7443 103.416C69.8499 104.384 69.7407 105.371 69.7819 106.348C69.8141 107.094 69.3882 107.137 68.8175 107.135C64.7916 107.124 60.7675 107.128 56.7417 107.131C56.3981 107.131 56.0528 107.16 55.6878 107.178C56.6039 110.456 61.5906 112.728 66.0584 108.993C67.0729 110.086 68.091 111.186 69.1825 112.36C66.0047 115.265 62.3457 116.217 58.2948 115.319C52.8285 114.108 50.5347 110.272 50.0856 104.959C49.658 106.826 49.2285 108.694 48.8027 110.563C48.6041 111.432 48.4019 112.3 48.223 113.173C47.951 114.503 47.2102 115.313 45.8325 115.604C44.3402 115.918 43.1844 115.519 42.3434 114.258C41.336 112.748 40.3502 111.223 39.3517 109.708C39.146 109.395 38.9205 109.093 38.6181 108.665C38.3158 109.092 38.0921 109.392 37.8863 109.704C36.8879 111.22 35.9056 112.748 34.8947 114.255C34.0806 115.469 32.964 115.92 31.4951 115.626C30.0511 115.336 29.305 114.505 28.9919 113.091C27.7447 107.462 26.4511 101.844 25.1789 96.2218C25.1145 95.9398 25.0859 95.6506 25 95.1132C26.2453 95.1132 27.3887 95.1275 28.532 95.1096C29.8865 95.09 29.8758 95.0811 30.2014 96.4325C31.0853 100.101 31.9782 103.768 32.871 107.435C32.9318 107.681 33.032 107.919 33.1805 108.356C34.3042 106.678 35.2919 105.132 36.3637 103.645C36.7108 103.163 37.2189 102.697 37.7557 102.476C38.9009 102.004 40.0138 102.404 40.7331 103.436C41.6528 104.754 42.5259 106.103 43.4241 107.437C43.5995 107.697 43.7945 107.944 44.1166 108.381L44.1184 108.379ZM65.1584 102.929C64.9687 100.799 63.0775 99.1943 60.8266 99.1871C58.4737 99.18 56.1781 100.942 56.0403 102.929H65.1602H65.1584Z" fill="black"/>
<path d="M131.509 115.64C129.465 115.64 127.56 115.674 125.66 115.601C125.398 115.59 125.157 115.051 124.811 114.647C124.908 114.624 124.795 114.628 124.708 114.676C119.628 117.406 111.685 114.517 110.757 106.73C110.093 101.158 113.387 96.2326 118.535 94.9723C125.15 93.353 131.487 98.2875 131.507 105.077C131.516 108.26 131.507 111.441 131.507 114.624V115.638L131.509 115.64ZM125.649 105.18C125.634 102.131 123.716 100.055 120.916 100.057C118.111 100.057 116.148 102.208 116.157 105.271C116.166 108.308 118.066 110.268 120.988 110.254C123.768 110.241 125.663 108.179 125.649 105.18V105.18Z" fill="black"/>
<path d="M85.4525 101.356C84.692 100.872 84.0336 100.417 83.3429 100.021C82.0457 99.2763 80.625 99.1996 79.1775 99.337C78.426 99.4084 77.8177 99.7619 77.6978 100.531C77.5761 101.308 78.0574 101.845 78.766 102.09C79.8342 102.458 80.9417 102.709 82.001 103.097C83.3358 103.586 84.7028 104.043 85.941 104.725C89.0883 106.458 88.8503 111.684 86.9143 113.617C85.1662 115.363 83.0924 116.084 80.7038 116.07C77.3435 116.05 74.4019 114.942 71.9668 112.587C71.8809 112.505 71.7932 112.425 71.7163 112.335C71.6805 112.293 71.6715 112.228 71.625 112.105C72.5858 110.952 73.5699 109.77 74.6149 108.515C74.9584 108.801 75.2483 109.038 75.5346 109.279C77.0179 110.518 78.6801 111.311 80.6537 111.321C80.9221 111.321 81.194 111.328 81.457 111.284C82.273 111.143 83.0728 110.939 83.2803 109.977C83.4235 109.313 82.8616 108.64 81.831 108.304C80.7843 107.963 79.7036 107.733 78.6533 107.401C77.7193 107.105 76.7799 106.799 75.896 106.387C73.7113 105.371 72.6431 103.606 72.5787 101.212C72.5125 98.7122 73.5914 96.8537 75.7475 95.6291C79.2598 93.6332 85.4793 94.665 88.0094 97.6857C87.1612 98.9032 86.3024 100.135 85.4489 101.358L85.4525 101.356Z" fill="black"/>
</g>
<defs>
<clipPath id="clip0_2504_78195">
<rect width="150" height="40.7035" fill="white" transform="translate(25 84)"/>
</clipPath>
</defs>
</svg>
