<svg width="38" height="38" viewBox="0 0 38 38" fill="none" xmlns="http://www.w3.org/2000/svg">
<path d="M5.56323 23.75H9.49961C11.2485 23.75 12.6663 22.3322 12.6663 20.5833V17.4166C12.6663 15.6677 14.084 14.25 15.8329 14.25H18.9996C20.7485 14.25 22.1663 12.8322 22.1663 11.0833V5.10571" stroke="#101010" stroke-width="2.5" stroke-linecap="round" stroke-linejoin="round"/>
<path d="M27.3125 30.8747C31.4483 30.8747 32.4634 25.7278 34.8333 24.3603C33.0827 21.9616 30.282 20.5552 27.3125 20.5837" stroke="#101010" stroke-width="2.5" stroke-linecap="round" stroke-linejoin="round"/>
<path d="M27.3123 30.8749C24.4704 30.8749 22.1665 28.5711 22.1665 25.7291C22.1665 22.8871 24.4704 20.5833 27.3123 20.5833" stroke="#101010" stroke-width="2.5" stroke-linecap="round" stroke-linejoin="round"/>
<path d="M27.6933 25.3591C24.759 25.85 22.173 27.5682 20.5835 30.0831" stroke="#101010" stroke-width="2.5" stroke-linecap="round" stroke-linejoin="round"/>
<path d="M32.8846 15.8335C31.32 8.95984 24.9631 4.26438 17.9332 4.78981C10.9033 5.31525 5.31501 10.9035 4.78957 17.9334C4.26413 24.9633 8.95959 31.3202 15.8333 32.8849" stroke="#101010" stroke-width="2.5" stroke-linecap="round" stroke-linejoin="round"/>
</svg>
