<svg width="38" height="38" viewBox="0 0 38 38" fill="none" xmlns="http://www.w3.org/2000/svg">
<path fill-rule="evenodd" clip-rule="evenodd" d="M18.3262 12.545C14.7611 12.545 11.8711 15.435 11.8711 19.0001C11.8711 22.5651 14.7611 25.4551 18.3262 25.4551C23.5848 25.4551 24.8755 18.9983 27.8888 17.2774C25.6422 14.2606 22.0874 12.5013 18.3262 12.545V12.545Z" stroke="#101010" stroke-width="2.5" stroke-linecap="round" stroke-linejoin="round"/>
<path fill-rule="evenodd" clip-rule="evenodd" d="M26.111 34.9998H11.8888C6.97967 34.9998 3 31.0202 3 26.111V11.8888C3 6.97967 6.97967 3 11.8888 3H26.111C31.0202 3 34.9998 6.97967 34.9998 11.8888V26.111C34.9998 31.0202 31.0202 34.9998 26.111 34.9998Z" stroke="#101010" stroke-width="2.5" stroke-linecap="round" stroke-linejoin="round"/>
<path d="M19.105 18.2981C15.4952 18.902 12.3138 21.0158 10.3584 24.1096" stroke="#101010" stroke-width="2.5" stroke-linecap="round" stroke-linejoin="round"/>
</svg>
