<svg width="200" height="200" viewBox="0 0 200 200" fill="none" xmlns="http://www.w3.org/2000/svg">
<g clip-path="url(#clip0_2504_77910)">
<path d="M144.089 110.685C144.097 110.687 144.105 110.689 144.113 110.693C144.119 110.695 144.123 110.698 144.127 110.701C144.127 110.683 144.126 110.664 144.124 110.646C144.113 110.659 144.1 110.673 144.089 110.686V110.685Z" fill="black"/>
<path d="M143.572 97.2059C143.561 97.21 143.55 97.2149 143.54 97.2182C143.544 97.2231 143.548 97.2272 143.553 97.2321C143.561 97.2239 143.566 97.2149 143.573 97.2059H143.572Z" fill="black"/>
<path d="M174.666 106.996C174.332 105.177 173.136 104.097 171.539 103.357C170.08 102.682 168.509 102.371 166.974 101.945C166.224 101.737 165.492 101.49 164.814 101.084C163.885 100.527 163.924 99.2037 164.508 98.5783C164.783 98.284 165.098 98.0563 165.486 97.9322C166.301 97.67 167.132 97.6333 167.982 97.7038C169.547 97.8325 171.006 98.2893 172.382 99.032C172.719 99.2137 172.972 99.16 173.171 98.8312C173.553 98.1997 173.905 97.5497 174.234 96.889C174.405 96.5449 174.295 96.3142 173.893 96.0812C173.406 95.7991 172.893 95.5684 172.368 95.3691C169.958 94.4555 167.478 94.2401 164.954 94.7445C163.346 95.0656 161.928 95.7761 160.959 97.1588C159.788 98.8282 159.669 101.368 161.354 103.06C162.188 103.897 163.228 104.416 164.327 104.82C165.359 105.2 166.424 105.464 167.484 105.747C168.308 105.966 169.137 106.193 169.859 106.681C171.137 107.544 171.127 109.2 169.836 110.05C169.17 110.488 168.403 110.591 167.639 110.616C165.545 110.686 163.594 110.171 161.797 109.092C161.687 109.026 161.581 108.955 161.465 108.901C161.156 108.755 160.913 108.793 160.734 109.083C160.319 109.755 159.911 110.432 159.567 111.143C159.412 111.463 159.495 111.659 159.842 111.868C161.055 112.598 162.357 113.115 163.734 113.429C165.801 113.901 167.884 113.966 169.955 113.471C171.614 113.075 173.062 112.323 174.012 110.824C174.324 110.332 174.507 109.795 174.653 109.238C174.685 109.119 174.636 108.939 174.843 108.919V107.239C174.671 107.241 174.685 107.097 174.667 106.996H174.666Z" fill="black"/>
<path d="M172.176 103.567C170.972 102.907 169.664 102.538 168.343 102.2C167.224 101.914 166.085 101.674 165.057 101.115C164.522 100.825 164.165 100.405 164.171 99.7539C164.177 99.0702 164.481 98.5636 165.074 98.2271C165.607 97.9244 166.196 97.8148 166.797 97.7887C168.74 97.7029 170.558 98.1597 172.261 99.0909C172.781 99.3753 173.034 99.3048 173.318 98.7935C173.638 98.2164 173.956 97.6377 174.269 97.0568C174.551 96.534 174.481 96.2888 173.961 96.0036C172.001 94.9314 169.903 94.401 167.667 94.3887C165.923 94.3795 164.24 94.6171 162.69 95.4801C160.516 96.6904 159.495 99.1109 160.213 101.383C160.662 102.804 161.714 103.674 162.979 104.336C164.239 104.995 165.599 105.365 166.969 105.713C167.979 105.97 168.995 106.224 169.88 106.812C170.253 107.059 170.523 107.385 170.637 107.827C170.909 108.876 170.383 109.815 169.272 110.218C168.123 110.634 166.939 110.577 165.757 110.41C164.248 110.197 162.857 109.661 161.573 108.843C161.196 108.603 160.865 108.658 160.65 109.015C160.249 109.677 159.858 110.348 159.492 111.03C159.266 111.452 159.361 111.708 159.78 111.95C162.97 113.795 166.378 114.347 169.977 113.568C171.641 113.208 173.072 112.417 174.053 110.956C174.47 110.334 174.653 109.627 174.843 108.92C174.635 108.94 174.684 109.119 174.653 109.239C174.506 109.795 174.324 110.333 174.012 110.825C173.062 112.324 171.614 113.075 169.954 113.472C167.884 113.967 165.801 113.902 163.734 113.43C162.357 113.116 161.054 112.598 159.842 111.869C159.495 111.66 159.411 111.464 159.567 111.143C159.911 110.432 160.319 109.755 160.733 109.084C160.913 108.794 161.156 108.756 161.465 108.902C161.581 108.956 161.687 109.027 161.796 109.092C163.594 110.172 165.544 110.687 167.638 110.617C168.403 110.592 169.17 110.489 169.836 110.051C171.127 109.201 171.136 107.545 169.859 106.682C169.137 106.194 168.308 105.967 167.484 105.748C166.423 105.465 165.359 105.201 164.327 104.821C163.227 104.416 162.188 103.897 161.354 103.06C159.669 101.369 159.788 98.8288 160.959 97.1595C161.928 95.7768 163.345 95.0663 164.954 94.7451C167.478 94.2408 169.958 94.4562 172.368 95.3698C172.893 95.5683 173.406 95.7998 173.893 96.0818C174.295 96.3148 174.405 96.5463 174.234 96.8897C173.906 97.5504 173.552 98.2003 173.171 98.8319C172.972 99.1607 172.718 99.2143 172.382 99.0327C171.005 98.29 169.548 97.8324 167.982 97.7044C167.132 97.6347 166.301 97.6707 165.485 97.9328C165.097 98.0577 164.783 98.2854 164.508 98.5789C163.923 99.2044 163.885 100.528 164.814 101.084C165.491 101.491 166.223 101.738 166.974 101.946C168.509 102.372 170.081 102.683 171.539 103.358C173.135 104.097 174.332 105.177 174.666 106.996C174.684 107.097 174.67 107.241 174.842 107.24C174.823 107.209 174.792 107.18 174.788 107.147C174.561 105.485 173.607 104.352 172.175 103.567H172.176Z" fill="black"/>
<path d="M152.643 87.0655C153.655 87.0639 154.666 87.0632 155.678 87.0616C155.676 87.0417 155.681 87.0202 155.693 86.9988H152.629C152.641 87.0218 152.646 87.044 152.643 87.0647V87.0655Z" fill="black"/>
<path d="M155.699 87.0636C155.699 87.0428 155.696 87.0213 155.693 87.0005C155.682 87.0221 155.676 87.0428 155.678 87.0636C155.685 87.0636 155.692 87.0636 155.699 87.0636Z" fill="black"/>
<path d="M152.625 87.0667C152.631 87.0667 152.637 87.0667 152.643 87.0667C152.646 87.0452 152.641 87.0228 152.629 87.0005C152.631 87.0228 152.629 87.0452 152.624 87.0667H152.625Z" fill="black"/>
<path d="M147.175 87.0672C147.173 87.0457 147.178 87.0235 147.191 87.0005H144.203C144.215 87.0227 144.22 87.0434 144.217 87.0634C145.203 87.0649 146.189 87.0657 147.175 87.0672H147.175Z" fill="black"/>
<path d="M144.218 87.0636C144.221 87.0436 144.216 87.0228 144.205 87.0005C144.202 87.0213 144.199 87.0421 144.199 87.0636C144.206 87.0636 144.212 87.0636 144.219 87.0636H144.218Z" fill="black"/>
<path d="M147.175 87.0675C147.181 87.0675 147.188 87.0675 147.194 87.0675C147.19 87.0452 147.188 87.0236 147.19 87.0005C147.177 87.0236 147.172 87.0452 147.174 87.0675H147.175Z" fill="black"/>
<path d="M144.229 110.96C144.292 111.491 144.317 112.023 144.319 112.558C144.32 113.198 144.532 113.391 145.178 113.393C145.765 113.394 146.352 113.4 146.939 113.39C147.413 113.381 147.576 113.217 147.612 112.747C147.62 112.632 147.618 112.517 147.618 112.403C147.618 104.323 147.617 96.2432 147.623 88.1632C147.623 87.7478 147.574 87.376 147.201 87.1216C147.19 87.1085 147.184 87.0947 147.181 87.081C147.069 87.1952 146.92 87.1936 146.777 87.1952C146.056 87.2028 145.336 87.2028 144.616 87.1952C144.473 87.1936 144.322 87.1952 144.214 87.0771C144.209 87.0917 144.201 87.1055 144.189 87.1193C143.791 87.3576 143.695 87.7232 143.697 88.1624C143.705 90.9746 143.703 93.7867 143.698 96.5988C143.698 96.8088 143.786 97.107 143.582 97.2013C143.578 97.2028 143.574 97.2036 143.57 97.2051C143.564 97.2135 143.56 97.2212 143.552 97.2296C143.548 97.225 143.544 97.2212 143.54 97.2166C143.324 97.2779 143.182 97.0158 143.039 96.8709C141.151 94.9548 138.827 94.2857 136.2 94.501C131.875 94.8551 128.824 98.2889 128.219 102.374C127.904 104.506 128.138 106.559 129.028 108.527C129.813 110.262 131.024 111.643 132.675 112.579C135.267 114.049 137.981 114.179 140.747 113.093C141.894 112.642 142.853 111.91 143.671 110.991C143.721 110.935 143.764 110.87 143.82 110.818C143.898 110.748 143.977 110.653 144.089 110.685C144.101 110.672 144.113 110.659 144.125 110.645C144.125 110.663 144.126 110.682 144.128 110.7C144.217 110.751 144.218 110.864 144.23 110.96H144.229ZM143.311 106.678C142.407 108.875 140.433 110.142 137.953 110.142C134.933 110.142 132.497 107.964 132.166 104.938C131.906 102.576 132.623 100.584 134.575 99.1488C137.581 96.9384 142.807 98.1034 143.674 102.826C143.915 104.142 143.823 105.435 143.311 106.677L143.311 106.678Z" fill="black"/>
<path d="M143.82 110.818C143.764 110.869 143.721 110.934 143.67 110.991C142.853 111.909 141.895 112.642 140.746 113.093C137.98 114.178 135.266 114.048 132.675 112.579C131.022 111.643 129.812 110.261 129.028 108.527C128.138 106.559 127.904 104.505 128.219 102.374C128.823 98.2887 131.875 94.8549 136.2 94.5008C138.826 94.2855 141.15 94.9553 143.039 96.8707C143.181 97.0156 143.324 97.2785 143.539 97.2164C142.036 95.5149 140.168 94.5744 137.923 94.3905C134.84 94.1383 132.234 95.124 130.255 97.51C128.262 99.9136 127.687 102.731 128.108 105.776C128.69 109.99 131.839 113.389 136.148 113.834C138.572 114.084 140.809 113.576 142.749 112.026C143.229 111.642 143.642 111.19 144.089 110.684C143.976 110.652 143.897 110.746 143.82 110.817V110.818Z" fill="black"/>
<path d="M147.199 87.1223C147.572 87.3767 147.621 87.7485 147.621 88.1639C147.615 96.2439 147.617 104.324 147.616 112.404C147.616 112.518 147.619 112.633 147.61 112.747C147.574 113.218 147.41 113.382 146.937 113.39C146.35 113.401 145.763 113.394 145.176 113.393C144.53 113.392 144.318 113.199 144.317 112.559C144.315 112.024 144.29 111.491 144.227 110.961C144.215 110.865 144.215 110.751 144.125 110.701C144.162 111.436 144.193 112.102 144.228 112.767C144.258 113.316 144.47 113.518 145.014 113.52C145.653 113.522 146.29 113.522 146.929 113.52C147.497 113.518 147.716 113.302 147.716 112.737C147.717 104.439 147.716 96.1419 147.72 87.8443C147.72 87.4534 147.584 87.1813 147.193 87.0663C147.189 87.0724 147.182 87.0763 147.178 87.0816C147.182 87.0954 147.188 87.1092 147.198 87.1223H147.199Z" fill="black"/>
<path d="M143.697 96.599C143.701 93.7869 143.704 90.9747 143.696 88.1626C143.694 87.7234 143.791 87.3578 144.188 87.1195C144.201 87.1057 144.208 87.0919 144.212 87.0773C144.208 87.0719 144.202 87.0681 144.198 87.062C143.749 87.1976 143.618 87.3854 143.617 87.9089C143.616 90.8866 143.617 93.8643 143.614 96.8427C143.614 96.9593 143.653 97.0911 143.569 97.2053C143.573 97.2038 143.577 97.203 143.581 97.2015C143.785 97.1072 143.697 96.809 143.697 96.599V96.599Z" fill="black"/>
<path d="M144.212 87.0782C144.321 87.1962 144.471 87.1947 144.614 87.1962C145.335 87.2039 146.054 87.2039 146.775 87.1962C146.918 87.1947 147.068 87.1962 147.179 87.082C147.177 87.0766 147.176 87.072 147.175 87.0667C146.189 87.0651 145.203 87.0644 144.217 87.0628C144.217 87.0682 144.214 87.0728 144.213 87.0782H144.212Z" fill="black"/>
<path d="M144.218 87.0628C144.211 87.0628 144.205 87.0628 144.198 87.0628C144.203 87.069 144.208 87.0728 144.213 87.0782C144.214 87.0728 144.217 87.0682 144.217 87.0628H144.218Z" fill="black"/>
<path d="M147.179 87.0816C147.184 87.0763 147.189 87.0724 147.194 87.0663C147.188 87.0663 147.181 87.0663 147.175 87.0663C147.175 87.0717 147.177 87.0763 147.179 87.0816Z" fill="black"/>
<path d="M124.796 95.4659C124.794 94.9508 124.567 94.7263 124.047 94.724C123.293 94.7201 122.541 94.7178 121.787 94.7255C121.344 94.7301 121.096 94.9516 121.054 95.3831C120.998 95.9572 120.962 96.5328 120.912 97.1651C119.244 95.3977 117.233 94.5285 114.882 94.3867C112.221 94.2265 109.896 95.0091 107.986 96.87C104.376 100.387 104.071 106.688 107.264 110.648C110.189 114.277 115.219 114.698 118.531 112.818C119.496 112.27 120.294 111.532 121.048 110.588C121.087 111.401 121.122 112.108 121.153 112.816C121.175 113.294 121.39 113.515 121.862 113.518C122.615 113.523 123.368 113.523 124.121 113.518C124.57 113.516 124.805 113.276 124.805 112.839C124.802 108.385 124.799 103.929 124.796 99.4745C124.796 98.1378 124.798 96.8011 124.795 95.4651L124.796 95.4659ZM117.315 109.726C113.369 111.276 109.24 108.525 109.193 104.297C109.165 101.867 110.122 99.9328 112.304 98.7517C115.32 97.1191 119.943 98.3708 120.763 102.919C120.835 103.321 120.865 103.725 120.865 104.132C120.868 106.732 119.517 108.86 117.314 109.725L117.315 109.726Z" fill="black"/>
<path d="M38.751 95.225C36.9161 94.3436 34.9693 94.1643 32.9711 94.4854C30.6395 94.8602 28.6828 95.9187 27.1912 97.7544C25.3755 99.9893 24.7386 102.585 25.0965 105.401C25.5671 109.103 27.5775 111.694 31.0327 113.125C33.4754 114.137 36.0017 114.102 38.5387 113.53C39.8685 113.231 41.0956 112.683 42.187 111.858C42.5511 111.582 42.6407 111.223 42.4261 110.855C42.0544 110.219 41.6681 109.592 41.2795 108.965C41.1025 108.679 40.848 108.624 40.556 108.79C40.4234 108.865 40.3069 108.967 40.1789 109.05C37.9439 110.484 35.5525 110.878 33.0309 109.982C30.8541 109.208 29.5627 107.626 29.0798 105.322H29.6025C34.0441 105.322 38.485 105.322 42.9266 105.322C43.5038 105.322 43.749 105.086 43.7567 104.524C43.7705 103.467 43.7145 102.414 43.4739 101.38C42.8308 98.6197 41.3569 96.4774 38.751 95.2258V95.225ZM39.5021 102.381C37.8182 102.375 36.1343 102.378 34.4496 102.378C32.7649 102.378 31.1324 102.372 29.4738 102.382C29.2001 102.384 29.1342 102.339 29.207 102.047C30.2785 97.7199 34.793 96.899 37.2755 98.3054C38.7571 99.1439 39.5305 100.455 39.8002 102.099C39.8439 102.365 39.7121 102.382 39.5013 102.381L39.5021 102.381Z" fill="black"/>
<path d="M81.1521 97.0798C78.6657 94.8095 75.7095 94.043 72.4084 94.5604C67.595 95.3146 64.1582 99.3285 64.1582 105.128C64.1958 107.262 65.3899 109.821 67.8257 111.747C69.9434 113.423 72.3884 114.107 75.0818 113.884C77.9108 113.648 80.2753 112.481 82.0757 110.281C83.7328 108.257 84.3843 105.906 84.1643 103.312C83.9558 100.854 82.9763 98.746 81.1521 97.0798ZM73.9574 110.218C71.1506 110.165 68.6374 107.858 68.3622 105.072C68.1101 102.521 68.924 100.41 71.1245 99.0043C74.6334 96.7632 79.2896 98.9223 79.9442 103.041C80.0086 103.444 80.03 103.849 80.04 104.192C80.0499 107.674 77.3888 110.283 73.9574 110.218V110.218Z" fill="black"/>
<path d="M57.5547 98.109C58.6354 98.1726 59.6448 98.5145 60.5906 99.0472C61.1294 99.3507 61.3961 99.2587 61.7112 98.7168C62.0308 98.168 62.3504 97.6193 62.6708 97.0712C62.9482 96.596 62.8631 96.2373 62.3887 95.9438C62.1511 95.7966 61.9081 95.6564 61.659 95.5291C59.6969 94.5228 57.5999 94.2423 55.4277 94.4109C52.7658 94.617 50.4726 95.6441 48.6553 97.6078C46.7491 99.6665 45.9482 102.134 46.1413 104.921C46.3122 107.394 47.2673 109.517 49.0937 111.215C51.1471 113.123 53.635 113.893 56.3965 113.91C58.5028 113.918 60.4917 113.492 62.3029 112.377C62.8087 112.065 62.8854 111.79 62.5949 111.27C62.2599 110.671 61.9212 110.076 61.5824 109.479C61.331 109.037 61.144 108.974 60.681 109.22C59.0362 110.096 57.2856 110.359 55.4599 110.07C50.6274 109.306 49.1412 104.33 51.1915 100.977C52.6332 98.6203 54.9364 97.9542 57.5539 98.109H57.5547Z" fill="black"/>
<path d="M103.697 94.7742C102.867 94.7689 102.037 94.785 101.208 94.7689C100.652 94.7581 100.312 94.9927 100.099 95.51C98.3896 99.6458 96.6674 103.777 94.9467 107.908C94.8976 108.026 94.8869 108.173 94.7451 108.249C94.1994 107.002 93.7954 105.692 92.5998 104.847C91.3995 103.999 90.0628 103.976 88.6709 104.053C88.6839 104.11 88.6862 104.161 88.7054 104.204C90.0651 107.208 91.4255 110.212 92.786 113.216C92.9278 113.529 93.1662 113.664 93.5134 113.659C94.2408 113.648 94.9681 113.647 95.6955 113.662C96.0948 113.67 96.3324 113.493 96.4903 113.139C97.1088 111.748 97.7389 110.362 98.3651 108.975C100.352 104.571 102.341 100.167 104.327 95.7622C104.635 95.0793 104.444 94.7796 103.697 94.775V94.7742Z" fill="black"/>
<path d="M156.224 95.4032C156.224 94.9609 155.994 94.7187 155.546 94.7157C154.679 94.7095 153.811 94.7134 152.944 94.7141C152.318 94.7141 152.121 94.9111 152.118 95.5312C152.112 97.0189 152.103 98.5073 152.101 99.995C152.097 104.27 152.094 108.543 152.093 112.818C152.093 113.302 152.304 113.516 152.786 113.518C153.705 113.523 154.624 113.522 155.543 113.518C156 113.517 156.226 113.29 156.226 112.844C156.226 109.931 156.226 107.017 156.226 104.105H156.224C156.224 101.205 156.224 98.3042 156.224 95.4032V95.4032Z" fill="black"/>
<path d="M91.8691 101.639C91.8491 101.564 91.843 101.526 91.8292 101.493C90.934 99.4045 90.0365 97.3175 89.142 95.2289C88.9887 94.8702 88.7228 94.71 88.3342 94.7123C87.4029 94.7184 86.4709 94.7138 85.5397 94.7146C84.7586 94.7146 84.5663 95.0028 84.8882 95.7048C85.4017 96.8239 85.9168 97.9421 86.4387 99.0573C86.8273 99.8866 87.4305 100.522 88.2108 101.003C89.3382 101.699 90.5845 101.685 91.8683 101.64L91.8691 101.639Z" fill="black"/>
<path d="M155.28 87.1954C154.535 87.203 153.789 87.203 153.044 87.1954C152.9 87.1938 152.75 87.1954 152.639 87.0804C152.634 87.095 152.628 87.1103 152.617 87.1241C152.302 87.3563 152.195 87.6706 152.201 88.0553C152.215 88.857 152.201 89.6588 152.208 90.4605C152.211 91.0123 152.36 91.1587 152.92 91.1618C153.749 91.1671 154.579 91.1671 155.408 91.1618C155.954 91.1579 156.108 91.0039 156.114 90.449C156.123 89.6473 156.103 88.8455 156.123 88.0438C156.132 87.6568 156.04 87.3433 155.706 87.1241C155.693 87.1095 155.687 87.0942 155.683 87.0789C155.574 87.1946 155.424 87.1931 155.282 87.1946L155.28 87.1954Z" fill="black"/>
<path d="M155.704 87.1242C156.038 87.3434 156.13 87.6568 156.121 88.0439C156.101 88.8449 156.121 89.6473 156.112 90.449C156.106 91.0047 155.952 91.158 155.406 91.1619C154.577 91.1672 153.747 91.1672 152.917 91.1619C152.358 91.158 152.209 91.0124 152.205 90.4605C152.199 89.6588 152.213 88.8571 152.199 88.0554C152.192 87.6706 152.3 87.3556 152.615 87.1242C152.626 87.1096 152.633 87.095 152.637 87.0805C152.632 87.0751 152.627 87.0713 152.622 87.0659C152.268 87.1456 152.122 87.3878 152.118 87.7289C152.107 88.7061 152.095 89.6826 152.093 90.6598C152.092 91.0691 152.314 91.2883 152.733 91.2922C153.675 91.299 154.617 91.299 155.559 91.2922C156.006 91.2891 156.225 91.0484 156.224 90.5985C156.222 89.6596 156.213 88.7199 156.224 87.781C156.229 87.3955 156.08 87.151 155.697 87.0628C155.691 87.069 155.685 87.0743 155.68 87.0797C155.684 87.095 155.691 87.1104 155.703 87.1249L155.704 87.1242Z" fill="black"/>
<path d="M153.044 87.1954C153.79 87.2031 154.536 87.2031 155.281 87.1954C155.423 87.1939 155.573 87.1954 155.682 87.0797C155.68 87.0743 155.678 87.0682 155.678 87.0628C154.666 87.0644 153.655 87.0651 152.643 87.0667C152.643 87.0713 152.641 87.0766 152.64 87.0812C152.751 87.1962 152.901 87.1947 153.044 87.1962V87.1954Z" fill="black"/>
<path d="M152.644 87.0663C152.638 87.0663 152.632 87.0663 152.626 87.0663C152.631 87.0717 152.636 87.0755 152.641 87.0809C152.642 87.0763 152.644 87.0709 152.644 87.0663V87.0663Z" fill="black"/>
<path d="M155.682 87.0797C155.687 87.0736 155.693 87.069 155.698 87.0628C155.692 87.0628 155.685 87.0628 155.678 87.0628C155.678 87.069 155.68 87.0743 155.682 87.0797Z" fill="black"/>
</g>
<defs>
<clipPath id="clip0_2504_77910">
<rect width="149.843" height="26.9295" fill="white" transform="translate(25 87)"/>
</clipPath>
</defs>
</svg>
