<svg width="38" height="38" viewBox="0 0 38 38" fill="none" xmlns="http://www.w3.org/2000/svg">
<path d="M13.8689 8.43439H23.1832" stroke="#101010" stroke-width="2.5" stroke-linecap="round" stroke-linejoin="round"/>
<path d="M27.8398 13.858H9.21118" stroke="#101010" stroke-width="2.5" stroke-linecap="round" stroke-linejoin="round"/>
<path d="M9.21118 22.3953H13.8683" stroke="#101010" stroke-width="2.5" stroke-linecap="round" stroke-linejoin="round"/>
<path d="M26.4744 19.8819C28.2931 21.7006 28.2931 24.6493 26.4744 26.4681C24.6557 28.2868 21.7069 28.2868 19.8882 26.4681C18.0695 24.6493 18.0695 21.7006 19.8882 19.8819C21.7069 18.0631 24.6557 18.0631 26.4744 19.8819" stroke="#101010" stroke-width="2.5" stroke-linecap="round" stroke-linejoin="round"/>
<path d="M26.2837 26.6375V34.0563L23.179 32.5039L20.0742 34.0563V26.6375" stroke="#101010" stroke-width="2.5" stroke-linecap="round" stroke-linejoin="round"/>
<path d="M26.2857 29.3905H30.9429C32.6583 29.3905 34.0477 28.0011 34.0477 26.2857V6.10477C34.0477 4.38938 32.6583 3 30.9429 3H6.10477C4.38938 3 3 4.38938 3 6.10477V26.2857C3 28.0011 4.38938 29.3905 6.10477 29.3905H20.0762" stroke="#101010" stroke-width="2.5" stroke-linecap="round" stroke-linejoin="round"/>
</svg>
