<svg width="48" height="49" viewBox="0 0 48 49" fill="none" xmlns="http://www.w3.org/2000/svg">
<g clip-path="url(#clip0_758_87831)">
<g clip-path="url(#clip1_758_87831)">
<mask id="path-1-outside-1_758_87831" maskUnits="userSpaceOnUse" x="3.73169" y="0.0510254" width="38" height="49" fill="black">
<rect fill="white" x="3.73169" y="0.0510254" width="38" height="49"/>
<path fill-rule="evenodd" clip-rule="evenodd" d="M39.4181 20.9327C38.1383 25.7089 34.6145 29.3013 30.2352 30.9323L29.5315 46.17C29.499 46.8727 28.6389 47.1921 28.1556 46.681L24.7013 43.0272C24.405 42.7138 23.9133 42.6928 23.5914 42.9797L20.0403 46.1449C19.5073 46.62 18.6665 46.2089 18.7142 45.4965L19.2826 37.0029L15.528 44.6426C15.2131 45.2834 14.2795 45.2191 14.0554 44.5412L12.5627 40.0245C12.4273 39.615 11.991 39.3874 11.5777 39.5106L6.75925 40.9477C6.0852 41.1488 5.5 40.442 5.82322 39.8173L12.412 27.0821C8.92264 23.422 7.35858 18.1638 8.73744 13.0179C10.5618 6.20919 16.9461 1.8064 23.8685 2.06155C25.3907 2.00537 26.9504 2.17301 28.5036 2.58917C36.6604 4.77478 41.547 12.9874 39.4181 20.9327Z"/>
</mask>
<path fill-rule="evenodd" clip-rule="evenodd" d="M39.4181 20.9327C38.1383 25.7089 34.6145 29.3013 30.2352 30.9323L29.5315 46.17C29.499 46.8727 28.6389 47.1921 28.1556 46.681L24.7013 43.0272C24.405 42.7138 23.9133 42.6928 23.5914 42.9797L20.0403 46.1449C19.5073 46.62 18.6665 46.2089 18.7142 45.4965L19.2826 37.0029L15.528 44.6426C15.2131 45.2834 14.2795 45.2191 14.0554 44.5412L12.5627 40.0245C12.4273 39.615 11.991 39.3874 11.5777 39.5106L6.75925 40.9477C6.0852 41.1488 5.5 40.442 5.82322 39.8173L12.412 27.0821C8.92264 23.422 7.35858 18.1638 8.73744 13.0179C10.5618 6.20919 16.9461 1.8064 23.8685 2.06155C25.3907 2.00537 26.9504 2.17301 28.5036 2.58917C36.6604 4.77478 41.547 12.9874 39.4181 20.9327Z" fill="#07503E"/>
<path d="M30.2352 30.9323L29.8187 29.814L29.0796 30.0893L29.0432 30.8772L30.2352 30.9323ZM39.4181 20.9327L38.2654 20.6238L38.2654 20.6238L39.4181 20.9327ZM29.5315 46.17L30.7235 46.2251L30.7235 46.2251L29.5315 46.17ZM28.1556 46.681L29.0228 45.8612L29.0228 45.8612L28.1556 46.681ZM24.7013 43.0272L23.8341 43.847L23.8341 43.847L24.7013 43.0272ZM23.5914 42.9797L24.3854 43.8706L24.3854 43.8706L23.5914 42.9797ZM20.0403 46.1449L20.8343 47.0357L20.8343 47.0357L20.0403 46.1449ZM18.7142 45.4965L17.5236 45.4168L17.5236 45.4168L18.7142 45.4965ZM19.2826 37.0029L20.4732 37.0826L18.2116 36.4766L19.2826 37.0029ZM15.528 44.6426L16.599 45.169L16.599 45.169L15.528 44.6426ZM14.0554 44.5412L12.9224 44.9156L12.9224 44.9156L14.0554 44.5412ZM12.5627 40.0245L11.4296 40.399L11.4296 40.399L12.5627 40.0245ZM11.5777 39.5106L11.2367 38.3671L11.2367 38.3671L11.5777 39.5106ZM6.75925 40.9477L7.10031 42.0913L7.10031 42.0913L6.75925 40.9477ZM5.82322 39.8173L6.88309 40.3657L6.88309 40.3657L5.82322 39.8173ZM12.412 27.0821L13.4719 27.6305L13.8629 26.8746L13.2757 26.2587L12.412 27.0821ZM8.73744 13.0179L7.58479 12.709L8.73744 13.0179ZM23.8685 2.06155L23.8246 3.25406L23.8686 3.25568L23.9125 3.25405L23.8685 2.06155ZM28.5036 2.58917L28.8124 1.43652L28.8124 1.43652L28.5036 2.58917ZM30.6517 32.0505C35.3696 30.2934 39.1847 26.4142 40.5707 21.2415L38.2654 20.6238C37.0918 25.0037 33.8594 28.3091 29.8187 29.814L30.6517 32.0505ZM30.7235 46.2251L31.4273 30.9873L29.0432 30.8772L28.3394 46.115L30.7235 46.2251ZM27.2885 47.5008C28.495 48.7769 30.6425 47.9794 30.7235 46.2251L28.3394 46.115C28.3555 45.766 28.7828 45.6073 29.0228 45.8612L27.2885 47.5008ZM23.8341 43.847L27.2885 47.5008L29.0228 45.8612L25.5684 42.2074L23.8341 43.847ZM24.3854 43.8706C24.2255 44.0131 23.9813 44.0026 23.8341 43.847L25.5684 42.2074C24.8287 41.425 23.6011 41.3726 22.7974 42.0889L24.3854 43.8706ZM20.8343 47.0357L24.3854 43.8706L22.7974 42.0889L19.2463 45.2541L20.8343 47.0357ZM17.5236 45.4168C17.4045 47.1954 19.5036 48.2218 20.8343 47.0357L19.2463 45.2541C19.511 45.0182 19.9285 45.2224 19.9049 45.5762L17.5236 45.4168ZM18.0919 36.9232L17.5236 45.4168L19.9049 45.5762L20.4732 37.0826L18.0919 36.9232ZM16.599 45.169L20.3535 37.5292L18.2116 36.4766L14.4571 44.1163L16.599 45.169ZM12.9224 44.9156C13.4817 46.6081 15.8128 46.7687 16.599 45.169L14.4571 44.1163C14.6135 43.7981 15.0772 43.83 15.1884 44.1667L12.9224 44.9156ZM11.4296 40.399L12.9224 44.9156L15.1884 44.1667L13.6957 39.65L11.4296 40.399ZM11.9188 40.6542C11.7135 40.7154 11.4968 40.6023 11.4296 40.399L13.6957 39.65C13.3578 38.6278 12.2684 38.0594 11.2367 38.3671L11.9188 40.6542ZM7.10031 42.0913L11.9188 40.6542L11.2367 38.3671L6.41819 39.8042L7.10031 42.0913ZM4.76336 39.269C3.95639 40.8287 5.41744 42.5932 7.10031 42.0913L6.41819 39.8042C6.75296 39.7044 7.04362 40.0554 6.88309 40.3657L4.76336 39.269ZM11.3522 26.5338L4.76336 39.269L6.88309 40.3657L13.4719 27.6305L11.3522 26.5338ZM13.2757 26.2587C10.0545 22.8798 8.62589 18.0448 9.89009 13.3267L7.58479 12.709C6.09128 18.2829 7.79077 23.9641 11.5483 27.9055L13.2757 26.2587ZM9.89009 13.3267C11.562 7.08691 17.4252 3.01818 23.8246 3.25406L23.9125 0.869054C16.467 0.594619 9.56159 5.33148 7.58479 12.709L9.89009 13.3267ZM28.8124 1.43652C27.1433 0.989264 25.4645 0.808522 23.8245 0.869057L23.9125 3.25405C25.3169 3.20222 26.7576 3.35675 28.1947 3.74182L28.8124 1.43652ZM40.5707 21.2415C42.8778 12.6313 37.5771 3.785 28.8124 1.43652L28.1947 3.74182C35.7437 5.76456 40.2161 13.3436 38.2654 20.6238L40.5707 21.2415Z" fill="#DBCAF7" mask="url(#path-1-outside-1_758_87831)"/>
<path d="M29.1333 46.1517L29.8377 30.8993C29.8486 30.6639 29.654 30.4705 29.4186 30.4828L20.4389 30.9542C20.2374 30.9648 20.0755 31.1243 20.0621 31.3257L19.112 45.5232C19.0882 45.8794 19.5086 46.0849 19.7751 45.8474L23.3262 42.6822C23.809 42.2518 24.5466 42.2833 24.991 42.7534L28.4454 46.4072C28.687 46.6628 29.1171 46.503 29.1333 46.1517Z" fill="#DBCAF7" stroke="#07503E" stroke-width="0.797314"/>
<path d="M21.5603 43.8411L22.2034 31.4087L27.072 31.6307L26.7391 44.1812C26.0572 43.4507 25.1277 42.4838 25.0751 42.4368C24.9122 42.2913 24.6638 42.0878 24.2889 42.0597C23.989 42.0372 23.7017 42.0615 23.4015 42.2642L21.5603 43.8411Z" fill="#6C44AE"/>
<path d="M6.17748 40.0006L13.1936 26.4394C13.3019 26.2301 13.5672 26.1599 13.7649 26.2883L21.3058 31.1864C21.475 31.2963 21.5354 31.5154 21.4464 31.6965L15.1704 44.4669C15.013 44.7873 14.5461 44.7551 14.4341 44.4162L12.9414 39.8995C12.7384 39.2853 12.0839 38.9438 11.464 39.1287L6.6455 40.5658C6.30847 40.6663 6.01588 40.313 6.17748 40.0006Z" fill="#DBCAF7" stroke="#07503E" stroke-width="0.797314"/>
<path d="M9.86572 39.3081L15.0704 28.8821L18.7555 30.9178L13.647 41.1272L13.1817 39.7183C13.0589 39.3637 12.8786 39.1495 12.5408 38.941C12.2029 38.7325 11.6836 38.7569 11.5317 38.8092L9.86572 39.3081Z" fill="#6C44AE"/>
<path d="M39.0337 20.8295C36.9643 28.5526 28.8517 33.1076 20.898 30.9764C12.9443 28.8452 8.19604 20.8442 10.2654 13.1211C12.3348 5.39804 20.4474 0.843107 28.4011 2.97431C36.3549 5.1055 41.1031 13.1065 39.0337 20.8295Z" fill="#07503E" stroke="#07503E" stroke-width="0.797314"/>
<path d="M37.8911 20.8295C35.8217 28.5526 27.7092 33.1076 19.7554 30.9764C11.8017 28.8452 7.05347 20.8442 9.12286 13.1211C11.1923 5.39804 19.3048 0.843107 27.2586 2.97431C35.2123 5.1055 39.9605 13.1065 37.8911 20.8295Z" fill="#6C44AE" stroke="#07503E" stroke-width="0.797314"/>
<path d="M35.8556 20.2276C34.0671 26.9025 27.0545 30.8415 20.1769 28.9986C13.2992 27.1558 9.19564 20.2382 10.9842 13.5633C12.7727 6.88842 19.7853 2.94945 26.6629 4.79232C33.5406 6.63518 37.6441 13.5527 35.8556 20.2276Z" fill="#DBCAF7" stroke="#07503E" stroke-width="0.797314"/>
<path d="M19.2292 37.0735L21.738 31.5886L23.5919 31.5886L19.2292 40.6037V37.0735Z" fill="#07503E"/>
<path d="M27.6949 24.95C27.8094 24.9807 27.9316 24.9527 28.0213 24.8754C28.1111 24.798 28.1567 24.6813 28.1433 24.5636L26.4672 9.89498C26.4505 9.7489 26.3462 9.62788 26.2042 9.58983L24.8347 9.22288C24.6925 9.18478 24.5415 9.23759 24.4541 9.35599L15.6872 21.2264C15.6169 21.3216 15.5982 21.4455 15.6372 21.5572C15.6763 21.669 15.7681 21.7542 15.8825 21.7849L17.9982 22.3518C18.1408 22.39 18.2922 22.3367 18.3795 22.2176L20.8658 18.8264L24.7827 19.876L25.2403 24.056C25.2563 24.2027 25.3609 24.3246 25.5035 24.3628L27.6949 24.95ZM22.2045 16.7857L24.3652 13.6002L24.6437 17.4393L22.2045 16.7857Z" fill="#B486FF" stroke="#07503E" stroke-width="0.715986" stroke-linejoin="round"/>
</g>
</g>
<defs>
<clipPath id="clip0_758_87831">
<rect width="48" height="48.0008" fill="white" transform="translate(0 0.5)"/>
</clipPath>
<clipPath id="clip1_758_87831">
<rect width="47.9227" height="47.9227" fill="white" transform="translate(-0.132812 0.453857)"/>
</clipPath>
</defs>
</svg>
