<svg width="200" height="200" viewBox="0 0 200 200" fill="none" xmlns="http://www.w3.org/2000/svg">
<path fill-rule="evenodd" clip-rule="evenodd" d="M56.8421 120.031H58.8499C59.3151 120.031 59.7067 119.631 59.7312 119.157V96.844C59.7312 94.6452 57.9931 92.8712 55.8384 92.8712H53.2675C52.8023 92.8712 52.4106 92.4714 52.4106 91.9967V89.9728C52.4106 87.774 50.6722 86 48.5176 86H31.893C29.7384 86 28 87.774 28 89.9728V112.385C28 114.559 29.7384 116.333 31.893 116.358H51.1619C51.3333 116.358 51.5047 116.408 51.6516 116.508L56.3525 119.881C56.4994 119.981 56.6708 120.031 56.8421 120.031ZM52.1658 113.185H31.9419C31.4522 113.185 31.085 112.81 31.085 112.31V90.0228C31.085 89.548 31.4767 89.1483 31.9419 89.1483H48.4687C48.9339 89.1483 49.3256 89.548 49.3256 90.0228V91.9967C49.3256 92.4714 48.9339 92.8712 48.4687 92.8712H36.1532C35.688 92.8712 35.2962 93.271 35.2962 93.7457V108.612C35.2962 109.087 35.688 109.487 36.1532 109.487H51.5292C51.9944 109.487 52.3861 109.087 52.3861 108.612V96.894C52.3861 96.4192 52.7778 96.0194 53.2431 96.0194H55.7649C56.2301 96.0194 56.6218 96.4192 56.6218 96.894V115.134C56.6218 115.584 56.1322 115.833 55.7894 115.584L52.6554 113.335C52.5085 113.235 52.3372 113.185 52.1658 113.185ZM48.8849 106.314H38.7975C38.5771 106.314 38.3812 106.139 38.3812 105.889V96.4442C38.3812 96.2194 38.5526 96.0194 38.7975 96.0194H48.8849C49.1052 96.0194 49.3011 96.1944 49.3011 96.4442V105.889C49.3011 106.114 49.1297 106.314 48.8849 106.314ZM137.719 90.751C139.004 90.751 140.047 89.6875 140.047 88.3755C140.047 87.0635 139.004 86 137.719 86C136.433 86 135.391 87.0635 135.391 88.3755C135.391 89.6875 136.433 90.751 137.719 90.751ZM111.164 94.2239V92.9042H107.414V109.357H111.164V98.1171L115.539 96.2695V92.4203H115.497L111.164 94.2239ZM96.6341 92.8894C94.1986 92.8894 92.2156 93.7032 90.7068 95.3528C90.0172 96.1227 89.4782 97.0025 89.0903 98.0363C88.7241 99.048 88.53 100.126 88.53 101.248C88.53 103.557 89.1765 105.471 90.4913 106.944C91.9353 108.572 93.9183 109.364 96.44 109.364C98.8971 109.364 100.859 108.55 102.346 106.9C103.746 105.339 104.458 103.381 104.458 101.006C104.458 98.6301 103.768 96.7165 102.41 95.2209C100.966 93.6592 99.048 92.8894 96.6341 92.8894ZM99.5654 104.591C98.8539 105.493 97.8627 105.955 96.6125 105.955C95.2761 105.955 94.177 105.493 93.358 104.569C92.9701 104.151 92.6681 103.623 92.4527 103.029C92.2373 102.435 92.1294 101.819 92.1294 101.16C92.1294 99.8399 92.4743 98.7401 93.1855 97.8163C93.9613 96.8265 95.0177 96.3206 96.3754 96.3206C97.7116 96.3206 98.7679 96.7825 99.5221 97.7283C100.234 98.6081 100.6 99.7519 100.6 101.182C100.621 102.567 100.277 103.711 99.5654 104.591ZM135.819 92.9069H139.548V109.381H135.819V92.9069ZM78.9201 92.8894C76.7863 92.8894 75.0403 93.5272 73.6826 94.8029C72.4108 96.0127 71.7642 97.5304 71.7642 99.356C71.7642 100.984 72.3245 102.325 73.4455 103.403C72.4756 104.195 72.0012 105.141 72.0012 106.263C72.0012 106.944 72.0875 107.538 72.2386 108.044C72.3894 108.572 72.6911 109.012 73.1652 109.408C71.4841 110.354 70.6651 111.893 70.7297 114.005C70.773 115.831 71.5487 117.282 73.0576 118.382C74.5662 119.482 76.5706 120.032 79.0277 120.032C81.4848 120.032 83.317 119.548 84.5669 118.58C85.817 117.612 86.442 116.226 86.442 114.401C86.442 112.597 85.9462 111.189 84.955 110.2C84.416 109.672 83.7265 109.254 82.8858 108.88C82.0238 108.528 80.8598 108.22 79.351 107.978C77.8424 107.736 76.7646 107.472 76.1181 107.142C75.8164 107.01 75.6223 106.856 75.5361 106.702C75.4498 106.548 75.4069 106.329 75.4069 106.043C75.4069 105.757 75.6007 105.361 75.9672 104.855C76.8079 105.141 77.7345 105.295 78.726 105.295C80.752 105.295 82.4117 104.679 83.7265 103.425C84.3084 102.853 84.7609 102.171 85.0842 101.402C85.4075 100.632 85.5584 99.7739 85.5584 98.8281C85.5584 97.8823 85.3429 96.9805 84.9118 96.1447C84.9118 96.1447 84.9118 96.1227 84.8901 96.1227H86.4636V92.8894H78.9201ZM76.3122 110.684L77.0879 110.816C79.2647 111.145 80.8166 111.585 81.7005 112.179C82.4979 112.685 82.8858 113.367 82.8858 114.203C82.8858 115.962 81.6572 116.82 79.2001 116.82C77.7561 116.82 76.5922 116.512 75.6869 115.919C75.2774 115.655 74.9541 115.325 74.7387 114.951C74.5016 114.577 74.3938 114.159 74.3938 113.653C74.3938 113.147 74.5446 112.619 74.8465 112.069C75.1698 111.497 75.6656 111.058 76.3122 110.684ZM81.0107 101.248C80.4071 101.797 79.6959 102.083 78.8985 102.083C77.8207 102.083 76.9587 101.775 76.2905 101.16C75.9889 100.896 75.7731 100.566 75.6007 100.236C75.4499 99.8839 75.3636 99.532 75.3636 99.158C75.3636 98.7841 75.4282 98.4102 75.5793 98.0363C76.0535 96.7825 77.1096 96.1667 78.769 96.1667C79.7605 96.1667 80.5582 96.4306 81.1185 96.9585C81.6789 97.4864 81.9805 98.1902 81.9805 99.048C81.9589 99.8839 81.6356 100.632 81.0107 101.248ZM156.014 96.4746C156.294 97.2224 156.445 98.1023 156.445 99.048V109.32H152.781V108.55C151.682 109.056 150.669 109.32 149.742 109.32C148.578 109.32 147.608 109.21 146.789 108.99C145.97 108.77 145.28 108.44 144.72 108.022C143.578 107.142 142.996 105.889 142.996 104.261C142.996 102.809 143.685 101.578 145.108 100.61C146.638 99.5539 148.729 99.0261 151.358 99.0261L151.962 99.048C152.024 99.048 152.086 99.0531 152.151 99.0584C152.221 99.0641 152.293 99.0701 152.371 99.0701C152.444 99.0806 152.511 99.0861 152.576 99.0914C152.646 99.0971 152.713 99.1026 152.781 99.114C152.695 97.4864 152.005 96.5186 150.712 96.2546C150.302 96.1667 149.828 96.1227 149.354 96.1227C148.858 96.1227 148.384 96.1667 147.931 96.2546C147.457 96.3426 147.005 96.4746 146.574 96.6066C145.625 96.9145 144.914 97.2884 144.504 97.6843L144.461 97.6623L144.009 94.2971C145.755 93.3513 147.694 92.8894 149.785 92.8894C153.04 92.8894 155.109 94.0771 156.014 96.4746ZM152.781 105.427V103.315V101.885C152.501 101.841 152.221 101.819 151.94 101.819H151.337C149.139 101.819 147.738 102.325 147.134 103.315C146.961 103.601 146.875 103.909 146.875 104.239C146.875 104.569 146.94 104.855 147.048 105.097C147.177 105.339 147.371 105.559 147.63 105.713C148.147 106.021 148.923 106.175 149.936 106.175C150.949 106.175 151.897 105.911 152.781 105.427ZM170.22 100.17C170.845 100.478 171.362 100.852 171.751 101.292C172.462 102.083 172.828 103.139 172.828 104.503C172.828 105.933 172.268 107.098 171.147 108C169.983 108.946 168.345 109.408 166.233 109.408C163.689 109.408 161.707 108.968 160.306 108.11V104.063C160.306 104.041 160.392 104.129 160.543 104.305C160.694 104.481 160.996 104.679 161.405 104.943C161.814 105.207 162.31 105.427 162.849 105.625C164.034 106.043 165.263 106.241 166.556 106.241C168.28 106.241 169.143 105.647 169.143 104.481C169.143 104.107 168.97 103.821 168.647 103.645C168.065 103.337 167.203 103.095 166.06 102.941C164.918 102.765 163.991 102.545 163.259 102.237C162.526 101.929 161.922 101.556 161.47 101.138C160.629 100.324 160.198 99.268 160.198 97.9703C160.198 96.3866 160.802 95.1329 161.987 94.2311C163.172 93.3293 164.81 92.8894 166.901 92.8894C168.97 92.8894 170.738 93.4832 172.203 94.693C172.139 94.9568 172.074 95.2209 171.988 95.4628C171.751 96.1447 171.578 96.6286 171.47 96.9145L171.125 97.8163C171.104 97.9043 171.082 97.9483 171.082 97.9483C171.061 97.9483 170.975 97.8383 170.845 97.6183C170.22 96.8705 169.229 96.3866 167.914 96.1447C167.505 96.0567 167.095 96.0127 166.664 96.0127C164.853 96.0127 163.948 96.5626 163.948 97.6843C163.948 98.0583 164.121 98.3662 164.509 98.5642C165.22 98.9601 166.19 99.246 167.418 99.422C168.647 99.6199 169.574 99.8619 170.22 100.17ZM124.848 92.8894C122.714 92.8894 120.969 93.5272 119.61 94.8029C118.339 96.0127 117.692 97.5304 117.692 99.356C117.692 100.984 118.253 102.325 119.373 103.403C118.404 104.195 117.929 105.141 117.929 106.263C117.929 106.944 118.016 107.538 118.166 108.044C118.317 108.572 118.619 109.012 119.093 109.408C117.412 110.354 116.593 111.893 116.658 114.005C116.701 115.831 117.477 117.282 118.986 118.382C120.494 119.482 122.499 120.032 124.956 120.032C127.413 120.032 129.245 119.548 130.495 118.58C131.745 117.612 132.37 116.226 132.37 114.401C132.37 112.597 131.874 111.189 130.883 110.2C130.344 109.672 129.654 109.254 128.814 108.88C127.952 108.528 126.788 108.22 125.279 107.978C123.77 107.736 122.693 107.472 122.046 107.142C121.744 107.01 121.55 106.856 121.464 106.702C121.378 106.548 121.335 106.329 121.335 106.043C121.335 105.757 121.529 105.361 121.895 104.855C122.736 105.141 123.663 105.295 124.654 105.295C126.68 105.295 128.34 104.679 129.654 103.425C130.236 102.853 130.689 102.171 131.012 101.402C131.335 100.632 131.487 99.7739 131.487 98.8281C131.487 97.8823 131.271 96.9805 130.84 96.1447C130.84 96.1447 130.84 96.1227 130.818 96.1227H132.392V92.8894H124.848ZM122.24 110.684L123.016 110.816C125.193 111.145 126.745 111.585 127.628 112.179C128.426 112.685 128.814 113.367 128.814 114.203C128.814 115.962 127.585 116.82 125.128 116.82C123.684 116.82 122.52 116.512 121.615 115.919C121.206 115.655 120.882 115.325 120.667 114.951C120.43 114.577 120.322 114.159 120.322 113.653C120.322 113.147 120.473 112.619 120.774 112.069C121.098 111.497 121.593 111.058 122.24 110.684ZM126.939 101.248C126.335 101.797 125.624 102.083 124.826 102.083C123.749 102.083 122.887 101.775 122.218 101.16C121.917 100.896 121.701 100.566 121.529 100.236C121.378 99.8839 121.292 99.532 121.292 99.158C121.292 98.7841 121.356 98.4102 121.507 98.0363C121.981 96.7825 123.037 96.1667 124.697 96.1667C125.689 96.1667 126.486 96.4306 127.046 96.9585C127.607 97.4864 127.908 98.1902 127.908 99.048C127.887 99.8839 127.564 100.632 126.939 101.248Z" fill="black"/>
</svg>
