<svg width="40" height="40" viewBox="0 0 40 40" fill="none" xmlns="http://www.w3.org/2000/svg">
<rect width="40" height="40" rx="12" fill="#9E499B"/>
<path fill-rule="evenodd" clip-rule="evenodd" d="M20.554 21V17.5C20.554 16.672 19.882 16 19.054 16V16C18.226 16 17.554 16.672 17.554 17.5V19V24L16.653 23.099C16.046 22.492 15.062 22.492 14.455 23.099V23.099C13.931 23.623 13.85 24.444 14.261 25.06L16.96 29.109C17.331 29.666 17.956 30 18.625 30H23.913C24.922 30 25.772 29.249 25.898 28.248L26.44 23.911C26.573 22.844 25.839 21.862 24.778 21.689L20.554 21Z" stroke="#F7CAF5" stroke-width="1.5" stroke-linecap="round" stroke-linejoin="round"/>
<path d="M26.179 26H28C29.105 26 30 25.105 30 24V12.03C30 10.925 29.105 10.03 28 10.03H12C10.895 10.03 10 10.925 10 12.03V24C10 25.105 10.895 26 12 26H14.888" stroke="#F7CAF5" stroke-width="1.5" stroke-linecap="round" stroke-linejoin="round"/>
<path d="M12.779 12.52C12.776 12.52 12.774 12.522 12.774 12.525C12.774 12.528 12.776 12.53 12.779 12.53C12.782 12.53 12.784 12.528 12.784 12.525C12.784 12.522 12.782 12.52 12.779 12.52" stroke="#F7CAF5" stroke-width="1.5" stroke-linecap="round" stroke-linejoin="round"/>
<path d="M15.322 12.52C15.319 12.52 15.317 12.522 15.317 12.525C15.317 12.528 15.319 12.53 15.322 12.53C15.325 12.53 15.327 12.528 15.327 12.525C15.327 12.522 15.325 12.52 15.322 12.52" stroke="#F7CAF5" stroke-width="1.5" stroke-linecap="round" stroke-linejoin="round"/>
<path d="M17.861 12.52C17.858 12.52 17.856 12.522 17.856 12.525C17.856 12.528 17.858 12.53 17.861 12.53C17.864 12.53 17.866 12.528 17.866 12.525C17.866 12.522 17.864 12.52 17.861 12.52" stroke="#F7CAF5" stroke-width="1.5" stroke-linecap="round" stroke-linejoin="round"/>
</svg>
