<svg width="38" height="38" viewBox="0 0 38 38" fill="none" xmlns="http://www.w3.org/2000/svg">
<path d="M6.33341 28.5V14.25" stroke="#101010" stroke-width="2.5" stroke-linecap="round" stroke-linejoin="round"/>
<path d="M31.6667 14.25V28.5" stroke="#101010" stroke-width="2.5" stroke-linecap="round" stroke-linejoin="round"/>
<path d="M12.6667 14.25V28.5" stroke="#101010" stroke-width="2.5" stroke-linecap="round" stroke-linejoin="round"/>
<path d="M19.0002 14.25V28.5" stroke="#101010" stroke-width="2.5" stroke-linecap="round" stroke-linejoin="round"/>
<path d="M25.3334 14.25V28.5" stroke="#101010" stroke-width="2.5" stroke-linecap="round" stroke-linejoin="round"/>
<path d="M19.0001 9.9353C18.8908 9.9353 18.8021 10.024 18.8037 10.1332C18.8037 10.2425 18.8924 10.3311 19.0016 10.3311C19.1109 10.3311 19.1996 10.2425 19.1996 10.1332C19.198 10.024 19.1093 9.9353 19.0001 9.9353" stroke="#101010" stroke-width="2.5" stroke-linecap="round" stroke-linejoin="round"/>
<path fill-rule="evenodd" clip-rule="evenodd" d="M34.0418 14.25H3.9585V10.0716L19.0002 4.75L34.0418 10.0716V14.25Z" stroke="#101010" stroke-width="2.5" stroke-linecap="round" stroke-linejoin="round"/>
<path fill-rule="evenodd" clip-rule="evenodd" d="M33.2501 28.5H4.75008L3.16675 30.0833V33.25H34.8334V30.0833L33.2501 28.5Z" stroke="#101010" stroke-width="2.5" stroke-linecap="round" stroke-linejoin="round"/>
</svg>
