<svg width="52" height="49" viewBox="0 0 52 49" fill="none" xmlns="http://www.w3.org/2000/svg">
<g clip-path="url(#clip0_132_46068)">
<path d="M30.9653 0.0227505C32.6064 0.0227505 34.2536 -0.0133187 35.9007 0.0347736C38.2032 0.0948889 39.5858 2.66181 38.3534 4.61556C36.9047 6.91798 35.3958 9.19034 33.9109 11.4747C29.4744 18.3038 25.0379 25.1329 20.6134 31.974C20.3609 32.3648 20.1145 32.5271 19.6335 32.5211C16.8682 32.491 14.0969 32.5091 11.3316 32.5091C9.37185 32.5091 7.9411 31.0122 7.85093 29.0645C7.79683 27.8201 8.12746 26.8101 8.81879 25.7641C13.3755 18.8388 17.8722 11.8715 22.3928 4.91614C23.3727 3.40724 24.3646 1.89835 25.3325 0.377431C25.5128 0.0888774 25.7112 0.00471594 26.0418 0.0107275C27.683 0.0287621 29.3301 0.0227505 30.9773 0.0227505V0.0347736L30.9653 0.0227505Z" fill="white"/>
<path d="M7.87505 24.7797V24.3408C7.87505 17.4276 7.9051 10.5203 7.85701 3.60705C7.84499 1.79157 9.22163 -0.0179009 11.4699 0.000133699C15.1851 0.0362029 18.9062 0.0121568 22.6213 0.0121568H24.0521C18.6537 8.32009 13.2974 16.5619 7.94719 24.8037C7.92314 24.7917 7.89909 24.7857 7.87505 24.7737V24.7797Z" fill="white"/>
<path d="M32.3481 16.2248C33.2498 17.6074 34.0974 18.9119 34.945 20.2224C36.5742 22.7292 38.2033 25.236 39.8264 27.7489C40.8123 29.2758 40.3975 31.2175 38.8585 32.0952C38.4558 32.3236 37.9568 32.486 37.4939 32.486C32.3481 32.516 27.2022 32.504 22.0563 32.504C21.9962 32.504 21.9301 32.492 21.7798 32.486C25.3086 27.0515 28.8013 21.6712 32.342 16.2188L32.3481 16.2248Z" fill="white"/>
<path d="M9.07125 48.8137C8.24166 48.8137 7.44814 48.8137 6.65461 48.8137C6.52837 48.8137 6.49831 48.7295 6.45022 48.6513C5.42826 47.0523 4.4063 45.4472 3.38434 43.8481C3.35428 43.806 3.32422 43.764 3.30018 43.7159C3.2581 43.6377 3.22203 43.6558 3.17394 43.7159C2.84931 44.0826 2.51868 44.4493 2.18805 44.816C2.12192 44.8881 2.13995 44.9663 2.13995 45.0444C2.13995 46.2287 2.13995 47.413 2.13995 48.5912C2.13995 48.7776 2.09186 48.8197 1.91151 48.8197C1.34643 48.8076 0.781347 48.8076 0.216263 48.8197C0.0599632 48.8197 0.00585938 48.7896 0.00585938 48.6153C0.00585938 45.0204 0.00585938 41.4315 0.00585938 37.8366C0.00585938 37.6923 0.0419286 37.6562 0.186205 37.6562C0.775335 37.6623 1.36447 37.6683 1.94758 37.6562C2.10388 37.6562 2.13995 37.6983 2.13995 37.8486C2.13394 39.1291 2.13995 40.4035 2.13995 41.684V41.9485C2.56076 41.4796 2.95151 41.0528 3.33625 40.6199C4.18387 39.6821 5.02549 38.7383 5.8671 37.8005C5.95728 37.6983 6.04745 37.6562 6.18571 37.6562C6.97924 37.6623 7.77276 37.6562 8.56628 37.6562C8.59033 37.7464 8.51218 37.7765 8.47611 37.8186C7.26779 39.1651 6.05947 40.5117 4.84514 41.8463C4.73092 41.9725 4.75497 42.0447 4.83312 42.1589C6.20375 44.299 7.57438 46.4451 8.94501 48.5912C8.98108 48.6513 9.01715 48.7115 9.07726 48.8076L9.07125 48.8137Z" fill="white"/>
<path d="M19.7419 41.8651C20.0725 41.4322 20.4091 41.0896 20.8299 40.8371C21.8279 40.2299 23.1985 40.284 24.0401 40.9693C24.5932 41.4202 24.8276 42.0274 24.8336 42.7127C24.8517 44.6965 24.8396 46.6803 24.8457 48.6641C24.8457 48.7903 24.8096 48.8204 24.6894 48.8204C24.1303 48.8144 23.5712 48.8084 23.0121 48.8204C22.8438 48.8204 22.8077 48.7783 22.8077 48.616C22.8138 46.9568 22.8077 45.2916 22.8077 43.6324C22.8077 43.4641 22.8077 43.2958 22.7777 43.1275C22.6154 42.2919 21.8639 41.9071 21.0945 42.2799C20.5654 42.5323 20.2769 43.0012 20.0725 43.5242C19.802 44.1975 19.7419 44.9069 19.7419 45.6223C19.7419 46.6142 19.7419 47.6061 19.7419 48.598C19.7419 48.7723 19.6938 48.8204 19.5254 48.8144C18.9844 48.8024 18.4374 48.8024 17.8963 48.8144C17.752 48.8144 17.71 48.7723 17.71 48.628C17.71 45.989 17.71 43.3499 17.71 40.7108C17.71 40.5846 17.734 40.5305 17.8783 40.5305C18.4434 40.5365 19.0085 40.5365 19.5735 40.5305C19.7178 40.5305 19.7419 40.5786 19.7419 40.7108C19.7358 41.0715 19.7419 41.4322 19.7419 41.859V41.8651Z" fill="white"/>
<path d="M40.1455 41.8701C40.4701 41.4372 40.8068 41.0946 41.2276 40.8421C42.2375 40.2229 43.6442 40.289 44.4738 40.9924C44.9247 41.3771 45.1471 41.8761 45.2132 42.4472C45.2433 42.6876 45.2493 42.9281 45.2493 43.1746C45.2493 44.984 45.2493 46.7935 45.2553 48.597C45.2553 48.7773 45.2193 48.8314 45.0329 48.8254C44.4979 48.8134 43.9568 48.8134 43.4218 48.8254C43.2595 48.8254 43.2174 48.7893 43.2174 48.621C43.2234 46.9618 43.2174 45.2966 43.2174 43.6375C43.2174 43.385 43.2054 43.1385 43.1272 42.898C42.9349 42.2849 42.2736 41.9963 41.6183 42.2308C41.1074 42.4171 40.8068 42.8139 40.5783 43.2828C40.2718 43.908 40.1575 44.5813 40.1515 45.2666C40.1335 46.3787 40.1395 47.4848 40.1515 48.597C40.1515 48.7653 40.1215 48.8194 39.9411 48.8194C39.3881 48.8074 38.841 48.8074 38.288 48.8194C38.1497 48.8194 38.1196 48.7773 38.1196 48.6451C38.1196 46 38.1196 43.3549 38.1196 40.7098C38.1196 40.5656 38.1677 40.5415 38.294 40.5415C38.859 40.5475 39.4241 40.5475 39.9892 40.5415C40.1094 40.5415 40.1515 40.5716 40.1515 40.6978C40.1455 41.0705 40.1515 41.4432 40.1515 41.8701H40.1455Z" fill="white"/>
<path d="M36.8688 44.689C36.8688 45.9875 36.8688 47.292 36.8688 48.5905C36.8688 48.7768 36.8207 48.8249 36.6404 48.8189C36.0993 48.8069 35.5523 48.8129 35.0112 48.8189C34.879 48.8189 34.8369 48.7888 34.8369 48.6506C34.8369 46.0055 34.8369 43.3604 34.8369 40.7154C34.8369 40.5831 34.873 40.541 35.0112 40.541C35.5643 40.547 36.1114 40.553 36.6644 40.541C36.8568 40.541 36.8748 40.6132 36.8748 40.7695C36.8748 42.08 36.8748 43.3845 36.8748 44.695L36.8688 44.689Z" fill="white"/>
<path d="M46.5112 44.6776C46.5112 43.3791 46.5112 42.0746 46.5112 40.7761C46.5112 40.5717 46.5713 40.5356 46.7577 40.5416C47.2927 40.5536 47.8278 40.5536 48.3688 40.5416C48.5191 40.5416 48.5491 40.5897 48.5491 40.728C48.5491 43.367 48.5491 46.0001 48.5491 48.6392C48.5491 48.7894 48.495 48.8195 48.3628 48.8195C47.8097 48.8135 47.2627 48.8135 46.7096 48.8195C46.5533 48.8195 46.5172 48.7714 46.5172 48.6211C46.5172 47.3046 46.5172 45.9941 46.5172 44.6776H46.5112Z" fill="white"/>
<path d="M48.6216 38.6662C48.6216 39.2854 48.1648 39.7483 47.5396 39.7603C46.9023 39.7663 46.4395 39.3034 46.4395 38.6722C46.4395 38.035 46.9084 37.5781 47.5396 37.5781C48.1588 37.5781 48.6216 38.047 48.6216 38.6662Z" fill="white"/>
<path d="M34.7651 38.6604C34.7651 38.0352 35.24 37.5663 35.8713 37.5723C36.4844 37.5723 36.9533 38.0472 36.9533 38.6664C36.9533 39.2796 36.4844 39.7485 35.8652 39.7545C35.24 39.7545 34.7651 39.2916 34.7651 38.6604Z" fill="white"/>
<path d="M30.0456 48.999H30.3522C30.3522 48.999 30.3522 48.9749 30.3522 48.9629C30.25 48.9629 30.1478 48.9629 30.0396 48.9629C30.0396 48.9749 30.0396 48.9869 30.0396 48.999H30.0456Z" fill="white"/>
<path d="M33.6826 42.9148C33.37 41.8688 32.7388 41.0632 31.6868 40.6905C30.4484 40.2457 29.2521 40.2517 28.2181 41.2316C28.2181 41.2316 28.1941 41.2316 28.17 41.2256V40.9851C28.17 39.9391 28.17 38.8991 28.17 37.8531C28.17 37.7028 28.1339 37.6547 27.9776 37.6547C27.4426 37.6667 26.9016 37.6667 26.3666 37.6547C26.1682 37.6487 26.1261 37.7088 26.1321 37.8952C26.1321 41.46 26.1321 45.0248 26.1321 48.5897C26.1321 48.6197 26.1321 48.6498 26.1321 48.6799C26.1141 48.7941 26.1622 48.8301 26.2764 48.8301C26.8595 48.8301 27.4366 48.8301 28.0197 48.8301C28.14 48.8301 28.17 48.7881 28.164 48.6799C28.158 48.4755 28.164 48.2651 28.164 48.0126C28.675 48.6498 29.3062 48.9083 30.0336 48.9684C30.1358 48.8782 30.238 48.8782 30.3462 48.9684C30.4063 48.9684 30.4604 48.9624 30.5205 48.9564C32.0595 48.8602 33.1836 48.0066 33.6525 46.5458C34.0373 45.3435 34.0373 44.1291 33.6706 42.9268L33.6826 42.9148ZM31.4944 46.161C31.1577 46.8223 30.6287 47.207 29.8653 47.195C29.1078 47.189 28.5788 46.8043 28.2782 46.131C27.8634 45.2112 27.8634 44.2614 28.2241 43.3296C28.5247 42.5481 29.1439 42.1393 29.9073 42.1513C30.6648 42.1634 31.284 42.6202 31.5786 43.3957C31.7349 43.8045 31.789 44.2313 31.801 44.6762C31.795 45.1811 31.7288 45.6921 31.4884 46.161H31.4944Z" fill="white"/>
<path d="M16.8386 44.1794C16.7544 43.2716 16.4599 42.448 15.8467 41.7567C14.987 40.7768 13.8629 40.4101 12.5944 40.4222C11.5484 40.4342 10.5926 40.7167 9.79908 41.4261C8.32024 42.7546 8.00764 45.3576 9.11377 47.113C9.93735 48.4175 11.1817 48.9165 12.6906 48.9405C12.8409 48.9285 13.0213 48.9285 13.1956 48.9044C14.5843 48.7481 15.6663 48.1169 16.3396 46.8605C16.7905 46.0189 16.9167 45.1112 16.8266 44.1734L16.8386 44.1794ZM14.2777 46.3255C13.4601 47.5518 11.7288 47.4977 10.9894 46.2293C10.7068 45.7484 10.6046 45.2194 10.5986 44.6543C10.6106 44.0591 10.7369 43.476 11.1036 42.9711C11.8911 41.8649 13.4962 41.877 14.2656 42.9951C14.9029 43.9149 14.9089 45.3937 14.2837 46.3315L14.2777 46.3255Z" fill="white"/>
<path d="M51.7052 38.5451C51.573 37.8297 50.9959 37.4329 50.3346 37.6073C49.7034 37.7696 49.3668 38.4128 49.5832 39.038C49.7455 39.5129 50.1963 39.7955 50.7194 39.7474C51.2544 39.7053 51.6091 39.3506 51.7052 38.7675C51.7052 38.6954 51.7052 38.6172 51.7052 38.5451ZM50.5991 39.5129C50.1242 39.5129 49.7515 39.1282 49.7575 38.6533C49.7575 38.1724 50.1422 37.8056 50.6172 37.8117C51.0981 37.8177 51.4708 38.1964 51.4588 38.6713C51.4528 39.1462 51.068 39.5189 50.5931 39.5129H50.5991Z" fill="white"/>
<path d="M50.8938 38.6119C51.002 38.5397 51.0141 38.4015 50.966 38.2692C50.9239 38.143 50.8217 38.0829 50.7015 38.0708C50.5993 38.0588 50.4971 38.0708 50.3949 38.0588C50.2746 38.0468 50.2265 38.0829 50.2326 38.2151C50.2446 38.4796 50.2326 38.7441 50.2326 39.0026C50.2326 39.0748 50.1724 39.189 50.3287 39.195C50.479 39.195 50.4249 39.0868 50.4369 39.0086C50.455 38.9064 50.3708 38.7501 50.4971 38.7201C50.6053 38.696 50.6293 38.8704 50.6894 38.9545C50.7736 39.0748 50.8157 39.2551 51.0561 39.1709C50.984 39.0567 50.9239 38.9485 50.8578 38.8463C50.8037 38.7622 50.7495 38.696 50.8818 38.6059L50.8938 38.6119ZM50.5632 38.5157C50.473 38.5337 50.455 38.4796 50.455 38.3774C50.455 38.2632 50.5091 38.2452 50.6053 38.2512C50.6954 38.2572 50.7856 38.2632 50.7796 38.3894C50.7736 38.5157 50.6774 38.5037 50.5632 38.5097V38.5157Z" fill="white"/>
</g>
<defs>
<clipPath id="clip0_132_46068">
<rect width="51.7052" height="49" fill="white"/>
</clipPath>
</defs>
</svg>
