<svg width="200" height="200" viewBox="0 0 200 200" fill="none" xmlns="http://www.w3.org/2000/svg">
<path d="M91.0843 83.4163C91.0843 83.2348 91.0676 83.0533 91.0587 82.8429H85.1176V84.6255C85.0232 84.621 84.9787 84.6321 84.9554 84.6154C84.8199 84.5175 84.6888 84.4161 84.5588 84.3115C83.0102 83.0667 81.2783 82.2171 79.2831 82.0501C71.2934 81.382 64.849 87.9457 65.3267 95.6929C65.66 101.108 69.2538 105.738 74.4651 107.275C78.2177 108.38 81.7515 108.031 84.8321 105.355C84.8943 105.301 84.9809 105.275 85.1198 105.202C85.1531 106.445 85.0076 107.592 84.6654 108.712C84.1267 110.476 82.9724 111.647 81.2138 112.178C79.5064 112.695 77.7634 112.806 76.0026 112.477C74.5462 112.205 73.222 111.635 72.0677 110.666C70.7968 112.211 69.5537 113.722 68.2962 115.249C68.4339 115.374 68.5239 115.465 68.6228 115.544C70.2714 116.864 72.1444 117.719 74.1896 118.186C75.0838 118.39 75.9992 118.501 76.9046 118.655H78.7932C79.6119 118.54 80.4351 118.456 81.2472 118.306C84.9476 117.617 87.8482 115.778 89.6012 112.351C90.6799 110.243 91.0676 107.962 91.0754 105.625C91.101 98.2215 91.0854 90.8183 91.0843 83.4163ZM78.2066 101.858C74.3617 101.86 71.2334 98.7381 71.2368 94.9046C71.239 91.1101 74.3684 87.9713 78.17 87.9479C81.9737 87.9257 85.1298 91.0878 85.1276 94.9224C85.1265 98.7448 82.0215 101.857 78.2066 101.858Z" fill="black"/>
<path d="M162.778 82.8026V82.9139C162.551 83.9951 162.307 85.074 162.1 86.1596C160.627 93.8923 159.163 101.627 157.692 109.36C157.527 110.233 157.399 111.118 157.157 111.97C156.125 115.601 152.906 118.029 149.112 118.055C146.428 118.074 143.743 118.051 141.057 118.066C140.646 118.068 140.47 117.988 140.476 117.519C140.505 115.741 140.489 113.962 140.489 112.101H141.116C143.597 112.101 146.078 112.105 148.558 112.1C150.462 112.098 151.241 111.445 151.592 109.575C151.681 109.103 151.773 108.631 151.88 108.074C151.341 108.003 150.821 107.928 150.3 107.865C145.977 107.335 143.106 104.946 141.461 100.963C140.528 98.7023 140.041 96.3307 139.589 93.9446C138.903 90.3238 138.206 86.704 137.515 83.0843C137.5 83.013 137.495 82.9395 137.481 82.8349H143.525C143.867 84.6119 144.194 86.3912 144.555 88.1637C145.169 91.1744 145.766 94.1896 146.458 97.1825C146.666 98.0866 147.119 98.9484 147.544 99.7868C148.257 101.194 149.548 101.746 151.025 101.952C151.519 102.02 152.022 102.021 152.515 102.094C152.891 102.149 153.043 102.018 153.111 101.652C153.775 98.0833 154.453 94.5169 155.127 90.9495C155.618 88.3474 156.11 85.7454 156.604 83.1433C156.621 83.0531 156.657 82.9663 156.707 82.8026H162.778Z" fill="black"/>
<path d="M49.8688 82C42.7379 82.0089 36.9989 87.7698 37 94.9191C37.0011 102.037 42.7567 107.836 49.8221 107.838C56.992 107.842 62.7787 102.081 62.7809 94.9391C62.7809 87.7653 57.0197 81.9911 49.8688 82ZM49.8843 101.858C46.0528 101.858 42.9123 98.7081 42.9356 94.8846C42.9567 91.0833 46.1106 87.9379 49.8888 87.9479C53.7214 87.958 56.8164 91.0856 56.8131 94.9436C56.8109 98.7704 53.717 101.858 49.8843 101.858Z" fill="black"/>
<path d="M118.987 96.6247C118.864 102.029 114.768 106.785 109.496 107.846C102.581 109.235 96.1158 104.713 95.0538 97.7359C94.9871 97.2972 94.9472 96.8496 94.946 96.4064C94.9383 92.0462 94.9405 87.6872 94.9416 83.327C94.9416 83.1811 94.9572 83.0353 94.9671 82.8371H100.885V83.523C100.885 87.6605 100.875 91.7968 100.888 95.9343C100.897 98.9161 102.832 101.333 105.707 102.005C109.133 102.805 112.685 100.254 113.031 96.7405C113.073 96.3174 113.094 95.8909 113.094 95.4645C113.099 91.5129 113.097 87.5614 113.097 83.6098V82.8482H118.974C118.992 82.9484 119.027 83.052 119.027 83.1555C119.023 87.646 119.091 92.1364 118.987 96.6247Z" fill="black"/>
<path d="M136.007 88.7097H128.882V107.269H122.912V106.66C122.912 100.169 122.911 93.6767 122.913 87.1843C122.913 84.7181 124.811 82.8097 127.265 82.8063C129.78 82.803 132.295 82.8052 134.884 82.8052C135.259 84.7816 135.626 86.7067 136.007 88.7097Z" fill="black"/>
</svg>
