<svg width="41" height="40" viewBox="0 0 41 40" fill="none" xmlns="http://www.w3.org/2000/svg">
<g clip-path="url(#clip0_402_53663)">
<path d="M27.9599 16.662V2.81958H13.4296L8.52062 6.94242V18.4287H5.96998L1.06104 22.5515V37.1801H15.5892L19.5156 33.8831V35.4134H34.0459L38.9548 31.2885V16.662H27.9599Z" fill="#BAEFCB" stroke="#BAEFCB" stroke-width="2.09069" stroke-linecap="round" stroke-linejoin="round"/>
<path d="M27.9597 2.81958L23.0508 6.94242H8.52051L13.4295 2.81958H27.9597Z" fill="#008231"/>
<path d="M38.9547 16.6621V31.2886L34.0458 35.4135V20.785L38.9547 16.6621Z" fill="#FF8500"/>
<path d="M20.4981 18.429V33.0575L15.5891 37.1804V22.5518L20.4981 18.429Z" fill="#00B447"/>
<path d="M20.4982 18.429L15.5892 22.5518H1.06104L5.96998 18.429H20.4982Z" fill="#00B447"/>
<path d="M15.5892 22.5515H1.06104V37.1801H15.5892V22.5515Z" fill="#77C700"/>
<path d="M1.06104 22.5515V37.1801H15.5892" stroke="#07503E" stroke-width="0.627207" stroke-linecap="round" stroke-linejoin="round"/>
<path d="M15.5891 22.5518V37.1804L20.4981 33.0575V18.429" stroke="#07503E" stroke-width="0.627207" stroke-linecap="round" stroke-linejoin="round"/>
<path d="M20.4982 18.429H5.96998L1.06104 22.5518H15.5892L20.4982 18.429Z" stroke="#07503E" stroke-width="0.627207" stroke-linecap="round" stroke-linejoin="round"/>
<path d="M38.9547 16.6621L34.0458 20.785H19.5155L24.4244 16.6621H38.9547Z" fill="#FF8500"/>
<path d="M34.0458 20.7849H19.5155V35.4135H34.0458V20.7849Z" fill="#FFCC00"/>
<path d="M19.5155 20.7849V35.4135H34.0458" stroke="#07503E" stroke-width="0.627207" stroke-linecap="round" stroke-linejoin="round"/>
<path d="M38.9547 16.6621H24.4244L19.5155 20.785H34.0458L38.9547 16.6621Z" stroke="#07503E" stroke-width="0.627207" stroke-linecap="round" stroke-linejoin="round"/>
<path d="M27.9597 2.81958V17.4481L23.0508 21.571V6.94242L27.9597 2.81958Z" fill="#008231"/>
<path d="M23.0508 6.94263H8.52051V21.5712H23.0508V6.94263Z" fill="#00B447"/>
<path d="M8.52051 6.94263V21.5712H23.0508" stroke="#07503E" stroke-width="0.627207" stroke-linecap="round" stroke-linejoin="round"/>
<path d="M23.0508 6.94242V21.571L27.9597 17.4481V2.81958" stroke="#07503E" stroke-width="0.627207" stroke-linecap="round" stroke-linejoin="round"/>
<path d="M17.3662 16.5264H14.2552L13.49 18.6464H11.3951L14.8322 9.86548H16.7515L20.176 18.6464H18.1313L17.3662 16.5264ZM16.8017 14.9459L15.8107 12.2112L14.8197 14.9459H16.8017Z" fill="white"/>
<path d="M11.8614 31.7718C11.8614 33.3774 10.7575 34.2555 8.62501 34.2555H4.7865V25.4746H8.34904C10.3059 25.4746 11.3722 26.3025 11.3722 27.8705C11.3722 28.6608 10.9331 29.2755 10.2808 29.6267C11.3345 30.0281 11.8614 30.8435 11.8614 31.7718ZM6.75593 27.143V28.9744H8.16087C8.86335 28.9744 9.34002 28.7737 9.34002 28.0712C9.34002 27.3688 8.8508 27.143 8.16087 27.143H6.75593ZM6.75593 30.5174V32.5871H8.5372C9.34002 32.5871 9.82924 32.2861 9.82924 31.5585C9.82924 30.831 9.34002 30.5174 8.5372 30.5174H6.75593Z" fill="white"/>
<path d="M22.5784 28.0982C22.5784 25.3887 24.4224 23.5447 27.019 23.5447C28.9383 23.5447 30.431 24.5482 30.9829 26.4047L29.1891 27.0445C28.8254 25.9908 28.0602 25.3259 27.019 25.3259C25.6266 25.3259 24.6356 26.3671 24.6356 28.0982C24.6356 29.8293 25.6266 30.8705 27.019 30.8705C28.0602 30.8705 28.8254 30.2056 29.1891 29.1519L30.9829 29.7917C30.431 31.6482 28.9383 32.6517 27.019 32.6517C24.4224 32.6517 22.5784 30.8077 22.5784 28.0982Z" fill="white"/>
<path d="M34.0458 20.785V35.4135L38.9547 31.2886V16.6621" stroke="#07503E" stroke-width="0.627207" stroke-linecap="round" stroke-linejoin="round"/>
<path d="M27.9597 2.81958H13.4295L8.52051 6.94242H23.0508L27.9597 2.81958Z" stroke="#07503E" stroke-width="0.627207" stroke-linecap="round" stroke-linejoin="round"/>
</g>
<defs>
<clipPath id="clip0_402_53663">
<rect width="39.9845" height="36.4512" fill="white" transform="translate(0.0155029 1.77441)"/>
</clipPath>
</defs>
</svg>
