<svg width="40" height="40" viewBox="0 0 40 40" fill="none" xmlns="http://www.w3.org/2000/svg">
<g clip-path="url(#clip0_914_70484)">
<path d="M36.5443 29.5859V28.5687L33.4876 27.4364L34.0635 27.3283V17.2277L35.0877 17.0505V14.956L30.165 15.6063L29.8372 15.5L36.1899 14.6051V12.2661L34.4533 11.6228L35.4811 10.1396L21.4271 3.66108L17.938 1.98828L3.76175 12.2661L4.82497 14.2153L4.95432 14.2773L2.65777 14.6051V16.6961L4.17463 17.5963L4.11615 18.8226L5.17937 19.3542V28.7459L7.86931 30.2132L3.01218 30.9078V32.8996L0.885742 33.2044V35.5877L4.97204 38.0119L39.1138 33.2044V30.5375L36.5443 29.5859ZM8.01462 18.6188L7.91716 18.5869L11.727 18.05L11.8493 18.112L8.01462 18.6188ZM19.1465 17.0062L19.5133 17.1888L15.3987 17.7328L14.9698 17.5945L19.1465 17.0062ZM29.7946 27.0785L26.6812 27.5232V18.291L27.3315 18.1793V25.7335L29.7964 27.0785H29.7946ZM22.4 28.1364L19.2971 28.5794V19.3542L19.9475 19.2425V26.7967L22.4017 28.1346L22.4 28.1364ZM12.5634 20.1286V27.8599L15.0071 29.1925L11.9149 29.6355V20.2402L12.5652 20.1286H12.5634ZM26.8974 16.1255L22.7827 16.6695L22.4053 16.5473L26.5695 15.9607L26.8991 16.1255H26.8974ZM21.4874 6.78339L30.0427 10.6889L12.4606 13.2035L21.4874 6.78339Z" fill="#CFF7F2" stroke="#CFF7F2" stroke-width="1.77203" stroke-linecap="round" stroke-linejoin="round"/>
<path d="M39.1144 30.5371V33.204L4.97266 38.0115V35.3854L39.1144 30.5371Z" fill="#6D97FA" stroke="#05503E" stroke-width="0.666283" stroke-linecap="round" stroke-linejoin="round"/>
<path d="M39.1138 30.5377L33.6594 28.5176L0.885742 33.2046L4.97204 35.386L39.1138 30.5377Z" fill="#3A559D" stroke="#05503E" stroke-width="0.666283" stroke-linecap="round" stroke-linejoin="round"/>
<path d="M0.885742 33.2041V35.5875L4.97204 38.0116V35.3855L0.885742 33.2041Z" fill="#3A559D" stroke="#05503E" stroke-width="0.666283" stroke-linecap="round" stroke-linejoin="round"/>
<path d="M36.5445 28.5688V30.9079L6.59717 35.1254V32.8217L36.5445 28.5688Z" fill="#6D97FA" stroke="#05503E" stroke-width="0.58477" stroke-linecap="round" stroke-linejoin="round"/>
<path d="M36.5448 28.5679L31.7603 26.7959L3.0127 30.907L6.59751 32.8208L36.5448 28.5679Z" fill="#3A559D" stroke="#05503E" stroke-width="0.58477" stroke-linecap="round" stroke-linejoin="round"/>
<path d="M3.0127 30.9072V32.9982L6.59751 35.1247V32.821L3.0127 30.9072Z" fill="#3A559D" stroke="#05503E" stroke-width="0.58477" stroke-linecap="round" stroke-linejoin="round"/>
<path d="M35.0882 14.9561V17.0506L34.064 17.2278V27.3284L31.2287 27.86L31.0515 17.9366H30.1655V15.6064L35.0882 14.9561Z" fill="#6D97FA" stroke="#05503E" stroke-width="0.58477" stroke-linecap="round" stroke-linejoin="round"/>
<path d="M26.3357 14.3672L26.2666 15.8096L27.3298 16.3412V25.733L31.2283 27.8594L31.0511 17.9361H30.1651V15.6058L26.3357 14.3672Z" fill="#3A559D" stroke="#05503E" stroke-width="0.58477" stroke-linecap="round" stroke-linejoin="round"/>
<path d="M30.1651 17.9365L26.2666 15.8101" stroke="#05503E" stroke-width="0.58477" stroke-linecap="round" stroke-linejoin="round"/>
<path d="M27.7035 16.019V18.1136L26.6792 18.2908V28.3914L23.844 28.923L23.6668 18.9996H22.7808V16.6694L27.7035 16.019Z" fill="#6D97FA" stroke="#05503E" stroke-width="0.58477" stroke-linecap="round" stroke-linejoin="round"/>
<path d="M18.9537 15.4302L18.8828 16.8726L19.946 17.4042V26.796L23.8445 28.9224L23.6673 18.999H22.7813V16.6688L18.9537 15.4302Z" fill="#3A559D" stroke="#05503E" stroke-width="0.58477" stroke-linecap="round" stroke-linejoin="round"/>
<path d="M22.7813 18.9995L18.8828 16.873" stroke="#05503E" stroke-width="0.58477" stroke-linecap="round" stroke-linejoin="round"/>
<path d="M20.3216 17.0825V19.1771L19.2974 19.3543V29.4548L16.4621 29.9864L16.2849 20.0631H15.3989V17.7329L20.3216 17.0825Z" fill="#6D97FA" stroke="#05503E" stroke-width="0.58477" stroke-linecap="round" stroke-linejoin="round"/>
<path d="M11.5696 16.4941L11.5005 17.9366L12.5637 18.4682V27.8599L16.4622 29.9864L16.285 20.063H15.399V17.7328L11.5696 16.4941Z" fill="#3A559D" stroke="#05503E" stroke-width="0.58477" stroke-linecap="round" stroke-linejoin="round"/>
<path d="M15.399 20.063L11.5005 17.9365" stroke="#05503E" stroke-width="0.58477" stroke-linecap="round" stroke-linejoin="round"/>
<path d="M12.9378 17.9683V20.0628L11.9136 20.24V30.3406L9.07835 30.8722L8.90115 20.9488H8.01514V18.6186L12.9378 17.9683Z" fill="#6D97FA" stroke="#05503E" stroke-width="0.58477" stroke-linecap="round" stroke-linejoin="round"/>
<path d="M4.18532 17.3799L4.11621 18.8223L5.17943 19.3539V28.7457L9.0779 30.8721L8.90069 20.9488H8.01468V18.6185L4.18532 17.3799Z" fill="#3A559D" stroke="#05503E" stroke-width="0.58477" stroke-linecap="round" stroke-linejoin="round"/>
<path d="M8.01468 20.9487L4.11621 18.8223" stroke="#05503E" stroke-width="0.58477" stroke-linecap="round" stroke-linejoin="round"/>
<path d="M36.1895 12.2661V14.6052L6.24219 18.8226V16.519L36.1895 12.2661Z" fill="#6D97FA" stroke="#05503E" stroke-width="0.58477" stroke-linecap="round" stroke-linejoin="round"/>
<path d="M36.1898 12.2657L31.4054 10.4937L2.65771 14.6048L6.24253 16.5186L36.1898 12.2657Z" fill="#3A559D" stroke="#05503E" stroke-width="0.58477" stroke-linecap="round" stroke-linejoin="round"/>
<path d="M2.65771 14.6045V16.6955L6.24253 18.8219V16.5183L2.65771 14.6045Z" fill="#3A559D" stroke="#05503E" stroke-width="0.58477" stroke-linecap="round" stroke-linejoin="round"/>
<path d="M3.76172 12.2661L4.82494 14.2153L8.5462 15.9874L7.30578 14.0381L3.76172 12.2661Z" fill="#3A559D" stroke="#05503E" stroke-width="0.58477" stroke-linecap="round" stroke-linejoin="round"/>
<path d="M7.30566 14.0386L8.54609 15.9879L21.4872 6.78394L33.8861 12.4438L35.4809 10.1402L21.427 3.66162L7.30566 14.0386Z" fill="#6D97FA" stroke="#05503E" stroke-width="0.58477" stroke-linecap="round" stroke-linejoin="round"/>
<path d="M21.4271 3.66108L17.938 1.98828L3.76172 12.2661L7.30578 14.0381L21.4271 3.66108Z" fill="#3A559D" stroke="#05503E" stroke-width="0.58477" stroke-linecap="round" stroke-linejoin="round"/>
</g>
<defs>
<clipPath id="clip0_914_70484">
<rect width="40" height="37.7956" fill="white" transform="translate(0 1.10205)"/>
</clipPath>
</defs>
</svg>
