<svg width="200" height="200" viewBox="0 0 200 200" fill="none" xmlns="http://www.w3.org/2000/svg">
<g clip-path="url(#clip0_2515_72418)">
<path d="M167.083 108.373H155.39C154.961 108.373 154.675 108.658 154.675 109.084V110.648C154.675 113.579 156.721 115.897 159.856 115.897C161.847 115.897 163.42 115 164.465 113.535C164.707 113.207 164.993 113.207 165.268 113.393L166.599 114.246C166.929 114.486 166.984 114.672 166.885 114.913C165.455 117.275 162.848 118.456 159.9 118.456C155.005 118.456 151.771 115.427 151.771 110.845V105.18C151.771 100.413 155.236 97.2412 159.801 97.2412C164.553 97.2412 167.875 100.27 167.875 105.268V107.389C167.897 107.991 167.468 108.373 167.083 108.373ZM164.949 104.732C164.949 101.9 162.903 99.7236 159.812 99.7236C156.908 99.7236 154.73 101.943 154.73 104.732V105.443C154.73 105.727 154.917 106.011 155.401 106.011H164.476C164.806 106.011 164.949 105.869 164.949 105.487V104.732Z" fill="#051C2C"/>
<path d="M87.4099 103.387C84.5389 102.326 81.9649 101.167 81.9649 98.7722C81.9649 97.4053 82.4489 94.245 86.9479 94.245C88.5319 94.245 90.2479 94.8027 91.9309 95.8415C92.0409 95.9071 92.2499 96.0274 92.4699 96.0274C92.6679 96.0274 92.8219 95.9399 92.9319 95.765L93.7019 94.573L93.7349 94.5183C93.8559 94.3215 94.0649 94.0044 93.6249 93.7091C91.2819 91.9704 88.5319 91.6095 86.6399 91.6095C82.1739 91.6095 79.0499 94.5402 79.0499 98.7285C79.0499 103.234 83.2189 104.798 86.5629 106.044L86.8049 106.132C89.7199 107.236 91.9529 108.319 91.9529 111.304C91.9529 114.268 89.7419 116.039 86.0349 116.039C84.1759 116.039 82.0749 115.197 80.6779 113.907C80.3589 113.59 80.1389 113.458 79.7539 113.732L78.6979 114.738C78.4779 114.902 78.3679 115.044 78.3679 115.186C78.3569 115.35 78.4779 115.492 78.5549 115.569C80.0509 117.428 82.9329 118.587 86.0789 118.587C91.4139 118.587 94.8569 115.689 94.8569 111.217C94.8679 106.252 90.9079 104.732 87.4099 103.387Z" fill="#051C2C"/>
<path d="M99.9834 97.6021C99.9834 97.3178 100.126 97.1756 100.412 97.1756H102.546C102.832 97.1756 102.931 97.3178 102.931 97.6021V118.106C102.931 118.39 102.832 118.489 102.546 118.489H100.412C100.17 118.489 99.9834 118.347 99.9834 118.106V97.6021Z" fill="#051C2C"/>
<path d="M126.02 100.292C125.217 100.248 124.172 100.391 123.501 100.577C123.215 100.675 123.215 100.806 123.314 101.003C123.93 101.998 124.26 103.179 124.26 104.448C124.26 109.03 120.509 112.004 116.131 112.004C115.471 112.004 114.701 112.004 114.371 112.146C112.798 112.759 111.522 113.841 111.467 115.252C111.467 115.722 111.566 115.82 111.995 115.722C113.755 115.296 116.417 115.055 117.418 115.055C121.884 115.055 126.636 116.761 126.636 121.244C126.636 123.749 124.876 125.925 122.544 126.964C122.214 127.15 121.928 127.062 121.741 126.778L120.938 125.498C120.795 125.258 120.839 125.028 121.169 124.886C122.401 124.088 123.589 122.808 123.589 121.387C123.589 118.642 119.926 117.701 117.506 117.701C115.515 117.701 112.853 118.084 110.477 118.456C109.806 118.554 109.531 118.314 109.333 118.029C108.86 117.275 108.673 116.378 108.673 115.241C108.673 113.732 109.861 112.365 111.621 111.326C112.05 111.096 111.72 110.812 111.434 110.615C109.487 109.194 108.343 107.171 108.343 104.524C108.343 100.555 111.951 97.1975 116.186 97.1975C117.99 97.1975 119.992 97.6677 121.367 98.8488C121.554 98.9909 121.653 98.9909 121.895 98.805C123.083 97.9083 124.557 97.2413 126.031 97.2413C126.559 97.1975 126.702 97.4272 126.702 97.8536V99.7455C126.68 100.248 126.537 100.336 126.02 100.292ZM116.329 99.6361C113.194 99.6361 111.148 102.042 111.148 104.645C111.148 107.192 112.864 109.697 116.186 109.697C119.651 109.697 121.367 107.236 121.367 104.59C121.367 101.943 119.222 99.6361 116.329 99.6361Z" fill="#051C2C"/>
<path d="M146.964 118.489H144.775C144.489 118.489 144.39 118.347 144.39 118.106V105.115C144.39 102.14 142.817 99.7783 139.253 99.7783C136.162 99.7783 134.116 102.042 134.116 105.027V118.062C134.116 118.347 133.973 118.489 133.687 118.489H131.597C131.355 118.489 131.168 118.347 131.168 118.106V97.6021C131.168 97.3178 131.311 97.1756 131.553 97.1756H133.599C133.885 97.1756 133.929 97.274 133.929 97.5584V99.1221C133.929 99.5486 134.215 99.647 134.545 99.308C136.019 97.9848 137.922 97.274 139.913 97.274C144.951 97.274 147.283 100.675 147.283 105.071V118.062C147.294 118.347 147.195 118.489 146.964 118.489Z" fill="#051C2C"/>
<path d="M173.386 112.77V100.128C173.386 99.8439 173.243 99.7017 172.913 99.7017H170.68C170.394 99.7017 170.251 99.5595 170.251 99.319V97.613C170.251 97.3287 170.394 97.1866 170.636 97.1866H172.913C173.243 97.1866 173.386 97.0007 173.386 96.7163V92.6484C173.386 92.4625 173.485 92.2656 173.771 92.1782L175.817 91.7079C176.147 91.6095 176.29 91.8501 176.29 92.0907V96.771C176.29 97.0553 176.389 97.1975 176.675 97.1975H181.471C181.713 97.1975 181.9 97.3397 181.9 97.5802V99.2752C181.9 99.5595 181.757 99.7017 181.471 99.7017H176.719C176.433 99.7017 176.29 99.8001 176.29 100.128V112.201C176.29 114.563 176.961 115.842 179.051 115.842C179.81 115.842 181.284 115.602 181.955 115.46C182.527 115.317 182.615 115.558 182.67 115.842L182.989 117.297C183.088 117.723 182.956 117.778 182.626 117.92C181.68 118.347 179.821 118.489 178.677 118.489C174.574 118.489 173.386 116.072 173.386 112.77Z" fill="#051C2C"/>
<path d="M101.479 94.9667C100.588 94.9667 99.8184 94.2449 99.8184 93.3154C99.8184 92.4297 100.588 91.697 101.446 91.697C102.381 91.697 103.107 92.3859 103.107 93.3154C103.107 94.2012 102.37 94.9667 101.479 94.9667Z" fill="#051C2C"/>
<path d="M46.248 68L46.138 69.9246L46.963 73.588C46.798 73.4568 46.633 73.3365 46.446 73.2599C46.193 73.1396 45.929 73.085 45.665 73.085C45.357 73.085 45.049 73.1615 44.741 73.3146L44.708 73.3255C44.158 73.6427 43.344 74.6597 44.026 76.3109C44.037 76.3437 44.059 76.3874 44.081 76.4312L44.092 76.464C44.224 76.7593 44.532 77.2842 45.104 77.5357V76.0047C44.565 74.8128 45.159 74.3425 45.258 74.2769C45.401 74.2113 45.533 74.1785 45.654 74.1785C45.764 74.1785 45.863 74.2004 45.973 74.255C46.842 74.6487 47.579 76.5187 47.843 77.6013H47.854L47.909 77.8419C47.359 78.0715 47.062 78.3668 47.04 78.3996L46.831 78.6183L46.897 78.9135C46.897 78.9135 47.183 80.182 47.282 80.6085L47.546 81.7567C46.699 81.5818 45.786 81.1443 44.939 80.3133C41.771 77.1967 37.547 75.5345 33.389 75.5345C31.101 75.5345 28.835 76.0375 26.778 77.0764C25.172 77.8747 23.72 78.9463 22.455 80.2476C20.09 82.6972 19.144 86.2949 19.903 89.8817C20.618 93.217 22.675 95.9837 25.491 97.46C25.568 98.9581 25.964 100.544 27.064 101.681L27.669 102.304C27.746 101.659 28.175 100.916 28.175 100.916V100.926C28.505 102.534 29.319 105.005 31.354 105.826L32.234 106.175C32.047 105.596 31.794 104.601 31.915 103.901L31.926 103.912V103.89L31.992 103.967C32.3 104.251 33.554 105.399 34.357 106.263C34.5 106.405 34.632 106.558 34.764 106.722L34.874 106.853C34.94 106.941 34.984 107.017 35.017 107.072C35.171 107.335 35.303 107.63 35.391 107.991C35.446 108.22 35.523 108.636 35.347 108.822C35.204 108.975 34.907 109.019 34.665 109.019C34.566 109.019 34.489 109.008 34.423 109.008C33.719 108.898 33.092 108.844 32.52 108.844C29.88 108.844 28.593 109.97 27.878 111.37C27.68 111.632 26.426 113.24 24.952 113.24C24.743 113.24 24.534 113.207 24.325 113.141C23.445 112.846 22.873 112.256 22.807 111.567C22.73 110.801 23.258 110.047 24.259 109.478C26.778 108.045 28.307 107.05 28.043 104.688C27.911 103.496 27.471 102.709 26.756 102.37C26.492 102.25 26.206 102.184 25.898 102.184C25.381 102.184 24.787 102.359 24.127 102.709C23.731 102.414 23.115 102.086 22.29 102.086C22.169 102.086 22.037 102.097 21.905 102.108C20.64 102.25 19.551 103.19 18.99 104.601C18.572 105.662 18.264 107.706 18.253 107.794L18 109.347L19.166 108.253C19.166 108.253 19.639 107.827 20.42 107.728C20.508 107.717 20.618 107.717 20.75 107.717C20.948 107.717 21.168 107.728 21.41 107.739C21.674 107.75 21.938 107.772 22.213 107.772C22.763 107.772 23.566 107.717 24.204 107.225C24.919 106.678 25.348 105.968 25.414 105.224C25.447 104.798 25.381 104.196 24.908 103.518C25.293 103.343 25.623 103.256 25.898 103.256C26.041 103.256 26.162 103.278 26.261 103.332C26.701 103.54 26.866 104.24 26.932 104.787C27.108 106.318 26.36 106.985 23.698 108.505C22.301 109.292 21.564 110.451 21.685 111.665C21.795 112.802 22.653 113.754 23.962 114.18C24.303 114.29 24.633 114.344 24.952 114.344C25.766 114.344 26.492 114.027 27.097 113.622C27.053 113.83 27.009 114.027 26.965 114.224C26.723 115.339 26.481 116.389 25.942 116.991C25.381 117.603 25.04 117.8 24.666 117.8C24.446 117.8 24.215 117.734 23.929 117.647C23.522 117.526 23.016 117.384 22.378 117.384C21.839 117.384 21.19 117.494 20.409 117.8C19.705 118.084 19.199 118.598 18.913 119.32C17.901 121.944 20.211 126.668 20.31 126.876L20.541 127.346L21.025 127.15C21.641 126.898 23.291 126.34 24.512 126.34C24.853 126.34 25.161 126.384 25.403 126.483C25.623 126.581 25.766 126.723 25.843 126.92L26.085 127.576L26.668 127.182C26.723 127.139 28.076 126.22 27.878 124.93C27.746 124.066 26.987 123.355 25.557 122.764L36.7 116.444C36.975 116.87 37.36 117.395 37.833 117.898C38.845 118.981 39.901 119.528 40.935 119.528C40.99 119.528 41.034 119.528 41.089 119.528C40.726 120.545 40.297 122.251 40.946 123.453C41.342 124.175 42.046 124.602 43.036 124.711C43.278 124.744 43.52 124.755 43.762 124.755C45.203 124.755 46.468 124.252 47.513 123.836C48.349 123.508 48.888 123.311 49.262 123.311C49.647 123.311 49.856 123.508 50.043 123.945L50.439 124.886L50.89 123.978C51.154 123.453 52.43 120.752 51.671 119.528C51.506 119.254 51.154 118.926 50.483 118.926H50.428C49.328 118.926 48.503 118.97 47.942 119.025C48.47 117.701 49.306 114.989 48.052 113.283C47.37 112.354 46.193 111.884 44.543 111.873C45.159 111.293 45.577 110.648 45.797 109.937C46.006 109.259 46.006 108.614 45.918 108.078C46.347 108.253 46.919 108.395 47.645 108.395C47.986 108.395 48.36 108.363 48.767 108.286C48.91 108.264 49.075 108.242 49.251 108.242C50.307 108.242 51.803 108.712 53.145 109.248L54.74 118.259L55.07 118.358C55.103 118.368 55.499 118.478 56.016 118.478C56.588 118.478 57.314 118.336 57.853 117.767L58.04 117.57L56.588 108.581C56.731 107.827 57.094 107.335 57.281 107.28C57.523 107.214 57.71 107.007 57.765 106.766C57.82 106.514 57.732 106.252 57.523 106.077C56.588 105.29 56.5 104.021 56.5 104.01L56.489 103.835L56.379 103.704C56.181 103.453 55.928 103.256 55.631 103.146L55.059 100.369C55.466 100.161 55.939 99.8111 56.203 99.4174C56.511 98.9472 56.478 98.5535 56.379 98.302C56.544 98.2801 56.753 98.2692 57.006 98.2692C57.941 98.2692 59.371 98.4879 60.68 99.5486C63.045 101.484 64.167 105.563 63.903 111.359C63.683 116.258 62.352 122.36 53.959 126.176C51.528 127.281 49.614 127.707 47.557 127.707C46.149 127.707 44.664 127.499 42.893 127.182C42.145 127.04 41.408 126.843 40.704 126.581C40.561 126.526 40.429 126.472 40.286 126.417C39.571 126.122 38.889 125.772 38.229 125.356C36.425 124.219 34.929 123.278 33.268 123.278C32.872 123.278 32.465 123.333 32.036 123.453C30.199 123.967 28.857 125.312 28.373 127.15C28.076 128.254 28.373 129.544 28.615 130.594L29.231 132.727L29.715 132.519C29.737 132.508 31.761 131.666 33.675 131.666C34.148 131.666 34.621 131.721 35.039 131.852L35.886 132.103L35.611 131.261C35.512 130.966 35.391 130.55 35.292 130.08C39.186 132.103 42.805 132.65 42.97 132.672C44.576 132.902 46.05 133.022 47.403 133.022C51.957 133.022 55.301 131.786 58.865 129.883L59.041 129.785C63.067 127.62 65.861 123.541 67.5 120.501C68.523 118.598 68.996 116.619 69.359 114.76C70.118 110.823 70.008 100.992 64.805 95.7868C62.627 93.6107 59.855 92.5172 56.522 92.5172C55.554 92.5172 54.553 92.6046 53.497 92.7905L52.298 86.9838L50.384 77.7325L50.032 77.656C49.746 77.6013 49.482 77.5685 49.24 77.5685C49.152 77.5685 49.075 77.5685 48.998 77.5794L48.877 77.0545C48.734 76.1359 48.591 74.266 49.207 73.5333C49.372 73.3474 49.581 73.2599 49.856 73.2599H49.867C49.966 73.2709 50.725 73.4349 50.736 74.7581L51.176 76.2015C51.792 75.6657 51.836 74.8784 51.836 74.7471C51.814 72.8334 50.582 72.2211 49.944 72.1555H49.911C49.889 72.1555 49.867 72.1555 49.834 72.1555C49.229 72.1555 48.712 72.3851 48.338 72.8225C48.217 72.9647 48.107 73.1396 48.019 73.3146L47.205 69.6622H47.194L47.205 69.6512L46.248 68ZM21.949 92.714C21.432 91.7954 21.047 90.7784 20.816 89.6849C20.112 86.4043 20.981 83.1127 23.126 80.8819C24.314 79.6571 25.678 78.6401 27.185 77.8747C29.077 76.9123 31.156 76.4312 33.312 76.4312C34.291 76.4312 35.281 76.5296 36.282 76.7264C39.285 77.3279 42.123 78.826 44.268 80.9366C45.588 82.2379 47.172 82.7628 48.514 82.7628C49.152 82.7628 49.735 82.6425 50.208 82.4347L50.703 84.8624H50.692L50.945 86.0762C50.219 86.5355 49.427 86.7651 48.558 86.7651C47.964 86.7651 47.348 86.6558 46.688 86.448C45.665 86.12 44.477 85.2889 43.531 84.6327L43.223 84.414C43.014 84.2719 42.772 84.086 42.486 83.8563C40.979 82.6753 38.383 80.6194 34.28 80.6194C33.565 80.6194 32.817 80.6851 32.014 80.8163C27.625 81.5708 24.193 84.6437 23.082 87.2791C22.235 89.335 21.872 91.0409 21.949 92.714ZM48.283 80.018C48.206 79.7009 48.118 79.2853 48.052 79.001C48.283 78.8588 48.679 78.6839 49.229 78.6839C49.295 78.6839 49.372 78.6839 49.449 78.6948L49.658 79.6899C49.262 79.6899 48.745 79.7556 48.283 80.018ZM48.701 81.8333L48.481 80.8819C48.822 80.5757 49.317 80.5101 49.68 80.5101C49.735 80.5101 49.779 80.5101 49.823 80.5101L50.032 81.5052C49.713 81.6802 49.251 81.8114 48.701 81.8333ZM25.392 90.6691C24.303 89.6521 23.973 87.9571 23.896 87.5306C24.974 85.1248 28.12 82.3582 32.168 81.6583C32.927 81.5271 33.642 81.4724 34.313 81.4724C38.097 81.4724 40.473 83.3424 41.98 84.5343C42.277 84.764 42.53 84.9608 42.761 85.1248L43.069 85.3326C44.07 86.0215 45.313 86.8854 46.446 87.2572C47.172 87.4978 47.887 87.6072 48.569 87.6072C48.602 87.6072 48.646 87.6072 48.679 87.6072L50.032 94.0372C49.449 94.4309 48.844 95.0104 48.756 95.0979C48.426 95.3822 48.096 95.6228 47.766 95.8415C47.227 96.2243 46.622 96.4867 46.017 96.6726C45.5 96.8366 44.983 96.9351 44.477 96.9897C43.993 97.0444 43.531 97.0663 43.113 97.0663C42.354 97.0663 41.738 97.0007 41.43 96.9569C41.287 96.9351 41.199 96.9241 41.199 96.9241C41.364 96.9241 41.562 96.8804 41.76 96.8257C42.53 96.607 43.454 96.104 43.718 95.9509L43.586 95.5572C43.476 95.1963 43.3 94.3215 43.498 93.906C43.586 93.731 43.663 93.5779 43.729 93.4576C43.938 93.0639 44.081 92.7687 44.18 92.2438C44.741 91.533 44.917 90.844 44.708 90.1879C44.334 89.0178 42.849 88.482 42.343 88.3289C42.222 88.1321 42.024 87.5634 41.914 87.0495L41.892 86.951L41.837 86.8636C41.727 86.6995 39.274 82.894 34.808 82.894C34.61 82.894 34.412 82.9049 34.214 82.9159C34.082 82.9159 33.125 82.9706 31.904 83.2658C31.013 83.5064 28.857 84.1953 27.372 85.5076H29.308C28.879 85.7153 28.428 85.9559 27.999 86.2184C27.944 86.2512 27.889 86.2949 27.834 86.3277C26.811 86.9838 26.019 87.8259 25.546 88.3836L25.073 89.0069H26.8C26.448 89.2147 25.678 90.2535 25.678 90.2535C25.568 90.3629 25.469 90.516 25.392 90.6691ZM31.882 84.3812C31.992 84.3594 32.091 84.3265 32.19 84.3047C33.037 84.086 33.785 83.9985 34.412 83.9875C34.544 83.9766 34.665 83.9766 34.797 83.9766C38.35 83.9766 40.517 86.8526 40.858 87.3557C41.023 88.0993 41.32 89.0069 41.782 89.2693L41.848 89.3022L41.925 89.324C42.31 89.4224 43.454 89.8489 43.652 90.4941V90.516C43.487 90.6909 43.245 90.8768 42.937 90.8768C42.816 90.8768 42.684 90.844 42.552 90.7675C42.376 90.6691 42.156 90.6363 41.947 90.6363C41.65 90.6363 41.364 90.7019 41.243 90.7456L41.188 90.7675C41.023 90.8331 40.88 90.9643 40.792 91.1284L40.737 91.2158L40.858 91.2049C41.529 91.2049 42.629 91.9376 42.75 92.9218C42.684 93.0639 42.596 93.217 42.508 93.4029C42.2 94.0372 42.31 94.8792 42.42 95.4041C41.76 95.7103 40.693 96.093 39.769 96.093C39.439 96.093 39.131 96.0493 38.867 95.929C38.526 95.7759 37.756 95.426 37.052 95.426C36.733 95.426 36.436 95.4916 36.183 95.6775C35.853 95.2291 35.336 94.7699 34.544 94.4199C34.236 94.2887 34.06 94.1028 33.972 93.8513C33.774 93.2389 34.148 92.3531 34.313 92.0688L34.335 92.036L34.401 91.8938C34.412 91.861 34.577 91.4783 34.896 91.0409C35.017 90.8768 35.16 90.7019 35.325 90.5379C35.49 90.3738 35.677 90.2098 35.886 90.0786C36.084 89.9473 36.304 89.838 36.524 89.7942C36.623 89.7724 36.7 89.7614 36.777 89.7614C37.602 89.7614 37.569 90.9315 37.569 90.9315C37.569 90.9315 37.184 90.6253 36.579 90.6253C36.26 90.6253 35.875 90.7128 35.468 90.9643C35.952 90.9753 36.48 91.1174 36.7 91.183C36.821 91.2268 36.975 91.3143 37.14 91.4127C37.547 91.6861 37.745 92.0032 37.756 92.0251C37.998 92.4187 38.284 92.5828 38.46 92.6812C38.636 92.7796 38.757 92.8234 38.922 92.8234C38.988 92.8234 39.065 92.8124 39.153 92.8015C39.087 92.6921 39.032 92.5828 38.999 92.4844C38.845 92.0907 38.581 91.2158 38.471 90.7019C38.361 90.0567 38.207 89.3568 37.525 89.0069C37.261 88.8757 36.997 88.821 36.733 88.821C35.6 88.821 34.588 89.8817 34.269 90.2535C33.763 90.68 33.422 91.3143 33.323 91.5111C33.202 91.7298 32.52 93.0202 32.894 94.1575C33.081 94.7042 33.477 95.1417 34.071 95.3932C35.545 96.0384 35.677 97.1647 35.677 97.2084H35.699C35.732 97.4053 35.787 97.6021 35.842 97.7771C35.457 98.138 35.314 98.5972 35.292 98.8488L36.392 98.9362C36.392 98.9362 36.436 98.63 36.744 98.466C36.854 98.4113 37.041 98.3457 37.349 98.3457C37.91 98.3457 38.867 98.5644 40.451 99.4283C45.06 101.965 51.33 105.497 51.385 105.53L51.715 105.716L52.012 105.476C52.463 105.104 53.904 104.087 54.861 104.087C54.905 104.087 54.949 104.087 54.993 104.098C55.147 104.12 55.279 104.163 55.378 104.251C55.444 104.677 55.653 105.672 56.379 106.504L56.368 106.514C56.005 106.908 55.785 107.291 55.642 107.641C55.62 107.695 55.598 107.75 55.587 107.794L55.554 107.903L55.532 108.002C55.477 108.209 55.455 108.395 55.455 108.548V108.68C55.455 108.964 55.51 109.15 55.51 109.15C55.048 108.8 53.497 108.177 52.925 107.947C51.671 107.488 50.285 107.094 49.185 107.094C48.954 107.094 48.734 107.116 48.525 107.149C48.184 107.214 47.876 107.236 47.59 107.236C46.27 107.236 45.676 106.635 45.654 106.613L45.588 106.558C45.489 106.482 43.234 104.688 40.99 104.688C40.847 104.688 40.704 104.699 40.561 104.71C40.231 104.743 39.934 104.787 39.648 104.819C39.142 104.885 38.68 104.94 38.24 104.962C37.976 104.994 37.723 105.005 37.47 105.005C36.645 105.005 35.897 104.852 35.226 104.623C35.138 104.59 35.05 104.557 34.962 104.524C34.181 104.218 33.521 103.802 32.982 103.398C32.839 103.289 32.707 103.19 32.586 103.081C32.102 102.676 31.761 102.304 31.607 102.118C31.409 102.293 31.255 102.479 31.145 102.654C30.617 103.507 30.881 104.306 30.881 104.306C30.782 104.218 30.694 104.12 30.606 104.01C30.342 103.682 30.122 103.289 29.946 102.84C29.176 101.265 29.055 99.3627 29.055 99.3299L29 98.3785C27.867 98.9144 27.35 100.183 27.35 100.183L27.306 100.128C27.251 100.063 27.207 99.997 27.163 99.9204C26.943 99.5596 26.613 98.7722 26.536 97.3725C26.525 97.2084 26.525 97.0444 26.525 96.8585C26.514 95.6994 26.679 94.1793 27.163 92.2219C26.8 92.3203 25.634 93.1623 25.634 93.1623L25.645 93.1514C25.766 92.4078 25.997 91.7845 26.272 91.2596C26.393 91.0299 26.536 90.8112 26.701 90.5816C26.8 90.4504 26.91 90.3191 27.02 90.1879C27.493 89.6302 28.032 89.1272 28.505 88.7226C28.846 88.4383 29.143 88.2086 29.319 88.0665H29.33C29.022 88.0008 28.67 87.9571 28.34 87.9352H28.274C28.12 87.9243 27.988 87.9243 27.856 87.9243H27.35V87.9352L27.361 87.9243C28.967 86.5355 31.343 85.7263 32.157 85.4748C31.486 85.0702 30.386 84.8514 30.386 84.8514C30.914 84.6218 31.42 84.4359 31.904 84.3047H31.882V84.3812ZM53.156 103.496L52.573 100.762L52.485 100.347L52.375 99.8001L52.254 99.2534L51.847 97.3069L51.781 97.0116L51.528 95.8306L50.274 89.8708L49.768 87.4869C50.241 87.3775 50.692 87.2026 51.121 86.9729L51.176 87.2682V87.29L51.605 89.3459L52.683 94.573L52.925 95.765L53.662 99.308L53.915 100.511L54.454 103.114C54.025 103.179 53.585 103.343 53.167 103.529L53.156 103.496ZM25.48 96.3992C24.721 95.9509 24.028 95.3932 23.423 94.737C23.379 94.6714 23.324 94.6058 23.291 94.5402C23.06 94.2121 22.939 94.0481 22.873 93.5779C22.642 92.0797 22.796 90.5925 23.379 88.8647C23.654 89.6849 24.149 90.7128 25.007 91.4236V91.4346H25.018C25.018 91.4346 24.347 92.8562 24.523 95.4041L25.678 94.573C25.579 95.0979 25.513 95.7212 25.48 96.3992ZM53.893 94.8136L53.662 93.6654C54.641 93.5013 55.587 93.4139 56.489 93.4139C59.58 93.4139 62.143 94.409 64.134 96.4102C69.084 101.364 69.172 110.779 68.435 114.563C68.094 116.345 67.643 118.248 66.675 120.042C65.091 122.972 62.407 126.898 58.59 128.954L58.414 129.052C54.993 130.889 51.759 132.081 47.37 132.081C46.061 132.081 44.642 131.972 43.091 131.753C43.047 131.742 39.098 131.163 35.127 128.943C35.094 128.199 35.204 127.489 35.666 127.062C35.974 126.778 36.447 126.625 37.052 126.625C37.8 126.625 38.768 126.843 39.923 127.27C40.814 127.631 41.738 127.904 42.695 128.09C44.532 128.429 46.083 128.648 47.557 128.648C49.724 128.648 51.748 128.188 54.322 127.018C63.177 122.994 64.574 116.564 64.805 111.403C65.08 105.224 63.881 100.992 61.241 98.8378C59.723 97.6021 58.084 97.3506 56.995 97.3506C56.61 97.3506 56.291 97.3834 56.071 97.4162C56.027 97.1647 56.005 96.8804 56.027 96.5523C56.104 95.7431 55.939 95.1963 55.532 94.8792C55.301 94.7042 55.026 94.6386 54.773 94.6386C54.432 94.6277 54.113 94.737 53.893 94.8136ZM43.707 97.9302C45.456 97.9302 47.425 97.4381 49.361 95.7759L49.383 95.754C49.537 95.6009 49.878 95.2838 50.23 95.0104L50.648 97.0007C50.615 97.0554 50.582 97.0991 50.549 97.1538C50.021 97.963 49.526 98.7285 48.822 99.0565C47.876 99.4939 46.853 99.658 45.874 99.658C44.147 99.658 42.486 99.1549 41.419 98.7394C41.276 98.6629 41.144 98.5863 41.001 98.5098C39.516 97.6896 38.295 97.285 37.349 97.285C37.184 97.285 37.019 97.2959 36.865 97.3287C36.777 97.0116 36.733 96.6726 36.821 96.5633C36.832 96.5414 36.898 96.5195 37.03 96.5195C37.25 96.5195 37.679 96.5961 38.394 96.9241C38.735 97.0772 39.098 97.1538 39.472 97.1756C39.538 97.1975 39.593 97.2084 39.659 97.2303C40.715 97.5365 42.123 97.9302 43.707 97.9302ZM54.839 99.4283L54.069 95.7212L54.113 95.7103C54.245 95.6666 54.542 95.5572 54.762 95.5572C54.839 95.5572 54.905 95.5681 54.949 95.6009C55.048 95.6775 55.136 95.9399 55.081 96.4648C54.993 97.5146 55.301 98.2364 55.444 98.5863L55.466 98.63C55.477 98.6629 55.499 98.7175 55.433 98.8597C55.334 99.0675 55.081 99.2752 54.839 99.4283ZM45.852 100.587C47.084 100.587 48.217 100.358 49.218 99.8986C49.955 99.5596 50.472 98.9472 50.934 98.2801L51.418 100.566C51.308 100.675 51.209 100.784 51.088 100.916C50.868 101.167 50.692 101.397 50.527 101.604C49.944 102.348 49.724 102.632 48.492 102.632C48.459 102.632 48.437 102.632 48.404 102.632C47.26 101.998 45.951 101.265 44.62 100.522C45.027 100.566 45.445 100.587 45.852 100.587ZM51.616 104.437C51.253 104.229 50.593 103.868 49.757 103.387C50.428 103.179 50.791 102.764 51.253 102.162C51.363 102.02 51.495 101.856 51.638 101.681L52.144 104.065C51.935 104.207 51.759 104.327 51.616 104.437ZM19.518 106.81C19.639 106.186 19.804 105.454 19.991 104.973C20.145 104.59 20.739 103.321 22.004 103.168C22.092 103.157 22.18 103.157 22.257 103.157C22.598 103.157 22.884 103.245 23.115 103.354C22.785 103.573 22.367 103.945 22.037 104.535C22.037 104.535 22.95 104.152 23.742 103.846L23.764 103.868C24.16 104.295 24.336 104.721 24.303 105.126C24.248 105.705 23.797 106.132 23.522 106.34C23.236 106.558 22.829 106.657 22.202 106.657C21.96 106.657 21.707 106.646 21.465 106.624C21.212 106.613 20.97 106.602 20.75 106.602C20.585 106.602 20.42 106.613 20.288 106.624C20.002 106.668 19.749 106.733 19.518 106.81ZM34.643 110.123C35.061 110.123 35.699 110.036 36.128 109.576C36.535 109.139 36.634 108.516 36.436 107.728C36.216 106.864 35.831 106.263 35.358 105.749C36.315 106.044 37.085 106.154 37.822 106.154C38.471 106.154 39.087 106.077 39.791 105.99C40.077 105.957 40.374 105.913 40.693 105.88C40.803 105.869 40.902 105.869 41.012 105.869C42.31 105.869 43.707 106.668 44.422 107.149C44.587 107.444 45.071 108.483 44.719 109.642C44.367 110.768 43.322 111.698 41.606 112.431L22.829 123.027L24.061 123.399C26.382 124.099 26.734 124.809 26.767 125.083C26.811 125.356 26.646 125.651 26.448 125.87C26.272 125.695 26.063 125.553 25.821 125.455C25.425 125.28 24.963 125.214 24.468 125.214C23.214 125.214 21.817 125.651 21.069 125.914C20.398 124.394 19.298 121.321 19.925 119.703C20.09 119.265 20.376 118.97 20.794 118.806C21.421 118.554 21.916 118.467 22.345 118.467C22.818 118.467 23.203 118.576 23.588 118.686C23.962 118.795 24.314 118.882 24.666 118.882C25.293 118.882 25.931 118.609 26.745 117.712C27.493 116.892 27.757 115.7 28.032 114.443C28.23 113.568 28.417 112.704 28.769 111.971L28.791 111.949C29.363 110.768 30.364 109.937 32.476 109.937C32.993 109.937 33.565 109.981 34.225 110.09C34.269 110.101 34.423 110.123 34.643 110.123ZM55.521 115.503C55.466 115.503 55.422 115.503 55.367 115.503L54.355 109.784C54.927 110.047 55.422 110.287 55.763 110.462L56.533 115.208C56.225 115.438 55.84 115.503 55.521 115.503ZM40.924 118.609C39.461 118.609 38.174 116.991 37.514 115.995L42.079 113.415C42.442 113.262 42.783 113.098 43.091 112.923C43.597 112.857 44.07 112.813 44.499 112.813C45.841 112.813 46.776 113.163 47.282 113.841C48.613 115.656 46.765 119.342 46.754 119.374L46.336 120.195L47.249 120.031C47.26 120.031 48.338 119.845 50.406 119.845H50.45C50.747 119.845 50.824 119.954 50.846 120.009C51.132 120.479 50.802 121.737 50.362 122.797C50.043 122.491 49.669 122.371 49.262 122.371C48.613 122.371 47.865 122.666 47.139 122.961C46.127 123.366 44.994 123.814 43.74 123.814C43.542 123.814 43.333 123.803 43.124 123.781C42.442 123.694 41.991 123.442 41.749 122.994C41.133 121.879 41.903 119.79 42.255 119.079L42.783 117.997L41.661 118.445C41.419 118.565 41.177 118.609 40.924 118.609ZM56.016 117.384C55.895 117.384 55.785 117.373 55.697 117.362L55.51 116.324C55.862 116.324 56.28 116.269 56.665 116.083L56.841 117.187C56.588 117.341 56.28 117.384 56.016 117.384ZM29.792 131.469L29.484 130.419L29.473 130.365C29.242 129.38 28.989 128.254 29.22 127.368C29.627 125.837 30.705 124.755 32.245 124.328C32.575 124.241 32.905 124.186 33.224 124.186C34.368 124.186 35.49 124.755 36.997 125.684C36.161 125.695 35.501 125.914 35.017 126.373C33.928 127.379 34.071 129.205 34.478 130.769C34.203 130.736 33.917 130.715 33.642 130.715C32.102 130.725 30.562 131.196 29.792 131.469Z" fill="#8C8C8A"/>
</g>
<defs>
<clipPath id="clip0_2515_72418">
<rect width="165" height="65" fill="white" transform="translate(18 68)"/>
</clipPath>
</defs>
</svg>
