<svg width="200" height="200" viewBox="0 0 200 200" fill="none" xmlns="http://www.w3.org/2000/svg">
<path d="M57.3682 96.4252C56.8101 95.8189 56.1492 95.3482 55.3793 95.0096C54.6094 94.671 53.7593 94.5034 52.8194 94.5034C51.7768 94.5034 50.8754 94.7226 50.1151 95.1579C49.3549 95.5932 48.7646 96.1253 48.338 96.7476H48.2578V87.3192H45.7588V107.514H48.1776V105.508H48.2321C48.7261 106.273 49.3805 106.856 50.1921 107.259C51.0037 107.659 51.8635 107.859 52.7649 107.859C53.7369 107.859 54.6126 107.685 55.389 107.337C56.1653 106.989 56.8293 106.515 57.3779 105.908C57.9264 105.302 58.3499 104.59 58.6514 103.77C58.953 102.951 59.1037 102.078 59.1037 101.152C59.1037 100.227 58.953 99.3594 58.6514 98.5469C58.3531 97.7407 57.9264 97.0314 57.3682 96.4252ZM56.2904 102.871C56.1139 103.422 55.8477 103.909 55.4948 104.335C55.1387 104.76 54.7025 105.102 54.1796 105.36C53.6567 105.618 53.0504 105.747 52.3607 105.747C51.7223 105.747 51.1417 105.625 50.6188 105.373C50.0959 105.125 49.65 104.793 49.2779 104.373C48.9058 103.958 48.617 103.474 48.4149 102.922C48.2096 102.371 48.1102 101.794 48.1102 101.191C48.1102 100.588 48.2128 100.011 48.4149 99.4594C48.617 98.908 48.9058 98.4211 49.2779 97.9955C49.65 97.5698 50.0959 97.2313 50.6188 96.983C51.1417 96.7347 51.7223 96.6089 52.3607 96.6089C53.0504 96.6089 53.6599 96.7347 54.1796 96.983C54.7025 97.2313 55.142 97.5698 55.4948 97.9955C55.8477 98.4211 56.1139 98.9112 56.2904 99.4594C56.4668 100.011 56.5566 100.578 56.5566 101.165C56.5534 101.755 56.4668 102.323 56.2904 102.871Z" fill="black"/>
<path d="M71.022 96.2671C70.4991 95.6964 69.8575 95.2611 69.1037 94.958C68.3498 94.6549 67.5093 94.5034 66.5887 94.5034C65.6648 94.5034 64.8051 94.6678 64.0063 94.9967C63.2075 95.3256 62.5146 95.7835 61.9276 96.3736C61.3405 96.9604 60.885 97.6698 60.5546 98.4985C60.2274 99.3272 60.0605 100.23 60.0605 101.21C60.0605 102.207 60.2274 103.116 60.5642 103.935C60.901 104.754 61.363 105.454 61.9468 106.031C62.5306 106.611 63.23 107.059 64.0448 107.379C64.8596 107.698 65.745 107.859 66.7009 107.859C67.8173 107.859 68.831 107.646 69.742 107.224C70.6531 106.801 71.4455 106.14 72.1191 105.241L70.3644 103.825C70.0115 104.361 69.5239 104.812 68.9016 105.186C68.2824 105.56 67.5478 105.747 66.6945 105.747C66.146 105.747 65.6263 105.65 65.1387 105.457C64.6511 105.263 64.2212 104.993 63.8491 104.648C63.477 104.303 63.1786 103.896 62.9605 103.429C62.7392 102.961 62.6205 102.461 62.6012 101.929H72.6196C72.6356 101.787 72.6452 101.646 72.6452 101.5C72.6452 101.359 72.6452 101.217 72.6452 101.072C72.6452 100.056 72.5041 99.1434 72.2186 98.334C71.9491 97.5279 71.5449 96.8379 71.022 96.2671ZM62.6141 100.059C62.6493 99.5593 62.7777 99.095 62.999 98.6565C63.2203 98.2212 63.5026 97.8407 63.8491 97.5215C64.1956 97.2022 64.603 96.9475 65.0713 96.7605C65.5397 96.5735 66.0401 96.48 66.5726 96.48C67.1565 96.48 67.6665 96.5735 68.0996 96.7605C68.5327 96.9475 68.8952 97.2022 69.1903 97.5215C69.4822 97.8407 69.7036 98.2212 69.8543 98.6565C70.0051 99.0918 70.0885 99.5593 70.1078 100.059H62.6141Z" fill="black"/>
<path d="M76.9355 87.3192H74.4365V107.514H76.9355V87.3192Z" fill="black"/>
<path d="M83.102 94.8516V92.2075C83.102 91.8174 83.1277 91.4369 83.1822 91.0725C83.2367 90.7081 83.3426 90.3825 83.4998 90.0987C83.6602 89.815 83.8847 89.586 84.1767 89.4184C84.4686 89.2507 84.8535 89.1636 85.3315 89.1636C86.0725 89.1636 86.897 89.5828 87.8337 90.2374L89.0431 88.4607C88.193 87.7545 87.484 87.3353 86.8713 87.187C86.4286 87.0613 85.9057 87 85.3026 87C84.4525 87 83.7308 87.1322 83.1373 87.3998C82.5438 87.6675 82.0562 88.0318 81.6745 88.4962C81.2927 88.9605 81.0201 89.5086 80.8501 90.1374C80.68 90.7694 80.5966 91.4594 80.5966 92.2075V94.8516H78.0977V96.9088H80.5966V107.514H83.0956V96.9088H88.1898V107.514H90.6887V96.9088V94.8516H88.1898H83.102Z" fill="black"/>
<path d="M103.46 96.2671C102.938 95.6964 102.296 95.2611 101.542 94.958C100.788 94.6549 99.9478 94.5034 99.0271 94.5034C98.1033 94.5034 97.2435 94.6678 96.4448 94.9967C95.646 95.3256 94.9531 95.7835 94.366 96.3736C93.779 96.9604 93.3235 97.6698 92.993 98.4985C92.6658 99.3272 92.499 100.23 92.499 101.21C92.499 102.207 92.6658 103.116 93.0027 103.935C93.3395 104.754 93.7982 105.454 94.3853 106.031C94.9691 106.611 95.6684 107.059 96.4833 107.379C97.2981 107.698 98.1835 107.859 99.1394 107.859C100.256 107.859 101.269 107.646 102.181 107.224C103.092 106.801 103.884 106.14 104.558 105.241L102.803 103.825C102.447 104.361 101.962 104.812 101.34 105.186C100.721 105.56 99.9863 105.747 99.1362 105.747C98.5877 105.747 98.068 105.65 97.5804 105.457C97.0928 105.263 96.6629 104.993 96.2908 104.648C95.9187 104.303 95.6235 103.896 95.4022 103.429C95.1808 102.961 95.0621 102.461 95.0429 101.929H105.061C105.077 101.787 105.087 101.646 105.087 101.5C105.087 101.359 105.087 101.217 105.087 101.072C105.087 100.056 104.946 99.1434 104.66 98.334C104.388 97.5279 103.983 96.8379 103.46 96.2671ZM95.0525 100.059C95.0878 99.5593 95.2161 99.095 95.4375 98.6565C95.6588 98.2212 95.9411 97.8407 96.2876 97.5215C96.634 97.2022 97.0414 96.9475 97.5098 96.7605C97.9781 96.5735 98.4786 96.48 99.0111 96.48C99.5949 96.48 100.105 96.5735 100.538 96.7605C100.971 96.9475 101.334 97.2022 101.629 97.5215C101.921 97.8407 102.142 98.2212 102.293 98.6565C102.444 99.0918 102.527 99.5593 102.546 100.059H95.0525Z" fill="black"/>
<path d="M109.376 87.3192H106.877V107.514H109.376V87.3192Z" fill="black"/>
<path d="M122.024 87.3192V96.7476H121.969C121.527 96.1253 120.924 95.5932 120.163 95.1579C119.403 94.7226 118.508 94.5034 117.478 94.5034C116.538 94.5034 115.679 94.6743 114.899 95.0096C114.12 95.3482 113.452 95.819 112.894 96.4252C112.336 97.0314 111.906 97.7375 111.605 98.5501C111.303 99.3594 111.152 100.23 111.152 101.155C111.152 102.081 111.303 102.955 111.605 103.774C111.906 104.593 112.33 105.305 112.881 105.912C113.43 106.518 114.094 106.992 114.874 107.34C115.653 107.688 116.529 107.862 117.504 107.862C118.409 107.862 119.272 107.662 120.096 107.263C120.92 106.863 121.572 106.279 122.05 105.512H122.104V107.514H124.523V87.3192H122.024ZM121.876 102.926C121.671 103.477 121.386 103.961 121.013 104.377C120.641 104.793 120.192 105.128 119.673 105.376C119.15 105.625 118.569 105.75 117.931 105.75C117.241 105.75 116.638 105.621 116.125 105.363C115.611 105.105 115.175 104.764 114.822 104.338C114.466 103.912 114.203 103.422 114.027 102.874C113.85 102.323 113.76 101.755 113.76 101.168C113.76 100.581 113.85 100.014 114.027 99.4626C114.203 98.9112 114.469 98.4243 114.822 97.9987C115.175 97.5731 115.611 97.2345 116.125 96.9862C116.638 96.7379 117.241 96.6122 117.931 96.6122C118.569 96.6122 119.15 96.7379 119.673 96.9862C120.195 97.2345 120.641 97.5731 121.013 97.9987C121.386 98.4243 121.674 98.9144 121.876 99.4626C122.079 100.014 122.181 100.591 122.181 101.194C122.181 101.797 122.082 102.374 121.876 102.926Z" fill="black"/>
<path d="M16.0983 107.75C15.816 107.801 15.5433 107.83 15.2802 107.83C14.3307 107.83 13.6538 107.559 13.2496 107.021C12.8454 106.482 12.6433 105.805 12.6433 104.993V95.8125H10V95.3095H12.6112V91.7271H13.1919V95.3095H16.7559V95.8125H13.1951V104.993C13.1951 105.824 13.3972 106.421 13.8014 106.782C14.2056 107.143 14.7413 107.327 15.4118 107.327C15.9026 107.327 16.3517 107.246 16.7591 107.088L16.8393 107.54C16.6244 107.627 16.3773 107.698 16.0983 107.75Z" fill="black"/>
<path d="M20.2943 98.5179C20.4708 97.9503 20.721 97.4473 21.0482 97.0056C21.3722 96.5638 21.7475 96.1866 22.171 95.877C22.5944 95.5675 23.05 95.3321 23.544 95.1741C24.0348 95.0161 24.548 94.9355 25.0741 94.9355C25.9178 94.9355 26.6236 95.087 27.185 95.3869C27.7496 95.6868 28.1955 96.0866 28.5323 96.5799C28.8659 97.0765 29.1033 97.6311 29.2444 98.2502C29.3856 98.8693 29.4562 99.4981 29.4562 100.133V107.508H28.8755V100.188C28.8755 99.6948 28.8242 99.1627 28.7183 98.5952C28.6125 98.031 28.4136 97.5183 28.1249 97.0572C27.833 96.5961 27.4416 96.2124 26.9508 95.9028C26.4568 95.5933 25.8344 95.4385 25.0774 95.4385C24.4069 95.4385 23.7781 95.5739 23.1911 95.848C22.6008 96.1221 22.0908 96.5155 21.6609 97.0281C21.2311 97.5408 20.8878 98.1632 20.6312 98.8983C20.3745 99.6335 20.2494 100.469 20.2494 101.404V107.504H19.6592V87.4579H20.2398V98.5211H20.2943V98.5179Z" fill="black"/>
<path d="M32.0898 101.278C32.0898 102.02 32.1989 102.755 32.4203 103.48C32.6384 104.206 32.9752 104.857 33.4243 105.431C33.8734 106.005 34.4412 106.469 35.1277 106.824C35.8142 107.179 36.6226 107.356 37.5561 107.356C38.5057 107.356 39.3494 107.166 40.0904 106.785C40.8314 106.405 41.473 105.854 42.0184 105.128L42.4418 105.499C41.8419 106.276 41.1426 106.869 40.3438 107.276C39.5418 107.682 38.6148 107.885 37.5593 107.885C36.6611 107.885 35.8431 107.72 35.1053 107.395C34.3675 107.069 33.7291 106.611 33.1934 106.028C32.6576 105.444 32.2438 104.744 31.9519 103.932C31.66 103.119 31.5156 102.232 31.5156 101.278C31.5156 100.359 31.6664 99.511 31.9647 98.7307C32.2631 97.9536 32.6737 97.2797 33.1934 96.7154C33.7131 96.1479 34.3258 95.7126 35.0315 95.403C35.7372 95.0935 36.4943 94.9387 37.3059 94.9387C38.2587 94.9387 39.0863 95.1064 39.7921 95.4417C40.4978 95.7771 41.0848 96.2188 41.55 96.767C42.0184 97.3151 42.3648 97.9374 42.5958 98.6372C42.8235 99.3369 42.939 100.046 42.939 100.772V101.275H32.0898V101.278ZM42.3552 100.775C42.3359 99.9785 42.2012 99.253 41.9446 98.5985C41.6879 97.9439 41.3415 97.3828 40.902 96.9153C40.4625 96.4477 39.9332 96.0834 39.3173 95.8286C38.7014 95.5739 38.0149 95.4449 37.2578 95.4449C36.3435 95.4449 35.5608 95.6352 34.9096 96.0157C34.2584 96.3962 33.7259 96.8637 33.3121 97.4215C32.8982 97.9794 32.5967 98.563 32.401 99.1724C32.2085 99.7818 32.1091 100.317 32.1091 100.778H42.3552V100.775Z" fill="black"/>
<path d="M127.875 109.662C128.42 110.281 129.104 110.777 129.922 111.148C130.74 111.519 131.58 111.706 132.443 111.706C133.271 111.706 133.964 111.587 134.528 111.348C135.09 111.109 135.545 110.78 135.888 110.368C136.232 109.952 136.479 109.462 136.626 108.894C136.777 108.327 136.851 107.717 136.851 107.063V105.444H136.799C136.341 106.15 135.718 106.692 134.926 107.063C134.134 107.433 133.29 107.62 132.392 107.62C131.442 107.62 130.576 107.453 129.793 107.117C129.011 106.782 128.347 106.321 127.801 105.737C127.256 105.154 126.832 104.47 126.534 103.68C126.236 102.893 126.085 102.049 126.085 101.146C126.085 100.243 126.233 99.3949 126.534 98.5984C126.832 97.802 127.256 97.1087 127.801 96.5154C128.347 95.9221 129.007 95.4546 129.78 95.1095C130.554 94.7645 131.417 94.5936 132.366 94.5936C133.264 94.5936 134.121 94.7871 134.939 95.1773C135.757 95.5674 136.405 96.1575 136.88 96.9539H136.931V94.9386H139.334V106.876C139.334 107.795 139.218 108.675 138.99 109.516C138.763 110.355 138.375 111.1 137.829 111.745C137.284 112.389 136.572 112.909 135.693 113.296C134.814 113.686 133.723 113.879 132.421 113.879C131.33 113.879 130.236 113.679 129.136 113.283C128.035 112.883 127.089 112.322 126.3 111.596L127.875 109.662ZM128.613 101.091C128.613 101.675 128.706 102.232 128.892 102.761C129.078 103.293 129.351 103.761 129.713 104.167C130.076 104.573 130.512 104.902 131.025 105.147C131.538 105.396 132.119 105.518 132.773 105.518C133.409 105.518 133.992 105.402 134.522 105.173C135.051 104.944 135.5 104.628 135.872 104.232C136.241 103.835 136.53 103.364 136.732 102.826C136.934 102.287 137.037 101.707 137.037 101.088C137.037 100.488 136.934 99.9205 136.732 99.3884C136.53 98.8596 136.238 98.3888 135.859 97.9825C135.481 97.5763 135.029 97.2538 134.509 97.0152C133.989 96.7766 133.409 96.6573 132.773 96.6573C132.119 96.6573 131.538 96.7766 131.025 97.0152C130.512 97.2538 130.076 97.573 129.713 97.9696C129.351 98.3663 129.078 98.837 128.892 99.3755C128.706 99.9205 128.613 100.491 128.613 101.091Z" fill="black"/>
<path d="M141.438 96.3445C141.418 95.8157 141.393 95.3449 141.357 94.9386H143.706C143.741 95.2579 143.767 95.6255 143.786 96.0382C143.802 96.4541 143.811 96.7959 143.811 97.0603H143.892C144.245 96.3187 144.758 95.719 145.435 95.2708C146.112 94.8193 146.872 94.5936 147.719 94.5936C148.107 94.5936 148.431 94.6291 148.694 94.7L148.588 97.0088C148.235 96.9217 147.857 96.8766 147.452 96.8766C146.853 96.8766 146.336 96.9862 145.897 97.2087C145.457 97.4312 145.091 97.7246 144.803 98.0986C144.511 98.4694 144.296 98.8983 144.155 99.3852C144.014 99.8721 143.943 100.382 143.943 100.91V107.514H141.463V97.6472C141.463 97.3086 141.457 96.8733 141.438 96.3445Z" fill="black"/>
<path d="M162.154 101.197C162.154 102.171 161.984 103.064 161.641 103.877C161.298 104.689 160.823 105.392 160.217 105.986C159.611 106.579 158.892 107.037 158.068 107.366C157.24 107.691 156.351 107.856 155.402 107.856C154.452 107.856 153.564 107.691 152.736 107.366C151.908 107.04 151.196 106.579 150.6 105.986C150 105.392 149.531 104.689 149.188 103.877C148.845 103.064 148.675 102.171 148.675 101.197C148.675 100.224 148.845 99.3368 149.188 98.5307C149.531 97.7278 150.003 97.0313 150.6 96.4477C151.196 95.8641 151.912 95.4094 152.736 95.0805C153.564 94.7548 154.452 94.5904 155.402 94.5904C156.351 94.5904 157.24 94.7548 158.068 95.0805C158.895 95.4094 159.611 95.8641 160.217 96.4477C160.823 97.0313 161.298 97.7246 161.641 98.5307C161.984 99.3368 162.154 100.227 162.154 101.197ZM159.569 101.21C159.569 100.61 159.476 100.037 159.29 99.4916C159.104 98.9467 158.834 98.463 158.481 98.0503C158.129 97.6343 157.692 97.3054 157.173 97.0571C156.653 96.8088 156.056 96.6863 155.386 96.6863C154.715 96.6863 154.119 96.8088 153.599 97.0571C153.079 97.3054 152.643 97.6343 152.287 98.0503C151.934 98.463 151.665 98.9467 151.479 99.4916C151.292 100.037 151.199 100.61 151.199 101.21C151.199 101.81 151.292 102.384 151.479 102.929C151.665 103.474 151.934 103.961 152.287 104.383C152.64 104.806 153.076 105.141 153.599 105.389C154.119 105.637 154.715 105.76 155.386 105.76C156.056 105.76 156.653 105.637 157.173 105.389C157.692 105.141 158.129 104.809 158.481 104.383C158.834 103.961 159.104 103.474 159.29 102.929C159.476 102.384 159.569 101.81 159.569 101.21Z" fill="black"/>
<path d="M172.288 107.511C172.253 107.192 172.227 106.834 172.208 106.437C172.188 106.037 172.182 105.708 172.182 105.441H172.131C171.813 106.115 171.281 106.682 170.533 107.153C169.786 107.62 168.955 107.856 168.041 107.856C167.232 107.856 166.533 107.724 165.943 107.459C165.352 107.195 164.868 106.827 164.493 106.36C164.114 105.892 163.832 105.347 163.649 104.728C163.463 104.109 163.373 103.445 163.373 102.739V94.9386H165.853V101.887C165.853 102.4 165.891 102.89 165.971 103.361C166.052 103.828 166.196 104.241 166.408 104.593C166.619 104.947 166.908 105.228 167.277 105.441C167.646 105.654 168.121 105.76 168.701 105.76C169.705 105.76 170.514 105.383 171.13 104.631C171.746 103.88 172.054 102.877 172.054 101.62V94.9386H174.533V104.806C174.533 105.141 174.543 105.576 174.559 106.105C174.575 106.634 174.604 107.105 174.639 107.511H172.288Z" fill="black"/>
<path d="M178.676 113.879H176.196V94.9386H178.625V96.9023H178.705C179.109 96.2316 179.699 95.677 180.482 95.245C181.265 94.8129 182.173 94.5968 183.206 94.5968C184.136 94.5968 184.983 94.7645 185.746 95.0998C186.51 95.4352 187.167 95.906 187.722 96.5057C188.274 97.1087 188.701 97.8116 188.999 98.6145C189.297 99.4206 189.448 100.282 189.448 101.201C189.448 102.12 189.301 102.987 188.999 103.799C188.698 104.612 188.281 105.321 187.735 105.921C187.19 106.524 186.532 106.995 185.762 107.34C184.989 107.685 184.12 107.856 183.157 107.856C182.262 107.856 181.419 107.662 180.63 107.272C179.84 106.882 179.215 106.334 178.759 105.628H178.679V113.879H178.676ZM186.911 101.197C186.911 100.614 186.821 100.046 186.648 99.498C186.471 98.9499 186.208 98.463 185.855 98.0406C185.502 97.6149 185.066 97.2796 184.55 97.0313C184.03 96.783 183.427 96.6605 182.74 96.6605C182.108 96.6605 181.531 96.783 181.011 97.0313C180.492 97.2796 180.049 97.6149 179.68 98.0406C179.311 98.4662 179.026 98.9499 178.824 99.498C178.621 100.046 178.519 100.62 178.519 101.223C178.519 101.826 178.621 102.4 178.824 102.948C179.026 103.496 179.311 103.98 179.68 104.393C180.049 104.809 180.495 105.141 181.011 105.389C181.531 105.637 182.105 105.76 182.74 105.76C183.427 105.76 184.03 105.631 184.55 105.376C185.069 105.122 185.502 104.78 185.855 104.354C186.208 103.928 186.471 103.445 186.648 102.897C186.821 102.348 186.911 101.781 186.911 101.197Z" fill="black"/>
</svg>
