<svg width="291" height="292" viewBox="0 0 291 292" fill="none" xmlns="http://www.w3.org/2000/svg">
<path d="M134.201 8.11874C140.601 -2.08788 155.56 -1.82678 161.6 8.59699L204.891 83.3051C206.196 85.5566 208.03 87.4559 210.235 88.8383L283.386 134.711C293.593 141.111 293.332 156.069 282.908 162.11L208.2 205.401C205.949 206.706 204.049 208.54 202.667 210.744L156.795 283.896C150.394 294.103 135.436 293.842 129.396 283.418L86.1042 208.71C84.7995 206.458 82.9654 204.559 80.7608 203.176L7.60911 157.304C-2.59751 150.904 -2.33642 135.946 8.08735 129.905L82.7955 86.6139C85.0469 85.3092 86.9462 83.4751 88.3287 81.2705L134.201 8.11874Z" fill="#FFD489"/>
<path d="M123.631 251.999L125.542 250.892L123.857 247.985L131.637 243.477L130.386 241.317L122.606 245.825L120.921 242.918L119.011 244.025L123.631 251.999Z" fill="#07503E"/>
<path d="M118.933 239.77C118.521 239.06 117.773 238.733 117.022 239.169C116.271 239.605 116.158 240.434 116.57 241.143C116.99 241.866 117.766 242.177 118.517 241.741C119.267 241.305 119.353 240.493 118.933 239.77ZM120.137 240.465L127.353 236.272L126.165 234.228L118.949 238.421L120.137 240.465Z" fill="#07503E"/>
<path d="M113.032 228.689C113.558 229.593 114.319 230.136 115.348 230.114C114.896 230.935 114.907 231.915 115.408 232.777C115.86 233.555 116.537 234.017 117.487 233.986L116.652 234.471L117.84 236.515L125.056 232.322L123.868 230.278L119.544 232.791C118.696 233.283 117.947 233.05 117.551 232.368C117.236 231.826 117.424 231.159 118.217 230.698L122.624 228.137L121.437 226.093L117.113 228.606C116.265 229.099 115.515 228.865 115.119 228.183C114.804 227.641 114.993 226.974 115.785 226.513L120.192 223.952L119.005 221.909L114.18 224.712C112.623 225.617 112.208 227.271 113.032 228.689Z" fill="#07503E"/>
<path d="M113.787 216.464C114.264 217.285 114.128 218.107 113.053 218.881L110.201 213.973C110.054 214.04 109.873 214.145 109.734 214.226C107.482 215.535 106.755 217.836 107.942 219.879C109.162 221.979 111.567 222.534 113.806 221.233C116.086 219.908 116.737 217.54 115.469 215.357C114.58 213.828 113.044 213.009 111.125 213.418L111.515 215.498C112.634 215.312 113.319 215.658 113.787 216.464ZM109.569 218.934C109.173 218.253 109.271 217.526 110.034 216.823L111.658 219.617C110.691 219.937 110.013 219.699 109.569 218.934Z" fill="#07503E"/>
<path d="M100.66 206.599L101.567 208.163L99.1855 209.543L101.439 210.974L102.754 210.212L103.508 211.513L105.1 210.591L104.346 209.289L107.281 207.589C108.942 206.626 109.385 205.093 108.447 203.474L107.845 202.435L106.101 203.446L106.55 204.221C106.855 204.747 106.675 205.203 106.011 205.588L103.159 207.24L102.252 205.676L100.66 206.599Z" fill="#07503E"/>
<path d="M105.071 197.229C103.812 195.056 101.339 194.362 99.1097 195.654C96.8809 196.945 96.2529 199.436 97.5123 201.609C98.7637 203.769 101.237 204.463 103.466 203.171C105.694 201.88 106.322 199.389 105.071 197.229ZM103.271 198.272C103.817 199.214 103.52 200.329 102.246 201.067C100.973 201.805 99.8713 201.5 99.3258 200.558C98.7723 199.603 99.0474 198.482 100.321 197.744C101.595 197.006 102.718 197.317 103.271 198.272Z" fill="#07503E"/>
<path d="M93.4672 184.947C91.8472 183.929 89.9553 183.917 88.4499 185.345L89.8394 187.092C90.7722 186.273 91.5377 186.203 92.3545 186.717C93.144 187.213 93.494 188.288 92.6552 189.622C91.8164 190.956 90.6962 191.107 89.9067 190.61C89.0899 190.097 88.8208 189.377 89.1547 188.181L86.9777 187.686C86.3435 189.661 87.1741 191.361 88.794 192.38C90.8359 193.664 93.3207 193.156 94.7243 190.923C96.128 188.691 95.5091 186.231 93.4672 184.947Z" fill="#07503E"/>
<path d="M79.5764 186.445C80.3491 186.93 81.2003 187.048 82.0659 186.571L80.0004 189.865L81.9931 191.114L87.9431 181.626L85.9505 180.376L83.3664 184.497C82.8054 185.392 81.9793 185.535 81.2608 185.084C80.678 184.719 80.4891 183.996 80.9991 183.182L83.6596 178.94L81.6669 177.69L78.7854 182.285C77.7909 183.871 78.1802 185.57 79.5764 186.445Z" fill="#07503E"/>
<path d="M71.5624 181.576C72.9645 182.458 74.5677 182.687 76.0658 181.483L74.8587 179.717C74.1892 180.208 73.4731 180.29 72.7652 179.844C71.8804 179.288 71.7237 178.601 72.2202 177.811L72.5796 177.24C72.7433 177.855 73.2003 178.428 73.9354 178.89C75.7459 180.028 77.3675 179.775 78.1891 178.468C79.045 177.107 78.5905 175.625 76.9025 174.563C76.0041 173.998 75.1165 173.839 74.3214 174.137L74.7494 173.456L72.898 172.292L70.0993 176.744C68.9096 178.636 69.8063 180.472 71.5624 181.576ZM75.3504 175.582C76.1264 176.07 76.4417 176.686 76.1165 177.203C75.7913 177.72 75.0993 177.703 74.3234 177.215C73.5474 176.727 73.2321 176.111 73.5573 175.594C73.8825 175.077 74.5745 175.094 75.3504 175.582Z" fill="#07503E"/>
<path d="M62.1194 175.506C62.892 175.99 63.7433 176.109 64.6089 175.632L64.0819 176.472L66.0746 177.722L70.4861 170.686L68.4934 169.437L65.9094 173.558C65.3484 174.452 64.5223 174.595 63.8038 174.145C63.2209 173.779 63.032 173.057 63.542 172.243L66.2026 168L64.2099 166.751L61.3284 171.346C60.3339 172.932 60.7232 174.63 62.1194 175.506Z" fill="#07503E"/>
<path d="M60.1428 160.503C57.5266 158.863 55.8269 159.043 54.9854 160.385C54.1864 161.66 54.8032 163.236 56.9991 164.613L57.4058 164.868C58.07 165.285 59.2257 165.972 58.9707 166.378C58.6817 166.839 57.799 166.229 57.067 165.77C55.115 164.546 53.28 164.491 52.4725 165.778C52.124 166.334 52.1029 166.85 52.3361 167.411C51.8157 167.217 51.2919 167.059 50.8103 166.984L50.4582 168.84C51.6639 168.935 52.8161 169.658 53.9819 170.389C55.839 171.553 57.7555 171.509 58.699 170.004C59.158 169.272 59.1302 168.593 58.8175 167.887C59.7482 168.15 60.5422 167.968 61.0012 167.236C61.4177 166.572 61.2915 165.869 60.8651 165.224C61.7705 165.377 62.4662 165.171 62.8657 164.534C63.3927 163.693 62.9217 162.246 60.1428 160.503ZM55.9964 167.176C56.8504 167.712 57.0531 168.292 56.7386 168.793C56.4241 169.295 55.7964 169.392 54.9424 168.857C54.102 168.33 53.9434 167.739 54.2579 167.238C54.5724 166.736 55.156 166.649 55.9964 167.176ZM59.2639 161.935C60.4432 162.675 60.741 163.164 60.4945 163.557C60.248 163.95 59.6782 163.895 58.4989 163.155C57.3195 162.416 57.0353 161.935 57.2818 161.542C57.5283 161.149 58.0845 161.196 59.2639 161.935Z" fill="#07503E"/>
<path d="M48.753 159.177C49.5527 159.678 49.8144 160.465 49.2259 161.645L44.4408 158.644C44.3423 158.771 44.2318 158.948 44.1468 159.083C42.7698 161.279 43.1954 163.642 45.188 164.892C47.2349 166.175 49.6102 165.55 50.9787 163.367C52.3727 161.144 51.8488 158.757 49.7206 157.423C48.2295 156.488 46.4979 156.478 44.9968 157.728L46.3036 159.378C47.2035 158.696 47.9667 158.684 48.753 159.177ZM46.1825 163.306C45.5183 162.889 45.2683 162.204 45.614 161.231L48.3387 162.939C47.6354 163.669 46.9281 163.773 46.1825 163.306Z" fill="#07503E"/>
<path d="M40.6324 122.791L41.7472 124.71L44.6668 123.013L49.207 130.827L51.3759 129.567L46.8357 121.753L49.7554 120.057L48.6405 118.138L40.6324 122.791Z" fill="#07503E"/>
<path d="M52.935 118.226C53.644 117.814 53.9717 117.066 53.5355 116.315C53.0992 115.564 52.2707 115.45 51.5616 115.862C50.8387 116.283 50.5271 117.059 50.9634 117.809C51.3996 118.56 52.212 118.646 52.935 118.226ZM52.2396 119.43L56.4324 126.645L58.4762 125.458L54.2834 118.242L52.2396 119.43Z" fill="#07503E"/>
<path d="M64.0811 112.46C63.1813 112.982 62.6401 113.739 62.6601 114.763C61.8437 114.312 60.8693 114.321 60.011 114.819C59.2358 115.268 58.7754 115.942 58.8049 116.886L58.3236 116.055L56.2886 117.235L60.4519 124.42L62.4869 123.24L59.9922 118.935C59.5028 118.09 59.7365 117.345 60.4148 116.952C60.9547 116.639 61.6187 116.827 62.076 117.617L64.6189 122.005L66.6539 120.826L64.1592 116.52C63.6698 115.676 63.9035 114.93 64.5818 114.537C65.1217 114.224 65.7857 114.413 66.243 115.202L68.7859 119.59L70.8209 118.411L68.0374 113.607C67.1389 112.057 65.4932 111.642 64.0811 112.46Z" fill="#07503E"/>
<path d="M76.2932 113.172C75.4765 113.645 74.658 113.509 73.8895 112.438L78.7763 109.606C78.71 109.46 78.6057 109.28 78.5254 109.142C77.2259 106.899 74.9373 106.172 72.9022 107.352C70.8118 108.563 70.2567 110.956 71.5482 113.185C72.8637 115.455 75.2194 116.106 77.3929 114.846C78.9157 113.964 79.7321 112.437 79.3276 110.526L77.258 110.912C77.4414 112.026 77.0962 112.707 76.2932 113.172ZM73.8408 108.971C74.5191 108.578 75.2421 108.677 75.9413 109.437L73.1587 111.049C72.8413 110.087 73.0794 109.413 73.8408 108.971Z" fill="#07503E"/>
<path d="M86.1188 99.952L84.5545 100.858L83.1747 98.4773L81.7435 100.73L82.5056 102.046L81.2043 102.8L82.1268 104.392L83.4281 103.638L85.1287 106.573C86.0913 108.234 87.6241 108.677 89.2438 107.739L90.2821 107.137L89.2714 105.393L88.4961 105.842C87.9701 106.147 87.5145 105.967 87.1295 105.302L85.477 102.45L87.0413 101.544L86.1188 99.952Z" fill="#07503E"/>
<path d="M95.4994 104.351C97.6729 103.092 98.3665 100.619 97.075 98.39C95.7834 96.1612 93.293 95.5331 91.1195 96.7926C88.9599 98.044 88.2663 100.517 89.5578 102.746C90.8493 104.975 93.3397 105.603 95.4994 104.351ZM94.4565 102.552C93.5152 103.097 92.4 102.8 91.662 101.527C90.924 100.253 91.229 99.1516 92.1703 98.6061C93.1256 98.0526 94.2465 98.3277 94.9845 99.6013C95.7225 100.875 95.4118 101.998 94.4565 102.552Z" fill="#07503E"/>
<path d="M107.24 92.2054C108.252 90.5923 108.261 88.7097 106.839 87.2135L105.102 88.5982C105.918 89.5254 105.988 90.287 105.478 91.1004C104.985 91.8866 103.916 92.2361 102.588 91.4031C101.259 90.5701 101.108 89.4556 101.601 88.6694C102.111 87.856 102.827 87.5874 104.017 87.9182L104.507 85.7515C102.541 85.1227 100.851 85.9513 99.839 87.5644C98.564 89.5977 99.0726 92.0695 101.296 93.4635C103.519 94.8575 105.965 94.2387 107.24 92.2054Z" fill="#07503E"/>
<path d="M105.683 78.2485C105.198 79.0211 105.08 79.8723 105.557 80.738L102.263 78.6725L101.014 80.6652L110.502 86.6152L111.752 84.6225L107.631 82.0385C106.736 81.4775 106.594 80.6513 107.044 79.9329C107.41 79.35 108.132 79.1611 108.946 79.6711L113.189 82.3316L114.438 80.339L109.843 77.4575C108.257 76.463 106.558 76.8523 105.683 78.2485Z" fill="#07503E"/>
<path d="M110.63 70.3451C109.754 71.7413 109.528 73.3369 110.729 74.826L112.484 73.6228C111.995 72.9572 111.913 72.2448 112.355 71.5399C112.907 70.6588 113.591 70.5021 114.377 70.9951L114.947 71.3521C114.334 71.5157 113.765 71.9711 113.306 72.7031C112.176 74.5059 112.429 76.1192 113.731 76.9352C115.086 77.7852 116.561 77.3312 117.615 75.6503C118.176 74.7556 118.333 73.8722 118.036 73.0815L118.714 73.5065L119.87 71.6629L115.437 68.8834C113.553 67.7019 111.726 68.5964 110.63 70.3451ZM116.599 74.1071C116.115 74.8798 115.502 75.1943 114.987 74.8713C114.472 74.5483 114.488 73.8598 114.973 73.0871C115.457 72.3145 116.07 71.9999 116.585 72.3229C117.1 72.6459 117.084 73.3345 116.599 74.1071Z" fill="#07503E"/>
<path d="M116.613 60.8036C116.128 61.5762 116.01 62.4275 116.487 63.2931L115.646 62.7661L114.397 64.7588L121.432 69.1703L122.682 67.1776L118.561 64.5936C117.666 64.0326 117.523 63.2065 117.974 62.488C118.339 61.9051 119.062 61.7163 119.875 62.2263L124.118 64.8868L125.368 62.8941L120.772 60.0126C119.186 59.0181 117.488 59.4074 116.613 60.8036Z" fill="#07503E"/>
<path d="M131.615 58.813C133.256 56.1968 133.075 54.4971 131.733 53.6556C130.459 52.8566 128.882 53.4733 127.505 55.6693L127.25 56.076C126.834 56.7402 126.147 57.8958 125.74 57.6408C125.279 57.3518 125.889 56.4691 126.348 55.7371C127.572 53.7851 127.628 51.9502 126.34 51.1427C125.784 50.7942 125.269 50.773 124.707 51.0063C124.901 50.4859 125.059 49.962 125.135 49.4805L123.278 49.1284C123.183 50.3341 122.461 51.4863 121.73 52.6521C120.565 54.5092 120.61 56.4257 122.114 57.3692C122.846 57.8282 123.525 57.8004 124.231 57.4877C123.968 58.4184 124.15 59.2124 124.882 59.6714C125.547 60.0879 126.249 59.9617 126.894 59.5353C126.742 60.4407 126.948 61.1364 127.585 61.5359C128.425 62.0629 129.873 61.5918 131.615 58.813ZM124.942 54.6666C124.407 55.5206 123.826 55.7232 123.325 55.4087C122.823 55.0942 122.726 54.4666 123.261 53.6126C123.788 52.7721 124.379 52.6136 124.88 52.9281C125.382 53.2426 125.469 53.8261 124.942 54.6666ZM130.183 57.934C129.444 59.1133 128.955 59.4111 128.562 59.1646C128.169 58.9181 128.224 58.3483 128.963 57.169C129.703 55.9897 130.183 55.7055 130.576 55.952C130.969 56.1985 130.923 56.7547 130.183 57.934Z" fill="#07503E"/>
<path d="M132.951 47.4492C132.45 48.249 131.662 48.5107 130.483 47.9222L133.483 43.1371C133.356 43.0385 133.18 42.928 133.045 42.843C130.849 41.466 128.485 41.8916 127.236 43.8843C125.952 45.9312 126.578 48.3065 128.761 49.675C130.984 51.069 133.371 50.5451 134.705 48.4169C135.64 46.9258 135.65 45.1942 134.4 43.6931L132.75 44.9999C133.432 45.8998 133.444 46.663 132.951 47.4492ZM128.822 44.8788C129.238 44.2146 129.924 43.9646 130.897 44.3103L129.188 47.035C128.458 46.3317 128.354 45.6243 128.822 44.8788Z" fill="#07503E"/>
<path d="M248.025 169.756L246.918 167.846L244.011 169.53L239.503 161.75L237.343 163.001L241.851 170.781L238.944 172.466L240.051 174.377L248.025 169.756Z" fill="#07503E"/>
<path d="M235.721 174.334C235.015 174.744 234.688 175.488 235.121 176.235C235.555 176.983 236.379 177.097 237.085 176.688C237.805 176.271 238.116 175.499 237.682 174.751C237.249 174.004 236.441 173.917 235.721 174.334ZM236.415 173.137L232.251 165.953L230.216 167.132L234.379 174.317L236.415 173.137Z" fill="#07503E"/>
<path d="M224.712 180.352C225.616 179.827 226.159 179.065 226.137 178.036C226.958 178.489 227.938 178.478 228.8 177.977C229.578 177.525 230.04 176.847 230.009 175.898L230.494 176.732L232.538 175.545L228.345 168.329L226.301 169.516L228.814 173.84C229.306 174.688 229.072 175.438 228.391 175.834C227.849 176.149 227.181 175.96 226.721 175.168L224.16 170.761L222.116 171.948L224.629 176.272C225.122 177.12 224.888 177.87 224.206 178.266C223.664 178.581 222.997 178.392 222.536 177.6L219.975 173.192L217.932 174.38L220.735 179.204C221.64 180.761 223.294 181.176 224.712 180.352Z" fill="#07503E"/>
<path d="M212.437 179.507C213.254 179.034 214.072 179.17 214.841 180.241L209.954 183.072C210.021 183.219 210.125 183.399 210.205 183.537C211.505 185.78 213.793 186.506 215.828 185.327C217.919 184.116 218.474 181.723 217.182 179.494C215.867 177.224 213.511 176.573 211.338 177.833C209.815 178.715 208.998 180.242 209.403 182.153L211.472 181.767C211.289 180.653 211.634 179.972 212.437 179.507ZM214.89 183.708C214.211 184.101 213.488 184.002 212.789 183.242L215.572 181.63C215.889 182.592 215.651 183.266 214.89 183.708Z" fill="#07503E"/>
<path d="M202.669 192.857L204.24 191.944L205.63 194.335L207.065 192.069L206.298 190.748L207.605 189.989L206.676 188.39L205.369 189.149L203.656 186.202C202.687 184.533 201.146 184.09 199.519 185.035L198.476 185.641L199.494 187.393L200.273 186.94C200.801 186.633 201.259 186.813 201.647 187.481L203.311 190.345L201.74 191.258L202.669 192.857Z" fill="#07503E"/>
<path d="M193.219 188.339C191.046 189.598 190.352 192.071 191.644 194.3C192.935 196.529 195.426 197.157 197.599 195.898C199.759 194.646 200.452 192.173 199.161 189.944C197.869 187.715 195.379 187.087 193.219 188.339ZM194.262 190.139C195.204 189.593 196.319 189.89 197.057 191.164C197.795 192.437 197.49 193.539 196.548 194.084C195.593 194.638 194.472 194.362 193.734 193.089C192.996 191.815 193.307 190.692 194.262 190.139Z" fill="#07503E"/>
<path d="M182.373 201.377C181.361 202.99 181.352 204.873 182.774 206.369L184.511 204.984C183.695 204.057 183.625 203.295 184.135 202.482C184.628 201.696 185.697 201.346 187.026 202.179C188.354 203.012 188.505 204.127 188.012 204.913C187.502 205.726 186.786 205.995 185.596 205.664L185.106 207.831C187.072 208.46 188.763 207.631 189.774 206.018C191.049 203.985 190.541 201.513 188.318 200.119C186.095 198.725 183.648 199.344 182.373 201.377Z" fill="#07503E"/>
<path d="M183.93 215.334C184.415 214.561 184.533 213.71 184.056 212.844L187.35 214.91L188.6 212.917L179.111 206.967L177.861 208.96L181.982 211.544C182.877 212.105 183.02 212.931 182.569 213.649C182.204 214.232 181.481 214.421 180.668 213.911L176.425 211.251L175.175 213.243L179.771 216.125C181.357 217.119 183.055 216.73 183.93 215.334Z" fill="#07503E"/>
<path d="M178.972 223.249C179.847 221.852 180.073 220.257 178.873 218.768L177.118 219.971C177.607 220.637 177.689 221.349 177.247 222.054C176.694 222.935 176.011 223.092 175.224 222.599L174.655 222.242C175.268 222.078 175.836 221.623 176.295 220.891C177.426 219.088 177.172 217.475 175.871 216.659C174.515 215.809 173.041 216.263 171.987 217.943C171.426 218.838 171.268 219.722 171.566 220.512L170.888 220.087L169.732 221.931L174.165 224.71C176.049 225.892 177.875 224.997 178.972 223.249ZM173.002 219.487C173.487 218.714 174.099 218.399 174.614 218.722C175.13 219.045 175.113 219.734 174.629 220.507C174.144 221.279 173.532 221.594 173.016 221.271C172.501 220.948 172.518 220.259 173.002 219.487Z" fill="#07503E"/>
<path d="M173.081 232.88C173.568 232.104 173.688 231.249 173.21 230.379L174.054 230.909L175.312 228.908L168.247 224.466L166.989 226.467L171.127 229.069C172.026 229.634 172.168 230.464 171.715 231.186C171.347 231.771 170.62 231.96 169.803 231.447L165.543 228.768L164.284 230.769L168.899 233.67C170.492 234.672 172.199 234.282 173.081 232.88Z" fill="#07503E"/>
<path d="M158.035 234.838C156.383 237.465 156.562 239.173 157.91 240.02C159.19 240.825 160.775 240.207 162.161 238.002L162.418 237.594C162.837 236.926 163.529 235.766 163.938 236.023C164.4 236.314 163.786 237.2 163.324 237.935C162.091 239.895 162.034 241.739 163.327 242.553C163.885 242.903 164.403 242.925 164.968 242.692C164.772 243.214 164.612 243.741 164.536 244.224L166.401 244.581C166.498 243.369 167.226 242.212 167.962 241.041C169.135 239.176 169.092 237.25 167.581 236.3C166.846 235.838 166.164 235.865 165.454 236.178C165.719 235.243 165.537 234.445 164.802 233.983C164.135 233.564 163.429 233.69 162.78 234.117C162.934 233.208 162.728 232.508 162.089 232.106C161.245 231.575 159.789 232.047 158.035 234.838ZM164.736 239.013C165.275 238.155 165.858 237.952 166.362 238.269C166.866 238.586 166.963 239.216 166.424 240.074C165.893 240.918 165.3 241.077 164.796 240.76C164.292 240.443 164.205 239.857 164.736 239.013ZM159.473 235.723C160.217 234.538 160.709 234.24 161.104 234.488C161.499 234.736 161.442 235.309 160.698 236.493C159.953 237.677 159.47 237.962 159.075 237.714C158.681 237.466 158.728 236.907 159.473 235.723Z" fill="#07503E"/>
<path d="M156.65 246.168C157.152 245.368 157.939 245.106 159.119 245.695L156.118 250.48C156.245 250.578 156.421 250.689 156.557 250.774C158.753 252.151 161.116 251.725 162.366 249.732C163.649 247.686 163.023 245.31 160.841 243.942C158.618 242.548 156.231 243.072 154.896 245.2C153.961 246.691 153.952 248.423 155.201 249.924L156.852 248.617C156.17 247.717 156.157 246.954 156.65 246.168ZM160.78 248.738C160.363 249.402 159.678 249.652 158.705 249.306L160.413 246.582C161.143 247.285 161.247 247.992 160.78 248.738Z" fill="#07503E"/>
<path d="M166.97 38.6476L165.06 39.7546L166.745 42.6618L158.964 47.17L160.216 49.3297L167.996 44.8214L169.681 47.7286L171.591 46.6216L166.97 38.6476Z" fill="#07503E"/>
<path d="M171.536 50.939C171.945 51.6451 172.69 51.972 173.437 51.5388C174.185 51.1057 174.299 50.2814 173.89 49.5753C173.473 48.8555 172.701 48.5446 171.953 48.9777C171.206 49.4109 171.119 50.2192 171.536 50.939ZM170.339 50.2457L163.155 54.409L164.334 56.444L171.519 52.2807L170.339 50.2457Z" fill="#07503E"/>
<path d="M177.422 62.0116C176.901 61.1117 176.143 60.5705 175.12 60.5906C175.571 59.7742 175.561 58.7998 175.064 57.9415C174.615 57.1663 173.941 56.7059 172.997 56.7354L173.827 56.2541L172.648 54.2191L165.463 58.3824L166.642 60.4174L170.948 57.9226C171.792 57.4333 172.538 57.667 172.931 58.3453C173.244 58.8852 173.055 59.5492 172.266 60.0065L167.878 62.5494L169.057 64.5844L173.362 62.0896C174.207 61.6003 174.952 61.834 175.345 62.5123C175.658 63.0522 175.47 63.7162 174.681 64.1734L170.292 66.7163L171.471 68.7514L176.275 65.9678C177.826 65.0694 178.24 63.4237 177.422 62.0116Z" fill="#07503E"/>
<path d="M176.708 74.2207C176.234 73.4039 176.37 72.5854 177.441 71.8169L180.273 76.7038C180.419 76.6374 180.599 76.5331 180.738 76.4529C182.98 75.1534 183.707 72.8647 182.528 70.8297C181.316 68.7393 178.924 68.1841 176.695 69.4756C174.424 70.7912 173.774 73.1468 175.033 75.3203C175.916 76.8431 177.443 77.6595 179.353 77.2551L178.968 75.1855C177.854 75.3688 177.173 75.0236 176.708 74.2207ZM180.908 71.7682C181.301 72.4466 181.202 73.1696 180.442 73.8687L178.83 71.0861C179.793 70.7687 180.467 71.0068 180.908 71.7682Z" fill="#07503E"/>
<path d="M190.057 83.9916L189.145 82.4206L191.536 81.031L189.27 79.5954L187.949 80.3629L187.189 79.056L185.591 79.985L186.35 81.2919L183.403 83.0046C181.734 83.974 181.291 85.515 182.236 87.1417L182.842 88.1844L184.593 87.1665L184.141 86.3879C183.834 85.8596 184.014 85.4016 184.682 85.0138L187.546 83.3496L188.459 84.9206L190.057 83.9916Z" fill="#07503E"/>
<path d="M185.603 93.3751C186.872 95.5579 189.358 96.2519 191.596 94.9513C193.835 93.6506 194.463 91.147 193.194 88.9642C191.934 86.7953 189.448 86.1012 187.209 87.4019C184.971 88.7026 184.343 91.2062 185.603 93.3751ZM187.411 92.3249C186.861 91.3795 187.158 90.2584 188.437 89.5152C189.717 88.7719 190.824 89.0771 191.373 90.0225C191.93 90.9818 191.655 92.1087 190.376 92.8519C189.097 93.5951 187.968 93.2842 187.411 92.3249Z" fill="#07503E"/>
<path d="M196.783 106.042C198.396 107.053 200.279 107.063 201.775 105.64L200.39 103.903C199.463 104.719 198.702 104.789 197.888 104.279C197.102 103.786 196.753 102.717 197.586 101.389C198.419 100.06 199.533 99.9095 200.319 100.402C201.133 100.912 201.401 101.629 201.07 102.819L203.237 103.309C203.866 101.342 203.037 99.6518 201.424 98.6403C199.391 97.3653 196.919 97.8738 195.525 100.097C194.131 102.32 194.75 104.767 196.783 106.042Z" fill="#07503E"/>
<path d="M210.856 104.398C210.08 103.91 209.225 103.79 208.354 104.269L210.434 100.961L208.433 99.7025L202.442 109.231L204.443 110.49L207.045 106.351C207.61 105.453 208.44 105.31 209.161 105.764C209.747 106.132 209.936 106.858 209.422 107.675L206.743 111.936L208.744 113.194L211.646 108.579C212.647 106.987 212.258 105.28 210.856 104.398Z" fill="#07503E"/>
<path d="M218.657 109.445C217.261 108.569 215.665 108.343 214.176 109.543L215.379 111.299C216.045 110.81 216.757 110.728 217.462 111.17C218.343 111.722 218.5 112.406 218.007 113.192L217.65 113.761C217.487 113.149 217.031 112.58 216.299 112.121C214.496 110.99 212.883 111.244 212.067 112.546C211.217 113.901 211.671 115.376 213.352 116.43C214.247 116.991 215.13 117.148 215.921 116.851L215.496 117.528L217.339 118.684L220.119 114.252C221.3 112.368 220.406 110.541 218.657 109.445ZM214.895 115.414C214.122 114.93 213.808 114.317 214.131 113.802C214.454 113.287 215.142 113.303 215.915 113.788C216.688 114.272 217.002 114.885 216.679 115.4C216.356 115.915 215.668 115.899 214.895 115.414Z" fill="#07503E"/>
<path d="M228.297 115.337C227.521 114.849 226.666 114.729 225.796 115.208L226.326 114.364L224.325 113.105L219.883 120.17L221.884 121.429L224.486 117.29C225.051 116.392 225.881 116.249 226.603 116.703C227.188 117.071 227.377 117.797 226.864 118.614L224.185 122.875L226.186 124.133L229.087 119.518C230.089 117.926 229.699 116.219 228.297 115.337Z" fill="#07503E"/>
<path d="M230.245 130.379C232.872 132.031 234.58 131.852 235.427 130.504C236.232 129.224 235.614 127.639 233.409 126.253L233.001 125.996C232.333 125.577 231.173 124.885 231.43 124.476C231.721 124.014 232.607 124.628 233.342 125.09C235.302 126.323 237.146 126.38 237.96 125.087C238.31 124.529 238.332 124.011 238.099 123.446C238.621 123.642 239.148 123.802 239.631 123.878L239.988 122.013C238.776 121.916 237.619 121.188 236.448 120.452C234.583 119.28 232.657 119.322 231.707 120.833C231.245 121.568 231.272 122.25 231.585 122.96C230.65 122.695 229.852 122.877 229.39 123.612C228.971 124.279 229.097 124.985 229.524 125.634C228.615 125.48 227.915 125.686 227.513 126.326C226.982 127.17 227.454 128.625 230.245 130.379ZM234.42 123.678C233.562 123.139 233.359 122.556 233.676 122.052C233.993 121.548 234.623 121.451 235.481 121.99C236.325 122.521 236.484 123.115 236.167 123.618C235.85 124.122 235.264 124.209 234.42 123.678ZM231.13 128.941C229.945 128.197 229.647 127.705 229.895 127.31C230.143 126.916 230.716 126.972 231.9 127.716C233.084 128.461 233.369 128.944 233.121 129.339C232.873 129.733 232.314 129.686 231.13 128.941Z" fill="#07503E"/>
<path d="M241.552 131.754C240.752 131.252 240.49 130.465 241.079 129.285L245.864 132.286C245.962 132.159 246.073 131.982 246.158 131.847C247.535 129.651 247.109 127.288 245.117 126.038C243.07 124.755 240.694 125.38 239.326 127.563C237.932 129.786 238.456 132.173 240.584 133.507C242.075 134.442 243.807 134.452 245.308 133.202L244.001 131.552C243.101 132.234 242.338 132.247 241.552 131.754ZM244.122 127.624C244.786 128.041 245.036 128.726 244.691 129.699L241.966 127.991C242.669 127.261 243.377 127.157 244.122 127.624Z" fill="#07503E"/>
<path d="M145.26 165.372L145.922 127.439" stroke="#07503E" stroke-width="6"/>
<path d="M144.907 183.94L145.186 167.964C145.415 154.843 134.964 144.021 121.843 143.792V143.792L109.965 143.585" stroke="#07503E" stroke-width="6"/>
<path d="M95.994 143.152L117.172 131.413L116.75 155.623L95.994 143.152Z" fill="#07503E"/>
<path d="M146.24 107.863L157.979 129.042L133.768 128.619L146.24 107.863Z" fill="#07503E"/>
<path d="M144.909 183.94L145.188 167.964C145.417 154.843 156.239 144.392 169.36 144.621V144.621L181.238 144.829" stroke="#07503E" stroke-width="6"/>
<path d="M195.221 145.073L174.043 156.812L174.465 132.601L195.221 145.073Z" fill="#07503E"/>
<circle cx="28.4179" cy="143.887" r="4" transform="rotate(1 28.4179 143.887)" fill="#07503E"/>
<circle cx="261.539" cy="147.957" r="4" transform="rotate(1 261.539 147.957)" fill="#07503E"/>
<circle cx="147.165" cy="29.3639" r="4" transform="rotate(91 147.165 29.3639)" fill="#07503E"/>
<circle cx="143.099" cy="262.486" r="4" transform="rotate(91 143.099 262.486)" fill="#07503E"/>
</svg>
