<svg width="464" height="464" viewBox="0 0 464 464" fill="none" xmlns="http://www.w3.org/2000/svg">
<g clip-path="url(#clip0_486_16102)">
<path d="M328.637 272.235H327.294V249.178H328.637C336.527 249.178 341.333 252.729 341.333 261.084C341.333 268.914 335.814 272.227 328.637 272.227M327.694 230.54H305.676V290.07H333.051C350.483 290.07 362.946 278.852 362.946 261.174C362.946 239.3 347.642 230.54 327.692 230.54" fill="black"/>
<path d="M366.387 230.54V290.068H407.012V273.798H388.16V267.953H404.804V252.484H388.16V246.802H406.382V230.532L366.387 230.54Z" fill="black"/>
<path d="M280.494 263.532L262.256 230.54H241.516V290.055H262.246V258.785L280.483 290.055H301.144V230.54H280.483L280.494 263.532Z" fill="black"/>
<path d="M142.012 230.54L132.152 256.345L122.178 230.54H142.012ZM142.012 171L132.152 204.674L122.17 171H57V189.829H70.8759V230.54H93.2613V189.721H106.556L122.17 230.538H101.394L91.7738 290.055H112.674L115.755 257.442L125.858 290.055H138.479L148.569 257.442L151.495 290.055H172.398L162.625 230.538H142.012L164.877 171H142.012Z" fill="black"/>
<path d="M204.894 272.654C202.45 272.653 200.061 271.928 198.029 270.57C195.997 269.212 194.414 267.282 193.479 265.024C192.544 262.766 192.299 260.282 192.776 257.885C193.253 255.488 194.43 253.286 196.158 251.558C197.886 249.83 200.088 248.653 202.485 248.176C204.882 247.699 207.366 247.944 209.624 248.879C211.882 249.814 213.812 251.397 215.17 253.429C216.528 255.461 217.253 257.85 217.254 260.294C217.254 261.917 216.934 263.524 216.313 265.024C215.692 266.523 214.781 267.886 213.633 269.033C212.486 270.181 211.123 271.092 209.624 271.713C208.124 272.334 206.517 272.654 204.894 272.654ZM204.894 227.798C204.251 227.798 203.602 227.821 202.98 227.857C206.637 226.541 209.821 224.171 212.131 221.045C214.44 217.919 215.77 214.178 215.952 210.296C216.727 198.011 203.608 191.681 196.276 191.681C187.095 191.681 183.477 193.966 183.477 193.966L184.709 187.699H212.12V171H168.823L162.979 206.399C167.669 205.149 172.465 204.338 177.304 203.974C184.954 203.517 192.743 205.322 192.541 210.366C192.374 214.696 183.051 216.84 175.657 215.324C171.084 214.332 166.623 212.88 162.341 210.99L159.715 226.783C159.715 226.783 173.792 231.653 184.071 231.403C186.075 231.354 188.461 231.222 191.02 230.904C183.782 234.314 178.057 240.273 174.939 247.642C171.821 255.01 171.531 263.269 174.124 270.838C176.716 278.407 182.01 284.754 188.99 288.664C195.971 292.573 204.148 293.77 211.956 292.026C219.765 290.282 226.655 285.719 231.309 279.21C235.962 272.702 238.052 264.706 237.177 256.753C236.303 248.801 232.525 241.45 226.569 236.109C220.612 230.767 212.894 227.811 204.894 227.805" fill="black"/>
</g>
<defs>
<clipPath id="clip0_486_16102">
<rect width="350" height="121.792" fill="white" transform="translate(57 171)"/>
</clipPath>
</defs>
</svg>
