<?xml version="1.0" encoding="UTF-8"?>
<svg width="15px" height="15px" viewBox="0 0 15 15" version="1.1" xmlns="http://www.w3.org/2000/svg" xmlns:xlink="http://www.w3.org/1999/xlink">
    <!-- Generator: Sketch 54.1 (76490) - https://sketchapp.com -->
    <title>Shape</title>
    <desc>Created with Sketch.</desc>
    <g id="Symbols" stroke="none" stroke-width="1" fill="none" fill-rule="evenodd">
        <g id="Footer---Mobile" transform="translate(-87.000000, -371.000000)" fill="#B5BBB8" fill-rule="nonzero">
            <g id="Linked-in-icon">
                <g transform="translate(75.000000, 361.000000)">
                    <path d="M15.4166667,12.3333333 C15.4166667,13.1920417 14.7275417,13.8873333 13.875,13.8873333 C13.0224583,13.8873333 12.3333333,13.1935833 12.3333333,12.3333333 C12.3333333,11.474625 13.0224583,10.7793333 13.875,10.7793333 C14.7275417,10.7793333 15.4166667,11.4761667 15.4166667,12.3333333 L15.4166667,12.3333333 Z M15.4166667,15.4166667 L12.3333333,15.4166667 L12.3333333,24.6666667 L15.4166667,24.6666667 L15.4166667,15.4166667 Z M20.0416667,15.4166667 L16.9583333,15.4166667 L16.9583333,24.6666667 L20.0416667,24.6666667 L20.0416667,20.2559583 C20.0416667,17.6012083 23.1280833,17.3560833 23.1280833,20.2559583 L23.1280833,24.6666667 L26.2083333,24.6666667 L26.2083333,19.4882083 C26.2083333,14.425375 21.386,14.610375 20.0416667,17.1017083 L20.0416667,15.4166667 Z" id="Shape"></path>
                </g>
            </g>
        </g>
    </g>
</svg>