<?xml version="1.0" encoding="UTF-8"?>
<svg id="Layer_1" data-name="Layer 1" xmlns="http://www.w3.org/2000/svg" xmlns:xlink="http://www.w3.org/1999/xlink" viewBox="-10 -13 80 80">
  <path fill="#B5BBB8" d="m49.09,22.21s-.38-2.68-1.55-3.87c-1.48-1.55-3.14-1.56-3.91-1.65-5.45-.39-13.63-.39-13.63-.39h-.02s-8.18,0-13.63.39c-.76.09-2.42.1-3.9,1.65-1.17,1.18-1.55,3.87-1.55,3.87,0,0-.39,3.15-.39,6.31v2.95c0,3.15.39,6.31.39,6.31,0,0,.38,2.69,1.55,3.87,1.48,1.55,3.43,1.5,4.29,1.66,3.12.3,13.25.39,13.25.39,0,0,8.19-.01,13.64-.41.76-.09,2.42-.1,3.91-1.65,1.17-1.18,1.55-3.87,1.55-3.87,0,0,.39-3.15.39-6.31v-2.95c0-3.15-.39-6.31-.39-6.31m-23.11,12.85v-10.95s10.53,5.49,10.53,5.49l-10.53,5.45Z"/>
</svg>
